<?xml version="1.0" encoding="UTF-8"?>
<svg id="_レイヤー_2" data-name="レイヤー_2" xmlns="http://www.w3.org/2000/svg" viewBox="0 0 112.72 111.63">
  <defs>
    <style>
      .cls-1 {
        fill: #fcfaf5;
      }
    </style>
  </defs>
  <g id="_メインページ" data-name="メインページ">
    <g>
      <path class="cls-1" d="M50.92,111.63c-.19,0-.18-.19-.2-.28.97-.93,2.22-1.15,3.38-1.55.88-.3,1.67-.11,1.77,1.19-.19.25-.32.34-.49.54-1.46.1-2.87.1-4.47.1Z"/>
      <path class="cls-1" d="M.52,61.61c-.15.15-.33.15-.43.14-.09-2.67-.09-5.33-.09-8.19,0-.2.18-.21.28-.21,1.36,2.66.91,5.38.24,8.26Z"/>
      <path class="cls-1" d="M21.06,11.85c6.69-5.68,14.48-8.95,22.94-10.67,10.58-2.14,20.95-1.49,31.07,2.94-.16.79-.59,1.42-.22,2.24.45.98.06,2-.2,2.99.5,0,.79-.23,1.29-.24.24.05.33.09.52.25.52,1.62.84,3.17,2.09,4.46-.35,2.04-1.31,3.78-2.04,5.57-.59,1.47-2.17.54-3.36.2-1.25-.36-1.71-1.23-1.46-2.39.3-1.33,0-2.45-.69-3.58-.33-.53-.72-.84-1.31-.9-.53-.06-1.22-.34-1.48.33-.26.65.38.96.82,1.29.17.13.37.2.56.29.86.36,1.8.75,1.4,1.94-.43,1.26-1.54,1.59-2.72,1.43-.97-.13-1.85-.65-2.61-1.27-1.85-1.52-3.85-2.59-6.42-2.27,1.22,1.16,2.14,2.59,3.56,3.54.73.48,1.11,1.17.63,1.96-.54.87-.33,1.74-.3,2.79-1.38,2.24-1.98,2.46-4.12,1.53-.96-.42-1.89-.89-3.04-1.24-.8-.94-.17-1.5.35-2.04.82-.85.95-1.77.45-2.9-.89,2.59-3.16,4.12-6,4.05-.65-.01-1.19.09-1.78.41-1.49.8-3.68.5-4.76-.7-.91-1.01-1.31-1.48-2.68-.17-1.08,1.04-3.1,1.32-4.79,1.58-1.01.16-1.92.36-2.39,1.58-1.16.94-2.29,1.64-1.43,3.37.34.68-.4,1.27-1.09,1.51-1.18.42-2.39.89-3.47-.48-.28-.31-.39-.69-.89-.35-.42.52-.61,1.05-1.09,1.54-1.08.26-1.89-.27-2.72-.54-1.61-.54-2.37.06-2.68,1.59-.39,1.98-.67,4-2.28,5.48-.36.33-.68.7-1.31.88-1.88-.55-3.32.9-4.99.76-.31-.03-.44.3-.44.61,0,.4.24.64.61.75,1.61.46,1.29,1.51.85,2.65-1.35,3.49-3.68,4.3-6.73,2.17-.24-.39-.24-.68-.05-1.09.03-1.54-.05-2.91.88-4.19.36-.49-.1-1.31-.6-2.01-.53-1.49.77-2.36.88-3.71,0-1.62.81-2.3,2.2-2.41.94-.07,1.44-.41,1.04-1.47-.35-.93.1-1.73.48-2.58,1.31-2.91,3.6-4.83,6.22-6.46.72-.45,1.58-.7,1.33-2-.2-1.08.85-1.07,1.63-.97.98.13,1.96.24,2.83-.36.6-.41.96-.89.14-1.46-1.88-1.31-2.14-1.72-2.64-4.21Z"/>
      <path class="cls-1" d="M8.25,33.61c.34,1.43-1.21,2.17-1.12,3.67.62.93.03,1.38-.4,1.95-1.3,1.71-1.15,2.88.43,4.35-.16.34-.29.53-.44.86-.11.95-.89,1.57-.66,2.7,1.4-1.02,2.16-.66,2.64.97.28.95,1.64,1.19,2.17,2.27-.09-1.84.5-2.89,2.54-2.75,1.68-.47,2.02-1.93,2.75-3.07.45-.71.86-1.92,1.98-1.23,1.01.62,1.87,1.87,1.18,2.99-1.06,1.74-1.07,3.71-1.84,5.64-1.83.85-2.9,2.59-4.69,3.26-.35.13-.73.46-.59.75.69,1.39-.72,2.79.15,4.23.55.93.11,1.74-1.05,2.01-.48.11-1.21-.03-1.08.9.1.68.33,1.17,1.06,1.37.68.18,1.38.41,2.06.3,1.02-.16.32-1.18.7-1.7.08-.1.04-.31.13-.39,1.45-1.27,1.78-3.06,2.39-4.77.51-1.43,1.54-1.12,2.5-.03.44,1.81.62,3.47.29,5.22-.32,1.76.34,3.52.62,5.42-.48,1.63-1.43,1.81-2.48.84-.88-.82-1.48-.91-2.13.16-.11.18-.28.31-.46.41-.82.47-2.08.48-2.3,1.59-.25,1.29.56,2.38,1.16,3.47.3.55.55,1.12.96,1.77.21.25.33.39.55.64.33.39.57.68.93,1.04.57.66,1.21.56,1.84.57,1.19.03,1.94.72,2.36,1.76.25.62.17,1.25-.32,1.75-.55.56-1.12.41-1.69-.01-.44-.32-.88-.84-1.46-.36-.51.42.04.9.07,1.35.09,1.31-.37,2.23-1.64,2.84-2.49,1.2-2.35,1.24-1.89,3.81.38,2.07,1.48,2.9,3.43,3.65,1.74.66,2.73.44,4.01-.61.84-.69,1.89-.09,2.83.04.9.12,1.86.46,2.26-.78.35-1.1-.47-1.48-1.24-1.85-1.02-.5-1.89-1.2-2.61-2.07-.94-1.15-1.84-2.33-1.26-3.97.62-1.74,2.06-2.12,3.83-2.16,1.17,1.16,2.78,1.6,3.59,2.98.19.32.56.49.9.43,3.35-.59,5.98.87,8.19,3.09,2.51,2.52,5.56,2.03,8.61,2.03,1.7,0,3.44-.12,5.19.58.33,1.57-.28,2.51-1.64,3.02-.72.27-1.42.58-2.01,1.07-.91.75-1.69,1.53-.68,2.77.22.27.4.67.29.97-.64,1.67.47,2.75,1.27,4.11.02.24.02.34-.05.58-.39.52-.83.74-1.29.88-.68.21-1.37.9-2.09.15-.61-.63-1.03-1.31-.4-2.2.33-.47.2-1.01-.33-1.22-1.1-.45-2.07-.05-2.8.78-.63.71-1.85,1.33-.95,2.6.72,1.02,1.22,2.45,3.01,1.82.58-.21,1.1.07,1.09.96-.81,1.12-2.85.98-2.63,3.04-4.44-.22-8.27-2.04-12.04-4.02-2.28-1.2-4.45-2.58-6.78-3.97-.4-.49-.63-.93-.97-1.28-1.1-1.15-1.45-2.19.24-3.14.61-.34.79-.96.54-1.64-.15-.42-.45-.73-.91-.73-.45,0-.53.4-.58.74-.22,1.8-1.03,2.15-2.5,1.08-.73-.53-1.61-.33-2.57-.38-2.29-1.51-3.83-3.64-5.55-5.75-.32-1.14-.47-2.26-1.85-2.67-4.8-6.73-7.28-14.16-8.17-22.18-.18-1.59-.29-3.18-.46-4.96,0-2.86.02-5.53,0-8.4.08-2.75.27-5.3.84-7.98,1.18-.85,1.52-1.7.58-2.96.16-1.93.63-3.68,1.29-5.52.97-.45,2.1-.07,2.39-1.7.15-.83,1.54-1.47,2.74-1.78Z"/>
      <path class="cls-1" d="M42.04,111.02c-1.15-2.4.4-2.77,2.24-3.09.39.12,1.05-.07,1.27-.36.51-.67,1.37-1.11,2.01-.79,1.39.72,2.71.7,4.14.34.27-.07.58.38,1.09.17-.77-.97-1.72-1.29-2.89-1.27-1.1.02-1.9-.43-1.79-1.82.09-.11.09-.32.09-.43,1.19-.83,1.99-1.82,2.16-3.4.7-1.03.83-1.96.19-3.07-.05-.24-.06-.33-.02-.57.1-.22.17-.29.36-.44,1.04-.38,2.07-.11,3.06-.76.69-.25,1.38-.02,1.79-.7.22-.36.76-.61,1.09-.51,2.46.81,3.9-1.3,5.84-1.95,1.38-.47,1.88-.22,1.7,1.19-.15,1.18-.35,1.6,1.37,1.74,1.26.1,2.41.24,3.77-.12.56-.03.96.02,1.49.19,2.02,1.63,2.71,3.55,1.9,6.11.18-2.45,3.04-2.71,3.51-4.94.07-.23.11-.32.26-.5.54-.22.98-.31,1.41-.41-.44-.08-.82.14-1.37.13-.45-.33-.61-.69-.73-1.24.02-1.06.64-1.21,1.37-1.26.81-.06,1.62-.12,2.43-.71,1.94-.5,1.96-.48,1.52,1.54,2.86.27,3.73-2.51,5.59-3.76,3.07-2.06,2.59-5.64,4.75-7.96,1.26-1.36,1.92-3.3,2.31-5.26.25-1.27,1.19-1.94,2.64-.97.65.44,1.64-.64,2.48.33.51,2.56,1.78.33,2.73.63.44.46.38.98.59,1.41.87,1.81,1.28,1.94,3.08.96.43-.23.83-.49,1.44-.2-3.69,9.05-9.61,16.32-17.22,22.3-7.58,5.95-16.29,8.62-25.78,9.26-2.58.17-5.15.29-7.92.3-.58-1.48-1.61-1.18-2.42-.62-.81.55-1.6.75-2.7.71-3.01-.03-5.85-.09-8.84-.22Z"/>
      <path class="cls-1" d="M63.03,22.81c-.55-1.1-1.22-2.06.04-3.14.66-.57-.14-1.08-.72-1.37-1.43-.71-2.08-2.19-3.17-3.24-.6-.58-.67-1.34-.28-2.06.72-.45.59,2.52,1.75.37.2-.38.67.26,1.02.41,2.15.93,4.04,2.29,5.98,3.55.92.6,1.61.14,2.35-.12.47-.17.73-.67.69-1.19-.04-.48-.43-.74-.87-.75-.96-.01-1.5-.66-2.08-1.26-.33-.34-.79-.68-.42-1.25.27-.41.61-.76,1.15-.83,1.97-.24,4.28,2.25,3.95,4.26-.39,2.43.14,3.28,2.5,3.52,1.53.16,1.77-.98,1.8-2.21.02-.9-.98-2.39,1.21-2.16.35.04.45-.64.46-1.22.74-.79,1.42-.55,1.99.07.73.79.9.32,1.48-.3,1.73-1.86.85-4,1.06-6.14,3.19,1.29,5.87,3.31,8.51,5.61-.29,1.58.25,2.82.94,4.06,1.43,2.55,1.98,5.08.15,7.79-.83,1.23-1.67,1.94-3.16,1.89-.89-.03-1.82-.12-2.68.66-1.04.6-1.62-.1-2.29-.51-1.01-.63-1.99-.95-2.83.49-2.34.7-3.52-1.07-4.84-2.24-1.28-1.14-2.53-2.35-3.86-3.67-1.46-1.67-2.3-.57-3.19.63-1.34,1.71-2.39,2.01-3.94,1.02-.82-.52-1.6-.78-2.68-.64Z"/>
      <path class="cls-1" d="M86.41,27.92c-.14-1.18.47-1.31,1.36-1.42,1.38-.17,2.96.77,4.06-1.13,1.36-2.32,1.88-4.49.47-6.93-.62-1.07-1.2-2.17-1.66-3.32-.21-.53.25-1.04.72-1.57,6.17,5.31,12.08,10.83,15.97,18.26-.06.59-.34,1.08-.71,1.08-1.87,0-3.08,1.49-4.69,1.96-1.64.48-2.78,1.2-3.06,2.97-.07.42-.37.74-.9.99-1.36-.1-1.77-1.18-2.39-1.96-.55-.69-.8-1.49-2.02-1.4-1,.07-.85-.86-.66-1.55.15-.55.4-1.19-.4-1.35-1.8-.34-2.76-1.76-4.03-3-.33-.36-.52-.68-1.01-.85-.48-.18-.8-.34-1.08-.79Z"/>
      <path class="cls-1" d="M97.52,38.69c.99-2.65,2.65-4.38,5.48-4.8.61-2.3,3.04-.49,4.22-1.87,2.66,4.09,4.21,8.59,4.73,13.6-.43.59-.98.62-1.32.25-1.2-1.28-2.89-1.25-4.38-1.72-1.1-.35-1.86-.2-1.38,1.25.02.07.03.14.06.2.41.68-.63,1.7.24,2.09.98.44,1.3-.8,1.92-1.26,1.52-1.14,2.89-.93,5.06.95.15.69.2,1.27.23,2.02-.26.66-.49,1.15.07,1.75.42,1.65.23,3.2.17,4.93-2.12,1.03-2.54.87-3.11-1.08-.18-.62-.42-1.17-1.11-1.36-1.4,2.65-2.53,2.71-5.01.11-.09-.34-.54-.43-.25-.74-.21.1-.14.22.04.46,0,.44-.16.67-.56.9-.88.1-1.34-.32-1.8-1-.31-1.05.01-1.83.6-2.45.75-.8.6-1.61.6-2.62,0-3.12-1.31-4.89-4.2-6.09-2.19-.91-2.2-2.64-.29-3.53Z"/>
      <path class="cls-1" d="M102.71,54.34c.11-.35.22-.56.38-.87,1.06.16,1.62,1.1,2.6,1.53,1.44.64,1.76.02,1.85-1.13.03-.38-.36-.88.09-1.12.48-.26.96.14,1.31.43.47.4,1.26,1.02,1.17,1.37-.51,2.23,1.01,1.71,2.31,1.74.08,5.09-.78,10.06-2.32,15.06-.9.38-.98-.29-1.11-.76-.43-1.63-1.49-1.98-3.12-1.56-.81-.09-.8-1.03-1.5-1.12-.52.78-.49,1.71-.88,2.66-.22.4-.45.57-.9.62-.89-.43-1.7-.73-1.79-1.82-.06-.74-.6-.11-1.06-.13-.85.05-1.52-.19-1.54-.93-.03-1.65-.35-3.38.34-4.94.36-.81.79-1.35-.24-1.94-.26-.15-.18-.64-.05-1.13.17-.29.33-.41.65-.47.56.03.93.4,1.51.11,1.57-1.57,1.79-3.57,2.29-5.6Z"/>
      <path class="cls-1" d="M8.38,33.49c-.94.6-1.47,1.53-2.46,1.98-1.19.54.58,1.76-.39,2.58-.72-.16-1.04-1.27-2.17-1.07,1.97-7.78,6.36-14.22,11.65-20.11,1.72-1.91,3.63-3.64,5.89-5.12,1.56.14,1.28,1.02.91,1.93-.36.91.92,1.56.92,1.56,0,0,2.23.2,2.28,1.34.05,1.3-1.3,1.65-2.34,1.94-.57.16-1.25.01-1.86-.08-.46-.07-.99-.5-1.33.03-.39.59.23.74.61,1.05.58.48.02.66-.37.77-2.18.64-3.3,2.84-5.49,3.64-.72.26-1.28,2.14-2,3.21-.82,1.21-1.16,2.29-.31,3.63.43.69.2.93-.77,1.04-.96.12-2.78-.64-2.76,1.67Z"/>
      <path class="cls-1" d="M105.56,68.98c2.2-1.45,3.37-.76,4.3,2.39-.44,2.79-1.5,5.32-2.74,7.91-.71.03-1.11.38-1.55.74-.68.55-1.67,1.49-2.27.71-.67-.86-2.06-1.66-1.45-3.34-.67-.99-.05-1.66.38-2.49.2-.41.63-.68.36-1-.17-.2-.49.11-.89.2-1.05-.18-.98-.77-.67-1.39.28-.55.62-1.07,1.14-1.66.36-.17.59-.24.89-.41.68-.49,1.07.92,1.82,0,.28-.39.55-.65.55-1.17.02-.22.04-.31.13-.5Z"/>
      <path class="cls-1" d="M82.92,7.52c.26.99.29,1.93.62,2.74.47,1.16.08,3.19-.75,4.05-1.03,1.08-2.39.25-3.7-.34-.12-.05-.23-.01-.53-.02-1.92-.9-2.14-2.56-2.26-4.44.19-.38.43-.52.62-.73-.16.1-.3.24-.52.47-1.09-.1-1.57,1.67-2.33,1.02-.77-.66.5-1.54.54-2.41.03-.64-.02-1.25-.37-1.78-.61-.92-.13-1.37.81-1.78,2.75.84,5.39,1.7,7.88,3.23Z"/>
      <path class="cls-1" d="M112.27,47.35c-.49.1-.98.22-1.41-.13-1.84-1.52-3.13-1.42-4.24.61-.55,1.01-.99.86-1.78.57-1.04-.37-1.12-.97-.47-1.71.46-.53.15-.87-.12-1.28-.37-.57-.48-1.27-.08-1.76.51-.62,1.26-.3,1.94-.12,1.94.52,3.98.79,5.68,2.29.51.41.48.91.48,1.54Z"/>
      <path class="cls-1" d="M1.71,42.63c.48.43,1.66.41,1.4,1.56-.19.82-.57,1.36-1.67,1.21-.27-.9-.03-1.76.27-2.77Z"/>
      <path class="cls-1" d="M112.57,51.14c-.61.13-1.2.04-1.33-.59-.12-.56.34-.81.97-.95.48.41.43.9.35,1.54Z"/>
      <path class="cls-1" d="M16.35,97.64c.97-1.04,2.07-.9,3.12-.17.37.26.56.91,1.16.56.5-.29.31-.87.34-1.34.04-.62-.07-1.57.64-1.54.71.03,1.73.57,1.99,1.16.24.55.54,1.93-.16,2.19-2.24.82-1.6,1.88-.57,3.16.16.19.13.53.2.95-2.48-1.16-4.6-2.94-6.71-4.96Z"/>
      <path class="cls-1" d="M8.95,89.12c1.49-.1,2.7.19,1.93,2.34-.65-.63-1.27-1.42-1.93-2.34Z"/>
      <path class="cls-1" d="M72.8,21.4c2.19,1.19,3.48,3.14,5.21,4.6.93.78,1.9,1.36,3.16,1.78,1.23-.28,1.88.33,2.3,1.17.44.88-.34,1.21-.92,1.57-.51.32-.81.75-.7,1.38.12.71.25,1.43-.71,1.66-.95.22-1.62-.11-1.97-1.06-.1-.26-.23-.51-.46-.68-2.02,1.14-2.77,3.47-4.67,4.93-.38.18-.03.17-.3.18-2.25.12-4.05.78-5.13,3.06-.29.61-1.64,1.79-2.8.19-.36-1.66-.93-2.93-2.72-3.19-.75-.11-1.25-.62-1.51-1.31-.32-.83-1.18-1.13-1.67-1.68-1.12-1.27-2.49-2.17-3.75-3.23-.63-.53-.31-1.29.26-1.83.52-.49,1.16-.72,1.77-.76-2.2-.52-3.19,1.88-5.4,2.22.94.23,1.58.17,2.2.28,1.85.34,2.34.93,2.18,2.85-.12,1.47.02,2.77,1.36,3.7,1.31.91-.02,1.5-.38,2.35-1.85,1.85-3.55,3.62-6.25,3.92-.98.11-1.38,1.09-1.51,2.04-.15,1.08-.71,1.79-1.78,2.06-2.67.67-5.12,1.73-6.96,3.9-.37.43-.93.59-1.67.53-1.48-.82-.98-1.82-.45-2.81.34-.63,1.2-.95,1.11-1.99,1.1-2.01,2.99-3.2,4.15-5.05.33-.53,1.43-.12,2.2,0,1.71.28,3.09-.97,2.81-2.67-.23-1.41.36-3.08-1.52-4.08-.97-.52-.45-2.42.84-3.32.86-.6.97-.99-.03-1.41-.86-.36-1.31-1.01-1.56-2.01.15-1.71,1.23-1.24,2.35-1.11-.59-.7-1.02-1.53.11-1.81,1.39-.34,2.24-1.22,3.07-2.26.59-.74,1.46-1.01,2.54-.84,1.21-.05,2.12.27,3.06.85,1.42.88,2.93,1.35,4.07-.72.97-.65,1.77-1.37,2.74-.2,1.18,1.44,2.42,1.12,3.66-.14,1.06-.94,2.05-1.85,3.66-1.09Z"/>
      <path class="cls-1" d="M16.35,53.65c.41-2.09,1.04-5.63,2.52-7.39.8-.94-.34-2.11-.96-2.6-.81-.65-.92.65-1.26,1.14-.88,1.26-1.23,2.95-3.09,3.52-1.21-1.68-1.13-3.37-.1-5.05,1.15-1.87,1.92-3.99,3.61-5.71,2.05-1.23,2.8-2.96,3.15-5.12.61-3.78,1.75-4.26,5.14-2.53.24.12.49.25.88.39,1.38.5.58.94.09,1.29-.66.49-1.35.92-1.19,2.04.15,1.18-.03,2.24.39,3.25.29.69.41,1.38-.29,1.88-.64.46-1.31.4-1.95-.03-.4-.26-.74-.65-1.43-.64,1,.62,2.17.81,2.67,2.07,0,1.8-1.39,2.49-2.4,3.36-.96.82-1.71,1.6-1.5,2.76,1.77.29,3.16-2.64,5.4-.58.66.6,1.57-.25,2.33-.54,1.26-.48,2.45-.82,3.13.84.14.34.41.6.78.62,1.67.07,1.91,1.34,1.85,2.51-.06,1.25-.9,2.17-2.15,2.55-.6.18-1.24.24-1.74.93-2.58.46-4.58,1.64-6.28,3.45-1.05,1.12-1.85,0-2.82-.56-1.34-1.12-3.58-.59-4.81-1.83Z"/>
      <path class="cls-1" d="M24.84,33.76c-.88-1.27.14-1.75.77-2.39.32-.33,1.22,0,.91-.98-.12-.68-.09-1.25.61-1.69.41-.31.74-.38,1.24-.16,1.18,2.05,2.58.92,3.85.48.58-.2.58-.83.24-1.22-1.68-1.96-.21-2.34,1.41-2.82,1.64-.2,3.16.21,4.75-.02,1.12-.16,1.55.97,1.89,1.91.4,1.09.54,2.33,1.77,3.12.6.49,1.08.93,1.32,1.51.41,1.01.39,1.85-1.05,1.73-.5-.04-1.12-.19-1.28.36-.64,2.21-2.53,2.05-4.49,2.29,1.6.65,2.67,1.4,2.6,3.11-.04,1.02-.3,1.81-1.34,2.08-.89.23-1.76.38-2.23-.82-.44-1.14-1.63-.37-2.53-.79-1.41-.58-1.63-1.62-1.33-2.8.28-1.1-.14-1.56-1.18-1.67-.48-.05-1-.11-1.38-.42-.81-.65-1.53-1-2.55-.31-.6.4-1.34.16-1.99-.51Z"/>
      <path class="cls-1" d="M42.49,30.3c-2.37.11-2.13-1.96-2.45-3.07-.48-1.67-1.01-2.22-2.7-1.64-1.08.37-2.19.19-3.23-.71-.27-1.03.22-1.72,1.14-1.88,1.57-.27,3.04-.64,4.52-1.31.75-.35,1.57.06,2.01-1.23.37-1.1,1.45-.78,2.07.2.81,1.28,1.88,1.88,3.46,1.78.62-.04,1.16.28,1.48-.56.17-.46.75-.48,1.1-.36,2.25.81,3.76-.61,5.41-1.68.59-.39,1.05-.73.49-1.47-.2-.27-.49-.6-.11-.89.42-.32.94-.22,1.41-.07.42.13.56.47.64.94.34,1.87-1.04,2.86-1.95,4.25-1.28.63-2.58.93-3.18,2.49-.44,1.14-1.9.87-2.85,1.2-.12.58.29.66.55.84.39.27,1.03.47.71,1.07-.4.73-.92.23-1.39-.05-.62-.38-1.25-.7-1.79.31-.38,1.33-1.33,1.49-2.34,1.4-1-.09-1.92.09-2.99.43Z"/>
      <path class="cls-1" d="M17.03,37.43c.11,1.85-1.47,2.92-2.21,4.43-.99,2.01-2.07,3.81-1.4,6.3-1.32-.32-2.25-.25-1.83,1.53.18.77,0,1.32-.84,1.98-.04-2.26-3.37-2.12-2.86-4.6-.57-.38-.65.04-.8.32-.4.72-1.1.64-1.62.37-.69-.35-.31-.99-.03-1.43.36-.56.23-1.4,1.14-1.76,1.13-.17,1.58.93,2.56.92,2.02-.02,4.22-2.1,4.26-4.17.01-.57-.2-1.02-.84-.86-2.03.5-1.17-1.09-1.17-1.76,0-1.23.64-1.38,1.57-.57.26.22.73.1.94-.19.84-1.16,1.91-.78,3.14-.51Z"/>
      <path class="cls-1" d="M7.27,43.7c-.53-.86-2.44.12-2.06-1.2.39-1.34-.61-3.39,1.63-4.03.15-.04.19-.47.29-.88,1.26.52,1.48,1.81.76,2.66-.92,1.07-1.26,1.71-.04,2.69.26.21-.06.61-.57.76Z"/>
      <path class="cls-1" d="M11.88,34.25c.36-.68.3-1.79,1.35-1.23,1.01.54.32,1.18-.18,1.62-.58.5-.27,1.72-1.57,1.81.13-.75.24-1.4.41-2.2Z"/>
      <path class="cls-1" d="M28.48,28.49c-.29.14-.61.14-1.07.14.05-.94.44-1.1,1.07-.14Z"/>
      <path class="cls-1" d="M39.71,51.78c.78-.04,1.4-.17,1.79-.74,1.71-2.47,4.36-3.27,7.06-3.94.79-.19,1.21-.5,1.33-1.33.26-1.82.42-3.85,3.21-2.63.14.06.54-.08.55-.16.28-2.34,3.27-1.46,4.07-3.39.93-.64,1.97-.48,2.82-1.03.75-.48,1.2.09,1.44.89.35,1.17.19,2.62,1.13,3.46,1.05.95,2.38-.03,3.59.03.62.03,1.22.23,2,.22,2.1.1,3.81,1.19,5.82,1.22,1.21.02.93,1.39.54,1.98-1.56,2.36-2.15,5.43-4.94,6.9-.84.44-1.22,1.06-1.07,2.02.24,1.5-.65,1.97-2.09,2.05-1.36-.56-1.14-1.57-.89-2.51.63-2.34-.12-3.9-2.21-5.22-1.4-.88-2.36-1.51-4.11-.66-1.98.96-4.31.43-6.62.57-1.63,1-2.03,2.57-2.23,4.14-.11.85.49,1.94-.9,2.12-1.42.18-1.67-.93-1.87-2.12-1.39.47-2.58.96-2.98,2.58-.3,1.2-1.85.83-2.6,1.84-.81,1.09-1.47,2.15-1.08,3.35.61,1.9-.24,3.26-1.54,4.15-1.43.98-.94,1.71-.21,2.65.34.44.71.87.84,1.43.26,1.11-.06,1.89-1.22,2.27-.79.25-1.44.79-1.16,1.69.29.94,1.01,2.15,1.94,1.86,2.11-.64,3.22.79,4.75,1.76.96,1.54,2.31,1.87,3.99,1.79.9.5,1.6,1.15,2.75.74,1.77.41,3.05-1.2,4.81-.76,1.82.44,1.55,2.44,2.89,3.29.96.57,1.71,1.35,2.97.81,1.04-.46,2.63.11,2.7-1.81,1.33-.52,2.26-.08,3.12.96.36,1.35.5,2.36-1.09,2.95-1.27.47-1.77,2.69-3.76,1.65-.14-.07-.15.03-.09.23.74,2.42-.99,1.69-2.1,1.58-2.38-.25-2.49-.17-2.25,2.37-.64.58-1.39.62-2.14,1.05-1.17.17-2.2-.01-3.2.51-.71.36-1.51.15-2.23-.56-1.75-.83-3.5-.28-5.18-.51-2.84-.38-5.76.65-8.46-1.81-2.23-2.03-4.87-4.47-8.59-3.28-.24.08-.78-.01-.79-.07-.24-1.97-2.89-1.68-3.37-3.58-1.54-.85-1.87-2.06-1.53-3.69.04-.93-.49-1.23-1.09-1.5-.85-.39-1.23-1.09-1.16-2.16.92-1.18,2.52-.81,3.56-1.82,1.18.51,1.39,1.59,1.93,2.61-.22,1.42-1.05,2.83,1.01,3.46.4.12.32.72.39,1.13.25,1.38.96,2.23,2.45,1.73,1.24-.42,1.47,1.22,2.71,1.08-.62-1.28-1.69-2.02-2.67-2.76-1.05-.8-1.08-1.47-.54-2.64,1.04-2.26.14-4.59-.17-6.88-.04-.3-.54-.41-.93-.72,0-5.02.4-9.84,4.07-13.83,1.64-2.62,3.54-4.65,6.81-5.03Z"/>
      <path class="cls-1" d="M33.53,56.58c-1.92,2.56-3.65,5.21-3.87,8.27-.13,1.83-.4,3.59-.73,5.53-.94,1.32-1.7,2.41-.96,4.09.39.87-.22,1.74-1.41,2-.83-.7-1.28-1.5-1.71-2.48-.7-.74-1.55-.83-2.3-1.17-1.58-.71-2.04-2.75-1.24-5.03.16-.23-.19-.11-.19-.07-.01.73-.5,1.07-1.28,1.2-.76-2.22-1.63-4.3-.89-6.7.36-1.17-.03-2.58-.08-4.06.9-.91,1.53-1.82,1.99-3.02.44-.04.93-.09,1.07.1,1.02,1.42,1.36.64,2.35-.26,1.48-1.34,3.07-3.1,5.85-2.38.57,1.95,2.71,2.3,3.4,3.98Z"/>
      <path class="cls-1" d="M23.79,78.83c-.02,1.35-.28,2.63.93,3.73-.52.28-1.06.41-1.59.56-1.81.51-2.45,1.96-1.58,3.67.88,1.76,2.28,3.01,4.11,3.66,1.14.4,1.29.95.95,2.04-.29.95-.53,1.84-1.73,1.5-2.23-.63-4.31-.88-5.8,1.42-.03.05-.15.11-.16.1-1.22-1.19-3.05-1.02-4.35-1.9-.56-.38-.3-1.99-1.74-1.09-.18-.29-.53-.82-.5-.84,1.41-1.08.13-2.05-.09-3.05-.2-.89.14-1.47.96-1.84.83-.36,1.7-.68,2.44-1.18.91-.61,1.48-1.6.48-2.44-.92-.77-.16-1.04.17-1.43.47-.55,1.02-.98,1.79-.38.51.4.55,1.72,1.66.97.52-.35.54-1.04.2-1.52-.54-.77-1.05-1.72-2.32-1.27-.75.27-1.55.54-1.69-.87.81-1.45,3.26-2.37,4.52-1.78,1.12.52,2.24,1.06,3.33,1.93Z"/>
      <path class="cls-1" d="M20.9,54.91c.01,1.43.07,2.8-1.87,3.06-.8.22-1.14-1.13-1.73-.42-.61.72-1.15,1.6-.83,2.67.15.51.52,1.01-.18,1.44-2.01,1.24-2.16,1.6-1.8,4.19-.98-.86-2.1-.64-3.09-.72-1.69-.15-1.87-1.53-2.27-2.49-.29-.68.87-.86,1.53-.88,1.76-.06,2.01-.71.88-2-.04-.05-.12-.08-.17-.12-1.44-1.18,1.69-1.56.45-2.96-1.03-1.16-.37-2.06,1.2-2.07.78,0,.95-.74,1.37-1.16.71-.7,1.46-1.29,2.66-1.34,1.61.57,2.8,1.5,3.87,2.81Z"/>
      <path class="cls-1" d="M19.62,68.99c.71-.53,1.48-.87,1.11-1.87-.16-.43.04-.69.46-.69.47,0,.45.35.44.74-.02.61-.02,1.2-.21,1.81-.5,1.63.34,2.95,2.05,3.36.68.17,1.04.63,1.25,1.41-1.17.22-.95,1.49-1.58,2.06-.63-.02-.53-1.5-1.63-.71-.8.58-1.29.06-1.78-.27-1.04-.69-1.82-.71-2.08.73-.16.89-.78,1.24-1.7,1.49-.41.13-.7.19-1.13.19-1.73-1.45-2.24-3.5-3.03-5.38-.16-.38.08-.84.42-1.11,1.22-.99,2.87-1.3,3.83-2.82.44-.7,1.21.28,1.51.85.57,1.09,1.23.89,2.09.2Z"/>
      <path class="cls-1" d="M48.06,104.1c.39,1.06.78,1.75,2.14,1.36,1.5-.42,2.32.98,3.43,1.6.26.14.37.44.09.68-.38.31-.82.63-1.32.45-.61-.23-1.17-1.23-1.75.02-.75-.53-1.92.56-2.52-.69-.42-.87-1.07-.22-1.62-.11-.56.12-.84.42-.71,1.03.13.6.82,1.55-.23,1.67-.87.1-.63-1.03-.76-1.66-.03-.13-.1-.26-.27-.48-.33-1.47-1.18-.58-1.68-.46-.8.2-1.61.48-1.75-.66-.17-1.33-3.07-1.97-.88-3.9.97-.85,1.68-1.89,3.12-2.12.95-.15,1.41.21,1.87.89.45.67.68,1.14-.3,1.62-.82.4.1.73.23,1.1.13.38.2.8.82.45.59-.34,1.27-.51,2.07-.78Z"/>
      <path class="cls-1" d="M51.08,92.07c1.08.07,2.07.62,3.09-.32.63-.58,1.41-.07,2.26.16.34.51.06.93-.32,1.01-1.45.28-1.78,1.31-1.96,2.67-.72,1.64-2.06.68-3.25.96-.19,0-.18.21-.18.32-.19.88-.89,1.31-1.26,1.97.21.68,1.12.56,1.31,1.34-.28,1.58,0,3.36-2.4,3.48-.96-1.3-3.04-2.19-1.58-4.27.07-.1-.16-.37-.17-.57-.04-.8-1.58-.89-1.05-1.78.78-1.31,1.93-2.51,3.41-2.83,1.27-.28,1.74-.93,2.1-2.12Z"/>
      <path class="cls-1" d="M15.42,76.92c.89-.58,1.88-.71,1.87-2.17,0-1.11,1.16-1.37,2.16-.84.59.31.9,1.06,1.78,1.23.19,1.1.34,2.1,1.78,2.13.9.02.87.69.88,1.49-1.43.23-2.28-1.01-3.52-1.39-.45-.14-.89-.31-1.34-.47-.09,2.21-2.2.42-3,1.53-.49.05-.82-.05-.93-.63,0-.38.07-.61.31-.89Z"/>
      <path class="cls-1" d="M24.47,85.47c.56.23,1.24.28.82.98-.37.62-.94,1.06-1.74.67-.54-.27-1.31-.42-1.17-1.23.08-.51.33-1.15,1.08-.99.32.06.59.33,1.02.57Z"/>
      <path class="cls-1" d="M15.39,76.85c.05.22-.02.46-.19.76-.24.03-.35-.05-.48-.26.15-.23.35-.36.67-.5Z"/>
      <path class="cls-1" d="M51.66,80.08c-1.1.79-1.87.46-2.55-.6.03-2.96,1.16-4.56,3.71-4.98,1.22-.2,1.45-.9,1.57-1.84.13-1.05.58-1.7,1.75-1.62.92.06,1.53-.49,2.21-1.01,1.39-1.07,3.25-1.43,3.68-3.73.17-.87,2.08-1.37,2.94-2.44.46-.56.95.04,1.31.52,2.19,2.9,2.76,2.86,4.51-.33.5-.92.98-1.85,1.37-2.82.6-1.5,3.22-1.98,4.41-.88.48.44.36.9-.01,1.28-1.75,1.82-2.31,3.74-1.27,6.25.9,2.17-.28,3.89-2.11,5.16-.4.28-1.24.49-.65,1.2.41.49,1.16.27,1.52-.11,1.16-1.22,2.6-2.1,3.75-3.33.97-1.04,2.16-1.74,3.78-1.59.18.06.25.08.34-.02.68-2.84,3.19-3.36,5.23-4.32,1.28-.6,2.66.61,2.44,2.1-.12.78,1.84,1.57-.02,2.26-.9.33-1.78-.11-2.69-.16-.34.53.32.87.19,1.48-.06.24-.09.33-.24.53-.54.45-1.11.3-1.52.47,1.12.78,1.96.9,2.59-.73.48-1.24,1.39-1.11,2.08.11.81,1.41.22,2.51-.91,3.6,1.49-.3,2.57-.03,3.02,1.6-.22,1.29.14,2.59-1.09,3.55-1.78.35-3.45.24-5.11.41-1.51.15-2.68-.53-3.09-2.17-.13-.5-.14-1.23-.83-1.28-.49-.04-.92.43-1.1.85-.37.9.57.93,1.01,1.26.45.34.97.63,1.06,1.22.3,1.89,1.7,2.95,3.08,4.21.41,1.16.08,1.74-1.06,1.71-.55-.01-1.11-.03-1.64.14-1.48.48-1.89,1.5-1.13,2.83.8,1.4.56,2.19-1.06,2.38-1.01.12-1.07.5-1.03,1.38-.54,1.57-1.89.83-2.81,1.2-.3.12-.78-.23-.99.48-.23.37-.5.5-.95.58-1.5-.36-2.72-.09-3.96.8-.59.02-1.03.02-1.65.02-.68-.94-1.25-1.68-2.53-1.67-1.15,0-1.99-.66-2.12-1.88-.1-.94-.71-1.28-1.62-1.53-.96-.08-1.8-.2-2.69.34-.68.37-1.24.6-1.99.24-.36-.95-1.32-1.59-.52-2.72.79-1.1,1.59-.44,2.42-.33.41.05.84.07,1.23.19.44.13.85.19,1.09-.26.32-.59-.2-.66-.58-.82-.41-.16-.83-.45-.58-.91.22-.41.79-.37,1.14-.17,1.63.97,2.61.64,2.91-1.32.05-.31.37-.49.64-.39,1.58.56,1.33-.55,1.35-1.6-.23-2.56,1.91-3.3,3.15-4.65.52-.57,1.1-.36,1.71.36-.74-1.2-1.82-1.13-2.63-.91-1.33.36-2.69-.1-4.04.53-1.03.49-1.79-.36-1.94-1.64-.04-.1-.2-.22-.22-.11-.22.73-.78,1.08-1.21,1.71-.49.52-.62,1.08-.96,1.68-1.13.74-.63,2.42-2.1,2.86-1.09.06-1.99,0-1.81-1.31.13-.94-.68-1.22-1.2-1.9-.23-1.59,1.34-1.16,1.85-1.89-3.13-1.24-6.17-.18-6.86,2.48Z"/>
      <path class="cls-1" d="M80.19,92.72c-.34-.39-.56-.82-.76-1.26-.15-.32-.26-.67.03-.96.3-.3.67-.22.91.06.7.81,1.33.24,1.77-.19.89-.89-.49-.81-.64-1.26-.22-.68-.8-1.27-.3-2.12.75-1.28,1.91-1.64,3.24-1.71.57-.03,1.43.77,1.48-.73-.14-.97.52-1.41,1.03-1.48,2.07-.29,2.69-1.89,3.48-3.58,1.76-.66.41-2.32,1.3-3.32,1.24-1.07,2.26-1.93,1.5-3.77-.5-1.21.57-2.19,2-2.16,1.63.03,2.75,1.19,2.68,2.87-.02.58.1,1.09.41,1.54,1.06-.06,1.79.35,2,1.25.17.74-.33,1.14-1.23,1.06-1.11-1.22-2.59.35-3.69-.76-.24-.24-1.01.59-1.12,1.42-.36,2.77-1.76,5.08-3.51,7.17-1.05,1.26-.46,2.97-1.4,4.27-.41.56-.45,1.11-1.44,1.05-1.27-.08-1.4,1.37-1.84,2.17-.76,1.38-1.33,2.62-3.26,1.95-.7-.24-.92.42-1.23.88-.25.36-.57.67-1.03.38-.55-.34-.31-.73-.13-1.24.16-.45,1.86-1.25-.26-1.5Z"/>
      <path class="cls-1" d="M63.18,90.3c1.3.1,2.65-.2,2.43,1.88-.15,1.37,1.18,1.5,2.24,1.41,1.36-.12,1.94.4,1.75,1.93-.67.11-1.2.37-1.72.78-.53.43-1.09.66-1.47-.24-.2-.46-.48-.91-1.09-.4-.35.29-.57,1.19-1.23.31-.41-.56-.95-1.06-.41-1.85.19-.28.31-.63.39-.96.09-.39-.45-.79-.47-.72-.49,1.36-2.5.2-2.86,1.79-.2.88-1.16,1.29-1.82.94-1.44-.77-2.49-.55-3.52.63-.13.15-.66-.06-1.15-.1-1.19-2.41.6-2.9,2.29-3.65.24-1.31,1.17-.87,2-.97.76-.13,1.36-.26,2.11-.41.88-.36,1.74.28,2.54-.39Z"/>
      <path class="cls-1" d="M98.95,77c.51-.2,1.13-.38,1.04-.89-.13-.78-.95-1.03-1.75-1.36-.53-1.14.2-1.99.61-3.06.25-.49.41-.87.51-1.4.05-.19.07-.26.15-.42.21-.18.24-.29.1-.55-.03-.18-.03-.25.06-.39,1.35-.87,1.36-.87,1.49.67.06.68,1.02.41,1.09,1.21.1.88-.2,1.45-.73,1.96-.35.34-.71.76.19,1.1.45.14.67.38.92.74.11.98-.92,1.43-.79,2.47-.56.15-.78.58-1.09.95-.35.42-.88.82-1.38.68-.8-.22-.35-1.02-.45-1.73Z"/>
      <path class="cls-1" d="M71.27,95.86c.83-1.45,1.88-2.18,3.62-1.43.35.21.53.47.44.72-.55,1.55.51.89,1.26.91.46,1.05.44,1.73-.63,2.47-.9.63-2.44,1.09-2.02,2.98.15.68-1.25.41-1.85.78-.52-.58-.05-1,.14-1.37,1.02-1.91.04-3.41-.96-5.07Z"/>
      <path class="cls-1" d="M50.86,100.24c-.9-.3-1.67-.67-2.6-1.12.77-.71,1.49-1.37,2.34-2.09,1.19.92,1.38,1.98.26,3.22Z"/>
      <path class="cls-1" d="M76.72,96.12c-.84.17-1.56,1.47-2.23.93-.86-.68.8-1.39.55-2.45.32-.16.63-.16,1.1-.16.29.33.42.66.57,1.12.08.2.15.27.12.45q-.11.1-.11.1Z"/>
      <path class="cls-1" d="M76.87,96.12c-.16-.07-.16-.14-.16-.32.06-.14.13-.16.18-.2.61-.41,1.18-1.05,2.01-.57.34.19.33.58.14.91-.58,1-1.35.05-2.18.18Z"/>
      <path class="cls-1" d="M99.61,68.87c.17,0,.17.21.17.32.05.18.09.25.07.42-.07.11-.07.1-.07.1-.29.44-.69.85-.45,1.59-.34,1.14-.73,2.15-1.16,3.3-.98-.13-.9-.86-.83-1.57.13-1.17-1.13-2.58-2.26-2.36-1.04.2-2.07.52-1.28,2.08.9,1.75.48,2.42-1.83,3.25-.77-.91-1.41-1.78-2.63-.86-.35.26-.7.59-1.06.17-.46-.55.05-.83.44-1.13,1.2-.91,1.68-1.95.71-3.36-.53-.76-.96-.56-1.12.12-.46,2.03-1.29,2.67-3,1.04-.34-.32-.91.47-1.33-.24.74-.54,1.56-.79,2.63-.77.77-1.11-1.81-1.3-.61-2.48.92-.9,1.69.65,2.66.39.38-.1.8-.09,1.31-.14-.25-1-1.42-.69-1.69-1.48,0-.79,1.36-.19,1.22-1.02-.14-.87-1.09-.73-1.69-.98-.71-.3-1.15.1-1.43.78-.26.62-.41,1.89-1.35.38-.45-.72-.82-.19-1.08.2-.61.92-1.17,1.87-1.77,2.95-1.26-.49-2.67.24-3.18.86-1.22,1.46-3.21,2.09-4.05,3.77-.62,1.24-1.88.41-2.55,1.16-.35-.5-.81-.95-1.01-1.51-.24-.68.46-.68.87-.89,2.87-1.5,3.61-4.5,1.77-7.05-.7-.97-.99-2.08.52-2.43,1.52-.35.3-2.46,2.11-2.4-.75-.93-1.63-.38-2.29-.72-1.09-.57-1.61.08-1.78,1-.29,1.56-1.25,2.79-2,4.09-1.45,2.51-2.99,2.42-4.45-.12-.23-.41-.4-.85-.73-1.55-.72,1.4-1.59,2.31-2.99,2.64-.76.18-.73.83-.5,1.53.27.82-.04,1.88-.93,1.66-1.47-.37-2,.66-2.84,1.29-.38.29-.9.89-1.15.79-2.29-.85-2.04.83-2.3,2.12-.09.43-.17,1.27-.65,1.2-3.25-.5-3.98,1.89-4.96,4.22-1.57.09-3.37.89-4.19-1.42-.57-.84-.66-1.82-1.62-2.24-1.22-.54-1.18-1.62-.84-2.66.31-.93,1.02-1.52,2.06-1.38,1.29.17,1.66,1.08,1.6,2.25,0,.15.02.28.12.41.86-1.72.16-3.95,1.98-5.39,1.07,0,1.52.78,2.2,1.34,1.24-1.62.73-3.63,1.44-5.46.68-.41,1.17-.01,1.7.09.7.14,1.35-.08,1.58-.71,1.04-2.84,1.71-5.72.14-8.6-.36-.66-1.07-1.35-.34-2.04.74-.7,1.39.12,2.02.49.96.57,1.56,1.54,2.34,2.3.79-.55.57-1.34.82-1.96.94-2.38.92-2.4-1.74-2.46-1.6-.04-3.07-.77-4.72-.64-1.05.09-1.38-.76-.91-1.87.71-.8,1.7-.76,2.21-.46,1.81,1.07,3.38-1,5.12-.24.11.05.49-.27.61-.49.75-1.43,1.4-.87,2.14.03.38.47.87.91,1.39,1.22,2.55,1.5,3.1,2.7,2.43,5.53-.15.65-.6,1.29-.03,2.12.38.37.55.87,1.03.81.84-.1,4.02-3.27,4.19-4.17.3-1.67,1.09-2.65,3.09-2.21.78.73,1.37.24,2.03.04,1.88-.59,2.85.36,2.36,2.27-.26,1.02-.68,1.98-1.09,2.95-.21.5-.56,1.06.06,1.51.55.4,1.24.56,1.71-.03.83-1.05,1.77-1.31,3.11-1.16,1.17.13,1.35-1.24,1.86-2.02.45-.7.18-1.44-.42-1.86-1.65-1.17-1.24-3.35-2.42-4.75-.35-.42.08-.9.35-1.32.64-1,1.07-2.12,1.48-3.22.67-1.81.19-2.71-1.82-3.63.04.97.4,1.78.68,2.62.29.88.17,1.71-.61,2.25-.86.59-1.38-.14-1.97-.63-.57-.48-.94-1.25-1.95-1.37-1.37-.03-2.55-.09-2.99-1.55-.17-.55-.65-.59-1.15-.7-2.02-.47-2.14-.78-1.17-2.66.22-.43.35-.91.75-1.42,1.42-1.89,2.75-3.65,4.06-5.42.27-.37.6-.59,1.06-.48.55.13.79.54.83,1.07.05.63,0,1.33.92,1.33.66,0,1.46.02.79-.99-.64-.97-.13-1.82.58-2.1,3.32-1.31.09-1.54-.45-2.28.09-1.81,1.46-2.37,2.98-1.31.55.39.89,1.07,1.77,1.23.48.15.81.28,1.27.43.27.16.38.33.49.67.17,2.13.43,4.12-1.12,5.79-.35.38-.52,1.26.02,1.53,2.4,1.22,2.25,3.32,2.11,5.5-.12-.53-.12-1.05.13-1.48.6-1.01,1.24-2.05,2.62-2.02.49.01,2.46,2.77,2.43,3.23-.09,1.23-1.17.5-1.75.98,1.52.04,2.38,2.08,4.41.88,1.21-.71,2.68.44,3.68,1.4.94.91.15,1.73-.46,2.54-.56.74-.63,1.54.28,2.16.74.51.59,1.31-.02,1.5-2.24.69-1.93,2.82-2.76,4.48-1.85,1.08-1.87,1.07-3.79-1.03.48,2.82,2.36,4.31,4.69,5.63-.11,1.54.43,2.1,2.1,1.54-2.73,1.68-1.39,4.35-1.99,6.48-.16.56.31.87,1.05.89Z"/>
      <path class="cls-1" d="M72.94,21.34c-1.3-.19-2.28.77-3.61,1-.22-1.74,1.43-1.45,2.33-1.98.59-.34,1.25-.08,1.27.98Z"/>
      <path class="cls-1" d="M97.28,55.61c-.14-1.35.71-2.34.52-3.61-.15-1.01,1.1-.79,1.72-1.12.37-.2.91-.26.9-.73-.02-.77-.61-.18-.91-.29-.67-.25-.63-2.57.16-3.11,1.52-1.06,1.01-1.73-.29-2.37-1.37-.68-2.74-1.42-3.96.3-.14.2-.63.15-.96.22.53-2.29-1.66-.97-2.26-1.72-.39-.5-1.09-.95-.37-1.78.93-1.07,1.14.66,2.08.35-.3-1.42-1.95-1.92-2.26-3.25-.68.48-1.41.92-2.03,1.47-.47.41-.37,1-.12,1.55.19.42.91.47.76,1.19-1.35.55-2.15-1.06-1.99-1.31.75-1.21-.14-2.09-.16-3.08-.01-.61-.05-.97-.51-1.04-2.21-.32-1.93-1.76-1.18-3,.8-1.33,1.79-2.46.91-4.13-.09-.17.16-.51.27-.93.18-.31.37-.37.72-.25,1.8,1.05,2.6,3.32,5.05,3.17.66-.04.56.82.35,1.36-.19.49-.8.82-.45,1.63,1.23-.58,2.15-.6,2.49,1.16.16.81,1.14,1.46,1.83,2.3-1.58.92-1.42,2.26-.11,2.84,3.12,1.38,5.34,2.95,5.12,6.95-.06,1.04.43,1.86-.63,2.66-.61.46-.91,1.22-.93,2.18-.52.87-.92,1.64-1.25,2.47-.65,1.62-1.3,1.62-2.51-.06Z"/>
      <path class="cls-1" d="M88.44,28.91c-.17.13-.35.14-.68.14-.14-.19-.14-.37-.14-.7.38-.11.71-.01.82.56Z"/>
      <path class="cls-1" d="M97.11,55.47c1.41,1.48,2.14,1.39,2.42-.68.08-.59.17-1.46,1.34-1.43.63.27,1.09.54,1.7.82.36.14.79.35.79.37-.89,1.91-.77,4.25-2.61,5.87-.44-.22-.87.06-1.29-.26-.29-.09-.47-.09-.8-.09-3.64-1-5.74-3.74-5.38-6.9,1.6.2,1.35,3.39,3.84,2.3Z"/>
      <path class="cls-1" d="M109.08,50.75c-.29-.17-.49-.3-.55-.48-.23-.76-1.33-1.43-.33-2.32.21-.19.62-.16.93-.24.07,1.02,1.22,2-.06,3.04Z"/>
      <path class="cls-1" d="M103.13,53.36c-.1-.15-.21-.29-.31-.44.05-.04.1-.07.16-.11.05.12.1.23.15.45,0,.1,0,.1,0,.1Z"/>
      <path class="cls-1" d="M105.25,70.41c-.05.69.02,1.29-.8,1.37-.79.08-.83-.59-1.21-1.13.01-.69.15-1.28.26-1.88.13-.73.12-1.73.98-1.84,1.16-.15.5,1.21,1.1,1.81.06.14.06.35.06.46.25.57-.19.78-.4,1.22Z"/>
      <path class="cls-1" d="M99.37,60.2c.35-.06.71,0,1.16.18-.35.22-.84.82-1.16-.18Z"/>
      <path class="cls-1" d="M102.83,74.68c-.51.03-.84-.07-.94-.64.33-.58.57-1.48,1.31-.98.65.44.33,1.11-.37,1.62Z"/>
      <path class="cls-1" d="M105.36,70.53c-.35-.11-.75-.22-.76-.36-.03-.57.63-.38.96-.78.61.37.66.79-.2,1.13Z"/>
      <path class="cls-1" d="M76.3,9.35c-.08-.8.24-1.34,1.05-1.5.45-.09.59.25.59.62,0,.92-.69.85-1.47.87-.16,0-.16,0-.16,0Z"/>
      <path class="cls-1" d="M42.36,30.45c.62-1.16,1.59-1.38,2.66-1.11.96.24,1.78.13,2.63-.65.73.6.81,1.85,2.17,1.64.44-.07.91.16.8.69-.12.58-.2,1.64-.73,1.55-1.72-.29-1.34,1.13-1.54,1.83-.3,1.06.82,1.37,1.51,1.66,1.13.47,1.73.79.26,1.62-.14.08-.21.57-.1.74,1.4,2.14-.18,3.24-1.48,4.48-.69.66-1.08-.05-1.63-.15-1.1-.21-2.54-1.22-2.76,1.24-.06.68-.68,2.67-2.6,2.01-.4-.14-.08,1.59-.13,2.07-1.82,2.01-3.82,2.86-5.66,4.7-.92.91-1.83,1.21-2.93.41-.74-.54-1.64-.14-2.53-.57-.18-.96.19-1.26,1.08-1.39,1.92-.28,3.07-2.06,1.87-3.32-.91-.95-2.2-1.78-3.3-2.71-.28-.24-1.39.4-2.07.74-1.09.54-2.08,1.22-2.94-.41-.43-.81-1.01-.38-1.43.24-.46.67-.68,2.28-1.86.48-.25-.38-.53.19-.63.49-.15.47-.23.96-1.07,1.05.26-1.05.08-2.11.26-3.07.25-1.32,1.85-1.58,2.7-2.51.46-.51.98-.95,1.35-1.7,1.16-.94,2.24-.82,3.4.08.55,1.15-.62,1.9-.31,3.09,1.35-.91,2.75-1.64,4.55-.03-.4-1-.95-1.45-.82-2.25.37-1.02.97-1.69,1.89-2.24,1.05-.03,1.96-.05,2.86-.02.38.01,1.07.04.73.6-.59,1.01-.05,1.09.68,1.03.75-.07,1.68-.15,1.64-1.18-.06-1.25-.11-2.6-1.71-3.06-.5-.14-.95-.44-1.4-.84,1.25.12,2.18-.96,3.55-.55.86.26,1.15-.9,1.27-1.6.15-.88.54-1.12,1.38-1.15.54-.02.92,1.07,1.38.3.44-.73-.31-1.23-.78-1.73-.09-.1-.13-.24-.21-.5Z"/>
      <path class="cls-1" d="M73.63,36.61c.05.7.43,1.53-.34,2.09-.39.28-.85.58-.5,1.17.28.49.81.59,1.28.47,1.12-.29,1.66.11,1.83,1.22.22,1.43,1.39.71,2.33.9,1.23,2.41.96,4.89.37,7.31-.37,1.51-1.92,1.62-3.36,1.93-1.94-.07-3.25.31-2.77,2.52.1.49.11,1.07-.53,1.16-1.75.25-2.32,1.96-3.57,2.85-1.3.93-1.66.66-1.7-.94,1.22-.57,2.59-.79,1.73-2.71-.28-.63.14-1.21.88-1.64,1.54-.9,3.17-1.63,3.47-3.9.19-1.47,2.45-2.25,2-4.39-2.1,1.01-3.7-.88-5.83-.95-1.38-.77-2.9-1.01-3.89-2.15-.37-.43-.73-.95-.49-1.49.27-.6.87-.57,1.56-.24,1.13,1.38,2.34-.07,2.4-.28.67-2.45,2.29-3.14,4.59-2.84.13.02.26-.07.54-.12Z"/>
      <path class="cls-1" d="M66.23,39.79c-.46.23-1.1-.07-1.32.44-.19.45.23.89.61,1.23.93.83,2.35.91,3.16,2.14-1.74-.5-3.53.45-5.35.18-.97-.15-1.49-.49-1.27-1.42.28-1.18-1-1.94-.65-3.16.14-.5-.69-.6-.83-.21-.55,1.56-1.58.52-2.57.54.18-1.09.07-1.44-.85-2.68-.77-1.04-.81-2.32-.49-3.42.52-1.81-.58-2.03-1.8-2.26-.47-.09-.98,0-1.46-.03-.69-.05-1.66-.11-1.63-.92.03-.93.88-.53,1.48-.4.55.12,1.03-.19,1.24-.61.95-1.91,2.94-1.18,4.39-1.78.37-.15.9-.02.93.54.03.56-.44.62-.87.65-1.12.06-2.77.16-2.59,1.4.19,1.28,1.75,1.9,3.47,1.71-.32.94-1.11,2.26.91,1.95.8,2.94,5.17,2.57,5.49,6.11Z"/>
      <path class="cls-1" d="M30.2,52.68c1.14-.2,2.38-1,3.35.39.29.42,1.04.41,1.26-.06.6-1.29,2.21-1.53,2.7-3.17.34-1.14,2.13-1.84,3.42-2.75.42.65.94,1.26-.22,1.74-1.12.46-1.51,1.45-1,2.76-.2.97-.21,1.86-1.77,1.31-1.09-.39-2.08.95-2.91,1.8-.52.53-.85,1.24-1.38,1.95-.44-.27-.74-.91-1.08-.93-1.89-.1-2.01-1.55-2.37-3.02Z"/>
      <path class="cls-1" d="M33.03,38.98c-.42.75-.93,1.37-1.51,2.11-.35.89-.74,1.43-1.69.98-.61-.29-1.32-.29-2.04-.76-.83-1.44-2.09-.79-3.3-.95-.75-.91-1.45-1.65-2.66-1.48-.37.05-.7.13-.81-.34-.1-.42-.05-.82.27-1.16.37-.39.73-.27,1.09.01.38.3.78.57,1.13.9.48.45,1.01.47,1.51.15.66-.42.35-.9.02-1.4-.61-.94-.21-2.02-.32-3.22,1.35.28,2.6.46,3.29-1.56.74,1.67,1.86,2.25,3.47,2.28.91.02,2.02.42,1.02,1.89-.5.74-.5,1.74.52,2.53Z"/>
      <path class="cls-1" d="M38.14,30.62c-.28,1.02-.82,1.49-1.7,1.03-.58-.3-.92-.88-.73-1.59.22-.83,1.03-.59,1.58-.75,1.12-.33.76.62.86,1.31Z"/>
      <path class="cls-1" d="M48.74,68.74c-1.83,1.48-1.12,3.61-1.76,5.31-.2.52.23,1.46-.75,1.41-.93-.05-1.05-.78-.73-1.55.4-.96.16-1.67-.86-1.95-1.05-.29-1.63.39-1.8,1.26-.16.83-.41,1.86,1.07,1.98,1.48.12.77,1.35.95,2.31-.81-.35-1.67-.81-2.42-1.42-.43-.35-.83-.64-1.27-.26-1.42,1.22-2.03.1-2.8-.85-1.48-1.83-1.25-2.81.97-3.58,1.48-.51,1.09-1.55.46-2.23-.88-.95-1.29-2.1-1.94-3.15,2.29-.48,3.39-2.06,2.92-4.15-.48-2.16,1.16-4.71,3.34-5.23.24-.06.64-.27.63-.4-.15-2.95,2.79-2.22,3.85-3.74.62.78.21,1.2.12,1.65-.11.55.1.97.61,1.18.39.17.85.23,1.16-.12.34-.38-.07-.76-.09-1.13-.1-1.95.66-3.57,2.27-4.88.09,1.13.27,2.03,1.76,1.47.71-.27,1.36-.31,1.96.2.6.5,1.31.4,2,.41,3.31.03,3.35.04,2.08,3.18-.35.87.62,2.38-.95,2.59-1.22.17-1.07-1.48-1.89-1.99-.18-.11-.32-.33-.51-.36-.79-.13-1.23-1.69-1.99-.93-.74.74.8,1.08.95,1.76.49,2.18,1.24,4.37.14,6.57-.16.31-.4.55-.25.92.47,1.25-.47,1.82-1.27,2.32-.93.58-1.7-.05-2.58-.63-1.51-1.22-3.27-1.5-4.89-2.12-1.8-.68-2.06,1.55-3.44,1.87-.69.16.04,1.16.36,1.56.44.53-.53,1.75,1.01,1.67,1.25-.11,2.28-1.28,3.57-.19.23.46.22.79-.01,1.25Z"/>
      <path class="cls-1" d="M26.35,76.55c1.23-.83,1.71-1.64.84-2.97-1.09-1.68.54-2.19,1.59-3.01,1.17-.1,1.9.07,1.84,1.4-.08,1.74-.03,3.5.63,5.16.04.11.05.33-.02.39-3.14,2.81.8,3.22,1.59,4.69.06.12.24.17.3.29.25.55,1.67.64.87,1.48-.72.75-1.8.72-2.44-.38-.24-.43-.25-.84-1-.61-1.85.57-3.09-.34-3.11-2.25,0-.45.14-.85-.44-.93-3.02-.43-1.32-1.89-.64-3.26Z"/>
      <path class="cls-1" d="M62.37,78.22c-.02-1.08,1.07-1.22,1.33-2.08.46-.07,1.1-.32,1.13.44.09,1.86.89,1.69,1.99.73.33-.29.68-.53,1.13-.36,1.79.7,4.23-.77,5.52,1.64.17.32.42.63.08.91-.36.3-.7.01-.84-.29-.75-1.61-1.26-.55-1.96.08-1.05.94-2.43,1.59-2.72,3.32-.71-.91-1.66-1.16-2.89-1.16-.77-1.28-2.69-1.44-2.77-3.23Z"/>
      <path class="cls-1" d="M51.73,80.19c-1.12-2.08.38-2.86,1.85-3.19,1.7-.39,3.51-.28,5.27-.41.46-.03.63.21.65.6.03.62-.22,1.09-.86,1.25-.65.16-1.43-.07-1.97.77-1.01.18-1.95-.03-2.67.96-.54.74-1.39-.24-2.27.01Z"/>
      <path class="cls-1" d="M59.59,82.84c.39-.61.89-1.04.79-1.83-.08-.65.07-1.22,1.08-1.23,1.57-.14,2.22.52,2.12,1.91-.05.69-.52,1.1-1,1.73-1.23.79-2.18.67-2.99-.57Z"/>
      <path class="cls-1" d="M62.62,83.53c-.2-1.05.89-1.96.24-3.15-.23-.42-.5-.58-1.08-.61-.07-.58-.41-1.29.53-1.65.18.68.55,1.07,1.24,1.25.87.24,1.4.81,1.42,1.92-.25.91.61,1.33.6,2.14-.96.06-1.93-.54-2.96.09Z"/>
      <path class="cls-1" d="M57.28,45.18c.47.6,1.31,1.12.53,1.76-.42.34-1.14-.08-1.41-.55-.4-.7-.05-1.17.89-1.21Z"/>
      <path class="cls-1" d="M28.31,66.44c-1.16-.79-.38-2.17-.97-3.21-.14-.26.21-.54.48-.46.54.17,1.03.58,1.01,1.16-.03.8-.27,1.6-.52,2.51Z"/>
      <path class="cls-1" d="M50.72,96.55c-.05-.06-.1-.12-.15-.18.04.02.07.04.14.11.03.05.02.07.01.07Z"/>
      <path class="cls-1" d="M90.36,79.36c-.05,1.91-.14,3.9-2.88,3.93-.46,0-.91.56-1.45.98-1.78-.79-3.26-1.84-3.47-3.99-.12-1.21-1.37-1.25-2.15-1.68-.94-.52-.88-.94-.21-1.55,2.21-2,2.27-2.01,3.2,1.12.43,1.45,1.64,1.63,2.61,1.45,1.4-.27,2.77-.16,4.34-.24Z"/>
      <path class="cls-1" d="M63.22,90.15c-.37,1.5-1.3.89-2.29.58.31-1.51,1.48-.28,2.29-.58Z"/>
      <path class="cls-1" d="M73.51,76.87c.46-.53.72-.22.9.15.05.11-.07.44-.17.46-.38.1-.59-.18-.74-.61Z"/>
      <path class="cls-1" d="M63.72,76c-.27-.04-.57-.04-.63-.38-.01-.07.14-.17.22-.26.13.14.26.27.4.53.01.12.01.12.01.12Z"/>
      <path class="cls-1" d="M82.17,69.71c.27.04.57.04.63.38.01.07-.14.17-.22.26-.13-.14-.26-.27-.4-.53-.01-.12-.01-.12-.01-.12Z"/>
      <path class="cls-1" d="M100.74,75.11c-.36-.3-.07-.31.09-.32.1,0,.21.1.32.16-.1.06-.2.12-.4.17Z"/>
      <path class="cls-1" d="M99.85,69.68c-.08-.03-.08-.11-.08-.28.15-.03.32.04.08.28Z"/>
      <path class="cls-1" d="M75.04,51.83c.34-.63.86-.89,1.4-.93,1.56-.13,1.89-1.22,1.93-2.46.06-1.86.02-3.72.03-5.78,1.3-.38,1.43,1.09,2.37,1.5.38.16.49,1.12,1.19.55.48-.39.9-1.12.41-1.65-.78-.85-.35-2.05-1.03-2.89-.21-.27-.47-.6-.07-.88.33-.23.6.07.91.22,2.92,1.45,3.36,2.73,1.64,5.65-.49.84.04,2.23-1.38,2.56-.06.01-.13.34-.09.35,1.66.97.83,3.21,2.2,4.32.84.68,1.93,1.66,1.09,2.52-.94.97-.7,4.07-3.5,2.45-.44-.25-.92-.05-1.08.33-1.12,2.64-2.62,1.29-4.15.41.82-1.43,1.46-2.94,1.92-4.53.16-.56.66-1.23-.14-1.66-.63-.34-1.28-.32-1.94.17-.5.38-1.23,1.62-1.69-.24Z"/>
      <path class="cls-1" d="M45.39,67.95c-.52.45-.93.8-1.92,1.66.79-2.22.13-3.68-.69-5.1-.08-.15-.04-.54.07-.59.83-.43,1.95-.03,2.42-1.49.47-1.48,2.07-.55,2.67-.14,1.28.87,3.39.1,4.03,2.25-.04,2.52.31,5.01-2.22,7.07.19-1.3-.45-1.87-1.1-2.58-.02-.45-.02-.77-.02-1.24-1.16-1.65-2.16-1.04-3.24.17Z"/>
      <path class="cls-1" d="M86.79,71.09c.25-.08.56-.08.62.26.01.07-.14.17-.22.26-.13-.14-.26-.27-.4-.53Z"/>
      <path class="cls-1" d="M27.58,41.33c1.3-.67,2.41.87,3.75-.04.1.57.14,1.19.83,1.5.41.18,1.11.2.65.92-.34.54-.88.32-1.29.07-1.34-.8-2.57-1.13-3.66.43-.21.31-.75.45-1.13.17-.41-.3-.24-.74-.08-1.13.25-.61.09-1.42.94-1.92Z"/>
      <path class="cls-1" d="M45.43,68.04c.42-.56-.11-1.98.89-1.95.98.02,1.95.69,2.93,1.08-.12.14-.24.27-.5.43-1.29-.87-2.08.85-3.33.44Z"/>
      <path class="cls-1" d="M41.33,70.79c.57-.22.91-.11.92.43,0,.3-.21.51-.51.5-.54-.02-.65-.36-.42-.93Z"/>
    </g>
  </g>
</svg>