<?xml version="1.0" encoding="UTF-8"?>
<svg id="_レイヤー_2" data-name="レイヤー_2" xmlns="http://www.w3.org/2000/svg" viewBox="0 0 345.16 283.17">
  <defs>
    <style>
      .cls-1 {
        fill: #e5d5cc;
      }

      .cls-2 {
        fill: #3c322e;
      }
    </style>
  </defs>
  <g id="contactページ">
    <g>
      <path class="cls-1" d="M235.66,142.9c5.48.67,8.13,4.98,9.96,9.64.83,2.12.3,7.55-.96,9.36-2.94,4.21-5.76,4.61-11.12,5.68-1.12.22-2.26.15-3.41-.18-4.96-1.43-8.93-7.34-9.28-12.94-.34-5.38,4.47-9.21,9.68-10.94.36-.12.7-.28,1.23-.45,1.26-.39,2.49-.34,3.91-.16Z"/>
      <path class="cls-1" d="M133.96,132.98c5.48.67,8.13,4.98,9.96,9.64.83,2.12.3,7.55-.96,9.36-2.94,4.21-5.76,4.61-11.12,5.68-1.12.22-2.26.15-3.41-.18-4.96-1.43-8.93-7.34-9.28-12.94-.34-5.38,4.47-9.21,9.68-10.94.36-.12.7-.28,1.23-.45,1.26-.39,2.49-.34,3.91-.16Z"/>
      <g>
        <path class="cls-2" d="M195.43,58.88c-1.12-6.36-2.87-12.6-5.26-18.6-2.26-5.65-4.96-11.41-8.53-16.36-1.61-2.23-3.56-4.2-6.13-5.28s-5.44-1.2-8.19-.95c-5.48.49-10.92,2.03-16,4.12-20.65,8.53-35.75,26.59-48.39,44.35-7.27,10.21-13.95,20.94-18.65,32.6-2.34,5.79-4.13,11.77-5.26,17.91-1.28,6.89-1.89,13.88-3.35,20.74-5.06,23.75-20.51,44.96-19.41,69.98.29,6.64,1.51,13.2,2.57,19.75s1.63,12.54,1.78,18.9c.25,10.29-.19,21.49,4.72,30.89,1.15,2.2,2.61,4.22,4.32,6.02.66.7,1.72-.36,1.06-1.06-7.42-7.85-8.19-19.09-8.46-29.34-.14-5.4-.13-10.81-.66-16.19-.64-6.38-1.89-12.67-2.82-19.01s-1.43-13-.69-19.53c.65-5.81,2.13-11.51,3.96-17.06,3.69-11.22,8.81-21.9,12.43-33.14,1.93-6.02,3.22-12.14,4.14-18.39s1.75-12.9,3.45-19.2c3.18-11.76,8.78-22.69,15.3-32.93,6.16-9.69,13-19.07,20.57-27.71,7.15-8.16,15.18-15.73,24.49-21.38,4.58-2.78,9.47-5.08,14.6-6.66s11.37-3.25,16.68-1.76c5.81,1.63,8.83,8.18,11.38,13.11,2.93,5.68,5.26,11.66,6.96,17.83.79,2.89,1.44,5.81,1.95,8.75.17.95,1.61.55,1.45-.4h0Z"/>
        <path class="cls-2" d="M193.57,46.17c-1.23-6.35-2.89-12.62-4.99-18.74-.93-2.71-1.82-5.57-3.14-8.12-1.18-2.27-3.06-3.61-5.67-3.55-3.07.08-6.22.92-9.24,1.45-3.26.58-6.51,1.18-9.76,1.81-6.5,1.26-12.98,2.62-19.43,4.09-11.51,2.62-23.39,5.26-32.26,13.59-4.07,3.82-7.39,8.36-10.46,12.99-3.34,5.05-6.52,10.21-9.67,15.38-12.71,20.86-24.26,42.53-32.96,65.39-8.54,22.42-14.2,45.98-15.27,70.01-1.06,23.54,2.25,47.49,11.36,69.32,1.07,2.56,2.21,5.09,3.43,7.58.42.87,1.72.11,1.3-.76-10.12-20.75-14.66-43.83-14.77-66.84-.11-23.36,4.29-46.48,11.7-68.58s18.2-44.07,30.15-64.67c2.98-5.14,6.06-10.24,9.19-15.29s6-9.74,9.32-14.39,7-8.96,11.6-12.26,10.22-5.5,15.8-7.08c12.08-3.43,24.56-5.79,36.89-8.07,3.17-.59,6.35-1.15,9.53-1.68,1.55-.26,3.23-.7,4.8-.4s2.45,1.38,3.14,2.72c1.37,2.65,2.28,5.64,3.23,8.46s1.89,5.93,2.68,8.94,1.48,6.05,2.07,9.1c.18.95,1.63.55,1.45-.4h0Z"/>
        <path class="cls-2" d="M200.59,55.85c1.15-12.45-.79-25.96-6.49-37.19-1.19-2.34-2.85-4.27-5.4-5.12s-5.65-.73-8.4-.85c-6.18-.25-12.39-.37-18.55.25s-11.87,1.91-17.31,4.46-10.39,6.52-14.88,10.68c-9.39,8.69-18.96,17.75-26.23,28.35s-11.83,22.13-15.52,34.07c-3.47,11.22-6.06,22.69-8.57,34.15-4.93,22.52-9.5,45.62-20.14,66.29-2.56,4.98-5.47,9.79-8.77,14.33s-7.52,9.21-6.83,15.38c.37,3.31,1.71,6.47,2.81,9.58,1.19,3.37,2.39,6.75,3.58,10.12,2.36,6.66,4.72,13.33,7.08,19.99,1.17,3.29,2.33,6.58,3.5,9.88.32.9,1.77.51,1.45-.4-4.61-13.01-9.21-26.02-13.82-39.03-1.13-3.18-2.54-6.42-3.04-9.78s.46-6.16,2.17-8.91c1.47-2.36,3.27-4.5,4.88-6.76s3.09-4.53,4.51-6.88c11.53-19.14,16.94-41.14,21.72-62.74s9.14-46.01,19.49-66.88c2.8-5.66,6.11-11.06,10-16.04s8.31-9.6,12.81-14.06c8.65-8.56,17.39-18.05,29.27-21.92,5.83-1.9,11.96-2.61,18.06-2.8s11.89-.15,17.72.43c3.3.33,5.5,1.83,7.02,4.77,1.45,2.79,2.52,5.82,3.46,8.81,1.88,6,2.95,12.23,3.19,18.51.11,3.1.02,6.19-.27,9.28-.09.96,1.41.95,1.5,0h0Z"/>
        <path class="cls-2" d="M196.91,56.52c-3.1-7.94-6.78-16.88-14.42-21.48-9.26-5.57-20.19-1.56-28.81,3.26-8.72,4.87-16.99,10.64-24.87,16.76s-15.49,12.89-22.55,20.07c-13.97,14.22-26.08,30.28-35.85,47.66-10.62,18.9-18.41,39.37-23.16,60.52-4.86,21.62-6.57,43.96-4.94,66.06.2,2.75.46,5.49.76,8.22.1.95,1.61.96,1.5,0-2.38-21.53-1.61-43.38,2.26-64.69,3.86-21.23,10.74-41.93,20.51-61.18,8.85-17.42,20.02-33.65,33.08-48.18,13.06-14.53,28-27.38,44.38-38.04,4.26-2.77,8.59-5.52,13.16-7.75s10-4.16,15.36-3.92c9.91.45,15.78,8.63,19.56,16.89.93,2.04,1.77,4.12,2.59,6.21.35.89,1.8.5,1.45-.4h0Z"/>
        <path class="cls-2" d="M185.08,30.55c-14.8-9.29-32.48-13.76-49.92-12.81-16.46.9-32.34,6.78-45.51,16.68-6.33,4.76-11.99,10.35-16.8,16.65-5.19,6.79-9.14,14.32-12.18,22.28-3.61,9.43-6.26,19.24-9.17,28.9s-6.05,20.1-9.07,30.15c-6.07,20.18-12.14,40.36-18.22,60.55-.77,2.55-1.54,5.11-2.3,7.66-.28.93,1.17,1.32,1.45.4,5.95-19.78,11.9-39.57,17.86-59.35,5.89-19.56,11.5-39.23,17.71-58.7,2.76-8.67,6.04-17.18,10.9-24.91,4.2-6.7,9.39-12.76,15.3-18.01,12.08-10.73,27.18-17.9,43.21-20.14,17.15-2.4,35.08.69,50.41,8.73,1.9,1,3.76,2.07,5.58,3.22.82.51,1.57-.78.76-1.3h0Z"/>
        <path class="cls-2" d="M197.53,60.5c9.53-14.35,20.33-30.28,36.86-37.12s37-1.35,47.77,13.41c2.95,4.05,5.28,8.5,7.55,12.96,2.58,5.07,5.12,10.16,7.62,15.27,4.98,10.17,9.8,20.42,14.47,30.74s9.02,20.34,12.47,30.91,5.56,20.39,6.62,30.91c2.1,20.77-.22,41.95-6.89,61.74-.81,2.41-1.69,4.79-2.63,7.16-.36.9,1.09,1.29,1.45.4,7.85-19.81,11.28-41.31,10.1-62.59-.59-10.7-2.35-21.34-5.26-31.65s-7.25-21.12-11.75-31.32-9.65-21.26-14.73-31.77c-2.52-5.21-5.07-10.4-7.67-15.57-2.42-4.81-4.77-9.69-7.61-14.28-4.95-8-11.77-14.22-20.54-17.77-8.1-3.28-17.25-4.05-25.73-1.87-17.64,4.53-29.73,19.67-39.57,34-1.3,1.89-2.57,3.79-3.83,5.69-.54.81.76,1.56,1.3.76h0Z"/>
        <path class="cls-2" d="M208.63,50.62c14.52-13.07,31.57-23.3,49.94-29.94,4.56-1.65,9.19-3.07,13.88-4.28,5.12-1.31,10.52-2.76,15.79-1.42,8.67,2.21,15.92,9.33,20.83,16.52s8.24,15.4,10.88,23.69c3.08,9.67,5.51,19.59,7.67,29.5,4.6,21.2,7.2,43.16,4.45,64.8-2.39,18.79-8.84,37.39-20.4,52.55-1.45,1.9-2.99,3.74-4.59,5.51-.64.72.41,1.78,1.06,1.06,13.05-14.49,20.87-32.94,24.33-52,3.91-21.52,2.2-43.6-1.9-64.96-2.08-10.81-4.67-21.57-7.74-32.15-2.47-8.52-5.46-17-9.91-24.71s-10.27-14.37-17.93-18.66c-4.57-2.56-9.42-3.67-14.64-2.96s-10.11,2.15-14.99,3.65c-19,5.81-36.82,15.35-52.2,27.92-1.9,1.56-3.76,3.16-5.59,4.8-.72.65.34,1.71,1.06,1.06h0Z"/>
        <path class="cls-2" d="M213.03,40.34c2.02-8.99,9.37-15.58,17.48-19.3,4.87-2.24,10.11-3.58,15.35-4.65,2.52-.51,5.05-.96,7.58-1.4,2.79-.49,5.78-.98,8.47.2,2.2.96,3.93,2.74,5.52,4.48,1.68,1.84,3.27,3.77,4.75,5.78,2.87,3.89,5.36,8.05,7.58,12.34,4.49,8.71,7.8,17.96,10.88,27.24,6.92,20.86,13.91,42.12,15.94,64.12,1.75,19.05-.94,38.1-8.22,55.81-6.97,16.94-17.89,32.29-31.77,44.27-1.72,1.49-3.49,2.92-5.31,4.3-.76.58-.01,1.88.76,1.3,14.98-11.38,27.01-26.41,35.08-43.39,8.31-17.49,12.28-36.78,11.38-56.13-1.07-22.92-8.04-45.02-15.11-66.68-3.14-9.63-6.4-19.25-10.77-28.41-2.14-4.49-4.56-8.86-7.36-12.98s-5.89-8.36-9.72-11.49c-1.79-1.46-3.8-2.47-6.12-2.72-2.58-.27-5.19.31-7.72.76-5.42.96-10.86,1.98-16.11,3.69-8.77,2.87-17.3,8.04-21.76,16.41-1.02,1.91-1.77,3.95-2.25,6.06-.21.94,1.23,1.34,1.45.4h0Z"/>
        <path class="cls-2" d="M201.82,62.96c13.78-12.44,28.69-25.87,47.63-29.16,8.31-1.44,17.26-.91,25,2.64,8.46,3.89,14.05,11.16,18.28,19.24,4.65,8.88,8.52,18.27,12.07,27.62,3.61,9.49,6.71,19.2,8.95,29.11,4.18,18.48,5.28,37.73,1.12,56.32-3.72,16.62-11.47,32.58-23.74,44.55-1.51,1.47-3.08,2.88-4.71,4.22-.75.61.32,1.67,1.06,1.06,13.54-11.17,22.6-26.85,27.37-43.61,5.2-18.31,5.16-37.55,1.74-56.18-3.77-20.54-11.37-40.32-20.24-59.16-3.93-8.35-8.72-16.69-16.58-21.93-7.08-4.72-15.8-6.47-24.22-6.06-19.38.95-35.3,12.99-49.29,25.35-1.84,1.63-3.67,3.28-5.5,4.93-.72.65.35,1.71,1.06,1.06h0Z"/>
        <path class="cls-2" d="M200.06,53.46c4.97-17.62,17.09-32.84,32.73-42.24,8.08-4.85,17.21-8.26,26.59-9.39,5.36-.65,10.78-.32,15.83,1.71,4.02,1.62,7.6,4.2,10.68,7.23,6.43,6.34,10.86,14.49,14.51,22.66,4.58,10.25,8.48,20.89,11.95,31.56,7.1,21.84,11.84,44.68,11.47,67.72-.34,21.35-5.02,42.91-15.45,61.67-1.28,2.3-2.64,4.54-4.08,6.74-.53.81.77,1.56,1.3.76,12.02-18.39,18.07-40.08,19.44-61.89,1.47-23.4-2.56-46.81-9.29-69.16-3.46-11.5-7.62-22.79-12.22-33.88-3.5-8.46-7.62-16.85-13.53-23.91S276.49.95,267.34.13c-5.55-.5-11.21.45-16.57,1.85-4.49,1.18-8.85,2.82-13.02,4.84-16.63,8.08-30.19,22.49-36.95,39.73-.84,2.13-1.56,4.3-2.18,6.51-.26.93,1.18,1.33,1.45.4h0Z"/>
        <path class="cls-2" d="M211.06,45.51c8.48-12.62,21.86-21.48,36.51-25.27,7.23-1.87,14.78-2.51,22.22-1.75,8.01.81,16.6,3.03,22.68,8.56,5.83,5.3,9.3,12.68,12.03,19.93,3.32,8.8,6.19,17.81,9.03,26.78,6.07,19.14,10.93,38.67,11.86,58.8.91,19.54-1.45,39.22-6.99,57.98-.68,2.31-1.41,4.6-2.18,6.87-.31.92,1.14,1.31,1.45.4,6.46-19.02,9.65-39.12,9.4-59.2-.25-20.57-4.54-40.6-10.52-60.21-2.93-9.6-6.09-19.16-9.44-28.63-2.63-7.45-5.72-15.02-10.94-21.07-5.54-6.41-13.26-9.5-21.43-11.01-7.49-1.38-15.2-1.32-22.69.03-15.05,2.7-29.31,10.67-38.99,22.58-1.17,1.43-2.26,2.92-3.29,4.45-.54.8.76,1.55,1.3.76h0Z"/>
        <path class="cls-2" d="M222.26,41.98c9.6-2.8,19.39-4.94,29.29-6.37s19.7-2.64,29.06.32c8.43,2.66,15.28,8.67,21.33,14.9s11.48,12.93,16.3,20.09c9.54,14.15,16.65,29.92,20.89,46.46,4.4,17.17,5.58,35.08,3.6,52.7-2.03,18.02-7.36,35.7-15.72,51.79-1.04,2-2.12,3.96-3.25,5.91-.48.84.81,1.59,1.3.76,9.26-16.01,15.48-33.73,18.31-52.01,2.78-17.89,2.34-36.24-1.47-53.95-3.66-17-10.34-33.36-19.56-48.11-4.61-7.37-9.86-14.35-15.68-20.8s-12.14-12.78-19.89-16.78c-8.59-4.44-18.19-4.69-27.62-3.72-10.05,1.03-20.03,2.85-29.82,5.34-2.5.63-4.99,1.32-7.47,2.04-.92.27-.53,1.72.4,1.45h0Z"/>
        <path class="cls-2" d="M152.57,109.93c-2.03-5.4.23-11.49,5.42-14.09,2.57-1.29,5.91-1.7,8.67-.83s4.73,3.22,4.4,6.09c-.11.96,1.39.95,1.5,0,.37-3.12-1.76-5.97-4.54-7.18-3.1-1.35-6.96-1.02-10.03.27-6.21,2.63-9.23,9.84-6.87,16.13.34.9,1.79.51,1.45-.4h0Z"/>
        <path class="cls-2" d="M206.43,104.13c2.51-1.36,5.09-2.58,7.76-3.6,1.26-.48,2.54-.93,3.83-1.33,1.41-.44,2.98-1.03,4.44-.52,2.44.84,3.67,3.89,4.51,6.08.51,1.33,1.25,2.82,1.27,4.27s-.77,2.86-1.48,4.13c-.48.84.82,1.6,1.3.76.76-1.34,1.52-2.73,1.66-4.29s-.51-3.17-1.07-4.67c-.98-2.63-2.18-5.71-4.71-7.23-2.72-1.63-6.05-.12-8.74.84-3.28,1.17-6.46,2.61-9.52,4.27-.85.46-.09,1.76.76,1.3h0Z"/>
        <path class="cls-2" d="M209.75,101.25c-1.17-2.97-2-6.06-2.46-9.22-.06-.4-.57-.62-.92-.52-.43.12-.58.52-.52.92.46,3.16,1.29,6.25,2.46,9.22.15.38.5.64.92.52.36-.1.67-.54.52-.92h0Z"/>
        <path class="cls-2" d="M216.82,99.23c-.37-4.14.37-8.31,2.21-12.03.43-.86-.87-1.62-1.3-.76-1.95,3.96-2.81,8.39-2.41,12.79.09.95,1.59.96,1.5,0h0Z"/>
        <path class="cls-2" d="M225.4,99.76c2.41-1.27,4.66-2.84,6.71-4.64.3-.27.27-.79,0-1.06-.3-.3-.76-.27-1.06,0-1.95,1.72-4.1,3.19-6.4,4.41-.85.45-.1,1.75.76,1.3h0Z"/>
        <path class="cls-2" d="M228.41,103.67c2.59-.89,5.25-1.52,7.96-1.9.4-.06.62-.57.52-.92-.12-.43-.52-.58-.92-.52-2.71.38-5.37,1.01-7.96,1.9-.91.31-.52,1.76.4,1.45h0Z"/>
        <path class="cls-2" d="M230.13,107.34c2.72-.65,5.5-1,8.3-1.04.96-.01.97-1.51,0-1.5-2.93.04-5.85.41-8.7,1.09-.94.22-.54,1.67.4,1.45h0Z"/>
        <path class="cls-2" d="M229.57,110.66c1.29.5,2.69.6,4.05.37.39-.06.64-.56.52-.92-.14-.42-.51-.59-.92-.52-.03,0-.31.04-.13.02-.07,0-.13.02-.2.02-.15.01-.31.02-.46.03-.29,0-.58,0-.86-.03-.02,0-.24-.03-.06,0-.08-.01-.15-.02-.23-.04-.14-.02-.28-.05-.42-.09-.3-.07-.6-.17-.89-.28-.37-.14-.84.16-.92.52-.1.43.13.77.52.92h0Z"/>
        <path class="cls-2" d="M227.8,113.98c1.52,1.37,3.05,2.73,4.57,4.1.29.26.78.31,1.06,0,.26-.29.31-.78,0-1.06-1.52-1.37-3.05-2.73-4.57-4.1-.29-.26-.78-.31-1.06,0-.26.29-.31.78,0,1.06h0Z"/>
        <path class="cls-2" d="M152.63,109.12c-1.9-1.9-4.01-3.59-6.27-5.03-.34-.22-.83-.07-1.03.27-.21.36-.07.81.27,1.03,2.16,1.38,4.15,2.99,5.97,4.8.68.68,1.74-.38,1.06-1.06h0Z"/>
        <path class="cls-2" d="M152.73,102.48c-1.32-1.41-2.64-2.81-3.97-4.22-.27-.29-.79-.29-1.06,0-.28.31-.29.75,0,1.06,1.32,1.41,2.64,2.81,3.97,4.22.27.29.79.29,1.06,0,.28-.31.29-.75,0-1.06h0Z"/>
        <path class="cls-2" d="M154.55,98.4c-1.85-2.39-3.52-4.94-5-7.58-.47-.84-1.77-.09-1.3.76,1.55,2.76,3.3,5.38,5.24,7.88.25.32.8.26,1.06,0,.32-.32.25-.74,0-1.06h0Z"/>
        <path class="cls-2" d="M157.82,95.32c-.36-3.61-.88-7.21-1.58-10.78-.18-.95-1.63-.55-1.45.4.67,3.43,1.18,6.9,1.52,10.38.09.95,1.6.96,1.5,0h0Z"/>
        <path class="cls-2" d="M162.18,93.96c.77-3.34,1.26-6.75,1.47-10.17.06-.96-1.44-.96-1.5,0-.2,3.29-.68,6.55-1.42,9.77-.22.94,1.23,1.34,1.45.4h0Z"/>
        <path class="cls-2" d="M168.21,93.85c.11-2.2.91-4.3,2.24-6.05.24-.32.05-.84-.27-1.03-.38-.23-.78-.05-1.03.27-1.48,1.96-2.32,4.35-2.44,6.8-.02.4.36.75.75.75.42,0,.73-.34.75-.75h0Z"/>
        <path class="cls-2" d="M171.22,96.71c2.7-1.57,5.31-3.3,7.82-5.18.32-.24.49-.65.27-1.03-.19-.32-.7-.51-1.03-.27-2.5,1.87-5.11,3.6-7.82,5.18-.83.49-.08,1.78.76,1.3h0Z"/>
        <path class="cls-2" d="M173.16,100.1c1.92.2,3.87.02,5.73-.5.39-.11.63-.53.52-.92s-.53-.63-.92-.52c-1.74.49-3.53.63-5.33.44-.4-.04-.75.37-.75.75,0,.44.35.71.75.75h0Z"/>
        <path class="cls-2" d="M180.25,121.25c.15-2.01.99-3.98,2.34-5.47.16-.17.32-.33.49-.49.04-.02.07-.04.11-.07,0-.02-.01-.03-.05-.03-.07.12-.08-.29-.02.02.09.47.27,1.01.37,1.51.25,1.24.4,2.49.47,3.75l1.28-.53c-.82-1.06-1.65-2.12-2.47-3.18-.26-.34-.79-.24-1.06,0-1.15.99-1.99,2.28-2.46,3.71l1.47.2c.09-.77.28-1.53.54-2.26.13-.36.27-.7.44-1.04.05-.09.54-.89.53-.9.02.02-.21.07-.2.05-.01.02.09.12.08.09.07.13.2.26.28.39.21.32.4.65.57.98.37.71.64,1.45.84,2.22l.72-.95c-1.15-.03-2.3-.07-3.45-.1l.72.95c.34-1.97,1.26-3.77,2.7-5.17l-1.25-.33c.44,1.99.88,3.97,1.32,5.96.09.4.55.63.92.52.41-.11.61-.53.52-.92-.44-1.99-.88-3.97-1.32-5.96-.12-.57-.87-.71-1.25-.33-1.6,1.56-2.71,3.62-3.08,5.83-.08.48.2.93.72.95,1.15.03,2.3.07,3.45.1.49.01.84-.49.72-.95-.26-1.01-.65-1.99-1.16-2.9-.45-.81-1.19-2.18-2.34-1.84-.53.15-.83.61-1.08,1.07s-.48.94-.68,1.42c-.4,1-.64,2.04-.76,3.11-.04.37.32.7.65.74.38.05.7-.17.82-.54.4-1.2,1.12-2.23,2.08-3.05h-1.06c.82,1.06,1.65,2.12,2.47,3.18.4.52,1.31.08,1.28-.53-.07-1.22-.21-2.43-.42-3.63-.1-.58-.22-1.16-.37-1.73-.13-.48-.36-.98-.82-1.24-1.1-.61-2.1.52-2.71,1.3-.66.83-1.19,1.72-1.6,2.71-.45,1.07-.7,2.21-.78,3.36-.03.4.37.75.75.75.43,0,.72-.34.75-.75h0Z"/>
        <path class="cls-2" d="M160.39,142.11l15.25.54,7.38.26,1.97.07c.46.02,1.31-.14,1.72.06.47.23.14-.2.22.26.02.14-.13.45-.17.59-.17.59-.34,1.18-.52,1.77-1.21,3.99-2.92,8.34-6.63,10.63-1.63,1-3.55,1.62-5.47,1.5-2.16-.14-3.75-1.34-5.12-2.93-3.37-3.93-5.76-8.67-7.14-13.64-.26-.93-1.71-.53-1.45.4,1.38,4.98,3.74,9.62,6.99,13.65,1.43,1.77,3.06,3.33,5.34,3.84,2.02.44,4.12.11,6-.69,4.25-1.81,6.64-5.84,8.15-10.01.42-1.16.78-2.34,1.12-3.52.24-.83.85-2.06.19-2.84-.61-.72-1.94-.51-2.75-.54l-4.43-.16c-6.89-.24-13.77-.49-20.66-.73-.97-.03-.96,1.47,0,1.5h0Z"/>
        <g>
          <path class="cls-1" d="M162.62,186.64c-4.29,12.47-7.65,25.08-10.06,37.73,9.07-2.8,18.42-4.77,27.79-5.86-1.76-9.03-1.78-18.45-.05-27.8"/>
          <path class="cls-2" d="M161.88,186.43c-4.23,12.33-7.61,24.93-10.06,37.73-.11.55.35,1.14.95.95,9-2.76,18.23-4.73,27.59-5.83.52-.06.85-.44.75-.98-1.74-9.04-1.7-18.33-.05-27.39.18-.98-1.32-1.39-1.5-.41-1.7,9.34-1.74,18.88.05,28.21l.75-.98c-9.49,1.12-18.86,3.08-28,5.88l.95.95c2.45-12.8,5.84-25.4,10.06-37.73.32-.95-1.17-1.35-1.5-.41h0Z"/>
        </g>
        <path class="cls-2" d="M179.92,200.82c1.73-.47,3.46-.93,5.19-1.4l-.95-.72c-.2,2.23-.34,4.8,1.03,6.73,1.04,1.46,3.1,2.42,4.88,1.87,2.19-.68,2.59-3.05,2.14-5.02-.24-1.05-.64-2.08-1.09-3.05s-1.02-1.87-1.9-2.47c-1.66-1.15-4.56-.39-4.65,1.88-.04.97,1.46.96,1.5,0,.02-.52.52-.79.97-.89.59-.13,1.13.04,1.58.44,1.12.97,1.68,2.77,2.05,4.16.33,1.24.45,3.15-1.14,3.54-1.17.29-2.54-.4-3.18-1.39-1.1-1.68-.87-3.9-.71-5.8.04-.5-.51-.84-.95-.72-1.73.47-3.46.93-5.19,1.4-.93.25-.54,1.7.4,1.45h0Z"/>
        <path class="cls-2" d="M156.87,201.99c-4.42,1.38-8.93,2.47-13.51,3.22-2.1.35-4.23.52-6.32.89-1.62.29-3.28.83-4.47,2.02-2.31,2.31-2.04,6.25.53,8.24,1.4,1.08,3.08,1.35,4.79,1.03s3.58-.9,4.94-1.92c1.54-1.16,1.77-2.81,1.39-4.6s-.97-3.72-2.6-4.84c-.8-.55-1.55.75-.76,1.3.85.58,1.24,1.5,1.53,2.45s.75,2.27.45,3.28c-.49,1.65-2.81,2.21-4.25,2.62-2.02.57-4.14.48-5.45-1.4-1.12-1.6-.81-3.91.62-5.22s3.38-1.5,5.15-1.72c1.93-.24,3.86-.5,5.78-.84,4.25-.74,8.44-1.77,12.56-3.06.92-.29.53-1.74-.4-1.45h0Z"/>
        <path class="cls-2" d="M161.02,221.29c-1.31,12.5-2.16,25.05-2.56,37.61-.03.97,1.47.96,1.5,0,.4-12.56,1.26-25.11,2.56-37.61.1-.96-1.4-.95-1.5,0h0Z"/>
        <path class="cls-2" d="M168.79,220.66c1.94,7.26,2.2,14.78,2.53,22.25.34,7.65,1.12,15.44.58,23.09-.07.96,1.43.96,1.5,0,.55-7.81-.25-15.77-.6-23.58-.33-7.43-.64-14.93-2.57-22.16-.25-.93-1.7-.54-1.45.4h0Z"/>
        <path class="cls-2" d="M161.8,102.5c-2.6,1.21-3.58,4.94-1.91,7.27.2.27.5.44.85.34,1.58-.42,2.07-2.09,2.12-3.55.03-.79-.05-1.61-.22-2.39-.19-.88-.65-1.77-1.49-2.19-.78-.38-1.77-.4-2.42.24-.72.71-.77,1.9-.76,2.85s.16,1.99.51,2.91,1.08,1.72,2.14,1.44c1.13-.29,1.58-1.46,1.51-2.53-.08-1.2-.31-2.4-.47-3.59-.05-.4-.31-.75-.75-.75-.36,0-.8.35-.75.75.11.83.22,1.66.33,2.48.05.37.11.74.13,1.11.02.29.04.65-.14.9-.09.13-.22.21-.33.18.09.02-.03-.06-.04-.07-.06-.06-.14-.21-.2-.33-.24-.57-.38-1.34-.43-2s-.1-1.44.15-2.05c.04-.09.08-.16.15-.23.04-.03.12-.07.18-.07-.08.01.16,0,.22,0-.1-.01.08.03.1.03.07.02.11.04.15.06.46.23.65.75.76,1.27.12.55.16,1.13.17,1.69,0,.61-.03,1.04-.23,1.61-.05.13-.19.39-.3.5-.03.03-.07.07-.1.1-.12.11.05-.02-.08.06.01,0-.19.1-.11.06.03-.01-.16.05-.2.06l.85.34c-.63-.88-.76-1.91-.5-2.91s.89-1.85,1.87-2.31c.37-.17.46-.7.27-1.03-.22-.38-.66-.44-1.03-.27h0Z"/>
        <path class="cls-2" d="M215.83,106.19c-1.95,1.09-3.42,3.1-3.75,5.33-.17,1.15-.02,2.51.93,3.3.86.72,2.14.92,3.05.16.47-.39.7-.96.93-1.5.25-.61.48-1.22.69-1.85.4-1.22.79-2.53.9-3.81.1-1.21-.72-2.26-1.98-2.2-1.11.05-1.99.74-2.61,1.62-1.34,1.91-1.03,4.61-.34,6.71.2.62,1.02.74,1.37.18,1.31-2.07,2.01-4.49,2.01-6.95l-1.47.2c.12.64-.15,1.39-.68,1.79-.33.24-.49.65-.27,1.03.19.32.7.51,1.03.27,1.11-.82,1.63-2.12,1.37-3.48-.16-.84-1.47-.63-1.47.2,0,2.2-.63,4.33-1.8,6.19l1.37.18c-.48-1.44-.76-3.07-.3-4.55.19-.61.55-1.21,1.07-1.59.4-.29,1.13-.5,1.22.05.06.38-.08.82-.16,1.19-.12.55-.25,1.1-.4,1.64-.27.97-.6,1.93-1,2.85-.11.26-.27.65-.52.78-.23.12-.5.06-.74-.05-.73-.35-.81-1.31-.72-2.03.24-1.83,1.46-3.47,3.05-4.36.84-.47.09-1.77-.76-1.3h0Z"/>
        <path class="cls-2" d="M195.93,62.4c.31-8.69-3.91-16.89-10.26-22.65-6.94-6.29-16.03-9.26-25.33-9.21-21.53.11-39.01,14.28-53.7,28.51-7.75,7.51-15.37,15.21-22.18,23.61s-12.33,17.37-16.99,27.05c-4.81,10-9.08,20.29-15.18,29.61-5.94,9.09-13.13,17.26-19.36,26.14-6.06,8.63-10.65,18.05-14.94,27.65s-8.28,19.08-13.63,28c-1.32,2.21-2.73,4.36-4.22,6.46-.56.79.74,1.54,1.3.76,11.77-16.57,17.33-36.45,27.51-53.91,5.38-9.21,12.26-17.37,18.64-25.87,3.17-4.22,6.21-8.54,8.86-13.1s5.01-9.4,7.27-14.22c4.56-9.73,8.95-19.52,15.02-28.44,5.92-8.7,12.96-16.58,20.31-24.09,14.19-14.5,29.8-30.45,50.23-35.3,9.58-2.28,20.18-1.94,28.97,2.88,7.52,4.13,13.67,11.29,15.6,19.76.48,2.09.66,4.22.58,6.36-.03.97,1.47.96,1.5,0h0Z"/>
        <path class="cls-2" d="M201.92,56.54c-3.34-8.29-10.25-14.53-18.36-18.06-9.38-4.08-19.81-4.27-29.7-2.16s-19.87,6.58-28.8,11.85c-8.11,4.79-15.66,10.51-22.59,16.87-14.02,12.87-25.53,28.34-34.99,44.8-10.73,18.69-18.72,38.8-25.72,59.14-7.53,21.88-13.93,44.13-21.51,66-.92,2.66-1.86,5.31-2.82,7.95-.33.91,1.12,1.3,1.45.4,7.67-21.17,13.99-42.8,21.04-64.18s14.27-41.07,24.34-60.32c8.68-16.59,19.26-32.31,32.24-45.85s28.81-25.2,46.57-31.89c10.05-3.78,21.17-5.96,31.84-3.79,8.7,1.77,17.14,6.46,22.36,13.78,1.3,1.82,2.38,3.78,3.21,5.85.36.88,1.81.5,1.45-.4h0Z"/>
        <path class="cls-2" d="M159.77,102.84c-.64.83-.75,1.93-.65,2.95.12,1.18.4,2.36.62,3.53.12.61.86.66,1.25.33,1.02-.84,2.01-1.81,2.15-3.19.06-.66-.1-1.35-.43-1.92s-.95-1.29-1.68-1.06c-.8.25-.85,1.24-.91,1.93s-.04,1.41.05,2.11c.1.77.28,1.52.55,2.24.13.34.25.74.58.93.41.24.87.09,1.22-.18,1.39-1.12,1.22-3,.98-4.57-.04-.28-.36-.51-.62-.54-.32-.04-.56.1-.75.36-.46.64-.46,1.45-.42,2.21.02.27.04.64,0,.86-.04.24-.12.49-.26.6.06-.04-.04.02-.05.03.06-.02-.09,0-.1,0-.12,0-.23-.06-.33-.13-.19-.12-.32-.3-.4-.5-.2-.48-.14-.97.18-1.4.24-.33.06-.84-.27-1.03-.38-.22-.79-.06-1.03.27-.53.72-.63,1.73-.33,2.57.34.94,1.23,1.78,2.28,1.72s1.67-1.03,1.8-2.02c.1-.77-.26-1.75.22-2.42l-1.37-.18c.1.62.21,1.29.09,1.91-.08.42-.28.99-.69,1.16l.38-.1h.04c.11.08.22.14.33.21.04.04-.04-.13-.05-.15-.04-.12-.09-.23-.13-.35-.08-.24-.15-.47-.21-.72-.11-.44-.19-.88-.22-1.33-.04-.48-.04-.95,0-1.43.02-.22.03-.45.08-.66,0-.03.02-.19.03-.13-.58-.04-.77.02-.58.19.04.03.07.07.1.11.42.49.53,1.22.28,1.81-.31.73-1,1.25-1.59,1.74l1.25.33c-.19-1-.44-2.01-.56-3.02-.09-.82-.08-1.62.43-2.3.25-.32.05-.84-.27-1.03-.39-.23-.78-.05-1.03.27h0Z"/>
        <path class="cls-2" d="M183.32,117.87c-.53.07-1.05.15-1.58.22-.17.02-.36.2-.45.34-.09.16-.13.4-.08.58s.17.36.34.45l.18.08c.13.04.27.04.4,0,.53-.07,1.05-.15,1.58-.22.17-.02.36-.2.45-.34.09-.16.13-.4.08-.58s-.17-.36-.34-.45l-.18-.08c-.13-.04-.27-.04-.4,0h0Z"/>
        <path class="cls-2" d="M215.15,108.18c-.95,1.18-1.91,2.58-1.48,4.17.16.58.83.68,1.25.33.89-.75,1.71-1.58,2.43-2.5.37-.47.66-.97.7-1.58s-.19-1.18-.58-1.65c-.34-.41-.92-.19-1.18.15-.73.97-1.44,1.96-1.81,3.13s-.35,2.47-.6,3.7c-.15.71.7,1.28,1.25.73,1-.99,1.3-2.37,1.51-3.7l-1.47-.2-.03.47c-.03.4.36.75.75.75.43,0,.72-.34.75-.75l.03-.47c.05-.83-1.34-1.04-1.47-.2-.16,1.06-.32,2.25-1.12,3.04l1.25.73c.25-1.18.23-2.42.57-3.58.32-1.08,1.03-2,1.7-2.89l-1.18.15c.46.56-.21,1.24-.57,1.66-.61.71-1.27,1.36-1.98,1.96l1.25.33c-.27-1,.51-1.98,1.1-2.71.25-.32.31-.75,0-1.06-.26-.26-.81-.32-1.06,0h0Z"/>
        <path class="cls-2" d="M163.64,106.24c-.1-1-.38-1.96-.89-2.83-.23-.39-.51-.81-.86-1.11-.2-.17-.42-.31-.67-.39-.14-.04-.29-.06-.43-.07h-.13c-.08-.02-.07-.01.04,0l.19.33h0c-.25.26-.5.51-.75.76,1.61-.16,1.97,1.7,1.97,2.95,0,.73-.14,1.47-.44,2.13-.13.28-.28.64-.54.83-.12.09-.12.05-.21.07.02,0,.02.01.03.01-.13.01-.04-.07.01.06-.14-.38-.51-.64-.92-.52-.37.1-.66.54-.52.92.44,1.21,1.92,1.29,2.77.44s1.19-2.17,1.3-3.31c.22-2.17-.7-5.35-3.44-5.08-.41.04-.74.31-.75.75,0,.57.41,1,.96,1.11.17.03.37,0,.52.09s.26.27.35.4c.5.72.84,1.56.93,2.44.04.4.32.75.75.75.37,0,.79-.34.75-.75h0Z"/>
        <path class="cls-2" d="M172.76,98.64c-.13.05-.26.08-.4.1l.2-.03c-.07,0-.14.01-.22.02-.1,0-.2.02-.29.06-.09.03-.17.08-.24.16-.07.07-.12.15-.16.24-.05.09-.07.19-.06.29l.03.2c.04.13.1.24.19.33l.15.12c.12.07.24.1.38.1.17,0,.34-.03.51-.06.11-.02.21-.05.31-.09.1-.02.18-.07.26-.13.08-.05.15-.12.19-.21.05-.09.08-.18.09-.28.02-.1.02-.2-.01-.3l-.08-.18c-.07-.11-.16-.2-.27-.27l-.18-.08c-.13-.04-.27-.04-.4,0h0Z"/>
        <path class="cls-2" d="M199.09,61.18c-7.75-.53-15.43,1.2-22.82,3.37-6.68,1.96-13.27,4.47-19.25,8.06-6.16,3.69-11.32,8.6-15.78,14.21-2.21,2.78-4.26,5.68-6.25,8.61s-4.07,5.91-5.86,9.01c-3.83,6.66-4.86,14.22-5.39,21.77s-.22,15.25,1.45,22.67c2.93,13.05,10.31,24.9,21.94,31.81,12.25,7.28,27.38,10.06,41.49,9.57s27.8-4.4,39.95-11.42c11.22-6.48,20.98-15.45,28.38-26.09,4-5.75,7.21-11.96,8.6-18.87,1.31-6.55,1.17-13.33-.17-19.86-2.67-13.07-10.16-24.53-20.05-33.32-4.84-4.3-10.2-7.99-15.87-11.11-6.23-3.43-12.94-6.5-19.95-7.89-3.48-.69-7.03-.92-10.56-.5-.95.11-.96,1.61,0,1.5,7.5-.88,14.88,1.25,21.7,4.23,5.8,2.53,11.38,5.62,16.55,9.26,10.41,7.32,19.36,17.21,24.04,29.17s5.28,26.23-.5,38.12c-5.6,11.53-14.99,21.62-25.3,29.1-22.3,16.2-52.14,20.86-78.12,11.26-6.34-2.34-12.4-5.67-17.29-10.39-4.63-4.47-8.16-10.01-10.59-15.95-2.65-6.5-3.98-13.47-4.34-20.46-.38-7.36.07-15.01,1.62-22.22,1.56-7.25,5.82-13.16,9.93-19.18s8.1-11.36,13.29-16.01,11.29-8.01,17.71-10.56,13.42-4.63,20.34-5.78c3.67-.61,7.38-.86,11.1-.61.96.07.96-1.43,0-1.5h0Z"/>
      </g>
    </g>
  </g>
</svg>