<?xml version="1.0" encoding="UTF-8"?>
<svg id="_レイヤー_2" data-name="レイヤー_2" xmlns="http://www.w3.org/2000/svg" viewBox="0 0 97.77 91.66">
  <defs>
    <style>
      .cls-1 {
        fill: #e5d5cc;
      }
    </style>
  </defs>
  <g id="_メインページ" data-name="メインページ">
    <g>
      <path class="cls-1" d="M54.22,0c.19,0,.19.17.2.25-1.62,1.11-3.33.83-5.2.23-.14-.13-.13-.3-.13-.39,1.64-.09,3.29-.09,5.12-.09Z"/>
      <path class="cls-1" d="M97.15,42.16c1.16,4.11.42,8.17-.15,12.12-1.72,11.99-9.46,20.47-19.54,27.54-.91,0-1.5.44-2.18.68-1.33.49-2.52,1.46-4.21.7-.99-.45-1.73.54-2.39,1.12-.89.79-1.62,1.1-2.84.4-1.67-.96-3.21-.36-3.93,1.34-.46,1.09-1.57,1.75-2.1,2.93-2.3.69-4.52,1.28-6.89,1.87-.85-.94-.25-1.63.3-2.36-.5.01-1.13.21-1.46-.42-.22-.43-.3-1.04.11-1.22,1.98-.85,1.87-2.96,3.22-4.33,1.24.07,2.21.53,3.53.18,4.22-1.13,4.24-1.02,4.67-5.05.08-.77-.2-.89-.88-.77-.6.11-1.21.18-1.81.28-1.16.19-2.01-.11-2.34-1.26-.32-1.09.08-1.99,1.18-2.31,1.73-.5,3.49-1.12,5.07-1.78,3.34-1.39,7.07-2.76,9.04-5.82,1.08-1.68,2.2-3.93.39-6.14-.95-1.16-.34-2.55.06-3.83.85-2.69.71-5.43.22-8.29-1.2-2.08-.31-3.7.98-5.4.6-1.03,1.24-1.78,2.61-1.82.63,1.78,2.25.37,3.21,1.08.02,1.27-.51,2.29-1.14,3.21-.83,1.2-.13,1.56.91,1.83.46.12.94.03,1.4-.02,1.16-.14,1.67.27,1.39,1.39-.09.38-.55.9.15,1.1.61.17.99-.28,1.18-.79.18-.47.3-.96.61-1.53.55-1.08.45-2.26,1.36-3.06.76-.67,1.36-.86,1.7.36.48,1.71.86,3.44,1.31,5.16.51,1.97,0,2.58-2.09,3.08-.46.11-.94.17-1.39.57,1.52.37,3.2.11,4.41,1.26.27.26.91.33,1.05-.11.27-.89,1.67-1.39,1.15-2.49-.77-1.62-.3-3.7-2.23-4.91-.63-.39-.54-1.26-.66-1.95-.14-.82-.08-1.57.94-1.83,1.08-.27,1.23.51,1.39,1.21.3,1.27,1.45,1.09,2.47,1.31-.23-.72-1.01-1.08-1.03-1.93,1.12-.42,2.16-.82,3.23-1.3Z"/>
      <path class="cls-1" d="M43.05,91.28c-4.81-.05-9.09-1.74-13.33-3.41-8.25-3.26-15.59-7.7-21.01-14.54-2.81-3.55-4.14-7.64-4.92-11.93-.09-.49-.13-1.02-.35-1.46C.67,54.5-.19,48.72.03,42.76c.08-2.09.11-4.18.22-6.44.45-.6.86-1,1.19-1.49,1.17-1.69,2.74-3.28.65-5.44.2-1.54.94-2.78,1.57-4.19,2.25-.09,4.61-.72,6.47-.03,2.28.86,4.03.7,6.04-.27.58-.28,1.48-.21,2.16.13,1.89.93,1.88.94,2.79-.98,2.07.68,5.08-.06,5.5,3.21,0,.33-.04.52-.17.83-.51.58-1.09.72-1.72.74-.56.02-1.13.09-1.5.47-1.66,1.69-3.47,3.32-4.49,5.41-.67,1.38-1.23,2.74-2.41,3.86-1.91,1.81-2.72,4.32-4.49,6.26-.78.86-.21,2.08.3,3.05.49.93.88,1.84.43,3.01-1.16.74-2.34.89-3.57.69-.64-.1-1.4-.23-1.53.47-.25,1.36-.7,2.77.06,4.28,1.06-1.76,1.18-1.78,2.73-.45.3.26.59.64,1.02.48,1.48-.53,1.5.14,1.77,1.3.38,1.64.18,3.58,1.95,4.92.47,1.32,1.23,2.37,1.93,3.58-.18,1.51-.38,2.88.11,4.26.13.37.19.84-.04,1.11-1.45,1.8.07,2.88,1.16,3.95,1.11,1.09,1.82,2.77,3.96,2.61.8-.06,1.61.34,2.29.75,2.27,1.36,4.85,2.29,6.72,4.19.52.53,1.19.64,1.87.46,1.48-.38,2.66.1,3.75.96,1.16.92,2.39,1.06,3.95.85,1.82-.24,3.73-.73,5.71-.03.37.46.71.77.99,1.12.48.62,1.01,1.35.54,2.07-.53.82-1.32.16-1.99,0-1.95-.45-2.69.26-2.9,2.8Z"/>
      <path class="cls-1" d="M21.28,23.86c.09,1.1.01,2.06-1.1,2.54-.7.3-1.35,1.11-1.82-.49-.36-1.23-2.05-.72-2.92-.31-.75.35-1.61.63-2.29,1.16-.39.31-1.16.4-1.29.06-.9-2.36-2.97-1.2-4.49-1.22-1.15-.02-2.24-.01-3.47-.43,0-.96.51-1.72,1.04-2.61,1.13-.9,2.69-1.12,3.55-1.79,2.15-1.68,4.67-3.02,6.17-5.5.9-1.5-.54-2.16-.36-3.35,3.89-3.15,8.21-5.33,13.02-6.63,5.38-1.45,10.57-3.55,16.16-4.33,1.74-.24,3.49-.4,5.41-.61,1.84,0,3.49,0,5.34,0,5.09.26,9.56,2.09,14.32,3.46.69,1.28,1.55,2.2,2.93,2.65.53.17,1.27.68,1,1.02-1.17,1.47.32,1.91,1.02,2.62.9.92.99,1.84,0,2.65-.77.64-1.15,1.18-.41,2.05.3.35.46.83.03,1.21-.4.35-.87.22-1.35.1-.4-.1-.95-.62-1.17.08-.19.63.23,1.09.94,1.24.53.11,1.09-.02,1.63.06.71.11,1.6.45,1.35,1.11-.4,1.04-.28,1.34.9,1.28.43-.02.76.27.85.69.1.5-.13.91-.59,1.11-1.08.47-1.82,1.31-2.85,2.05-1.86.08-3.23-.45-3.96-2.15.81-.87,1.14-1.25.09-2.39-1.53-1.67-2.98-2.79-5.42-2.81-1.05,0-2.39-2.56-2.03-3.47.23-.58.74-.75,1.31-.65.95.18,1.84.5,1.96,1.59.04.39-.58,1.16.47.98.73-.12.45-.78.29-1.27-.34-1.01-.96-1.95-.71-3.06-.58-.27-.81.14-1.04.39-1.03,1.14-2.09.95-3.18.12-.56-.42-1.01-1.11-2.03-.51-.86.26-1.6.28-2.34.15-.89-.16-1.84-.43-1.96-1.38-.14-1.14,1.23-.55,1.75-1.06-.75-.49-1.52-.72-2.34-.51-.95.25-1.74.02-2.47-.49-1.06-.74-1.73-.73-2.56.47-1.25,1.82-1.34,2.86.25,4.3.98.89.64,1.81,0,2.85-2.52,1.15-4.32,2.87-5.99,4.92-.78.65-1.67.99-2.21,1.9-.26.2-.44.25-.78.25-.43-.12-.64-.3-.91-.63-.23-.35-.34-.6-.44-.99-.12-.74.42-1.26.23-2-.42-.95-.25-1.58.68-2,.53-.24,1.26-.53.84-1.25-.37-.64-1.08-.33-1.66-.19-.59.14-1.16.37-1.76.5-1.74.37-2.39.04-2.85-1.65-.3-1.08-.87-.63-1.25-.22-.91.97-2.01,1.71-3.13,2.41-.64.4-1.43.64-1.62-.51-.23-1.37-1.85-1.92-3.01-.88-1.03.93-2.01,1.19-3.29.57.07.67.41,1.37-.43,1.73-.84.37-1.27-.24-1.63-.76-.74-1.06-1.46-1.04-2.17-.03-.34.48-.77.83-1.36,1.13.81.7,2.17,1.06,1.41,2.56-.21.41.6.04,1.08.08.25-.02.35-.02.6,0,.56.11.9.3,1.05.84-.51,1.34-1.03,2.55.94,3.25Z"/>
      <path class="cls-1" d="M72.99,23.76c.41-1.05.9-2.05,2.22-2.28.43-.08.98-.37.69-.95-.26-.51-.81-.38-1.26-.24-.6.19-1.26.45-1.6-.23-.37-.72.54-.72.89-1.01.23-.19.42-.39.28-.63-.41-.7-1.2-.64-1.82-.5-1.44.32-2.26-.13-2.43-1.48-.06-.46-.28-1.09.3-1.38.47-.24.89.18,1.29.39.45.24.91.83,1.39.28.39-.44-.32-.72-.54-1.08-.42-.68-1.45-1.28.33-1.87,1.55-.51,1.29-1.45-.04-2.95-.28-.31-4-.56-.63-2.14.51-.24-.4-.65-.87-.87-1.21-.56-2.82-.83-2.5-2.81,5.08,1.08,8.76,4.18,12.26,7.62,7.4,7.27,13.14,15.4,15.48,25.49-1.26,1.2-2.25.88-3.05-.37-.3-.48-.67-.91-1.04-1.51-.13-.43-.03-.66.34-.93.57-.47.53-.98.49-1.49-.08.42.1.87-.32,1.34-.69.5-1.35.51-2.04.39-.46-.08-.96-.26-1.2.49-2.35,3.01-2.5,3.02-5.1.35-.18-.19-.39-.35-.68-.62-.38-.44-.29-.81-.24-1.19.05-.4.12-.28-.05-.01-.73,1.09-1.46.41-2.16-.07-1.48-1.04-3.2-1.84-4.11-3.63-.36-.37-.49-.71-.68-1.17-.72-1.37-2.15-2.25-1.96-3.95.06-.52-.91-.59-1.64-1Z"/>
      <path class="cls-1" d="M43.1,91.47c-.73-2.39-.2-3.25,1.8-3.75,1.15-.29,1.58.93,2.67.76.4-1.21-.67-1.82-1.31-2.74.35-.73,1.12-.75,1.67-1.13-.23-.7-1.53-.47-1.42-1.37.1-.78.72-1.33,1.35-1.99.5-.23.89-.24,1.43-.09.5.27.59.67.9,1.03.44-1.46,1.17-1.95,2.4-.63.64.69,1.68.39,2.53.91-.06,1.36-1.23,2.29-1.18,3.63.02.57-.54.63-1.04.65-.67.02-1.05.33-.88.96.2.76.78.45,1.3.32.56-.14,1.16-.34,1.85.35-1.48.18-2.37.82-2.4,2.32-3.15.79-6.31,1.21-9.68.76Z"/>
      <path class="cls-1" d="M59.89,89.08c-.24-.85-.2-1.64.82-2.06.39-.16.45-.61.68-.9.62-.79-.2-2.84,2.08-2.18,1.02.29,2.4-.96,3.13.73.17.39,1.01.19,1.33-.35.46-.76,1.37-1.01,2-1.57.23-.2.71-.5.82-.43,2.29,1.54,3.85,0,5.55-1.07.36-.23.53.26.9.51-5.08,3.63-10.95,5.82-17.32,7.31Z"/>
      <path class="cls-1" d="M14.29,11.86c.12.02.12.09.14.15.25,1.08,2.56,1.59.69,3.36-.94.88-1.14,2.46-2.77,2.91-.99.28-1.33,1.24-1.92,1.88-1.38,1.49-3.49,1.34-5.24,2.29.87-2.2,2.18-4.23,4.04-6.06.68-.36,1.19-.71,1.9-.79,2.13-.25,2.22-.42,1.93-2.62.41-.44.76-.76,1.22-1.12Z"/>
      <path class="cls-1" d="M92.27,34.92c.73.37,1.2.81,1.41,1.41.42,1.24,1.31,1.35,2.59.96.69,1.5.96,3.04,1,4.78-.87.81-1.5,1.96-3.1,1.3-.6-.31-.7-.76-.77-1.36.58-.98.76-1.71-.07-2.62-.81-.89-1.38-1.98-1.97-3.04-.48-.86-.39-1.44.91-1.44Z"/>
      <path class="cls-1" d="M1.97,29.36c.26.1.42.29.59.48.94,1.09,1.58,2.05,1.44,2.11-1.12.49-.61,1.95-1.7,2.44-.82.37-.19,1.96-1.84,1.75.02-2.3.56-4.53,1.52-6.79Z"/>
      <path class="cls-1" d="M12.99,12.9c.48.64,1.38,1.19.68,2.13-.61.82-1.21,1.42-2.45,1.01-.43-.14-1.02.18-1.71.28.72-1.39,2.03-2.39,3.48-3.42Z"/>
      <path class="cls-1" d="M75.54,42.13c.04.41.1.81-.09.99-1.3,1.19-1.6,2.56-1.04,4.29.56.94.3,1.83.03,2.53-.97,2.47-1.28,5.15-2.73,7.47-.49.78-.8,1.52-.23,2.47,1.51,2.52.53,6.82-2.04,8.46-1.54.98-3.14,2.04-5.32,1.94-1.17-.82-1.4-2.32-2.9-2.67-.33-.08-.66-.22-.91.09-.19.23-.03.48.08.71.3.65,1.28,1.33.46,1.99-.74.6-1.97.32-2.71-.04-2.23-1.07-3.8-.46-5.31,1.28-1.4-.27-1.84-.96-1.14-2.06.38-.6.48-1.37.97-1.87,1.13-1.15,2.29-2.19-.13-3.19-.22-.09-.37-.42-.35-.66.14-1.53.7-3,.57-4.59-.05-.56.79-1,1.57-.9.76.1.81.71,1,1.26.26.73-.47,1.83,1.03,2.14.86-.19,1.44.19,2.08.38,2.08.61,5.66-.35,6.81-1.79,1.04-1.3.64-3.03-.8-3.92-.88-.54-.59-1.3-.2-2.01.65-1.17,1.55-2.19,2.24-3.34-1.55,1.93-2.82,0-4.31-.33-.46-1.2-.65-1.79-2.48-1.53-2.16.31-4.48-.64-6.08-2.73-.42,1.48-.6,2.93-1.75,4.12-.27.16-.44.21-.74.22-.27.09-.31-.38-.44.01.41.67.87,1.22.57,2.06-1.07.52-1.61.03-2.06-.7-.29-.46-.39-1.21-1.25-.94-.6.19-.69.75-.69,1.27-.01.64-.04,1.31.86,1.5.26.06.54.04.81.08.44.07.77.27.84.7.07.42-.12.74-.5.96-.23.13-.5.2-.73.33-3.11,1.64-3.39,1.53-4.22-1.66-.53.12-.84.6-1.41.66-1.26.12-2.57-.93-2.1-1.9.5-1.04.83-2.33,2.42-2.77.41-.05.87.06.92-.06.64-1.56,2.27-2.55,2.81-4.31,1.38-.94,2.16.3,3.37.64.18-.95.21-1.85.12-2.77-.05-.51-.1-1.06.43-1.38.61-.36,1.16-.01,1.7.26.59.3,1.04,1.21,1.9.52.5-.4.24-.94,0-1.4-.51-.95-1.31-.68-2.1-.4-.59.21-1.18.32-1.8-.24-.85-1.5-.36-2.53.99-3.29.69-.39,1.31-.89,2.01-1.27.71-.38,1.6-.21,2.32-.67.01-.72-.68-1.02-1.05-1.51-.93-1.22-.77-1.53,1.11-1.74,1.56.41,2.97.73,3.56,2.29.13.33.66.92,1.25.76.61-.17.82-.77,1.05-1.31.24-.58-.17-1.6.94-1.61,1,0,1.05.97,1.37,1.8.48-1.07,1.27-1.57,2.01-.73.82.94,1.63,1.99,2.21,3.01.61,1.06-1.06.82-1.84,1.24.45.56.74,1.2,1.71.76,1.62-.75,2.69-.15,3.51,1.34,1.11,1.08,2.66.9,3.89,1.71Z"/>
      <path class="cls-1" d="M63.66,69.96c6.22-1.22,7.33-2.97,8.27-7.78.1-.5.11-1.09-.36-1.41-1.57-1.07-1.18-2.21-.43-3.58,1.44-2.65,2.42-5.47,2.92-8.42.05-.31.21-.6.33-1.05,1.65.63.65,1.94.71,3.02.16,2.51-.2,4.95-1.06,7.35-.22.6-.25,1.45.55,1.89,1.31.72,1.32,1.63.58,2.71-.14.21-.31.46-.3.69.15,3.88-2.91,5.29-5.96,6.65-.64.29-1.02.79-1.54,1.16-2.22,1.56-5.06,1.45-7.41,2.63-.84.42-1.59.72-1.32,1.78.27,1.04.8,1.56,2.03,1.04.85-.36,1.83-.05,2.72-.61.83-.52.9.34.73.77-.58,1.45-.63,2.94-.81,4.45-.18,1.48-1.96,1.29-3.05,1.6-1.07.31-2.24.32-3.27.88-1.44.77-.59-1.21-1.63-1.14-1.45-.13-3.05.48-3.66-1.32-.03-.08-.36-.15-.53-.11-.42.1-.42.44-.35.75.12.5.68,1.23-.31,1.31-1.01.08-1.01-.79-1.02-1.64-.85-1.49-.75-2.69.75-3.53,1.33-.75.46-1.8.55-2.86.52-1.35,1.66-1.88,2.94-2.46.6-.17,1.11-.24,1.41-.61.89-1.09,1.99-1.2,3.26-.71.55.21,1.06.19,1.58-.36,1.32-.26,2.25-1.2,3.67-1.11Z"/>
      <path class="cls-1" d="M93.5,41.76c.23.51.37.93.5,1.48.58.75,1.18,1.34,1.72,1.99.28.34.6.85-.15,1.02-.94.22-3.43-1.4-3.62-2.3-.07-.36.01-.85-.58-.79-.45.05-1.05.25-.87.82.32,1.04,0,2.33,1.27,3.04,1,.56,1.7,1.21,1.11,2.46-.14.3.16.84.36,1.23.51.98,1.24,1.96-.44,2.62-.14.06-.31.3-.3.43.28,2.39-1.94,1.07-2.09.86-1.11-1.5-2.78-.88-4.18-1.14-.4-.07-.84.04-1-.38-.21-.56.36-.55.7-.69.5-.2.97-.47,1.49-.6,2.23-.57,2.52-1.22,1.77-3.37-.56-1.59-.89-3.26-1.34-4.95-1.63.55-.89,2.3-1.88,3.27-.42.14-.83.06-.84-.13-.16-2.06-2.08-2.61-3.49-3.6-.34-.24-.49-.59-.66-1.08-.41-.57-.8-.58-1.21-.18-1.54,1.53-1.57.28-1.7-.95.5-.71,1.19-.82,2.06-.84.38-.04.55.38.79.14.18-.18-.01.13-.22-.19-.53-.66-.67-1.35-1.01-1.96-.4-.72-1.04-1.18-1.93-1.11-.66.05-1.39.41-1.65-.5-.23-.83-.24-1.63.9-2.13.87-.2,1.68-.01,2.49-.51,1.09-.31,1.57.33,2.19.97.38.82-.43,1.79.79,2.38.41.37.61.75,1.01,1.13.67.76,1.59.99,2.37,1.63.24.33.29.58.26.97-.1.41-.32.63-.4.91-.07.24.25.31.11.09-.14-.22.39-.09.19-.23.42-.5.9-.96,1.38-.54.97.84,1.95.46,3.1.24,1.01.38,2.01-.08,2.97.45Z"/>
      <path class="cls-1" d="M81.84,35.09c-.96-.04-1.01-1.16-1.98-1.21-.78.54-1.8-.15-2.49.66-1.35.34-1.11,1.41-.78,1.87.61.87.69-.57.95-.42.92.52,2.26.49,2.66,1.72.21.66.48,1.31.74,2.1.09.32.04.47-.26.56-.85.09-1.56.22-2.43.35-1.15.11-1.91.55-2.5,1.45-1.43-.33-3.07.09-4.12-1.33-.33-.58.17-1.15-.31-1.57-1.53-1.34-.91-2.42.52-3.38-2.03-1.7-2.31-3.83-2.06-6.21,2.76-.44,3.53.4,3.56,3.66-.15-2.47,1.48-3.31,3.8-3.66.53.06,1.27.13,1.27.21,0,2.13,2.45,2.08,3.4,3.35.52.69,1.37,1.11,1.59-.32.07-.44.09-1.07.74-.84.86.31.23.74-.05,1.16-.2.3-.19.71-.33,1.33-.22.43-.43.52-.8.54-.19.01-.27.02-.58.05-.31.02-.38,0-.54-.08Z"/>
      <path class="cls-1" d="M80.86,41.92c1.16.71,1.93,1.9,3.56,1.89.71,0,1.06.46.77,1.18-.26.63-.25,1.23.52,1.75-.48.94.35,2.46-1.34,2.86-.52.12-1.07.43-1.52.01-.46-.42-.27-.93.06-1.38.84-1.15.55-1.41-.88-1.12-1.04.2-2.21.3-2.92-.77-.43-.65-.91-1.24.26-1.83.97-.49.41-1.92,1.49-2.59Z"/>
      <path class="cls-1" d="M47.84,81.3c0,.91-.55,1.46-1.02,1.94.2.52.57.47.88.46.75-.01,1.19.41,1.21.99.02.76-.77.44-1.22.56-.38.1-.76.22-1.29.34-1.99-.52-4.05-.3-5.61.19-2.15.68-3.34-.25-4.67-1.16-.94-.65-1.67-1.06-2.92-.65-1.05.34-1.82-.21-2.85-.91-2.76-1.87-5.3-4.45-9.15-4.43-.9,0-1.23-.56-1.79-1.01-1.33-1.09-1.9-2.89-3.74-3.49-.39-.13-.56-.6-.35-.75,2.27-1.65.71-3.72.75-5.6.01-.59.35-.92.7-1.45-.45-1.35.47-1.94,1.49-2.57,2.91.98,3.58,3.55,4.94,5.58.88,1.32,1.89,2.59,2.15,4.23.13.84.99,1.32,1.72,1.99-.08,2.41.46,2.84,2.9,2.12,1.3-.39,2.1-.22,2.43,1.09.08.3.16.84.39.82,2.4-.22,2.96,2.55,5.24,2.75,3.24,1.35,3.99,1.16,5.77-1.31.98-1.36,2.23-1.32,4.03.29Z"/>
      <path class="cls-1" d="M12.34,51.15c.55-2.16-1.6-3.59-1.31-5.55.04-.28-.36-.66-.04-.88,2.64-1.81,3-5.18,5.58-7.03.4-.29.86-.8.88-1.22.15-2.8,2.93-4.13,4.06-6.41.73-1.47,2.63-1.87,4.56-1.88,1.2.26,1.67.96,1.75,2.07-.32.92-.98,1.56-.32,2.56.55.84-.57,1.76-.36,2.85,0,.42-.01.7-.05,1.12-.04.24-.07.34-.15.57-.31.5-.69.63-1.28.65-.56-.06-.95-.14-1.35-.24-1.92-.49-2.31-1.13-1.76-2.88.13-.41.56-.9.1-1.22-.62-.43-.93.26-1.29.57-.95.81-1.97,1.56-1.5,3.04.35,1.11-.79,1.29-1.47,1.69-.15.41.12.62.36.84.34.3.82.57.64,1.09-.21.57-.82.68-1.36.63-1.36-.11-1.38.38-1.34,1.55.08,2.51.61,5.2-1.64,7.31-.23.21-.23.59-.44,1.01-.9.85-1.63.75-2.27-.23Z"/>
      <path class="cls-1" d="M20.59,24.94c-2.51-.51-1.83-1.87-.62-3.94.7-1.14,1.13-2.31,2.74-2.39,1.76-.09,2.6.92,1.72,2.31-.62.99-.3,1.14.7,1.3,1.45.22,2.82.6,4.31-.05.85-.38,1.87.11,2.81.21,1.06.11,1.98.38,1.18,1.67-.14.23-.2.49.13.62.28.11.53.01.71-.22.82-1.02.22-2.77-1.1-3.17-.26-.08-.52-.13-.79-.19-.82-.18-1.67-.35-1.57-1.39.1-1.03,1-1.09,1.82-1.12,2.15-.08,4.27-.5,6.54-.38.99.83-.38,1.13-.28,1.85-.2.33-.46.38-.73.43-.31.06-.78.07-.72.48.05.34.53.32.97.5.3.16.44.29.63.57.25,1.63-1.01,2.29-2.06,3.24-1.34.87-2.5,1.74-3.93,2.19-.45.14-.9.41-1.36.28-1.28-.35-2.47-.37-3.68.29-.52.28-1.2.17-1.7-.51-.36-.75-.62-1.4-.92-2.02-.2-.41-.61-.91-1.07-.54-1.6,1.3-2.85.7-3.74,0Z"/>
      <path class="cls-1" d="M26.23,27.52c.31-.01.73.29.92.19,2.74-1.45,6.54.36,8.81-2.51.08-.11.38-.06.74-.09.82.34,1.49.68,2.26,1.1.25.5.11.84-.25,1.26-2.63,1.22-3.54,3.16-3.3,5.66.16,1.63-1.73,4.73-3.28,5.33-.81.31-.99.15-1.59-1.55-1.19.63-2.43,1.01-3.79.09-.11-.37-.11-.66-.11-1.09.8-1.18,1.08-2.61,2.67-3.04.33-.09.52-.51.32-.79-.71-.97.07-1.79.34-2.91-.95.47-1.23,1.56-2.4,1.35.07-1.03-.69-1.53-1.28-2.26-.06-.29-.06-.45-.06-.75Z"/>
      <path class="cls-1" d="M12.19,50.99c.67.49,1.19.9,2.09.43,1.94.98,1.53,2.67,1.57,4.36.07.98-.68,1.46-1.04,2.11,2.41,1.54,2.46,2.62.14,4.87-2.67-1.49-1.94-4.08-2.63-6.34-.91.98-1.77.9-2.49-.27-.25-.4-.43-1.15-1.11-.84-1.1.51.39.99.14,1.54-2.21-.04-2.75-.61-2.09-2.49.2-.57-.11-.96-.12-1.44-.02-1.55.85-2.24,2.41-1.73,1.06.35,1.96-.45,3.14-.19Z"/>
      <path class="cls-1" d="M14.8,62.93c.39-.86.74-1.6,1.17-2.29.65-1.04.24-1.75-.87-1.97-1.81-.37-1.91-.77-.23-1.55.3-.14.43-.61.7-1.05.38-.9,1.03-1.13,2-1.04.63,1.01,1.12,1.93,2.07,2.62.64.47,1.17,1.43.41,1.97-1.61,1.13-1.11,2.7-1.47,4.22-.93.57-1.28,1.37-1.72,2.25-1.28-.59-1.69-1.78-2.05-3.15Z"/>
      <path class="cls-1" d="M39.24,18.14c-2.32.74-4.75.9-7.2.91-.44,0-.8.16-.85.63-.06.55.23.82.81.86.2.01.41.01.61.05,2.66.58,3.36,1.74,2.43,4.05-.16.4-.38.9-.98.78-.64-.13-1.44-.23-1.82-.63-.39-.4.37-.66.71-.92.5-.38.8-.95-.12-.97-1.62-.03-3.16-.66-4.93.17-1.26.59-2.97-.25-4.38-.75-.51-.18-.92-.92-.04-1.32.85-.38,1.6-.84.71-1.63-.73-.64-1.74-.48-2.63.04-.62.36-.42,1.22-1.3,1.5-.17-.32-.27-.63-.83-.72-.45-.63.08-1.19.02-1.93-.55.55-.29,1.17-.52,1.79-.31.18-.57.24-.83.3-.49.11-.97.76-1.45.29-.5-.49.09-.92.44-1.27.55-.55.61-.88-.29-1.2-.53-.19-.95-.69-1.35-1.1-.24-.24-.12-.86-.02-.81,1.74.8,1.65-1.06,2.52-1.5,1.1-.54,1.54-.2,1.99.74.2.42.47,1.31,1.21,1,1.01-.41-.02-.89-.14-1.34-.08-.31-.14-.66.18-.88.43-.29.72-.06,1.01.27.87,1.03,1.87.57,2.28-.22,1-1.92,2.72-.57,3.94-.69,1.05-.1.13,1.36-.13,2.65,1.48-1.06,2.69-1.7,3.54-2.63.41-.44.93-.66,1.31-1.07.3-.32.64-.47,1.07-.27.49.24.66.64.5,1.12-.65,1.91.79,1.61,1.9,1.49.73-.08,1.43-.39,2.13-.61.94-.29,1.91-.6,2.39.56.44,1.07-.5,1.55-1.27,1.78-.92.27-1.11.6-.61,1.47Z"/>
      <path class="cls-1" d="M39.01,26.18c-.91.05-1.82.24-2.14-.93.39-1.23,1.88-1.64,2.01-3.05.14-.34.35-.45.71-.51.3,0,.48,0,.8,0,.69-.64,1.48-1.05,2.08-1.81.41-1.16.89-2.16,2.07-2.6,1.48-.55,1.67-2.83,3.98-2.43,1.97,1.57,3.74,3.2,6.65,3.01.72.11,1.06.46,1.29.94.24.52.66.55,1.15.34,1.25-.56,2.59-.42,4.05-.48.64.14,1.08.36,1.45.88.06.93-.55,1.47-1.21,1.25-1.73-.56-2.79.58-4.21,1.2-.58.21-.83.58-1.23.99-.37.21-.65.27-1.09.32-.9.04-1.62-.17-2.36-.24-.98-.09-1.77,0-.98,1.2.84,1.29-.3,1.24-1.06,1.22-1.63-.05-3.15-.76-4.92-.91-1.28-1.25-3.03-.61-4.39-1.24-.42-.2-.76.59-1.07.99-.48.61-.95,1.21-1.58,1.87Z"/>
      <path class="cls-1" d="M55.34,18.18c-3,.32-5.1-.85-6.63-3.21.27-1.35,1.19-2.75-1.29-2.99-.6-.06-.36-3.55.28-4.08.25-.21.74-.34.78-.55.5-2.74,1.91-1.06,3-.52.77.38,1.29.73,2.33.26.89-.4,2.03.38,3.01.77.3.12.46.47.34.81-.16.48-.59.42-1,.41-.52,0-1.36-.73-1.49.09-.13.78.94.93,1.64,1.06.59.1,1.21.03,2,.04.68-.03,1.1.16,1.45.48.35.32.65.7.49,1.17-.17.5-.67.61-1.16.59-1.65-.06-3.34.26-4.96-.35,1.08.42,2.23.44,3.35.64.89.16,1.9-.02,1.98,1.35.05.92.78.22,1.2.14.42-.08.84-.13,1.12.21.35.42.1.83-.18,1.21-.97,1.35-3.08,1.44-5.34.21.19.89.08,1.67-.93,2.25Z"/>
      <path class="cls-1" d="M55.37,18.29q.67-1.59-.15-4.15c1.28,1.6,2.44,2.32,4.07,2.24.92-.04,1.53-.41,2.07-1.01.23-.26.42-.57.03-.78-.16-.09-.59,0-.71.14-.44.53-.8,1.02-1.64.54-1.04-.59.3-1.25-.16-1.89-1.55-.15-3.15-.3-4.76-.45-.45-.04-1.01.13-1.22-.43-.14-.37.12-.67.47-.68.64,0,1.15-1.2,1.72-.4,1.27,1.74,3.1-.36,4.41.69.03.02.41-.2.41-.3,0-.77-.76-.95-1.35-1.44.45-.95,1.08-1.15,1.82-.32,1.03,1.15,2,2.32,3.24.11.26-.46,1.2-.81,1.81-.5.68.35-.12.86-.15,1.3-.08,1.08.53,2.01,1.01,2.91.38.71.11,1.06-.4,1.43-.62.45-1.27.33-1.89-.02-.9-.51-.12-.77.2-1.09.49-.49.14-.75-.29-1.04-.56-.38-1.12-.85-1.82-.44-.53.3-.18.77-.03,1.18.81,2.15,1.49,2.55,3.93,2.21.48-.07,1.16-.25,1.3.16.67,1.98,2.83,2.89,3.8,4.64-.56.58-1.26-.21-1.86.36-1.42.6-2.3-.61-3.61-.66-1.45-.47-1.85-1.34-1.37-2.88-.86.64-1.49,1.06-2.39,1.23-1.64.35-3.32-.12-4.69.99-.5.4-1.03.2-1.12-.51-.05-.42.06-.91-.68-1.14Z"/>
      <path class="cls-1" d="M65.31,20.24c1.4-.1,2.42.54,3.65,1.06.62,1.61,2.2,1.78,3.67,2.28.15.01.15.02.15.02.96,1.3.13,2.27-.73,3.18-.46.49-1.14.63-1.58.05-1-1.33-2.61-1.73-4.02-2.42-1.37-.67-2.87-1.09-4.27-1.78.2.98.92,1.44,1.85,1.64,1.03.22,1.53.75,1.35,1.88-.26.59-.76.9-1.15.66-1.32-.82-2.9-.54-4.41-1.1-.67-1.1-1-2.26-2.36-2.71-.48-.16-.56-.64-.28-1.2.68-.39,1.48-.54,1.81-1,.75-1.05,1.51-.95,2.49-.41.54.3,1.02.08,1.45-.49,1.04-.82,1.44.59,2.4.33Z"/>
      <path class="cls-1" d="M8.65,22.8c.87.59,1.42-.92,2.21-.12.2.2.1.51-.13.67-.76.51-1.24,1.59-2.53,1.06-.41-.17-.96.07-1.46-.41.55-.5.35-1.77,1.91-1.2Z"/>
      <path class="cls-1" d="M38.59,21.64c-.77-.2-2.15.63-1.99-.78.1-.94,1.05-1.16,2.15-.71.25.2.36.39.51.68-.17.32-.29.6-.67.81Z"/>
      <path class="cls-1" d="M18.99,20.17c-.21-.23-.35-.45-.42-.69-.23-.81.15-1.47.7-2.04.19-.19.52-.26.67.02.38.69.1,1.33-.24,1.96-.09.17-.19.33-.35.62-.06.13-.26.13-.37.13Z"/>
      <path class="cls-1" d="M42.42,19.8c.25,1.17-.77,1.44-1.75,1.87-.25-1.17.77-1.44,1.75-1.87Z"/>
      <path class="cls-1" d="M36.68,12.39c-.66-.08-1.42-.04-1.21-.88.08-.31.46-.48.81-.33.52.22,1.29.4.4,1.2Z"/>
      <path class="cls-1" d="M38.08,8.82c.59.21,1.03.4,1.74.7-1.04.46-1.75.59-2.31-.13-.27-.34.06-.53.57-.57Z"/>
      <path class="cls-1" d="M38.53,21.77c-.01-.43.08-.73.64-.83.24.17.35.36.5.65-.15.22-.34.34-.65.47-.25-.03-.36-.1-.49-.29Z"/>
      <path class="cls-1" d="M90.9,41.52c-1.35.33-2.55,1.65-3.69-.19-.2-.32-.51.21-.85.45-.39-.01-.55-.2-.57-.57.05-.4.05-.69.06-1.21-.05-.37-.13-.47-.34-.62-.67-.39-1.34-.48-2.02-.87-.69-.11-.92-.43-.88-1.21.36-1,.58-1.79,1.11-2.58.08-.1.08-.1.08-.1,1.22-.29,1.2,1.01,1.96,1.33.65.28.93,1.09,1.98,1.23-.78-1.45.85-1.27,1.35-2.05.74-.56,1.65-.71,1.76.2.15,1.16.83,1.93,1.45,2.82,1.03,1.48.6,2.55-1.39,3.36Z"/>
      <path class="cls-1" d="M65.14,26.35c-.11-.87-.04-1.73-1.3-1.6-1.38.14-1.61-1.21-2.56-1.65-.45-.21-.11-.68.1-.99.33-.49.8-.46,1.21-.14,2.03,1.52,4.58,2.07,6.81,3.2.18.09.36.16.54.25.66.32.49,1.86,1.54,1.3.95-.5,1.5-1.61,1.3-2.95,1.54-.07,3.17-.12,2.48,2.11-.15.49-.03,1.06.71,1.14.85.09.9.63.89,1.39-.51,1.83-1.78,1.47-2.85.91-1.87-.98-4.15-1.28-5.59-3.04-.42-.51-1.36-.97-2.15.1-.42.2-.71.19-1.13-.01Z"/>
      <path class="cls-1" d="M66.21,26.38c-.01-1.19-.01-1.95,1.52-1.05.91.54,1.68,1.22,2.53,1.73,1.62.99,3.56,1.53,5.39,2.2.42.15.71-.27,1.09-.65.49.12.53.45.53.93-1.95,1.08-3.95,1.99-3.52,4.6.04.24-.47.46-.82.27-.59-.31-.47-.78-.37-1.32.49-2.56.38-2.69-2.47-3.42-1.65-.81-2.46-2.31-3.87-3.3Z"/>
      <path class="cls-1" d="M90.77,41.61c2.13-1.55,2.21-2.35.26-3.98-.58-.49-.83-.98-.57-1.63.42-1.06-.35-.97-1.18-.99-.22-.92.24-1.34,1.19-1.04.66.21,1.31.29,2.16.27.06.19-.04.38-.19.66-.63.21-1.5.28-.77,1.08,1.18,1.31,1.62,3.03,3.08,4.23,1.19.97-.96.78-1.02,1.57-1.03-.27-2.02.71-2.95-.18Z"/>
      <path class="cls-1" d="M92.78,34.25c.33-.95-.79-1.86-.04-3.03.9,1.04,1.37,1.92.19,3-.15.03-.15.03-.15.03Z"/>
      <path class="cls-1" d="M48.04,81.44c-.85-.54-1.68-.75-2.54-.94-.68-.16-.98.06-1.25.6-1.47,2.92-2.86,3.31-6.14,1.63-.38-1.18.29-1.17,1.03-1.01,1.37.31,2.35.26,1.97-1.48-.15-.68.56-1.15.67-1.79-1.18.37-1.26-.71-1.79-1.19-.41-.37-1.1-.72-.76-1.4.31-.61,1.11-.73,1.61-.55,2.31.86,4.12-.46,6.1-1.05.39-.11.75-.31,1.31-.17.41.35.42.71.43,1.2,0,.31.02.5.07.68,0,.03.12-.08.02-.36-.05-.39-.01-.65.21-1.01.75-.29,1.35-.15,2.04.26.27.83.35,1.57.59,2.27.29.84.2,1.18-.89,1.3-1.89.21-.99,1.7-1.22,2.84-.43.17-.87.17-1.46.17Z"/>
      <path class="cls-1" d="M18.59,64c-.18-1.05-.52-1.98-.34-3.01.09-.5.16-.67.62-.94,1.41-.83,1.48-1.77-.02-2.46-1.13-.52-1.83-1.52-1.8-2.58,1.29-.17.54-1.42,1.84-1.59.57-.01,1.15-.18,1.53-.68.21-.28,1.01.22.69-.09-.23-.23-.37-.38-.45-.55-.42-.9-1.4-1.79-.69-2.8.73-1.05,2.04-.63,3.01-.41,1.65.37,1.92-.21,1.68-1.51-.08-.43,0-.88-.07-1.32-.31-2.05,1.45-3.4,3.62-2.78,3.08.88,5.03.58,6.47-1.74.68-1.1.97-2.2,2.59-2.51.53-.09.98.15,1.41-.29.59-.77,1.32-1.31,1.56-2.3.25-.59.63-.87,1.28-1.05.35-.06.55-.07.9-.06,2.46-.51,4.55.57,6.75.86.86.11,1.17-.1,1.43-.83.32-.89.77-1.76,1.99-1.9-1.93-3.02-1.62-4.57,1.31-6.23.37.17.65.36.65.6,0,1.84.22,3.62,1.56,5.17-.57.21-1.26-.15-1.5.48-.18.49.38.76.74,1.01.69.46.86,1.36,1.79,1.73-1.91.66-3.83.96-5.44,2.16-1.01.75-1.49,1.34-1,2.59-.64,2.04-1.66,3.71-3.56,4.99-.34.78.49,1.17.46,1.93-2.33-.47-2.23,1.38-2.53,2.52-.37,1.38-.85.71-1.58.26-1.88.47-3.41.47-4.49-1.28-.47-.76-1.36-.74-2.18-.34-.78.38-1.48.85-2.13,1.49,1.12.5,2.09,1.21,3.3,1.43,1.27.24,2.2.69,2.03,2.11-.06.57.42.66.86.88,1.52.75,1.55,1.6.1,2.47-.51.31-1.06.56-1.5.97-.19.18-.41.33-.48.61.85-.04,1.85-.94,2.46.28.39.76-.73,2.05-1.92,2.3-.46.1-.96.02-1.41.18-1.39.49-2.37.25-2.79-1.23-.13-.47-.38-1.08-1.06-.94-.67.14-.55.79-.56,1.28-.02.57.2,1.12.23,1.69.02.6-.13,1.15-.75,1.45-.73.35-1.31,0-1.84-.43-1.13-.95-1.2-2.33-1.71-3.81.26,1.44.26,2.6,1.06,3.76.92,1.31-.79,2.92-3.02,2.77,1.91,1.32,2.03,3.05,1.69,4.86-.33,1.77-.74,1.94-2.7,1.19.49,1.08,1.21,2.07.46,3.31-1.25-.05-2.08-.81-2.21-1.69-.44-2.95-3.11-4.83-3.97-7.57-.33-1.05-1.87-1.22-2.39-2.37Z"/>
      <path class="cls-1" d="M27.04,75.85c.09-1.29.06-2.38-.98-3.26-.35-.29-.4-.9.02-1.2.4-.29.76.12,1.01.39,1.1,1.2,1.55.77,1.76-.55.26-1.6.49-3.16-1.21-4.31-.39-.26-1.1-.65-.75-1.18.36-.56,1.09-.32,1.66-.12.36.13.61.53,1.17.36.07-1.13,1.45-2.18-.35-3.49-.55-.4-.15-2.4-.63-3.74,1.06,0,1.45.35,1.59,1.2.16,1.04.28,2.12,1.07,3,.45.5.89,1.07,1.65.73.66-.3.52-.94.39-1.52-.13-.55-.24-1.11-.26-1.67-.04-.71.03-1.55.84-1.76.99-.26,1.29.66,1.75,1.27.39.52.11,1.91,1.02,1.51,1.3-.57,3.03.27,3.96-1.14.23-.35.7-.79.3-1.18-.43-.42-1.01-.23-1.45.14-.4.34-.74,1.21-1.36.42-.46-.58-.04-1.21.66-1.55.7-.34.98-1.2,1.97-1.22.61-.01.95-.51.79-1.1-.14-.48-.51-.71-1.1-.54-1.36.4-1.4-.35-1.08-1.21.4-1.08,0-1.6-1.16-1.63-1.84-.05-2.97-1.78-5.51-1.55,1.65-1.02,2.83-1.62,3.84-2.41,1.18-.93,2.42-.36,2.77.39.84,1.81,2.17,1.77,3.87,1.56-1.24.53-1.13,2.05-2.2,2.74-.38.24.07.8.43,1.12.49.45,1.06.53,1.68.29.59-.23.77-.78,1.03-1.29.86.62.77,1.46.81,2.27.02.56.37.95.86,1.21.66.35,1.15-.14,1.3-.55.38-1.08,2.25-.35,2.15-1.28-.14-1.32-1.46.19-2.14-.4-.96-.84-.48-1.9-.51-2.85-.03-.82.83-1.28,1.46-1.35.98-.11,1.27.72,1.39,1.52.1.68.59.94,1.44.95.73,2.66,2.31,3.98,5.38,4.03,1.64.02,1.98.94,1.37,2.42-.34.82-.81,1.59-1.2,2.56-.72,1.65-1.3.35-1.47-.02-.27-.61-.18-1.34-.24-2.03-.05-.54.11-1.32-.85-1.13-.64.13-1.4.64-.95,1.35.67,1.05.29,1.81-.26,2.71-.51.84-.32,1.54.79,1.9,1.51.49,1.85,1.61.51,2.28-1.55.77-1.02,2.5-2.31,3.33-.38.24.39.81.9,1.19.42.05.69.1,1.07.31.39.36.56.67.37,1.17-.99.67-1.89,1.24-2.87,1.91-.68.09-1.3.17-1.98-.23-.39-.04-.61-.11-.87-.35-1.32.8-3.23.44-4.18,1.92-.31.49-.96.21-1.44-.11-1.04-.68-2.13-.31-3.24-.1,1.19.68,1.43,2.91,3.75,1.69-1.13,1.21-2.18,2.07-1.32,3.88.34.72-1.5.96-2.54.8-.43-.06-.8-.9-1.29.08-1.33,0-2.84.24-2.98-1.65-.04-.58-.74-.6-1.15-.48-1.46.44-1.96-.14-2.03-1.42-.06-1.16-.58-1.48-1.7-.74-.36.24-.91.2-1.36.34-1.16.38-2.05-.38-2.68-.91-.81-.69.93-.87.83-1.74Z"/>
      <path class="cls-1" d="M56.04,33.24c-.01-.19,0-.29-.03-.31-2.5-1.18-1.75-3.38-1.96-5.41-.55-.64-.48-1.28-.04-1.68.88-.8.82-1.82,1.12-2.9.4-.11.71-.11,1.16-.11,1.09.92,1.35,2.54,3.29,2.62,1.93-.04,3.61.41,5.35.9.39-.09.7-.09,1.15-.09,1.76.66,2.82,1.85,3.77,3.31.33,1.54.64,2.95.87,4.38.15.95,1.02,1.1,1.69,1.47.29.16.62.34.58.7-.05.42-.47.41-.79.4-.86-.03-1.22.48-1.38,1.14-.15.6.25.9.81,1.14,1.16.49.87,1.09,0,1.81-.52.05-1.15.26-1.16-.43-.04-1.81-1.66-1.05-2.01-.73-1.14,1.07-1.55.69-2.08-.44-.18-.38-.8-.59-1.3-.93.92-.8,2.1-.05,3.07-.77-.98-.74-2.28-1.27-2.1-2.75.04-.3-.55-.58-.96-.54-.6.07-.45.52-.33.87.14.43.11.76-.45.81-.58.06-.86-.22-.92-.76-.07-.64.2-1.45-.81-1.71-.63.35,0,.8-.14,1.19-.4,1.02-.91,1.94-2.04,2.42-.41-.88-1.8-.94-1.94-2.11-.12-1.01-.64-1.46-1.79-.79-.6.35-.55-.27-.63-.73Z"/>
      <path class="cls-1" d="M56.61,62.03c-.75-.8-.21-1.4.2-2.06,1.29-2.04,1.02-2.53-1.45-2.87-.07,0-.14,0-.2-.01-3.79-.38-4.99.07-5.22-3.58.06-.95.26-1.8.39-2.75.07-.19.13-.24.3-.21.28.07.46.07.78.07,1.63-.43,2.93-.15,4.27.65,3.07,1.85,3.45,1.76,6.35-.59.85-.13,1.45.16,2.06.46.87.43,1.78,1.02,1.8-.67,0-.58.6-.7,1.07-.52.72.27.26.77.06,1.1-.7,1.14-1.42,2.27-2.21,3.36-.4.54-.96,1.12-.37,1.66.82.74.87-.62,1.44-.73.56.63.34,1.26.25,1.86-.04.31-.33.73-.2.89,2.07,2.58-1.49,2.87-2.06,4.37-.15.4-.82.45-1.23.05-.3-.3-.73-.62-1.03-.33-1.7,1.65-3.26.36-5.02-.13Z"/>
      <path class="cls-1" d="M62.16,50.45c-1.27,2.72-3.58,3.34-5.93,1.67-1.4-.99-2.89-1.52-4.67-1.39.44-1.41,1.5-2.52,1.23-4.03-.08-.44.03-.91.67-.99.59-.07.74.27.96.73.82,1.73,4.5,2.79,6.33,1.88,1.12-.56,1.37-.21,1.41,2.13Z"/>
      <path class="cls-1" d="M47.21,46.04c-.16-.48.1-.86.44-1.16,1.06-.93,2.13-1.82,2.13-3.35,0-.13.42-.27.79-.42.84.73,1.31-.01,1.9-.19.79-.24,1.8-.67,2.26.4.38.89,1.17,1.88-.14,2.78-.61.42-1.04.54-1.5-.12-.46-.65-1.17-1.4-1.93-1.15-.98.33-.12,1.18-.09,1.8.03.56-.51,1.05-.21,1.66.19.39.47.87-.15,1.14-.53.24-.86-.21-1.26-.43-.67-.38-1.13-1.16-2.26-.97Z"/>
      <path class="cls-1" d="M53.74,71.91c-.37-.06-.6-.12-.9-.28.2-.53.62-.94.69-1.4.17-1.01.74-.85,1.59-.86,1.92-.03,3.64.97,5.62.82.03-.8-.6-1.23-1.07-1.71-.49-.5-.25-.92.01-1.37.34-.58.76-.28,1.21-.15,1.53.43,2.63,1.23,2.91,2.93-1.15.42-1.99,1.51-3.51,1.28-2.28-.02-4.4-.04-6.55.75Z"/>
      <path class="cls-1" d="M50.73,50.48c0,.13-.2.13-.3.13-.44-.26-.7-.67-.26-.88.6-.28.48.31.57.75Z"/>
      <path class="cls-1" d="M55.47,63.37c.33-.09.45.02.4.26-.01.05-.09.12-.14.13-.26.04-.37-.08-.26-.39Z"/>
      <path class="cls-1" d="M53.64,72.03c1.87-1.39,3.95-1.72,6.34-.93.2.96-.32,1.53-1.17,1.07-1.54-.86-2.69-.99-3.55.74-.08.15-.62.11-1.11.15-.26-.31-.37-.61-.52-1.03Z"/>
      <path class="cls-1" d="M81.7,35.12c.13-.12.2-.12.37-.12,1.1.46.98,1.22.61,2.15-.1.14-.1.14-.1.14-1.65-.15-1.95-.84-.88-2.17Z"/>
      <path class="cls-1" d="M83.41,38.56c.8-.19,1.58-.08,2.34.52.24.26.3.43.18.75-.09.12-.09.12-.09.12-.92-.22-1.86-.43-2.43-1.39Z"/>
      <path class="cls-1" d="M77.44,34.63c.04-1.48,1.02-1.11,2.14-.77-.15,1.25-1.23.6-2.14.77Z"/>
      <path class="cls-1" d="M85.72,41.16c.23.13.34.31.49.6-.04.6-.23,1.33-.84,1-.72-.39-.33-1.07.35-1.6Z"/>
      <path class="cls-1" d="M80.6,40.45c.07-.16.17-.23.3-.42.49-.04,1.05-.19,1.18.42.03.15-.08.42-.2.48-.51.26-.89,0-1.27-.49Z"/>
      <path class="cls-1" d="M82.72,37.27c-.19-.65-.01-1.36-.49-2.12-.06-.13-.06-.13-.06-.13.1-.08.19-.16.34-.31.4.05.72.26,1.19-.03-.07.88-.02,1.86-.97,2.6Z"/>
      <path class="cls-1" d="M82.49,34.67c.05.08-.03.18-.23.3-.05-.08.03-.18.23-.3Z"/>
      <path class="cls-1" d="M37.76,39.09c-.64.32-1.01.87-1.69.87-.35,0-.87.22-.67.49,1.25,1.66-.21,1.66-1.28,1.98-.29.09-.57.37-.73.64-1.17,2.02-3.02,1.64-4.61.86-1.55-.76-2.68-.38-3.62.59-.93.97.13,2.15.09,3.27-.08,2.02.2,2.01-2.01,1.5-.49-.11-1.05.03-1.56-.05-.53-.08-1.1-.33-1.44.25-.25.42-.05.84.21,1.24.3.48.52,1.02.83,1.65.3.66-.19.87-.61,1.21-.9.1-1.36.47-1.35,1.2.02,1.57-.77.73-1.51.4-.73.2-1.32.42-2.04.69-.79-1.32-.13-3-1.3-4.4-.03-.98-.31-1.94,1.04-2.24.4-.09.55-.55.52-.95-.15-2.41,1.04-4.86-.45-7.33,1.3-.17,2.43.51,3.56-.15-.2-.69-1.17-.53-1.42-1.16-.32-.79-.72-1.53.74-1.42,1.07.08,1.46-.17.86-1.14-.58-.94-.1-1.73.6-2.31.55-.46,1.16-.82,1.55-1.45.4-.65,1.07-.77,1.76-.44.8.38.37.98.19,1.48-.92,2.57-.89,2.62,1.94,3.19.61.46,1.09.61,1.39-.16-.07-.11-.07-.3-.07-.39,1.31-.07,2.75.64,3.69-.95.24-.41.61-.01.84.37.35.59.08,1.2.19,1.9,1.45-.31,1.52-1.83,2.61-2.35,1.44-.69,1.06-1.8.88-3.01-.4-2.64.96-4.74,3.47-5.57.28.14.36.29.36.61-.63.9-.39,1.74-.23,2.7-.04,1.12.77,1.35,1.53,1.67.67.28,1.09.89.34,1.28-1.48.78.5,2.72-1.25,3.24-.54.16-1.09.74-.56,1.11.42.29-.61.32-.77,1.08Z"/>
      <path class="cls-1" d="M27.4,30.56c.88-.25,1.34-.8,1.63-1.43.21-.46.15-1.07,1-.7.74.32.76.78.42,1.38-.44.76-1.35,1.52.05,2.3.3.17.06.72-.22.79-1.63.44-2.33,1.79-3.49,2.86-.1-.66-.32-1.38.19-1.99.25-.3.57-.68.09-.97-1.49-.9-.51-1.49.32-2.23Z"/>
      <path class="cls-1" d="M26.56,37.39c.51.19.46.5.09.77-.49.37-.82.08-1.18-.38.3-.17.65-.23,1.08-.39Z"/>
      <path class="cls-1" d="M38.4,28.28c.09-.29.09-.46.09-.76.13-.43.26-.73.4-1.15.16-1.58,1.67-2.31,2.14-3.6.03-.1.27-.23.29-.21,1.32.99,3.37.05,4.44,1.77-1.3,1.51-2.36,2.87-3.54,4.14-1.21,1.31-2.83,1.26-3.82-.2Z"/>
      <path class="cls-1" d="M37.77,39.26c-.39-.36,0-3.08.2-3.56.47-1.13,1.01-2.16,2.47-2.44-.71-1.05-3.02-.21-2.42-2.32,1.48-1.01,2.91-.58,4.34-.14,1.02.32.87,1.16.94,2.04.1.46.17.8.66,1.03.74.22,1.33.11,1.89-.11.53-.21.77-.7.28-1.03-1.7-1.12-1.27-2.71-.96-4.13.29-1.35.39-2.69.57-4.15.09-.1.09-.1.09-.1,2.15-.63,4.02,1.03,6.21.69-.4-.73-1.74-1.05-1.11-2.03.6-.93,1.65-.56,2.57-.4.46.08.92.15,1.55.22,1.37,1.82-.78,2.82-1.05,4.42-2.62,2.2-2.78,3.21-.89,5.61.37.47.8,1.28-.1,1.25-2.62-.08-1.8,1.78-2.22,3.09-1.55-1.09-3.66-.23-5.21-1.51-.77-.63-1.75,1.01-2.88.09-.32-.21-.53-.28-.88-.1-.56.08-.94.25-1.25.73-.98.55-1.15,1.42-1.59,2.3-.14.43.02.85-.39,1.03-.39.17-.49-.26-.82-.49Z"/>
      <path class="cls-1" d="M59.77,25.37c-2.38.81-2.9-.65-3.3-2.4.01-.57-.11-1.07.66-1.27.16.48.12,1.05.87,1.09,1.75.1,1.57,1.41,1.78,2.57Z"/>
      <path class="cls-1" d="M65.31,20.11c-.02.78-.39,1.06-1.02.47-.32-.29-.52-.69-1.16-.78-.47-.24-.81-.46-1.25-.73.15-1.07,1.83-.82,1.93-2.03.01-.15.52-.26.65.02.2.43.7.97.31,1.37-.81.84-.12,1.18.55,1.68Z"/>
      <path class="cls-1" d="M85.97,39.94c-.12-.15-.12-.32-.12-.62.21-.04.53,0,.61.15.13.23-.11.39-.49.47Z"/>
      <path class="cls-1" d="M48.97,75.64c.64.54.82,1.17.1,1.39-.64.19-.74-.52-.79-1.16.15-.28.34-.34.69-.23Z"/>
      <path class="cls-1" d="M49.1,75.58c-.18.14-.36.14-.68.15-.14-.41-.14-.81-.14-1.37.23-.09.45-.03.75.13.07.38.07.67.07,1.1Z"/>
      <path class="cls-1" d="M27.06,48.3c.27-.47.31-.8.18-1.2-.19-.58-.53-1.34.25-1.66.82-.33,1.28.63,1.45,1,.47,1.03.97,2.33.39,3.31-.45.76-1.79.2-2.55-.03-1.03-.3.14-.83.27-1.42Z"/>
      <path class="cls-1" d="M39.03,38.79c.51-.63-1.05-2.41,1.34-2.26.88,1.36-.91,1.41-1.34,2.26Z"/>
      <path class="cls-1" d="M41.78,38.01c.18-.67.52-.86.99-.45.26.23.17.59-.07.82-.44.43-.79.4-.93-.37Z"/>
      <path class="cls-1" d="M30.34,45.81c.3.15.31.31.09.45-.05.03-.15.03-.19,0-.21-.14-.2-.3.1-.45Z"/>
      <path class="cls-1" d="M41.89,35.77c-.04-.2,0-.49.16-.57.25-.12.42.1.5.46-.17.11-.35.11-.66.11Z"/>
      <path class="cls-1" d="M39.67,79.38c-1.5.16-2.77-.57-4.15-.29-.96.19-1.35-.49-1.07-1.13.57-1.32-1.68-3.02.62-4.01.67-.29,1.03.14.84.81-.18.67-.4,1.33-.63,1.98-.15.42-.45.85.18,1.13.45.2,1.07.27,1.26-.21.5-1.25,1.51-.54,1.99-.31.7.35,1.57.95.97,2.02Z"/>
      <path class="cls-1" d="M61.6,32.17c.33-.09.45.02.4.26-.01.05-.09.12-.14.13-.26.04-.37-.08-.26-.39Z"/>
      <path class="cls-1" d="M43.06,33.57q-1.04-2.74-4.8-2.74c-.18-.87-1.26-1.78.08-2.64,1.24,1.06,2.53.91,3.45-.04,1.23-1.27,2.02-2.94,3.89-3.79.97,1.86.05,3.61-.2,5.41-.14.98-.37,2.06,1.05,2.54.43.15,1.08.53.66.92-.43.4-.32,1.48-1.27,1.19-.71-.21-1.31.48-2.05-.07-.17-.42-.5-.52-.82-.78Z"/>
      <path class="cls-1" d="M42.99,33.61c.39-.02,1.11-.37.9.57-.47.05-.79-.04-.9-.57Z"/>
    </g>
  </g>
</svg>