<?xml version="1.0" encoding="UTF-8"?>
<svg xmlns="http://www.w3.org/2000/svg" version="1.1" viewBox="0 0 345.2 283.2">
  <defs>
    <style>
      .cls-1 {
        fill: #705d53;
      }

      .cls-2 {
        fill: #e5d5cc;
      }
    </style>
  </defs>
  <!-- Generator: Adobe Illustrator 28.7.1, SVG Export Plug-In . SVG Version: 1.2.0 Build 142)  -->
  <g>
    <g id="_レイヤー_2">
      <g id="contactページ">
        <g>
          <path class="cls-2" d="M235.7,142.9c5.5.7,8.1,5,10,9.6.8,2.1.3,7.6-1,9.4-2.9,4.2-5.8,4.6-11.1,5.7-1.1.2-2.3.1-3.4-.2-5-1.4-8.9-7.3-9.3-12.9-.3-5.4,4.5-9.2,9.7-10.9.4-.1.7-.3,1.2-.4,1.3-.4,2.5-.3,3.9-.2h0Z"/>
          <g>
            <path class="cls-1" d="M195.4,58.9c-1.1-6.4-2.9-12.6-5.3-18.6-2.3-5.7-5-11.4-8.5-16.4-1.6-2.2-3.6-4.2-6.1-5.3s-5.4-1.2-8.2-1c-5.5.5-10.9,2-16,4.1-20.6,8.5-35.8,26.6-48.4,44.3-7.3,10.2-13.9,20.9-18.7,32.6-2.3,5.8-4.1,11.8-5.3,17.9-1.3,6.9-1.9,13.9-3.3,20.7-5.1,23.8-20.5,45-19.4,70,.3,6.6,1.5,13.2,2.6,19.8s1.6,12.5,1.8,18.9c.2,10.3-.2,21.5,4.7,30.9,1.2,2.2,2.6,4.2,4.3,6,.7.7,1.7-.4,1.1-1.1-7.4-7.9-8.2-19.1-8.5-29.3-.1-5.4-.1-10.8-.7-16.2-.6-6.4-1.9-12.7-2.8-19s-1.4-13-.7-19.5c.7-5.8,2.1-11.5,4-17.1,3.7-11.2,8.8-21.9,12.4-33.1,1.9-6,3.2-12.1,4.1-18.4s1.8-12.9,3.4-19.2c3.2-11.8,8.8-22.7,15.3-32.9,6.2-9.7,13-19.1,20.6-27.7,7.2-8.2,15.2-15.7,24.5-21.4,4.6-2.8,9.5-5.1,14.6-6.7s11.4-3.2,16.7-1.8c5.8,1.6,8.8,8.2,11.4,13.1,2.9,5.7,5.3,11.7,7,17.8.8,2.9,1.4,5.8,1.9,8.8.2,1,1.6.5,1.4-.4h0Z"/>
            <path class="cls-1" d="M193.6,46.2c-1.2-6.3-2.9-12.6-5-18.7-.9-2.7-1.8-5.6-3.1-8.1-1.2-2.3-3.1-3.6-5.7-3.6-3.1,0-6.2.9-9.2,1.4-3.3.6-6.5,1.2-9.8,1.8-6.5,1.3-13,2.6-19.4,4.1-11.5,2.6-23.4,5.3-32.3,13.6-4.1,3.8-7.4,8.4-10.5,13-3.3,5-6.5,10.2-9.7,15.4-12.7,20.9-24.3,42.5-33,65.4-8.5,22.4-14.2,46-15.3,70-1.1,23.5,2.2,47.5,11.4,69.3,1.1,2.6,2.2,5.1,3.4,7.6.4.9,1.7.1,1.3-.8-10.1-20.8-14.7-43.8-14.8-66.8-.1-23.4,4.3-46.5,11.7-68.6s18.2-44.1,30.2-64.7c3-5.1,6.1-10.2,9.2-15.3s6-9.7,9.3-14.4,7-9,11.6-12.3,10.2-5.5,15.8-7.1c12.1-3.4,24.6-5.8,36.9-8.1,3.2-.6,6.4-1.1,9.5-1.7,1.6-.3,3.2-.7,4.8-.4s2.4,1.4,3.1,2.7c1.4,2.6,2.3,5.6,3.2,8.5s1.9,5.9,2.7,8.9,1.5,6,2.1,9.1c.2,1,1.6.5,1.4-.4h0Z"/>
            <path class="cls-1" d="M200.6,55.8c1.1-12.5-.8-26-6.5-37.2-1.2-2.3-2.9-4.3-5.4-5.1s-5.6-.7-8.4-.9c-6.2-.2-12.4-.4-18.6.2s-11.9,1.9-17.3,4.5c-5.4,2.6-10.4,6.5-14.9,10.7-9.4,8.7-19,17.8-26.2,28.4s-11.8,22.1-15.5,34.1c-3.5,11.2-6.1,22.7-8.6,34.2-4.9,22.5-9.5,45.6-20.1,66.3-2.6,5-5.5,9.8-8.8,14.3s-7.5,9.2-6.8,15.4c.4,3.3,1.7,6.5,2.8,9.6,1.2,3.4,2.4,6.8,3.6,10.1,2.4,6.7,4.7,13.3,7.1,20,1.2,3.3,2.3,6.6,3.5,9.9.3.9,1.8.5,1.5-.4-4.6-13-9.2-26-13.8-39-1.1-3.2-2.5-6.4-3-9.8s.5-6.2,2.2-8.9c1.5-2.4,3.3-4.5,4.9-6.8s3.1-4.5,4.5-6.9c11.5-19.1,16.9-41.1,21.7-62.7s9.1-46,19.5-66.9c2.8-5.7,6.1-11.1,10-16s8.3-9.6,12.8-14.1c8.6-8.6,17.4-18,29.3-21.9,5.8-1.9,12-2.6,18.1-2.8s11.9-.1,17.7.4c3.3.3,5.5,1.8,7,4.8,1.4,2.8,2.5,5.8,3.5,8.8,1.9,6,2.9,12.2,3.2,18.5.1,3.1,0,6.2-.3,9.3,0,1,1.4,1,1.5,0h0Z"/>
            <path class="cls-1" d="M196.9,56.5c-3.1-7.9-6.8-16.9-14.4-21.5-9.3-5.6-20.2-1.6-28.8,3.3-8.7,4.9-17,10.6-24.9,16.8s-15.5,12.9-22.6,20.1c-14,14.2-26.1,30.3-35.8,47.7-10.6,18.9-18.4,39.4-23.2,60.5-4.9,21.6-6.6,44-4.9,66.1.2,2.8.5,5.5.8,8.2,0,1,1.6,1,1.5,0-2.4-21.5-1.6-43.4,2.3-64.7,3.9-21.2,10.7-41.9,20.5-61.2,8.8-17.4,20-33.7,33.1-48.2s28-27.4,44.4-38c4.3-2.8,8.6-5.5,13.2-7.8s10-4.2,15.4-3.9c9.9.5,15.8,8.6,19.6,16.9.9,2,1.8,4.1,2.6,6.2.4.9,1.8.5,1.4-.4h0Z"/>
            <path class="cls-1" d="M185.1,30.5c-14.8-9.3-32.5-13.8-49.9-12.8-16.5.9-32.3,6.8-45.5,16.7-6.3,4.8-12,10.3-16.8,16.7-5.2,6.8-9.1,14.3-12.2,22.3-3.6,9.4-6.3,19.2-9.2,28.9s-6,20.1-9.1,30.1c-6.1,20.2-12.1,40.4-18.2,60.6-.8,2.6-1.5,5.1-2.3,7.7-.3.9,1.2,1.3,1.5.4,5.9-19.8,11.9-39.6,17.9-59.3,5.9-19.6,11.5-39.2,17.7-58.7,2.8-8.7,6-17.2,10.9-24.9,4.2-6.7,9.4-12.8,15.3-18,12.1-10.7,27.2-17.9,43.2-20.1,17.1-2.4,35.1.7,50.4,8.7,1.9,1,3.8,2.1,5.6,3.2.8.5,1.6-.8.8-1.3h0Z"/>
            <path class="cls-1" d="M197.5,60.5c9.5-14.3,20.3-30.3,36.9-37.1s37-1.4,47.8,13.4c3,4,5.3,8.5,7.5,13,2.6,5.1,5.1,10.2,7.6,15.3,5,10.2,9.8,20.4,14.5,30.7s9,20.3,12.5,30.9,5.6,20.4,6.6,30.9c2.1,20.8-.2,41.9-6.9,61.7-.8,2.4-1.7,4.8-2.6,7.2-.4.9,1.1,1.3,1.5.4,7.9-19.8,11.3-41.3,10.1-62.6-.6-10.7-2.4-21.3-5.3-31.6s-7.2-21.1-11.8-31.3-9.6-21.3-14.7-31.8c-2.5-5.2-5.1-10.4-7.7-15.6-2.4-4.8-4.8-9.7-7.6-14.3-5-8-11.8-14.2-20.5-17.8-8.1-3.3-17.2-4-25.7-1.9-17.6,4.5-29.7,19.7-39.6,34-1.3,1.9-2.6,3.8-3.8,5.7-.5.8.8,1.6,1.3.8h0Z"/>
            <path class="cls-1" d="M208.6,50.6c14.5-13.1,31.6-23.3,49.9-29.9,4.6-1.6,9.2-3.1,13.9-4.3,5.1-1.3,10.5-2.8,15.8-1.4,8.7,2.2,15.9,9.3,20.8,16.5s8.2,15.4,10.9,23.7c3.1,9.7,5.5,19.6,7.7,29.5,4.6,21.2,7.2,43.2,4.5,64.8-2.4,18.8-8.8,37.4-20.4,52.6-1.5,1.9-3,3.7-4.6,5.5-.6.7.4,1.8,1.1,1.1,13-14.5,20.9-32.9,24.3-52,3.9-21.5,2.2-43.6-1.9-65-2.1-10.8-4.7-21.6-7.7-32.2-2.5-8.5-5.5-17-9.9-24.7s-10.3-14.4-17.9-18.7c-4.6-2.6-9.4-3.7-14.6-3s-10.1,2.2-15,3.7c-19,5.8-36.8,15.4-52.2,27.9-1.9,1.6-3.8,3.2-5.6,4.8-.7.7.3,1.7,1.1,1.1h0Z"/>
            <path class="cls-1" d="M213,40.3c2-9,9.4-15.6,17.5-19.3,4.9-2.2,10.1-3.6,15.4-4.6,2.5-.5,5.1-1,7.6-1.4,2.8-.5,5.8-1,8.5.2,2.2,1,3.9,2.7,5.5,4.5,1.7,1.8,3.3,3.8,4.8,5.8,2.9,3.9,5.4,8.1,7.6,12.3,4.5,8.7,7.8,18,10.9,27.2,6.9,20.9,13.9,42.1,15.9,64.1,1.8,19.1-.9,38.1-8.2,55.8-7,16.9-17.9,32.3-31.8,44.3-1.7,1.5-3.5,2.9-5.3,4.3-.8.6,0,1.9.8,1.3,15-11.4,27-26.4,35.1-43.4,8.3-17.5,12.3-36.8,11.4-56.1-1.1-22.9-8-45-15.1-66.7-3.1-9.6-6.4-19.2-10.8-28.4-2.1-4.5-4.6-8.9-7.4-13s-5.9-8.4-9.7-11.5c-1.8-1.5-3.8-2.5-6.1-2.7-2.6-.3-5.2.3-7.7.8-5.4,1-10.9,2-16.1,3.7-8.8,2.9-17.3,8-21.8,16.4-1,1.9-1.8,4-2.2,6.1-.2.9,1.2,1.3,1.4.4h0Z"/>
            <path class="cls-1" d="M201.8,63c13.8-12.4,28.7-25.9,47.6-29.2,8.3-1.4,17.3-.9,25,2.6,8.5,3.9,14,11.2,18.3,19.2,4.6,8.9,8.5,18.3,12.1,27.6,3.6,9.5,6.7,19.2,9,29.1,4.2,18.5,5.3,37.7,1.1,56.3-3.7,16.6-11.5,32.6-23.7,44.6-1.5,1.5-3.1,2.9-4.7,4.2-.8.6.3,1.7,1.1,1.1,13.5-11.2,22.6-26.9,27.4-43.6,5.2-18.3,5.2-37.6,1.7-56.2-3.8-20.5-11.4-40.3-20.2-59.2-3.9-8.4-8.7-16.7-16.6-21.9-7.1-4.7-15.8-6.5-24.2-6.1-19.4.9-35.3,13-49.3,25.4-1.8,1.6-3.7,3.3-5.5,4.9-.7.7.4,1.7,1.1,1.1h0Z"/>
            <path class="cls-1" d="M200.1,53.5c5-17.6,17.1-32.8,32.7-42.2,8.1-4.8,17.2-8.3,26.6-9.4,5.4-.6,10.8-.3,15.8,1.7,4,1.6,7.6,4.2,10.7,7.2,6.4,6.3,10.9,14.5,14.5,22.7,4.6,10.2,8.5,20.9,12,31.6,7.1,21.8,11.8,44.7,11.5,67.7-.3,21.4-5,42.9-15.5,61.7-1.3,2.3-2.6,4.5-4.1,6.7-.5.8.8,1.6,1.3.8,12-18.4,18.1-40.1,19.4-61.9,1.5-23.4-2.6-46.8-9.3-69.2-3.5-11.5-7.6-22.8-12.2-33.9-3.5-8.5-7.6-16.9-13.5-23.9S276.5.9,267.3.1c-5.5-.5-11.2.4-16.6,1.9-4.5,1.2-8.9,2.8-13,4.8-16.6,8.1-30.2,22.5-36.9,39.7-.8,2.1-1.6,4.3-2.2,6.5-.3.9,1.2,1.3,1.4.4h0Z"/>
            <path class="cls-1" d="M211.1,45.5c8.5-12.6,21.9-21.5,36.5-25.3,7.2-1.9,14.8-2.5,22.2-1.8,8,.8,16.6,3,22.7,8.6,5.8,5.3,9.3,12.7,12,19.9,3.3,8.8,6.2,17.8,9,26.8,6.1,19.1,10.9,38.7,11.9,58.8.9,19.5-1.5,39.2-7,58-.7,2.3-1.4,4.6-2.2,6.9-.3.9,1.1,1.3,1.5.4,6.5-19,9.6-39.1,9.4-59.2-.2-20.6-4.5-40.6-10.5-60.2-2.9-9.6-6.1-19.2-9.4-28.6-2.6-7.5-5.7-15-10.9-21.1-5.5-6.4-13.3-9.5-21.4-11-7.5-1.4-15.2-1.3-22.7,0-15.1,2.7-29.3,10.7-39,22.6-1.2,1.4-2.3,2.9-3.3,4.5-.5.8.8,1.5,1.3.8h0Z"/>
            <path class="cls-1" d="M222.3,42c9.6-2.8,19.4-4.9,29.3-6.4s19.7-2.6,29.1.3c8.4,2.7,15.3,8.7,21.3,14.9s11.5,12.9,16.3,20.1c9.5,14.2,16.6,29.9,20.9,46.5,4.4,17.2,5.6,35.1,3.6,52.7-2,18-7.4,35.7-15.7,51.8-1,2-2.1,4-3.2,5.9-.5.8.8,1.6,1.3.8,9.3-16,15.5-33.7,18.3-52,2.8-17.9,2.3-36.2-1.5-53.9-3.7-17-10.3-33.4-19.6-48.1-4.6-7.4-9.9-14.3-15.7-20.8s-12.1-12.8-19.9-16.8c-8.6-4.4-18.2-4.7-27.6-3.7-10.1,1-20,2.8-29.8,5.3-2.5.6-5,1.3-7.5,2-.9.3-.5,1.7.4,1.5h0Z"/>
            <path class="cls-1" d="M152.6,109.9c-2-5.4.2-11.5,5.4-14.1,2.6-1.3,5.9-1.7,8.7-.8s4.7,3.2,4.4,6.1c-.1,1,1.4.9,1.5,0,.4-3.1-1.8-6-4.5-7.2-3.1-1.3-7-1-10,.3-6.2,2.6-9.2,9.8-6.9,16.1.3.9,1.8.5,1.4-.4h0Z"/>
            <path class="cls-1" d="M206.4,104.1c2.5-1.4,5.1-2.6,7.8-3.6,1.3-.5,2.5-.9,3.8-1.3,1.4-.4,3-1,4.4-.5,2.4.8,3.7,3.9,4.5,6.1.5,1.3,1.2,2.8,1.3,4.3s-.8,2.9-1.5,4.1c-.5.8.8,1.6,1.3.8.8-1.3,1.5-2.7,1.7-4.3s-.5-3.2-1.1-4.7c-1-2.6-2.2-5.7-4.7-7.2-2.7-1.6-6.1-.1-8.7.8-3.3,1.2-6.5,2.6-9.5,4.3-.9.5,0,1.8.8,1.3h0Z"/>
            <path class="cls-1" d="M209.8,101.3c-1.2-3-2-6.1-2.5-9.2,0-.4-.6-.6-.9-.5-.4.1-.6.5-.5.9.5,3.2,1.3,6.2,2.5,9.2.1.4.5.6.9.5.4,0,.7-.5.5-.9h0Z"/>
            <path class="cls-1" d="M216.8,99.2c-.4-4.1.4-8.3,2.2-12,.4-.9-.9-1.6-1.3-.8-1.9,4-2.8,8.4-2.4,12.8,0,.9,1.6,1,1.5,0h0Z"/>
            <path class="cls-1" d="M225.4,99.8c2.4-1.3,4.7-2.8,6.7-4.6.3-.3.3-.8,0-1.1-.3-.3-.8-.3-1.1,0-1.9,1.7-4.1,3.2-6.4,4.4-.9.4-.1,1.8.8,1.3h0Z"/>
            <path class="cls-1" d="M228.4,103.7c2.6-.9,5.2-1.5,8-1.9.4,0,.6-.6.5-.9-.1-.4-.5-.6-.9-.5-2.7.4-5.4,1-8,1.9-.9.3-.5,1.8.4,1.4h0Z"/>
            <path class="cls-1" d="M230.1,107.3c2.7-.7,5.5-1,8.3-1,1,0,1-1.5,0-1.5-2.9,0-5.9.4-8.7,1.1-.9.2-.5,1.7.4,1.4h0Z"/>
            <path class="cls-1" d="M229.6,110.7c1.3.5,2.7.6,4.1.4.4,0,.6-.6.5-.9-.1-.4-.5-.6-.9-.5,0,0-.3,0-.1,0,0,0-.1,0-.2,0-.1,0-.3,0-.5,0-.3,0-.6,0-.9,0,0,0-.2,0,0,0,0,0-.1,0-.2,0-.1,0-.3,0-.4,0-.3,0-.6-.2-.9-.3-.4-.1-.8.2-.9.5-.1.4.1.8.5.9h0Z"/>
            <path class="cls-1" d="M227.8,114c1.5,1.4,3.1,2.7,4.6,4.1.3.3.8.3,1.1,0,.3-.3.3-.8,0-1.1-1.5-1.4-3.1-2.7-4.6-4.1-.3-.3-.8-.3-1.1,0-.3.3-.3.8,0,1.1h0Z"/>
            <path class="cls-1" d="M152.6,109.1c-1.9-1.9-4-3.6-6.3-5-.3-.2-.8,0-1,.3-.2.4,0,.8.3,1,2.2,1.4,4.1,3,6,4.8.7.7,1.7-.4,1.1-1.1h0Z"/>
            <path class="cls-1" d="M152.7,102.5c-1.3-1.4-2.6-2.8-4-4.2-.3-.3-.8-.3-1.1,0-.3.3-.3.8,0,1.1,1.3,1.4,2.6,2.8,4,4.2.3.3.8.3,1.1,0,.3-.3.3-.8,0-1.1h0Z"/>
            <path class="cls-1" d="M154.6,98.4c-1.9-2.4-3.5-4.9-5-7.6-.5-.8-1.8,0-1.3.8,1.6,2.8,3.3,5.4,5.2,7.9.2.3.8.3,1.1,0,.3-.3.2-.7,0-1.1h0Z"/>
            <path class="cls-1" d="M157.8,95.3c-.4-3.6-.9-7.2-1.6-10.8-.2-.9-1.6-.6-1.4.4.7,3.4,1.2,6.9,1.5,10.4,0,.9,1.6,1,1.5,0h0Z"/>
            <path class="cls-1" d="M162.2,94c.8-3.3,1.3-6.8,1.5-10.2,0-1-1.4-1-1.5,0-.2,3.3-.7,6.6-1.4,9.8-.2.9,1.2,1.3,1.4.4h0Z"/>
            <path class="cls-1" d="M168.2,93.8c.1-2.2.9-4.3,2.2-6.1.2-.3,0-.8-.3-1-.4-.2-.8,0-1,.3-1.5,2-2.3,4.3-2.4,6.8,0,.4.4.8.8.8s.7-.3.8-.8h0Z"/>
            <path class="cls-1" d="M171.2,96.7c2.7-1.6,5.3-3.3,7.8-5.2.3-.2.5-.7.3-1-.2-.3-.7-.5-1-.3-2.5,1.9-5.1,3.6-7.8,5.2-.8.5,0,1.8.8,1.3h0Z"/>
            <path class="cls-1" d="M173.2,100.1c1.9.2,3.9,0,5.7-.5.4-.1.6-.5.5-.9s-.5-.6-.9-.5c-1.7.5-3.5.6-5.3.4-.4,0-.8.4-.8.8s.4.7.8.8h0Z"/>
            <path class="cls-1" d="M180.2,121.3c.1-2,1-4,2.3-5.5.2-.2.3-.3.5-.5,0,0,0,0,.1,0,0,0,0,0,0,0,0,.1,0-.3,0,0,0,.5.3,1,.4,1.5.2,1.2.4,2.5.5,3.8l1.3-.5c-.8-1.1-1.6-2.1-2.5-3.2-.3-.3-.8-.2-1.1,0-1.1,1-2,2.3-2.5,3.7l1.5.2c0-.8.3-1.5.5-2.3.1-.4.3-.7.4-1,0,0,.5-.9.5-.9,0,0-.2,0-.2,0,0,0,0,.1,0,0,0,.1.2.3.3.4.2.3.4.7.6,1,.4.7.6,1.4.8,2.2l.7-.9c-1.1,0-2.3,0-3.4,0l.7.9c.3-2,1.3-3.8,2.7-5.2l-1.2-.3c.4,2,.9,4,1.3,6,0,.4.6.6.9.5.4-.1.6-.5.5-.9-.4-2-.9-4-1.3-6-.1-.6-.9-.7-1.2-.3-1.6,1.6-2.7,3.6-3.1,5.8,0,.5.2.9.7.9,1.1,0,2.3,0,3.4,0,.5,0,.8-.5.7-.9-.3-1-.6-2-1.2-2.9-.4-.8-1.2-2.2-2.3-1.8-.5.2-.8.6-1.1,1.1s-.5.9-.7,1.4c-.4,1-.6,2-.8,3.1,0,.4.3.7.6.7.4,0,.7-.2.8-.5.4-1.2,1.1-2.2,2.1-3.1h-1.1c.8,1.1,1.6,2.1,2.5,3.2.4.5,1.3,0,1.3-.5,0-1.2-.2-2.4-.4-3.6-.1-.6-.2-1.2-.4-1.7-.1-.5-.4-1-.8-1.2-1.1-.6-2.1.5-2.7,1.3-.7.8-1.2,1.7-1.6,2.7-.4,1.1-.7,2.2-.8,3.4,0,.4.4.8.8.8s.7-.3.8-.8h0Z"/>
            <path class="cls-1" d="M160.4,142.1l15.2.5,7.4.3h2c.5,0,1.3,0,1.7.1.5.2.1-.2.2.3,0,.1-.1.4-.2.6-.2.6-.3,1.2-.5,1.8-1.2,4-2.9,8.3-6.6,10.6-1.6,1-3.6,1.6-5.5,1.5-2.2-.1-3.8-1.3-5.1-2.9-3.4-3.9-5.8-8.7-7.1-13.6-.3-.9-1.7-.5-1.4.4,1.4,5,3.7,9.6,7,13.6,1.4,1.8,3.1,3.3,5.3,3.8,2,.4,4.1.1,6-.7,4.2-1.8,6.6-5.8,8.1-10,.4-1.2.8-2.3,1.1-3.5.2-.8.9-2.1.2-2.8-.6-.7-1.9-.5-2.8-.5l-4.4-.2c-6.9-.2-13.8-.5-20.7-.7-1,0-1,1.5,0,1.5h0Z"/>
            <g>
              <path class="cls-2" d="M162.6,186.6c-4.3,12.5-7.6,25.1-10.1,37.7,9.1-2.8,18.4-4.8,27.8-5.9-1.8-9-1.8-18.4,0-27.8"/>
              <path class="cls-1" d="M161.9,186.4c-4.2,12.3-7.6,24.9-10.1,37.7-.1.6.4,1.1.9.9,9-2.8,18.2-4.7,27.6-5.8.5,0,.9-.4.8-1-1.7-9-1.7-18.3,0-27.4.2-1-1.3-1.4-1.5-.4-1.7,9.3-1.7,18.9,0,28.2l.8-1c-9.5,1.1-18.9,3.1-28,5.9l.9.9c2.4-12.8,5.8-25.4,10.1-37.7.3-.9-1.2-1.4-1.5-.4h0Z"/>
            </g>
            <path class="cls-1" d="M179.9,200.8c1.7-.5,3.5-.9,5.2-1.4l-.9-.7c-.2,2.2-.3,4.8,1,6.7,1,1.5,3.1,2.4,4.9,1.9,2.2-.7,2.6-3.1,2.1-5-.2-1.1-.6-2.1-1.1-3.1s-1-1.9-1.9-2.5c-1.7-1.1-4.6-.4-4.6,1.9,0,1,1.5,1,1.5,0,0-.5.5-.8,1-.9.6-.1,1.1,0,1.6.4,1.1,1,1.7,2.8,2.1,4.2.3,1.2.4,3.1-1.1,3.5-1.2.3-2.5-.4-3.2-1.4-1.1-1.7-.9-3.9-.7-5.8,0-.5-.5-.8-.9-.7-1.7.5-3.5.9-5.2,1.4-.9.2-.5,1.7.4,1.4h0Z"/>
            <path class="cls-1" d="M156.9,202c-4.4,1.4-8.9,2.5-13.5,3.2-2.1.4-4.2.5-6.3.9-1.6.3-3.3.8-4.5,2-2.3,2.3-2,6.2.5,8.2,1.4,1.1,3.1,1.4,4.8,1s3.6-.9,4.9-1.9c1.5-1.2,1.8-2.8,1.4-4.6s-1-3.7-2.6-4.8c-.8-.6-1.6.8-.8,1.3.9.6,1.2,1.5,1.5,2.4s.8,2.3.4,3.3c-.5,1.6-2.8,2.2-4.2,2.6-2,.6-4.1.5-5.4-1.4-1.1-1.6-.8-3.9.6-5.2s3.4-1.5,5.1-1.7c1.9-.2,3.9-.5,5.8-.8,4.2-.7,8.4-1.8,12.6-3.1.9-.3.5-1.7-.4-1.4h0Z"/>
            <path class="cls-1" d="M161,221.3c-1.3,12.5-2.2,25.1-2.6,37.6,0,1,1.5,1,1.5,0,.4-12.6,1.3-25.1,2.6-37.6.1-1-1.4-.9-1.5,0h0Z"/>
            <path class="cls-1" d="M168.8,220.7c1.9,7.3,2.2,14.8,2.5,22.2.3,7.6,1.1,15.4.6,23.1,0,1,1.4,1,1.5,0,.6-7.8-.2-15.8-.6-23.6-.3-7.4-.6-14.9-2.6-22.2-.2-.9-1.7-.5-1.4.4h0Z"/>
            <path class="cls-1" d="M161.8,102.5c-2.6,1.2-3.6,4.9-1.9,7.3.2.3.5.4.9.3,1.6-.4,2.1-2.1,2.1-3.6,0-.8,0-1.6-.2-2.4-.2-.9-.6-1.8-1.5-2.2-.8-.4-1.8-.4-2.4.2-.7.7-.8,1.9-.8,2.8s.2,2,.5,2.9,1.1,1.7,2.1,1.4c1.1-.3,1.6-1.5,1.5-2.5,0-1.2-.3-2.4-.5-3.6,0-.4-.3-.8-.8-.8s-.8.3-.8.8c.1.8.2,1.7.3,2.5,0,.4.1.7.1,1.1,0,.3,0,.7-.1.9,0,.1-.2.2-.3.2,0,0,0,0,0,0,0,0-.1-.2-.2-.3-.2-.6-.4-1.3-.4-2s-.1-1.4.1-2.1c0,0,0-.2.1-.2,0,0,.1,0,.2,0,0,0,.2,0,.2,0-.1,0,0,0,.1,0,0,0,.1,0,.1,0,.5.2.6.8.8,1.3.1.6.2,1.1.2,1.7,0,.6,0,1-.2,1.6,0,.1-.2.4-.3.5s0,0-.1,0c-.1.1,0,0,0,0,0,0-.2,0-.1,0,0,0-.2,0-.2,0l.9.3c-.6-.9-.8-1.9-.5-2.9s.9-1.8,1.9-2.3c.4-.2.5-.7.3-1-.2-.4-.7-.4-1-.3h0Z"/>
            <path class="cls-1" d="M215.8,106.2c-1.9,1.1-3.4,3.1-3.8,5.3-.2,1.2,0,2.5.9,3.3.9.7,2.1.9,3.1.2.5-.4.7-1,.9-1.5.2-.6.5-1.2.7-1.8.4-1.2.8-2.5.9-3.8.1-1.2-.7-2.3-2-2.2-1.1,0-2,.7-2.6,1.6-1.3,1.9-1,4.6-.3,6.7.2.6,1,.7,1.4.2,1.3-2.1,2-4.5,2-6.9l-1.5.2c.1.6-.1,1.4-.7,1.8-.3.2-.5.7-.3,1,.2.3.7.5,1,.3,1.1-.8,1.6-2.1,1.4-3.5-.2-.8-1.5-.6-1.5.2,0,2.2-.6,4.3-1.8,6.2l1.4.2c-.5-1.4-.8-3.1-.3-4.6.2-.6.6-1.2,1.1-1.6.4-.3,1.1-.5,1.2,0,0,.4,0,.8-.2,1.2-.1.6-.2,1.1-.4,1.6-.3,1-.6,1.9-1,2.8-.1.3-.3.7-.5.8-.2.1-.5,0-.7,0-.7-.3-.8-1.3-.7-2,.2-1.8,1.5-3.5,3.1-4.4.8-.5,0-1.8-.8-1.3h0Z"/>
            <path class="cls-1" d="M195.9,62.4c.3-8.7-3.9-16.9-10.3-22.7-6.9-6.3-16-9.3-25.3-9.2-21.5.1-39,14.3-53.7,28.5-7.8,7.5-15.4,15.2-22.2,23.6s-12.3,17.4-17,27.1c-4.8,10-9.1,20.3-15.2,29.6-5.9,9.1-13.1,17.3-19.4,26.1-6.1,8.6-10.6,18.1-14.9,27.6s-8.3,19.1-13.6,28c-1.3,2.2-2.7,4.4-4.2,6.5-.6.8.7,1.5,1.3.8,11.8-16.6,17.3-36.4,27.5-53.9,5.4-9.2,12.3-17.4,18.6-25.9,3.2-4.2,6.2-8.5,8.9-13.1s5-9.4,7.3-14.2c4.6-9.7,9-19.5,15-28.4,5.9-8.7,13-16.6,20.3-24.1,14.2-14.5,29.8-30.5,50.2-35.3,9.6-2.3,20.2-1.9,29,2.9,7.5,4.1,13.7,11.3,15.6,19.8.5,2.1.7,4.2.6,6.4,0,1,1.5,1,1.5,0h0Z"/>
            <path class="cls-1" d="M201.9,56.5c-3.3-8.3-10.2-14.5-18.4-18.1-9.4-4.1-19.8-4.3-29.7-2.2s-19.9,6.6-28.8,11.9c-8.1,4.8-15.7,10.5-22.6,16.9-14,12.9-25.5,28.3-35,44.8-10.7,18.7-18.7,38.8-25.7,59.1-7.5,21.9-13.9,44.1-21.5,66-.9,2.7-1.9,5.3-2.8,7.9-.3.9,1.1,1.3,1.5.4,7.7-21.2,14-42.8,21-64.2s14.3-41.1,24.3-60.3c8.7-16.6,19.3-32.3,32.2-45.8s28.8-25.2,46.6-31.9c10.1-3.8,21.2-6,31.8-3.8,8.7,1.8,17.1,6.5,22.4,13.8,1.3,1.8,2.4,3.8,3.2,5.8.4.9,1.8.5,1.4-.4h0Z"/>
            <path class="cls-1" d="M159.8,102.8c-.6.8-.8,1.9-.6,2.9.1,1.2.4,2.4.6,3.5.1.6.9.7,1.2.3,1-.8,2-1.8,2.1-3.2,0-.7-.1-1.3-.4-1.9s-.9-1.3-1.7-1.1c-.8.2-.9,1.2-.9,1.9s0,1.4,0,2.1c.1.8.3,1.5.6,2.2.1.3.2.7.6.9.4.2.9,0,1.2-.2,1.4-1.1,1.2-3,1-4.6,0-.3-.4-.5-.6-.5-.3,0-.6,0-.8.4-.5.6-.5,1.4-.4,2.2,0,.3,0,.6,0,.9,0,.2-.1.5-.3.6,0,0,0,0,0,0,0,0,0,0-.1,0-.1,0-.2,0-.3-.1-.2-.1-.3-.3-.4-.5-.2-.5-.1-1,.2-1.4.2-.3,0-.8-.3-1-.4-.2-.8,0-1,.3-.5.7-.6,1.7-.3,2.6.3.9,1.2,1.8,2.3,1.7s1.7-1,1.8-2c.1-.8-.3-1.8.2-2.4l-1.4-.2c.1.6.2,1.3,0,1.9,0,.4-.3,1-.7,1.2h.4c0,0,0,0,0,0,.1,0,.2.1.3.2,0,0,0-.1,0-.2,0-.1,0-.2-.1-.3,0-.2-.1-.5-.2-.7-.1-.4-.2-.9-.2-1.3,0-.5,0-.9,0-1.4,0-.2,0-.4,0-.7,0,0,0-.2,0-.1-.6,0-.8,0-.6.2,0,0,0,0,.1.1.4.5.5,1.2.3,1.8-.3.7-1,1.2-1.6,1.7l1.2.3c-.2-1-.4-2-.6-3,0-.8,0-1.6.4-2.3.2-.3,0-.8-.3-1-.4-.2-.8,0-1,.3h0Z"/>
            <path class="cls-1" d="M183.3,117.9c-.5,0-1.1.2-1.6.2-.2,0-.4.2-.4.3,0,.2-.1.4,0,.6s.2.4.3.4h.2c.1.1.3.1.4,0,.5,0,1.1-.2,1.6-.2.2,0,.4-.2.4-.3,0-.2.1-.4,0-.6s-.2-.4-.3-.4h-.2c-.1-.1-.3-.1-.4,0h0Z"/>
            <path class="cls-1" d="M215.1,108.2c-.9,1.2-1.9,2.6-1.5,4.2.2.6.8.7,1.2.3.9-.8,1.7-1.6,2.4-2.5.4-.5.7-1,.7-1.6s-.2-1.2-.6-1.7c-.3-.4-.9-.2-1.2.2-.7,1-1.4,2-1.8,3.1s-.4,2.5-.6,3.7c-.1.7.7,1.3,1.2.7,1-1,1.3-2.4,1.5-3.7l-1.5-.2v.5c0,.4.3.8.7.8s.7-.3.8-.8v-.5c0-.8-1.3-1-1.4-.2-.2,1.1-.3,2.2-1.1,3l1.2.7c.2-1.2.2-2.4.6-3.6.3-1.1,1-2,1.7-2.9l-1.2.2c.5.6-.2,1.2-.6,1.7-.6.7-1.3,1.4-2,2l1.2.3c-.3-1,.5-2,1.1-2.7.2-.3.3-.8,0-1.1-.3-.3-.8-.3-1.1,0h0Z"/>
            <path class="cls-1" d="M163.6,106.2c-.1-1-.4-2-.9-2.8-.2-.4-.5-.8-.9-1.1-.2-.2-.4-.3-.7-.4-.1,0-.3,0-.4,0h-.1c0,0,0,0,0,0l.2.3h0c-.2.3-.5.5-.8.8,1.6-.2,2,1.7,2,2.9s-.1,1.5-.4,2.1c-.1.3-.3.6-.5.8-.1,0-.1,0-.2,0,0,0,0,0,0,0-.1,0,0,0,0,0-.1-.4-.5-.6-.9-.5-.4,0-.7.5-.5.9.4,1.2,1.9,1.3,2.8.4s1.2-2.2,1.3-3.3c.2-2.2-.7-5.3-3.4-5.1-.4,0-.7.3-.8.8,0,.6.4,1,1,1.1.2,0,.4,0,.5,0s.3.3.4.4c.5.7.8,1.6.9,2.4,0,.4.3.8.8.8s.8-.3.8-.8h0Z"/>
            <path class="cls-1" d="M172.8,98.6c-.1,0-.3,0-.4,0h.2c0,0-.1,0-.2,0-.1,0-.2,0-.3,0,0,0-.2,0-.2.2,0,0-.1.2-.2.2,0,0,0,.2,0,.3v.2c0,.1.1.2.2.3h.1c.1.2.2.2.4.2s.3,0,.5,0c.1,0,.2,0,.3,0,.1,0,.2,0,.3-.1,0,0,.1-.1.2-.2,0,0,0-.2,0-.3,0,0,0-.2,0-.3v-.2c-.2-.1-.2-.2-.4-.3h-.2c-.1-.1-.3-.1-.4,0h0Z"/>
            <path class="cls-1" d="M199.1,61.2c-7.8-.5-15.4,1.2-22.8,3.4-6.7,2-13.3,4.5-19.2,8.1-6.2,3.7-11.3,8.6-15.8,14.2-2.2,2.8-4.3,5.7-6.2,8.6s-4.1,5.9-5.9,9c-3.8,6.7-4.9,14.2-5.4,21.8s-.2,15.2,1.4,22.7c2.9,13.1,10.3,24.9,21.9,31.8,12.2,7.3,27.4,10.1,41.5,9.6s27.8-4.4,39.9-11.4c11.2-6.5,21-15.4,28.4-26.1,4-5.8,7.2-12,8.6-18.9,1.3-6.6,1.2-13.3-.2-19.9-2.7-13.1-10.2-24.5-20.1-33.3-4.8-4.3-10.2-8-15.9-11.1-6.2-3.4-12.9-6.5-19.9-7.9-3.5-.7-7-.9-10.6-.5-.9.1-1,1.6,0,1.5,7.5-.9,14.9,1.2,21.7,4.2,5.8,2.5,11.4,5.6,16.6,9.3,10.4,7.3,19.4,17.2,24,29.2s5.3,26.2-.5,38.1c-5.6,11.5-15,21.6-25.3,29.1-22.3,16.2-52.1,20.9-78.1,11.3-6.3-2.3-12.4-5.7-17.3-10.4-4.6-4.5-8.2-10-10.6-15.9-2.7-6.5-4-13.5-4.3-20.5-.4-7.4,0-15,1.6-22.2,1.6-7.2,5.8-13.2,9.9-19.2s8.1-11.4,13.3-16,11.3-8,17.7-10.6,13.4-4.6,20.3-5.8c3.7-.6,7.4-.9,11.1-.6,1,0,1-1.4,0-1.5h0Z"/>
          </g>
          <path class="cls-2" d="M134,133c5.5.7,8.1,5,10,9.6.8,2.1.3,7.6-1,9.4-2.9,4.2-5.8,4.6-11.1,5.7-1.1.2-2.3.1-3.4-.2-5-1.4-8.9-7.3-9.3-12.9-.3-5.4,4.5-9.2,9.7-10.9.4-.1.7-.3,1.2-.4,1.3-.4,2.5-.3,3.9-.2h0Z"/>
        </g>
      </g>
    </g>
  </g>
</svg>