<?xml version="1.0" encoding="UTF-8"?>
<svg id="_レイヤー_2" data-name="レイヤー_2" xmlns="http://www.w3.org/2000/svg" viewBox="0 0 75.31 73.75">
  <defs>
    <style>
      .cls-1 {
        fill: #c7b299;
      }
    </style>
  </defs>
  <g id="_メインページ" data-name="メインページ">
    <g>
      <path class="cls-1" d="M4.26,20.16c2.59-5.13,6.09-9.35,10.9-12.54,5.34-3.53,11.31-5.51,17.4-6.81,8.52-1.83,16.78-.67,24.25,4.51-.48,1.11-1.38.92-2.22.73-1.92-.44-3.51.38-5.07,1.28-.72.42-.83.92.16,1.29,1.07.4.8.97.03,1.45-1.47.92-3.26,1.17-4.71,2.16-.72.49-1.39.88-1.81,1.76-.71,1.49-2.18.96-3.46.96,1.26.22,2.38.66,3.36,1.42,1.29,1.01,2.95.93,4.38,1.56,1.46.64,1.64.89.78,2.19-.19.29-.83.6-.16.92.8.39.98.71.26,1.34-.97.85-1.92.9-2.6.13-.4-.46-.39-1.09-.81-1.63-.98-.02-1.84.24-2.13-1.15-.15-.75-2.75-1.36-3.58-1.02-1.44.58-2.73,1.51-4.28,1.87-.45.11-.61.5-.71.91-.11.46-.32.85-.67,1.19-1.69,1.65-2.6,1.49-3.6-.82-1.01,1.16-2.01,2.22-3.06,3.23-.52.5-.58,1.23-.45,1.95.12.63.2,1.26-.07,1.99-.54.51-.86,1.04-1.34,1.58-.72-.13-1.23-.05-1.59.71-.32.19-.56.23-.93.24-.71-.13-1.62.16-1.72-.67-.12-.96-.78-1.88-.39-2.87.24-.61.85-.66,1.33-.39.94.54,1.63.24,2.28-.48-.61-.31-1.24-.48-1.94-.3-1.18.31-1.45-.31-1.31-1.33.11-.76-.02-1.5-.18-2.24-.18-.82-.6-1.72.65-2.16.25-.09.35-.49.33-.77-.1-1.26.49-2.04,2.04-2.44-1.39-.57-2.73-.24-3.45-1.33-.78-1.17.25-2.08.49-3.09.47-2,.9-2.15,2.84-1,.14-.15.09-.34,0-.45-1.02-1.17-2.01-2.11-.88-4,.55-.91-1.33-1.21-2.13-1.93.77,2.33-1.46,4.41-.25,6.71.31.59-.03,1.38-.42,1.98-.66,1.03-1.24,2.07-1.34,3.34-.06.71-.61,1.07-1.27,1.28-.92.28-1.62.83-2.14,1.68.53.18,1.07.08,1.53.4.59.41.86.91.65,1.63-.19.62-.52,1.01-1.24.94-.57-.06-1.15.14-1.85,0-.9.02-1.83.29-2.12-.77-.19-.7-.25-1.31-1.24-1.21-.97.1-1.81.27-2.2,1.29-.12.32-.15.67-.34,1.1-.13.18-.2.24-.39.36-1.55.41-2.71-.2-3.71-1.07-.88-.76-.67-1.36.65-1.88.22.08.32.14.4.21.08.07.16.15.24.23-.02-.06-.08-.08-.2-.2-.48-.62-.41-1.4-1.01-1.97Z"/>
      <path class="cls-1" d="M4.11,20.11c1.57-.12,1.1.98,1.19,1.89-.47.23-1.16-.1-1.31.63-.12.59.38.97.87,1.16.94.38,1.82,1.06,3.08.79.8.99,1.54,1.91,2.33,2.83.52-.81-.39-1.09-.53-1.63-.21-.78.84-.66.97-1.3-.89-.56-1.6.56-2.53.19-.05-2.37,1.63-3.72,3.73-3.14.54.15.65.5.5,1.06-.33,1.33.4,1.32,1.47.97.61.75,0,1.18-.42,1.6-.73.73-1.16,1.62-1.19,2.61-.03.96-.13,1.82-.92,2.48-.35.29-.34.71-.11,1.1.46.77.45,1.65.61,2.48.07-.81-.05-1.83,1.16-1.89,1.51-.07,1.81,1.12,2.09,2.27.4-.06.66-.48,1.21-.4,1.12,1.31.63,3.75-.85,4.82q-1.83,1.32.08,2.82c.9,1.53.38,3.04.14,4.45-.13.76-.06,1.18.41,1.65.72.73,1.24,1.53,1.05,2.63-.12.67.35,1.04.77,1.46.53.53,1.16.99,1.5,1.67.3.59.35,1.27-.08,1.82-.47.6-1.03.35-1.53-.03-.65-.49-.87-.22-1,.48-.41,2.21.13,3.09,2.05,3.22.11-.6-.52-.7-.73-1.08-.31-.57-.39-1.15.2-1.54.56-.37,1.17-.24,1.5.36.45.8,1.05,1.54,1.1,2.64-.16,1.76,1.01,2.89,1.67,4.19.29.57.94.28,1.38,0,.78-.52,1.67-.76,2.53-1.09.91-.35,1.68-.24,2.56.34,2.89,1.57,5.8,2.27,8.96,1.52,1.06-.25,1.68.15,1.57,1.44-1.77.33-3.33,1.28-5.19.88-1.12-.24-2.17.64-3.43.82-.68-.28-.39-.92-.66-1.33-.58.19-.48.7-.63,1.19-.15,2.54.11,2.79,2.39,2.58,1.34-.13,2.61-.05,3.58,1.17.57.72,3.4.91,4.21.42,1.07-.63,2.3-.74,3.46-.93,1.28-.21,1.65,1.23.7,2.92-1.92.93-3.78.2-5.54-.06-4.79-.72-9.57-1.55-14.22-2.98-12.8-3.93-20.85-12.29-23.44-25.49-1.5-7.62-1.02-15.19,2.04-22.46.31-.75.58-1.52,1.25-2.19Z"/>
      <path class="cls-1" d="M30.59,67c1.08-.25,2.07-.95,2.99-.86,1.92.18,3.69-.8,5.72-.45,1.44-1.09,1.45-1.32.08-2.23-.58-.39-1.4-.78-1.3-1.5.31-2.2-1.39-3.43-2.28-5.18.1-1.87,1.46-1.37,2.6-1.5,1.37-.72,2.17-2.03,3.69-2.45.62-.17,1.04-1.17.51-2.12-.15-.13-.22-.18-.37-.3-.6-.47-1.14-.86-.93-1.62.19-.7,0-1.22-.59-1.63-.42-.29-.59-.71-.39-1.2.23-.55.69-.75,1.25-.68.91.11,1.82.16,2.85-.07,1.71.07,1.36,1.34,1.49,2.31,1.55-.65,1.91-1.47,1.11-2.62-1.03-1.48-1.36-3.29-2.39-4.78-.39-.56-.63-1.47.6-1.82,1.19.16,1.79,1.25,2.89,1.38.36.04.63.43.43.8-.63,1.15.2,1.67.96,2.01,1.01.46,1.16,1.78,2.38,2.12.44.53.23,1.09.38,1.57.36,1.13.3,1.74-1.22,1.54-1.34-.17-2.92,1.51-2.77,2.71.12.96.71,1.57,1.63,1.81.89.23,1.56-.14,2.02-.94.73-1.26,1.44-2.58,3.38-2.17.5.55.61,1.2,1.12,1.65,1.37,1.22,1.43,1.24,2.47-.32.16-.24.34-.47.54-.68.27-.3.51-.69.99-.56.48.12.57.56.57.97,0,1.1-.03,2.06,1.53,2.2.7.06.64.94.32,1.45-1.26,1.99.47,3.43,1.04,4.99.34.92,1.44.15,1.9-.53.53-.78.65-1.73.78-2.65.4-2.7.54-2.86,3.31-3.32.17-.03.34-.07.5-.37-1.04-.1-1.95.11-2.72.65-1.21.85-1.67-.3-2.28-.83-.73-.63-.51-1.36.17-1.93.86-.73,1.56-1.55,1.81-2.69.06-.29.28-.51.51-.69.53-.42,1.51-.47,1.52-1.28.02-1.14.2-2.32-.27-3.42-.22-.51-.42-.99.06-1.43.68-.61.9-1.48,1.28-2.25.99-2.05,1.38-2.23,3.51-1.58.39.12.79.2,1.21.54.7,7.02-1.63,13.15-5.05,18.98-1.89,3.23-3.56,6.62-6.22,9.34-.48.49-1.08.86-1.73,1.33-1.41-1.46-2.47-1.4-3.75.48-.75,1.1-1.32,1.41-2.47.52-.96-.74-2.65-.18-3.74,1.02.01.13.08.21.19.27.52.26,1.43.06,1.41.98-.02.72-.7,1.01-1.24,1.34-.51.31-1.09.43-1.67.3-.63-.13-.81.26-1.1.77-.44.25-.98-.09-1.26.57-.24.18-.41.28-.68.37-.85-.38-1.59-.81-2.45.02-.47.06-.84.06-1.35.05-.02-.56.13-1.12.19-1.69.05-.49-.33-1.21-.65-1.01-1.2.75-2.9-.02-3.84,1.36-.12.18-.27.35-.4.52-1.11-1.3-3.19.17-4.16-1.41-.84-1.38-2.07-1.12-3.28-.92-.37.06-.67.2-1.11.16-2.22-.19-1.66-1.76-1.58-3.2.4-.4.77-.48,1.32-.21Z"/>
      <path class="cls-1" d="M75.29,36.97c-.35.14-.71.17-1.05.09-2.59-.6-2.62-.63-3.63,1.67-.31.71-.23,1.62-1.21,1.91-.11.03-.23.4-.22.4,1.45.89.17,2.36.73,3.44.29.56.26,1.42-.3,1.54-2.45.52-1.99,3.62-4.1,4.41-.46.17-.37.88,0,.98.69.19,1.36,1.37,1.58.99.69-1.18,1.98-.35,2.77-1.14.42-.42,1.32.11,1.43.78.1.67-.6.69-1.13.74-2.65.24-2.58.26-3.14,2.91-.28,1.36-.2,2.95-1.74,3.77-1.2.64-2.01.28-2.17-1.06-.06-.53-.18-.97-.5-1.43-.69-1.01-1.3-2.1-.14-3.23.27-.27.36-.64.14-.95-.25-.37-.5.11-.71.09-1.12-.11-1.47-.9-1.38-1.88.05-.51.25-1.01-.16-1.66-.5.91-1.57,1.3-1.5,2.54.03.53-.5.56-.92.54-.79-.05-2.48-1.96-2.55-3.01.38-.53.91-.55,1.49-.74,1.15-.05,1.52-.86,2.05-1.67.13-.15.19-.21.34-.34.64-.39,1.26-.54,1.9-1.15-1.1.07-2.23.69-2.79-.76-.04-.49.13-.75.56-.96.42-.2,1.09,0,.81-.86.03-1.84.11-3.51,1.79-4.67,1.03-.72.49-1.88.26-3-.03-.66.14-1.14.41-1.59.46-.75.35-1.46-.26-2.01-.88-.79-1.02-1.73-.7-2.9,1.17-.42,2.25-.62,1.89-2.29-.18-.84,2.97-3.97,3.86-4.12.11-.02.28-.08.33,0,1.31,1.63,2.63.56,4.04.09.09,1.29,1.44,1.6,1.77,2.7,1.16,3.82,2.08,7.66,2.12,11.82Z"/>
      <path class="cls-1" d="M44.88,20.38c.41.08.66.16.77.49.75,2.34.93,2.38,2.85.75-.44-.49-1.39.25-1.57-.56-.12-.53.51-.86.91-1.17.39-.3.75-.58.58-1.13-.2-.65-.7-.08-1.02-.22-2.11-.96-4.41-1.47-6.38-2.76-.38-.25-.74-.78-1.34-.21-.38.36-.58-.09-.75-.38-.14-.26-.26-.55-.04-.8.25-.29.52.02.78.03,1.34.08,3.02.94,3.35-1.43.06-.45.61-.45.93-.67,1.88-1.31,4.1-1.92,6.15-2.92-.11-.2-.14-.32-.22-.38-.47-.38-1.5.32-1.56-.61-.05-.8.42-1.41,1.36-1.75,1.77-.65,3.39-1.84,5.44-.93.44.2,1.03.08,1.63-.28.56.23.99.51,1.49.88-.32.81-1.1.7-1.92,1.05,1.59.97,3.08,1.54,4.94,1.15.29.1.46.2.72.35-.03,1.51-2.15,2.6-3.46,1.73-.98-.64-1.98-.91-3.09-.95-.95-.04-1.61-.55-2.19-1.24-.42-.51-.77-1.2-1.64-.96-.22.43.08.71.27.96.87,1.19.76,2.03-.65,2.76-.97.5-.63,3.34.36,3.88.35.19.51-.07.74-.24,1.64-1.19,2.54-1.05,3.41.64.59,1.13,1.4,1.43,2.57,1.08.48-.15,1.1-.44,1.38.2.3.69-.33,1.01-.8,1.34-.71.5-1.62.57-2.4,1.13,1.45.63,2.84.57,4.39.21.9.2,1.23.8,1.43,1.48.32,1.1.54,2.22.75,3.34.19.99-.1,1.7-1.38,1.81-.34,0-.52-.05-.83-.17-.46-.31-.68-.66-.8-1.03-.55-1.84-1.7-2.55-3.7-2.02-1.19-.59-2.68-.74-2.6-2.48.01-.22-.13-.47-.38-.53-.35-.08-.51.18-.63.45-.13.32-.21.66-.3,1-.37,1.37-1.06,2.21-2.68,2.15-1.25-.04-1.48.49-.69,1.46.66.8.83,1.53.57,2.54-.26,1-.14,1.83,1.38,1.58,1.29-.21,1.57.35,1.06,1.89-.24.17-.4.21-.57.25-2.24.51-2.63.46-4.67-.72-1.33-.84-1.35-1.88-.72-3.05.16-.3.37-.59.47-.92.17-.59-.17-1.01-.54-1.37-.41-.39-.73-.02-1.04.22-.32.25-.62.52-1,.67-.84.33-1.38.16-1.29-.87.09-.97.09-2.02.91-2.7.68-.56.53-1.5,1.24-2.04Z"/>
      <path class="cls-1" d="M60.77,19.64c-1.54,1.2-3.1.07-4.59.28-.4.05-.54-.42-.58-.75-.06-.51.41-.42.71-.52,1.15-.4,2.46-.55,3.27-1.73-.63-.39-1.11-.02-1.53.16-1.19.54-1.96.15-2.48-.95-.41-.85-.59-1.96-1.98-1.64-.33.08-.76.02-.84.45-.13.68-.45,1.02-1.18.93-.76-.1-.53-.78-.76-1.19-1.02-1.82-1.75-3.43,1.09-4.46.88-.32-.47-1.05-.48-1.69-.01-.58-1.36-.9-.53-1.51.72-.53,1.77-.34,2.26.56.73,1.36,1.78,1.75,3.27,1.75.74,0,1.52.41,2.29.83.99.55,2.51.35,3.34-1.11,1.53,1.3,3.4,2.32,4.56,4.25-1.61,1.46-1.67,1.93-.26,3.59.45.53.76,1.04.35,1.69-.29.45-.83.54-1.23.29-1.75-1.09-3.17-.3-4.68.76Z"/>
      <path class="cls-1" d="M60.8,19.73c1.45-2.06,2.53-2.34,4.6-1.24.4.21.82.27,1.06-.15.21-.36.18-.77-.29-1.02-1.03-.55-1.45-1.43-1.3-2.57.11-.84.5-1.41,1.6-1.32.14,0,.13,0,.13,0,.33,1.74,1.51,2.8,3.01,3.77.35.55.85.91.83,1.65.33.64.31,1.34.94,1.82.09.33.1.59.11.96.12.28.17.45.07.76-.07.12-.08.11-.07.12-.11.01-.27-.02-.33.04-1.19,1.28-2.35,2.29-3.71.16-.17-.27-.52,0-.73.2-1.02.97-2.07,1.93-3.05,2.94-.19.2-.27.7-.16.96.86,2.06-.43,2.05-1.98,1.94-1.16-.28-.6-1.29-1.04-1.97.03-.58.4-.77.8-1.08,1.17,0,1.81-.32,1.27-1.53-.64-1.45-.07-3.33-1.76-4.45Z"/>
      <path class="cls-1" d="M49.45,72.41c.73-.53-.16-1.08.32-1.63,1,.5,2.11.84,3.14-.15.24-.23.68-.33.62-.74-.08-.46-.53-.3-.85-.38-.44-.11-1.24.32-1.23-.49,0-.7.5-1.44,1.23-1.51,1.37-.14,2.89-1.73,4.14.33.26.43.87.15.93-.29.17-1.23,1.25-1.57,2.02-2.15,1.01-.76,1.93-.27,2.3,1.21,0,.14,0,.13,0,.13-.4.33-1.07.24-1.33.97-3.31,2.63-6.91,4.41-11.08,5.27-.26-.13-.31-.29-.21-.57Z"/>
      <path class="cls-1" d="M61.32,8.45c-2.07,1.23-4.39.61-5.61-1.45.77-.17,1.54-.34,2.44-.52,1.32.31,2.25,1.03,3.17,1.97Z"/>
      <path class="cls-1" d="M69.67,17.17c-1.14.31-1.54-1-2.56-1.23-1.45-.34.31-1.63-.51-2.38,1.29.85,2.14,2.19,3.07,3.61Z"/>
      <path class="cls-1" d="M45.43,73.47c.42-2.36,1.45-.7,2.33-.28-.73.2-1.49.28-2.33.28Z"/>
      <path class="cls-1" d="M71.45,20.64c-.97.05-1.06-.63-1.01-1.53.59.22.8.81,1.01,1.53Z"/>
      <path class="cls-1" d="M60.78,67.76c-.2-.81.23-1.1,1.16-1.02-.08.54-.63.69-1.16,1.02Z"/>
      <path class="cls-1" d="M49.42,72.3c.11.16.11.31.11.57-.26.13-.52.14-.9.16-.21-.63-.08-1.03.79-.73Z"/>
      <path class="cls-1" d="M71.59,22.5c-.11-.15-.11-.32-.11-.61.43.01.92.13.11.61Z"/>
      <path class="cls-1" d="M20.67,59.53c.1-1.15-.89-1.72-1.08-2.62-.08-.39-.31-.6-.73-.59-.32.01-.56.14-.62.47-.07.37.03.67.36.89.58.38,1.65.79.92,1.56-.49.51-1.62.36-2.37-.32-.76-.69-1.41-3.37-.79-4.17.22-.28.79-1.55,1.49-.28.28.51.61,1.01,1.15.54.44-.39.36-1.12.05-1.61-.3-.47-.75-.87-1.21-1.22-.87-.68-1.68-1.27-1.09-2.62.3-.69-.54-1.07-.85-1.59-.46-.75-2.32-1.28-.32-2.36-1.05-1.19.67-2.49-.17-3.82.93-1.11,1.59-.71,2.12.31.43.84.32,1.79.38,2.64.31.1.44-.02.55-.15.38-.42.4-1.32,1.04-1.28.96.06,1.91.41,2.8.78.53.22.27.95.4,1.44.13.48.38.92.92.88.58-.05.33-.61.45-.96.64-1.86.1-3.69-.13-5.51-.17-1.29.55-2.89-1.35-3.64-.45-.18-.32-1.06-.21-1.64.12-.66.13-1.27-.41-1.91-.18-.57-.05-.97.29-1.45.36-.09.62-.09,1.01-.09.91-.04.79.65,1.05,1.19.14,1.62.53,2.83,2.4,2.84.6,0,.91.65,1.37,1.07.28-2.76,1.61-4.71,4.41-5.63.89-.01,1.22.45,1.34,1.26-.11,1.27-.76,2.17-1.32,3.11-.77,1.27-.6,2.34.71,2.86,1.08.42,1.79,1.22,2.76,1.91.56,2.09.32,2.47-1.49,2.93-1.99.51-3.69-.09-5.33-1.33.8,1.67-.37,3.12-.26,4.71.1,1.49.29,2.74,1.62,3.58.51.33.85.78,1,1.36.23.88-.1,1.35-1.02,1.34-.52,0-1.02-.19-1.54-.27-.59-.1-1.22-.13-1.55.46-.59,1.05-1.44,1.63-2.65,1.66-.17,0-.45.04-.45.18.08,2.24-1.34.92-2.22.88.18.58.57.74,1.08.74,1.28,0,2.59.18,2.81,1.71.21,1.43-1.14,2-2.02,2.78-.22.19-.54.2-.95.16-.63-.16-.82-.88-1.59-.78-.36-.03-.56-.13-.77-.42Z"/>
      <path class="cls-1" d="M33.59,32.35c-.07-.71-.13-1.28-1-1.47-.36-.82.39-1.38.42-2.13.02-.87-.12-1.62-1.08-1.91-1.03-.31-1.24.38-1.5,1.16-.43,1.29-.79,1.31-2.13.22-.57.45-.09,1.57-1.03,1.75-.5.1-.89-.14-1.1-.72,0-.75.11-1.44-.11-2-.43-1.11-.03-1.96.68-2.68.99-1,2.11-1.83,2.78-3.16.29-.57,1.05-.4,1.18.44.1.65-.04,1.8.82,1.56.91-.25,2.23-.67,2.29-1.98.05-1.07.47-1.21,1.43-1.43,1.25-.28,2.42-.99,3.57-1.61.97-.53,1.83-.63,2.7.11.17.15.41.43.55.39,1.69-.44,1.61.61,1.37,1.6.74.52.77-1.22,1.55-.17-.16,1.08-.39,1.98-1.27,2.65-.9.7-.12,1.9-.93,2.84.98.09,1.41-.35,1.91-.7.49-.34.96-1.56,1.5-.8.49.69,1.86,1.6.59,2.9-.78.79-1.13,1.78-.1,2.86-.19,1.85-.66,2.08-2.42,1.16,1.04,1.61-1.32,1.77-1.07,3.18.69-.34,1.35-.92,2.09-.14.68.72.9,1.44.33,2.43-.3.36-.6.49-1.06.59-.46,0-.77-.1-1.2-.22-.35-.11-.57-.19-.92-.31-1.26-.48-1.42-1.35-1.2-2.43.38-1.89-.89-3.21-2.68-2.74-.6.16-.96-.02-1.39-.36-1.26-.98-1.29-.98-1.85.62-.33.93-.79,1.24-1.71.49Z"/>
      <path class="cls-1" d="M22.3,31.13c-.02.47-.1.86-.24,1.36-1.04,1.4-2.15,2.24-3.83,1.2-.54-.33-1.1-.26-1.69.24-1.09-.1-1.03,1.37-2.02,1.29-.34-.72.54-1.54-.25-2.27-.45-.42-.78-.83-1.44-.66-.73.18-.5.79-.57,1.27-.08.53.22,1.14-.4,1.72-.73-1.43-.23-3.24-1.54-4.36-.05-.05.03-.39.13-.45,1.38-.79,1.45-2.12,1.47-3.46.03-1.5,1.56-2.04,2.07-3.35.83.37,1.69-.44,2.56-.05.16.07.63-.85.39-1.31-.3-.58-.9-.88-1.61-.73-.29.06-.49.67-.84.22-.27-.35-.18-.86.17-1.1.81-.58,1.22-1.73,2.47-1.7.83.02,1.06-.56,1.06-1.29,0-.57-.07-1.15.35-1.66,1.28-1.53,1.94-3.15.76-5.07-.13-.21-.16-.72-.02-.83,1.43-1.21.59-2.74.65-4.14.02-.39.02-1.03.61-.7.94.53,1.84,1.2,2.63,1.94.42.39.46,1.15-.09,1.55-1.06.78-1.07,1.35.13,1.98,1.26.67.9,1.76.72,3.1-.64-.71-.78-1.46-1.54-1.65-.84-.22-1.47-.19-1.2.9.15.61-.03,1.01-.43,1.39-.52.5-.72,1.19-.34,1.73.42.6,1.12,1.07,1.94.82.82-.25,1.43-.12,1.61.74.24,1.14-.71.77-1.25.85-.51.08-.81.38-.66.81.25.68-.31,1.26-.23,1.72.29,1.69-.84.08-1.08.63.15,1.35.92,2.75.37,4.29-.16.45.31.64.64.4,1.46-1.07,2.19.43,3.54.74-.71.47-1.4,0-1.67.96-.29,1.02-1.13.04-1.69-.11-.36-.09-.7-.55-1.08-.21-.41.37-.26.85.02,1.26.19.29.52.59.37.93-.55,1.26.4.9,1.04,1.03Z"/>
      <path class="cls-1" d="M26.06,29.12c.88.67,1.52,1.08,1.54-.48,0-.48-.3-1.19.31-1.39.58-.19.86.43,1.05.92.11.29.23.56.58.53.34-.03.4-.32.49-.61.55-1.8,1.21-2.23,2.48-1.68.99.43,1.32,2.06.66,3.38-.15.31-.39.57-.65.96-.25.6-.7.69-1.13.88-1.79.78-2.82,2.79-2.51,4.75.04.24.07.48-.17.61-.36.2-.73.07-.9-.25-.47-.9-1.09-1.15-2.16-1.22-1.39-.09-1.69-1.35-1.54-2.78.16-.79.19-1.46.61-2.14.66-.39.16-1.57,1.35-1.48Z"/>
      <path class="cls-1" d="M24.71,30.45c.02.75.31,1.51-.5,2.09-.62-.22-.33-.82-.72-1.26,0-.39.08-.7.19-1.01.08-.24.04-.62.4-.62.43,0,.3.51.62.79Z"/>
      <path class="cls-1" d="M13.49,14.01c.66.83.4,1.32-.42,1.64-.28.11-.64.22-.72-.12-.22-.86.16-1.42,1.14-1.52Z"/>
      <path class="cls-1" d="M8.66,19.5c.12.62.02,1.01-.68,1.16v-2.17c.59.06.4.62.68,1.01Z"/>
      <path class="cls-1" d="M5.3,22.16c.45.09,1.05-.24,1.3.43.09.23-.04.46-.28.52-.6.18-.99,0-1.02-.82,0-.13,0-.13,0-.13Z"/>
      <path class="cls-1" d="M27.76,20.21c.37-.48.7-.49,1-.09.15.2.11.47-.13.55-.36.11-.78.22-.87-.45Z"/>
      <path class="cls-1" d="M22.63,60.39c1.62.21,2.09-1.2,2.98-1.98.41-.36.05-.92-.24-1.25-.62-.69-1.43-.79-2.31-.53-.35.11-2.02-1.16-1.94-1.5.06-.3.29-.53.62-.47.39.08.77.24,1.16.34.37.1.73.88,1.1.17.3-.58-.61-.54-.78-.99.49-.63,1.18-.27,1.76-.34.72-.09,1.59-.22,1.75-.91.43-1.84,1.63-1.37,2.81-1.17.57.1,1.36.76,1.65-.03.22-.6-.11-1.38-.99-1.77-1.51-.67-1.84-2.06-1.67-3.57.07-.64.18-1.26-.03-1.88-.11-.33-.32-.8.03-.95,1.1-.46.68-1.01.15-1.55-.42-.42-.45-.8-.03-1.18.43-.38.92-.27,1.22.14,1.43,1.96,3.45,1.48,5.34,1.21,1.18-.17.61-1.29.75-2.16-.11-.76.26-.95.9-.99,1.41,2.34,1.4,2.55-.36,4.13-.52.46-.95,1-.67,1.64.37.85.83-.04,1.26-.08.8-.07,2.22.98,2.16,1.69-.08,1.04-.94,1.38-1.74,1.3-1.04-.1-1.95.14-2.83.59-1.3.66-2.42.68-3.3-.96.25,1.79,1.31,2.28,3.1,1.58.86-.34,1.66-.8,2.63-.77.96.03,1.89.07,2.3,1.14.24.61.72.66,1.27.63.58-.03,1.16-.01,1.79.33.09.08.09.08.09.08.4.54.31.96-.33,1.21-.16.06-.35.07-.51.04-1.15-.21-1.88.84-2.89.98-1.15.16-1.03-1.59-2.38-1.66.63.9,1.38,1.34,2.05,1.84,1.02.78,1.23,1.61.32,2.72-.84.89-2.28-.62-2.85,1.01-1.51,1.22-1.59,3.14-2.64,4.54-1.09,1.46-2.28,2.23-4.22,1.89-1.87-.92-3.38-.14-4.77.76-1.28.83-2.03.86-2.52-.77-.35-1.15-1.52-1.99-1.29-3.43.26.02.44.11.7.24.56.09.96.28,1.4.65Z"/>
      <path class="cls-1" d="M16.49,34.12c-.11-1.3.82-1.48,1.4-1.04,1.54,1.17,2.69.52,4-.47,1.05.08,1.34.68,1.07,1.46-.46,1.34-.48,2.39,1.23,2.7.31.06.67.33.52.55-.78,1.17-.08,2.4-.27,3.56-.08.53-.09.64.33.86.53.27.44.83.3,1.23-.4,1.09-.91,2.11-.44,3.34.19.51-.37.73-.73.77-.88.1-1.79-.82-1.7-1.17.52-1.96-.99-1.57-1.91-1.9-.26-.09-.47-.3-.69-.45-.56.18-.27.73-.5,1.03-.39.48-.7,1.26-1.42,1.05-.85-.25-.25-.97-.2-1.48.15-1.75-.55-2.74-1.96-2.53-.57-.23-1.01-.48-1.46-.71-.39-.2-1.13-.31-.91-.79.26-.56.31-1.33,1.1-1.61,1.9-.7,2.75-2.34,2.25-4.42Z"/>
      <path class="cls-1" d="M29.05,63c2.81-.26,4.44-1.99,5.08-4.59.25-1.01.67-1.49,1.68-1.76,1.26,1.49,3.09,2.59,2.61,4.97-.21,1.06.85,1.4,1.68,1.62,1.17.31.76,1.36.84,2.01.09.68-.79.33-1.38.44-.19-1.26-.7-1.9-1.83-.91-1.31,1.13-2.41-.07-3.58-.18-1.75-.16-3.66.01-5.11-1.6Z"/>
      <path class="cls-1" d="M8.09,24.72c.42-.29.93-.36,1.26-.63.59-.48,1.1-.53,1.7-.1.29.21.55.47.44.86-.21.75-1.08.18-1.53.8.58.34,1.47.54.97,1.59-.22.46-.2,1.11-.85,1.11-.86,0-.18-.72-.37-1.02-.51-.84-1.7-1.24-1.62-2.61Z"/>
      <path class="cls-1" d="M30.73,66.96c-.38.12-.75.12-1.27.12-.12-.23-.17-.48-.08-.67.25-.51.28-1.46,1.09-1.19.7.23.51,1.01.25,1.74Z"/>
      <path class="cls-1" d="M45.26,36.91c.33-.96.67-1.79-.29-2.43-.39-.26-.73-.69-1.03.07-.19.48-.62.84-1.05.64-.59-.27-.33-.9-.2-1.37.1-.38.26-.97.5-1.04,1.1-.29,1.36-.68.52-1.59-.21-.23-.16-.69.2-.89.29-.16.53-.02.68.29.86,1.79,1.46.85,2.09-.31.88-.15,1.99-.66,2.29.39.2.71.52.06.92-.82.47-1.02,1.13.93,1.93,1.01.59.03.96.29,1.41.65.68.89.58,1.79.46,2.81-1.97,1.8-.08,2.9.62,4.3.14.51.2.92.12,1.31-.45,1.99.06,3.59,1.85,4.85-.25.99-.9,1.15-1.62.89-.81-.29-1.7-.28-2.59-.78-.96-.06-1.68-.08-1.91-1.22-.18-.9-1.35-.84-1.92-1.53-.85-1.02-.98-.92.25-2.06-1.4.16-2.09-.78-3.06-1.45-.45-.55-.54-1.04-.17-1.71Z"/>
      <path class="cls-1" d="M42.54,50.25c-.85.15-1.71.16-2.58.24-.35.03-.61.18-.85-.26-1-1.85-2.04-2.13-3.96-1.04-.63.35-1.27.5-1.99.5-1.65,0-2.57-.79-2.72-2.4-.05-.56.14-.8.69-.47.25.15.63.27.7.48.67,1.89,2,.9,2.95.54.92-.35,1.64-1.02,2.75-.43.26.14,1.2-.07,1.4-.76.13-.46-.27-.84-.61-.93-.47-.13-.84-.83-1.42-.38-.42.33-.72,1.16-1.36.51-.57-.58-.32-1.42-.2-2.16.03-.2.21-.49.38-.55,1.99-.69,1.84-2.09,1.26-3.78,1.91-2.07,2.43-2.1,4.18-.33.53,0,.93-.15,1.48-.12.75.17.88.63.89,1.2.03,1.39.75,4.32,1.18,5.27-1.06.63-2.09.56-3.12.31-.46-.11-.82-.1-1.01.36-.21.5.06.76.55.83.86.13,1.11,1.15.87,1.4-1,1.04.13,1.3.53,1.96Z"/>
      <path class="cls-1" d="M51.95,44.92c1-.06,2.03-.36,2.92.4.41.34.85.1,1.22-.42.56-.49.87-.09,1.3.27.57.8,1.93.29,1.97,1.6-.92.54-1.48,1.27-2.08,2.11-.54.34-1.03.48-1.69.43-1.74-.2-2.71.74-3.17,2.05-.6,1.71-1.81,1.67-3.06,1.27-1.34-.43-1.91-2.01-1.39-3.3.48-1.18,2.33-2.12,3.62-1.86.61.12.81-.22.43-.66-.53-.61-.3-1.17-.06-1.9Z"/>
      <path class="cls-1" d="M44.77,45.51c-.13-.07-.12-.17-.15-.18-2.57-1.16-2.08-3.17-1.47-5.22.11-.36.09-.68-.46-.86-.24-.15-.34-.3-.47-.57-.11-.8-.51-1.49.23-2.17.31,0,.5.06.76.2.32.26.42.77,1,.48.37-.16.65-.27,1.03-.39.11.48.11.96.11,1.59-1.3.44-.57,1.45-.29,1.72,1.35,1.34,1.23,3.4,2.5,4.79.37.41.72.92,1.42,1.51-.98-.11-1.57-.15-1.66.86-.07.71-.79,1.18-1.58.95-1.01-.29-.5-.86-.23-1.45.25-.54-.11-.98-.74-1.25Z"/>
      <path class="cls-1" d="M38.85,55.58c.49-1.3.16-2.29-1.15-2.94-.4-.2-.85-.39-1.17-.69-.35-.34-.82-.7-.75-1.27.04-.36.44-.3.71-.31.58-.02,1.32-.06,1.43.64.28,1.78.95,1.47,1.97.55.51-.46,1.2-.67,1.94-.36.58.24.7-.12.73-.72.51-.09,1.15-.19.82.69-.43,1.14-.31,2.63-2.33,2.49-.96-.07-1.09,1.55-2.2,1.9Z"/>
      <path class="cls-1" d="M41.53,66.17c.26.14.26.28.08.41-.04.03-.13.03-.17,0-.18-.13-.17-.27.09-.41Z"/>
      <path class="cls-1" d="M53.11,31.6c-.5-.05-.82-.2-1.1-.64.13-1.11.42-2.25-1.3-1.31-.4.21-.85.26-1.09-.13-.4-.67-1-1.43-.49-2.2.58-.9.3-1.37-.37-2.05-.4-.4-1.25-.96-.7-1.72.4-.56,1.13-.86,1.86-.62,1.26.42,1.6-.47,2-1.3.1-.2.02-.49.14-.67.4-.62-.05-1.92,1.13-1.85,1.07.06,1.17.87,1.02,1.92-.16,1.09,1.44.47,1.82,1.4.42.58.77.9,1.47.84,1.3-.12,1.45.59.95,1.72.13,1.37,1.59.72,2.13,1.61.61.64.67,1.33.69,2.11.25,1.15.35,2.17,1.32,3.03,1.19,1.06-.08,2.07-.49,3.19-.59.26-1.16.23-1.69.53-1.11.63-1.94-.06-2.77-.72-.48-.38,0-1.53-1.31-1.34-.63.09-.99-1.19-1.96-1.42-.46-.17-.81-.27-1.28-.37Z"/>
      <path class="cls-1" d="M53.97,31.65c.98-.06,1.58.72,2.22.97,1.21.46,1.36,1.65,2.26,2.22.82.52,1.5.89,2.21-.1.48-.67.86-.3,1.3.23.83,1.73,1.24,3.19-.89,4.31-1.27.67-.47,2.38-1.09,3.63-.11.49-.32.77-.64,1.11-.39.1-.67.18-.76.66-.27.57-.68.81-1.3.86-.39-.27-.66-.5-1.05-.73-2.15-.89-2.73-2.11-2.29-4.44.09-.5.07-1.03.09-1.69.42-.78,1.04-1.32,1.05-2.29.37-1.25.16-2.25-.64-3.13-.38-.42-.81-.84-.49-1.6Z"/>
      <path class="cls-1" d="M57.22,45.62c.36-.35.75-.58,1.25-.82.82,1.12,1.75.32,2.59.27.31-.02.69-.38.9.08.2.46-.11.86-.52.93-.71.12-1.13.85-2.03.79-.29-1.31-1.82-.17-2.2-1.26Z"/>
      <path class="cls-1" d="M57.32,48.97c.17-.96.1-2.24,1.82-2.09-.32.82-.24,2.13-1.82,2.09Z"/>
      <path class="cls-1" d="M59.41,44.1c-.11-.39-.21-.84.44-1.03.46.03.82.13.74.55-.11.6-.65.43-1.19.47Z"/>
      <path class="cls-1" d="M58,25.03c-.02-.51.69-.76.37-1.24-.3-.45-.81-.18-1.23-.04-.97.32-1.46.14-1-1.12.13-.13.24-.12.36-.13q3.02-.33,4.18,3c-1.02.77-1.75,0-2.68-.48Z"/>
      <path class="cls-1" d="M57.89,25.08c.98-.44,1.63.5,2.65.55.29,0,.44,0,.71,0,.14.43-.16.65-.52.95-.68-.03-1.29-.22-1.91-.24-.8-.03-.97-.46-.93-1.27Z"/>
      <path class="cls-1" d="M55.09,16.78c.11.73-.49.51-.77.68-.44.27-.88.13-1.16-.34-.18-.31-.22-.69,0-.96.36-.42.82-.32,1.22-.05.23.16.42.38.7.66Z"/>
      <path class="cls-1" d="M66.71,20.22c.24-.48.35-.93.77-1.06.59-.18,1.52-.45,1.7.19.32,1.07-.74,1.62-1.52,1.99-.79.37-1.17-.15-.96-1.12Z"/>
      <path class="cls-1" d="M42.44,36.38c-.39.67.12,1.28.12,2.02-.35.51-.97.51-1.31,1.09-1.28.2-.87-1.37-1.77-1.54-.89-.17-.82,1.45-1.88,1.06-.14-.05-.32.02-.55.12-.47.08-.79.24-1.06.68-1.5-.65-3.1-1.19-4.15-2.56-.53-.69-.44-1.4.05-2.08.61-.84,1.21-1.69,1.57-2.81.75.04,1.5.43,1.5-.91,0-.63.11-1.51.8-1.79.77-.32.96.66,1.42,1.01.57.43.86.93,1.65.23.56-.49,1.62-.17,1.76.43.24,1.03,2.36,1.11,1.27,2.71-.58.85-.63,1.72.59,2.34Z"/>
      <path class="cls-1" d="M27.18,41.36c.84.38.59.82.17,1.2-.23.21-.54.12-.73-.15-.39-.57-.27-.95.56-1.05Z"/>
      <path class="cls-1" d="M22.7,60.35c-.48.14-.96.11-1.33-.47.67-.76,1.04-.34,1.33.47Z"/>
      <path class="cls-1" d="M38.65,25.51c.68-.36,1.24-.63,1.92-.56.62.07.85.5,1.09.98.26.53-.1.8-.47.92-1.08.35-.71,1.38-1.06,2.06-.73,1.46-1.74.9-2.75.37-.97-.51-1.25-1.14-.64-2.2.44-.77,1.04-1.19,1.91-1.58Z"/>
      <path class="cls-1" d="M28.81,24.1c.83.31,1.05.93.69,1.61-.24.46-.73.2-1.06-.03-.97-.67.18-1.01.36-1.58Z"/>
      <path class="cls-1" d="M44.23,37.04c.02.47.17,1.02-.4,1.04-.72.02-.51-.61-.57-1.16.3-.08.6-.03.97.12Z"/>
      <path class="cls-1" d="M18.37,26c-.78.63-.56,2.88-2.62,1.37,1.18-.14,1.08-2.02,2.62-1.37Z"/>
      <path class="cls-1" d="M14.21,25.52c.37.54.63,1.01-.03,1.37-.31.17-.9.21-.91-.05-.04-.57.31-1.09.95-1.32Z"/>
      <path class="cls-1" d="M55.37,36.33c.14,1.04-.03,1.84-1.19,2.18-.46-.38-.72-.89-1.14-1.14-1.6-.96-1-1.76.21-2.63,1.41-.37,1.37,1.01,2.12,1.59Z"/>
      <path class="cls-1" d="M55.5,36.31c-1.21.14-1.22-1.09-2.02-1.6-.2-.98.09-1.97-.41-3.02.25-.21.51-.55.93-.21-.01.66.33.96.71,1.35.89.92,1.52,2,.8,3.48Z"/>
      <path class="cls-1" d="M39.45,40.26c.45.08,1.15-.04.7.58-.23.31-.71,1.11-1.36.47-.28-.28-.71-.61-.6-1.15.41-.32.75.13,1.25.1Z"/>
      <path class="cls-1" d="M41.29,39.56c-.2-.83.23-1.11,1.14-1.03.14.15.14.31.14.58-.38.22-.77.33-1.27.45Z"/>
      <path class="cls-1" d="M54.09,47.14c.31.33.71.56.43.93-.26.34-.63.11-.94-.04-.33-.16-.64-.38-.47-.79.18-.42.54-.33.97-.1Z"/>
    </g>
  </g>
</svg>