<?xml version="1.0" encoding="UTF-8"?>
<svg xmlns="http://www.w3.org/2000/svg" version="1.1" viewBox="0 0 87.4 81.9">
  <defs>
    <style>
      .cls-1 {
        fill: #fcfaf5;
      }

      .cls-2 {
        opacity: .6;
      }
    </style>
  </defs>
  <!-- Generator: Adobe Illustrator 28.7.1, SVG Export Plug-In . SVG Version: 1.2.0 Build 142)  -->
  <g>
    <g id="_レイヤー_1" data-name="レイヤー_1">
      <g class="cls-2">
        <g id="_レイヤー_2">
          <g id="_メインページ">
            <path class="cls-1" d="M25.1,10c-5,3.1-9.5,5.4-14.3,10.2-4.8,4.8-6.6,8.7-8.1,12.6-1.6,4.1-3.3,12-2.4,20.5.9,9.2,4.1,15.1,10.3,20.3,6.2,5.2,15.1,7.8,25.7,8.2,17,.5,24.8-2.6,29.5-4.9,5.8-2.8,10.8-5.8,15.6-13,4.7-7.1,7-17.6,5.8-28.6s-3.7-18.3-7.4-23.3C74.7,5.3,67.5.7,60.4.2c-7.2-.5-11.9,0-18.5,2-5,1.5-9.9,3.6-16.8,7.9h0Z"/>
          </g>
        </g>
      </g>
    </g>
  </g>
</svg>