<?xml version="1.0" encoding="UTF-8"?>
<svg id="_レイヤー_2" data-name="レイヤー_2" xmlns="http://www.w3.org/2000/svg" viewBox="0 0 86.16 109.12">
  <defs>
    <style>
      .cls-1 {
        fill: #fcfaf5;
      }
    </style>
  </defs>
  <g id="_メインページ" data-name="メインページ">
    <path class="cls-1" d="M42.47,0c-10.87.03-18.75,4.96-24.09,10.01-5.34,5.05-10.52,12.85-12.77,19.18C2.44,38.11.94,46.99.27,52.92c-1.43,12.75,2.93,31.22,8.39,38.74,7.05,9.72,14.19,12.1,19.02,14.45,4.83,2.36,13.58,4.35,22.22,1.83,11.2-3.27,15.76-8.75,20.21-13.46,4.45-4.71,9.21-11.53,11.39-15.98,1.75-3.56,6.08-16.58,4.18-28.36-1.91-11.78-6.23-21.37-10.93-27.93s-10.4-10.11-14.74-13.8C56.9,5.78,49.97-.02,42.47,0Z"/>
  </g>
</svg>