<?xml version="1.0" encoding="UTF-8"?>
<svg id="_レイヤー_2" data-name="レイヤー_2" xmlns="http://www.w3.org/2000/svg" viewBox="0 0 87.37 81.91">
  <defs>
    <style>
      .cls-1 {
        fill: #fcfaf5;
      }
    </style>
  </defs>
  <g id="_メインページ" data-name="メインページ">
    <path class="cls-1" d="M25.09,10.04c-5.02,3.1-9.47,5.41-14.32,10.2-4.82,4.76-6.57,8.7-8.13,12.6-1.64,4.09-3.26,12.04-2.41,20.49.92,9.16,4.08,15.09,10.3,20.33,6.22,5.25,15.05,7.85,25.66,8.19,17.02.54,24.76-2.62,29.46-4.89,5.81-2.8,10.8-5.79,15.58-13.03,4.68-7.08,7.04-17.6,5.81-28.59-1.23-10.99-3.67-18.28-7.42-23.34C74.68,5.31,67.53.74,60.36.2c-7.18-.54-11.94.02-18.45,1.97-5.03,1.51-9.89,3.6-16.81,7.87Z"/>
  </g>
</svg>