<?xml version="1.0" encoding="UTF-8"?>
<svg id="_レイヤー_2" data-name="レイヤー_2" xmlns="http://www.w3.org/2000/svg" viewBox="0 0 72.12 97.89">
  <defs>
    <style>
      .cls-1 {
        fill: #fcfaf5;
      }
    </style>
  </defs>
  <g id="_メインページ" data-name="メインページ">
    <path class="cls-1" d="M27.31,0C15.7,0,7.07,10.06,3.73,19.07.4,28.07.67,36.73.67,41.67s-.67,11.82-.67,19.25c0,8.61,1.33,21.01,7.2,28.25,5.87,7.24,16.4,9.53,25.34,8.48,8.94-1.06,20.37-6.67,27.21-13.24,7.18-6.91,11.71-16.77,12.32-29.66.61-12.89-5.25-23.31-11.12-30.19-5.87-6.89-8.94-12.89-15.24-17.92C40.79,2.69,34.81,0,27.31,0Z"/>
  </g>
</svg>