<?xml version="1.0" encoding="UTF-8"?>
<svg xmlns="http://www.w3.org/2000/svg" version="1.1" viewBox="0 0 86.2 109.1">
  <defs>
    <style>
      .cls-1 {
        fill: #fcfaf5;
      }

      .cls-2 {
        opacity: .6;
      }
    </style>
  </defs>
  <!-- Generator: Adobe Illustrator 28.7.1, SVG Export Plug-In . SVG Version: 1.2.0 Build 142)  -->
  <g>
    <g id="_レイヤー_2">
      <g id="_メインページ" class="cls-2">
        <path class="cls-1" d="M42.5,0c-10.9,0-18.8,5-24.1,10S7.9,22.9,5.6,29.2C2.4,38.1.9,47,.3,52.9c-1.4,12.8,2.9,31.2,8.4,38.7,7.1,9.7,14.2,12.1,19,14.4,4.8,2.4,13.6,4.3,22.2,1.8,11.2-3.3,15.8-8.8,20.2-13.5s9.2-11.5,11.4-16c1.8-3.6,6.1-16.6,4.2-28.4-1.9-11.8-6.2-21.4-10.9-27.9s-10.4-10.1-14.7-13.8C56.9,5.8,50,0,42.5,0Z"/>
      </g>
    </g>
  </g>
</svg>