<?xml version="1.0" encoding="UTF-8"?>
<svg id="_レイヤー_2" data-name="レイヤー_2" xmlns="http://www.w3.org/2000/svg" viewBox="0 0 1366 210">
  <defs>
    <style>
      .cls-1 {
        fill: #f3ecd8;
      }

      .cls-2 {
        fill: #e5d5cc;
      }
    </style>
  </defs>
  <g id="worksページ">
    <path class="cls-2" d="M0,209.75c102.13-58.79,248.78-102.37,530.09-121.92,151.08-10.5,317.98-6.91,468.77-17.6,173.38-12.29,243.21-41.8,367.15-70.23,0,72.49-.1,133.09-.1,209.75-510.59,0-876.21.56-1365.9,0Z"/>
    <path class="cls-1" d="M0,0c187.06,7.24,262.03,92.06,442.66,116.2,58.54,7.82,119.92,9.65,179.09,16.31,46.91,5.28,92.21,13.57,139.5,18.03,55.66,5.25,112.86,5.07,169.6,5.62,81.46.79,163.66,3.17,241.95,13.87,78.28,10.7,142.77,9.64,193.2,39.96-463.95,0-896.11,0-1365.95,0C.05,131.94,0,74.4,0,0Z"/>
  </g>
</svg>