<?xml version="1.0" encoding="UTF-8"?>
<svg id="_レイヤー_2" data-name="レイヤー_2" xmlns="http://www.w3.org/2000/svg" viewBox="0 0 95 95">
  <defs>
    <style>
      .cls-1 {
        fill: #c7b299;
      }
    </style>
  </defs>
  <g id="aboutページ">
    <path class="cls-1" d="M46.83,0c-11.98.03-20.67,4.32-26.56,8.72-5.89,4.39-11.6,11.19-14.08,16.7-3.5,7.76-5.15,15.49-5.89,20.66-1.58,11.1,3.23,27.18,9.25,33.73,7.78,8.46,15.64,10.53,20.97,12.58,5.33,2.05,14.98,3.79,24.51,1.59,12.34-2.85,17.38-7.62,22.28-11.72,4.9-4.1,10.16-10.04,12.56-13.91,1.92-3.1,6.71-14.44,4.6-24.69-2.1-10.25-6.87-18.61-12.05-24.32-5.19-5.71-11.46-8.81-16.26-12.01C62.74,5.03,55.1-.02,46.83,0Z"/>
  </g>
</svg>