<?xml version="1.0" encoding="UTF-8"?>
<svg id="_レイヤー_2" data-name="レイヤー_2" xmlns="http://www.w3.org/2000/svg" viewBox="0 0 279.51 106.36">
  <defs>
    <style>
      .cls-1 {
        fill: #c7b299;
      }
    </style>
  </defs>
  <g id="aboutページ">
    <g>
      <path class="cls-1" d="M114.75,15.17c5.36,2.15,3.92,8.12.82,12.32-1.14,1.55-2.49,3.11-4.65,2.35-2.28-.81-2.94-2.93-2.92-5.1.05-3.57,1.64-6.68,4.54-9.14.61-.52,1.31-.78,2.21-.42Z"/>
      <path class="cls-1" d="M48.05,34.94c-3.04-1.14-6.35-3.27-4.82-7.26,1.42-3.73,3.36-7.28,7.84-8.08,1.65-.29,3.81-.13,4.11,1.85.62,4.15.62,8.35-2.87,11.58-1.08,1.01-2.36,2.62-4.27,1.91Z"/>
      <path class="cls-1" d="M159.13,11c-.21-3.38.59-6.21,2.43-8.63.74-.97,1.15-2.38,2.63-2.37,2.25.03,3.95.83,4.46,3.38.63,3.1-3.07,10.97-5.7,11.64-3.02.76-3.66-1.36-3.82-4.02Z"/>
      <path class="cls-1" d="M121.94,61.94c4.78,1.69-.49,13.2-4.56,14.91-1.03.43-2.05.55-2.97-.1-1.62-1.15-1.75-2.98-1.19-4.52,1.57-4.35,3.69-12.07,8.72-10.28Z"/>
      <path class="cls-1" d="M189.16,47.96c-.43,1.22-.71,2.01-1.08,2.74-1.4,2.8-2.88,6.36-6.69,4.77-3.41-1.43-1.99-4.91-1.36-7.72.9-3.96,3.62-5.53,7.34-5.07,3.01.37,2.51,2.71,1.79,5.28Z"/>
      <path class="cls-1" d="M274.34,78.51c3.27-2,5.11.65,5.17,2.91.11,3.72-2.36,6.57-5.22,8.73-1.37,1.03-3.2.97-4.5-.58-2.21-2.63-.96-5.19.52-7.47.87-1.34,2.23-2.48,4.03-3.59Z"/>
      <path class="cls-1" d="M151.77,101.44c-3.12-4.29-2.47-10.08.88-12.72,1.49-1.17,3.09-1.23,4.63-.46,1.65.83,2.32,2.29,1.52,4.14-1.52,3.51-2.17,7.66-7.03,9.04Z"/>
      <path class="cls-1" d="M21.38,90.49c-5.08-2.09-1.49-9.71,2.5-11.61,2.38-1.14,4.03-.43,4.93,1.94,1.3,3.41-2.42,11.72-7.43,9.67Z"/>
      <path class="cls-1" d="M238.3,55.29c-.29.62-.39.8-.5.98-1.55,2.64-2.6,5.99-6.65,5.4-1.82-.27-1.99-1.89-1.88-3.43.28-3.7,1.58-6.88,5.02-8.73,1.34-.72,2.89-.71,4.13.28,2.01,1.6.66,3.36-.13,5.5Z"/>
      <path class="cls-1" d="M7.03,49.24c1.54.44,1.63,1.77,1.66,2.88.1,4.35-1.45,7.85-5.72,9.25-1.89.62-3.21-1.16-2.92-3.03.63-4.11.54-10.96,6.99-9.1Z"/>
      <path class="cls-1" d="M218.3,8.72c.25-1.47.89-2.36,1.46-3.21,1.35-2.03,2.49-4.67,5.64-3.72,2.5.75,2.57,2.88,2.12,5.08-.58,2.9-1.23,5.9-4.65,6.58-3.14.62-5.17-1.25-4.57-4.74Z"/>
      <path class="cls-1" d="M77.41,71.99c-2.7.85-6.59,1.32-5.95-3.33.5-3.63,2.28-7,6.08-7.95,2.16-.54,3.26,1.64,3.06,3.72-.26,2.67.1,6.53-3.18,7.57Z"/>
      <path class="cls-1" d="M229.15,105.65c-3.21,2.33-5.27-1.62-5.52-4.44-.28-3.17,2.71-3.21,4.8-3.9,1.28-.42,2.67-.31,3.18,1.13.97,2.74-.14,5.53-2.46,7.21Z"/>
    </g>
  </g>
</svg>