<?xml version="1.0" encoding="UTF-8"?>
<svg id="_レイヤー_2" data-name="レイヤー_2" xmlns="http://www.w3.org/2000/svg" viewBox="0 0 44 44">
  <defs>
    <style>
      .cls-1 {
        fill: #e5d5cc;
      }
    </style>
  </defs>
  <g id="worksページ">
    <g>
      <path class="cls-1" d="M31.14,0H12.86C5.77,0,0,5.77,0,12.86v18.27c0,7.09,5.77,12.86,12.86,12.86h18.27c7.09,0,12.86-5.77,12.86-12.86V12.86c0-7.09-5.77-12.86-12.86-12.86ZM39.9,31.14c0,4.83-3.93,8.76-8.76,8.76H12.86c-4.83,0-8.76-3.93-8.76-8.76V12.86c0-4.83,3.93-8.76,8.76-8.76h18.27c4.83,0,8.76,3.93,8.76,8.76v18.27Z"/>
      <path class="cls-1" d="M33.76,7.52c-1.51,0-2.74,1.23-2.74,2.74s1.23,2.74,2.74,2.74,2.74-1.23,2.74-2.74-1.23-2.74-2.74-2.74Z"/>
      <path class="cls-1" d="M22,10.63c-6.27,0-11.37,5.1-11.37,11.37s5.1,11.37,11.37,11.37,11.37-5.1,11.37-11.37-5.1-11.37-11.37-11.37ZM22,29.27c-4.01,0-7.27-3.26-7.27-7.27s3.26-7.27,7.27-7.27,7.27,3.26,7.27,7.27-3.26,7.27-7.27,7.27Z"/>
    </g>
  </g>
</svg>