<?xml version="1.0" encoding="UTF-8"?>
<svg id="_レイヤー_2" data-name="レイヤー_2" xmlns="http://www.w3.org/2000/svg" viewBox="0 0 278.63 73.67">
  <defs>
    <style>
      .cls-1 {
        fill: none;
        stroke: #e2d3ca;
        stroke-linecap: round;
        stroke-miterlimit: 10;
        stroke-width: 5.87px;
      }

      .cls-2 {
        fill: #715e54;
      }

      .cls-3 {
        fill: #705d53;
      }
    </style>
  </defs>
  <g id="_レイヤー_1-2" data-name="レイヤー_1">
    <g>
      <g>
        <g>
          <path class="cls-2" d="M89.41,43.97h-10.27c-.21,0-.41.14-.47.34l-1.84,5.45c-.07.2-.26.34-.47.34h-5.45c-.35,0-.59-.34-.47-.67l10.29-28.84c.07-.2.26-.33.47-.33h6.34c.21,0,.4.13.47.33l10.21,28.84c.12.33-.13.67-.47.67h-5.69c-.22,0-.41-.14-.48-.35l-1.7-5.43c-.07-.21-.26-.35-.48-.35ZM87.83,38.18l-3.05-9.61c-.15-.46-.8-.47-.95,0l-3.15,9.61c-.11.32.13.66.48.66h6.2c.34,0,.58-.33.48-.65Z"/>
          <path class="cls-2" d="M118.55,20.81v28.8c0,.28-.22.5-.5.5h-4.61c-.28,0-.5-.22-.5-.5v-1.02c0-.46-.58-.69-.87-.34-.6.71-1.25,1.26-1.94,1.65-1.05.59-2.36.89-3.93.89-2.58,0-4.75-1.04-6.51-3.13-1.76-2.09-2.64-4.76-2.64-8.03,0-3.77.87-6.73,2.6-8.89,1.73-2.16,4.05-3.24,6.95-3.24,1.34,0,2.52.29,3.56.88.62.35,1.18.79,1.66,1.3.32.34.87.14.87-.32v-8.57c0-.28.22-.5.5-.5h4.85c.28,0,.5.22.5.5ZM103,39.22c0,2.04.41,3.67,1.21,4.88.8,1.23,2.01,1.84,3.64,1.84s2.88-.61,3.72-1.82c.85-1.21,1.28-2.79,1.28-4.72,0-2.7-.68-4.63-2.04-5.79-.84-.7-1.81-1.05-2.92-1.05-1.69,0-2.92.64-3.71,1.91s-1.18,2.86-1.18,4.75Z"/>
          <path class="cls-2" d="M139.71,30.83c1.86,2.34,2.79,5.1,2.79,8.28s-.93,6.01-2.79,8.31c-1.86,2.3-4.69,3.45-8.48,3.45s-6.62-1.15-8.48-3.45c-1.86-2.3-2.79-5.07-2.79-8.31s.93-5.95,2.79-8.28c1.86-2.33,4.69-3.5,8.48-3.5s6.62,1.17,8.48,3.5ZM131.21,32.21c-1.69,0-2.99.6-3.9,1.79s-1.37,2.9-1.37,5.11.46,3.92,1.37,5.12,2.21,1.8,3.9,1.8,2.98-.6,3.89-1.8c.9-1.2,1.36-2.91,1.36-5.12s-.45-3.92-1.36-5.11c-.91-1.19-2.2-1.79-3.89-1.79Z"/>
          <path class="cls-2" d="M167.33,50.11h-12.36c-.28,0-.5-.22-.5-.5v-28.84c0-.28.22-.5.5-.5h12.36c1.85.03,3.39.24,4.62.65,2.09.69,3.79,1.95,5.08,3.79,1.04,1.48,1.75,3.09,2.13,4.82s.57,3.37.57,4.94c0,3.97-.8,7.33-2.39,10.08-2.16,3.71-5.49,5.57-10,5.57ZM171.97,27.88c-.96-1.62-2.85-2.43-5.69-2.43h-5.25c-.28,0-.5.22-.5.5v18.48c0,.28.22.5.5.5h5.25c2.94,0,4.99-1.45,6.15-4.35.63-1.59.95-3.49.95-5.69,0-3.04-.47-5.37-1.42-7Z"/>
          <path class="cls-2" d="M201.41,43.63c.33,0,.56.31.48.64-.27,1.1-.91,2.22-1.93,3.35-1.89,2.15-4.54,3.22-7.94,3.22-2.81,0-5.28-.9-7.43-2.71-2.15-1.81-3.22-4.75-3.22-8.83,0-3.82.97-6.75,2.91-8.79s4.45-3.06,7.54-3.06c1.83,0,3.49.34,4.96,1.03,1.47.69,2.69,1.77,3.64,3.26.86,1.31,1.42,2.83,1.68,4.56.14.92.2,2.21.19,3.87,0,.27-.23.51-.5.51h-14.07c-.29,0-.53.25-.5.54.17,1.93.85,3.3,2.05,4.12.8.55,1.75.83,2.88.83,1.19,0,2.15-.34,2.89-1.01.35-.31.66-.73.93-1.25.09-.16.25-.27.44-.27h4.99ZM195.75,36.87c.3,0,.54-.26.5-.55-.16-1.26-.61-2.23-1.34-2.92-.83-.79-1.86-1.18-3.09-1.18-1.34,0-2.37.42-3.11,1.26-.63.72-1.06,1.66-1.29,2.81-.06.3.19.59.5.59h7.83Z"/>
          <path class="cls-2" d="M220.56,29.05c1.6,1.03,2.57,2.74,2.91,5.14.04.3-.2.57-.5.57h-4.78c-.25,0-.44-.18-.49-.43-.11-.54-.29-.99-.56-1.34-.63-.78-1.71-1.17-3.24-1.17-1.25,0-2.15.2-2.68.59s-.8.85-.8,1.38c0,.66.28,1.14.85,1.44.57.31,2.57.84,6.01,1.6,2.29.54,4.02,1.36,5.16,2.45,1.13,1.11,1.7,2.49,1.7,4.15,0,2.19-.81,3.97-2.44,5.35-1.63,1.38-4.14,2.08-7.54,2.08s-6.03-.73-7.68-2.2c-1.52-1.35-2.35-3.04-2.47-5.07-.02-.28.22-.52.51-.52h4.9c.25,0,.45.19.49.43.14.8.38,1.39.73,1.76.72.77,2.04,1.15,3.97,1.15,1.13,0,2.03-.17,2.7-.51s1-.84,1-1.52-.27-1.14-.81-1.48c-.54-.34-2.54-.92-6.01-1.74-2.5-.62-4.26-1.4-5.28-2.33-1.03-.92-1.54-2.24-1.54-3.97,0-2.04.8-3.79,2.4-5.25,1.6-1.46,3.85-2.2,6.75-2.2s5,.55,6.74,1.64Z"/>
          <path class="cls-2" d="M241.68,53.98c.62.53,1.67.79,3.14.79,2.08,0,3.47-.7,4.17-2.08.46-.89.69-2.39.69-4.5v-1.42c-.55.95-1.15,1.65-1.78,2.13-1.15.88-2.64,1.32-4.47,1.32-2.83,0-5.1-1-6.79-2.99-1.69-1.99-2.54-4.69-2.54-8.09s.82-6.04,2.45-8.27c1.63-2.23,3.95-3.35,6.94-3.35,1.11,0,2.07.17,2.89.51.97.4,1.81,1.04,2.53,1.9.29.36.87.14.87-.33v-1.06c0-.28.22-.5.5-.5h4.61c.28,0,.5.22.5.5v20.43c0,2.85-.48,4.99-1.44,6.44-1.65,2.48-4.81,3.72-9.47,3.72-2.82,0-5.12-.55-6.9-1.66-1.62-1.01-2.59-2.47-2.89-4.39-.05-.3.2-.57.5-.57h5.33c.22,0,.41.15.48.36.16.49.39.85.69,1.09ZM240.7,42.58c.78,1.86,2.19,2.79,4.21,2.79,1.35,0,2.49-.51,3.42-1.53.93-1.02,1.4-2.64,1.4-4.87,0-2.09-.44-3.69-1.33-4.78-.88-1.09-2.07-1.64-3.55-1.64-2.03,0-3.42.95-4.19,2.85-.41,1.01-.61,2.26-.61,3.75,0,1.28.22,2.42.65,3.42Z"/>
          <path class="cls-2" d="M232.16,20.58v4.32c0,.28-.22.5-.5.5h-4.85c-.28,0-.5-.22-.5-.5v-4.32c0-.28.22-.5.5-.5h4.85c.28,0,.5.22.5.5ZM232.16,28.54v21.07c0,.28-.22.5-.5.5h-4.85c-.28,0-.5-.22-.5-.5v-21.07c0-.28.22-.5.5-.5h4.85c.28,0,.5.22.5.5Z"/>
          <path class="cls-2" d="M269.01,32.31c-1.96,0-3.3.83-4.03,2.49-.38.88-.57,2-.57,3.36v11.45c0,.28-.22.5-.5.5h-4.75c-.28,0-.5-.22-.5-.5v-21.03c0-.28.22-.5.5-.5h4.57c.28,0,.5.22.5.5v1.18c0,.46.59.69.88.33.42-.52.83-.93,1.23-1.23,1.19-.89,2.69-1.34,4.51-1.34,2.28,0,4.15.6,5.6,1.79,1.45,1.19,2.18,3.18,2.18,5.94v14.36c0,.28-.22.5-.5.5h-4.91c-.28,0-.5-.22-.5-.5v-12.92c0-1.16-.16-2.05-.47-2.67-.57-1.13-1.65-1.7-3.24-1.7Z"/>
        </g>
        <g>
          <path class="cls-3" d="M142.87,64.44c.26-.85.52-1.7.78-2.55-.66.69-1.51,1.27-2.23,1.52-.04-.11-.13-.29-.2-.38.82-.22,1.83-.95,2.51-1.75-.52-.16-1.05-.33-1.57-.49.04-.12.08-.24.12-.36.55.18,1.11.35,1.66.52.13-.42.25-.83.38-1.25.13.04.26.08.39.12-.12.42-.25.83-.38,1.25.49.15.97.29,1.46.43-.04.12-.07.25-.1.37-.49-.14-.98-.28-1.47-.43-.06.19-.11.38-.17.57.26.31,1,1.26,1.19,1.5-.11.09-.23.18-.34.26-.17-.28-.64-.96-.96-1.39-.22.73-.44,1.47-.66,2.2-.14-.04-.27-.08-.41-.12ZM140.42,66.04c.53-.3,1.08-.93,1.43-1.41.1.08.21.17.32.25-.36.48-.9,1.13-1.44,1.45-.1-.1-.2-.2-.3-.3ZM145.68,67.65c.46.12.55.02.83-.83.08.11.24.21.37.27-.33.96-.53,1.15-1.27.95-.69-.19-1.37-.38-2.06-.58-.86-.25-1.05-.43-.9-.94.14-.48.29-.96.43-1.44.14.04.28.08.42.13-.14.48-.29.96-.43,1.44-.06.2.03.27.58.43.67.2,1.35.38,2.02.57ZM144.67,64.92c.32.5.72,1.19.92,1.58-.13.05-.25.09-.38.14-.19-.4-.58-1.1-.89-1.63.12-.03.24-.06.36-.1ZM148.63,65.95c-1.14-.28-2.27-.58-3.41-.9.4-1.43.8-2.85,1.2-4.28,1.09.3,2.17.59,3.27.86-.35,1.44-.71,2.88-1.06,4.32ZM149.2,61.9c-.83-.21-1.66-.43-2.49-.66-.09.32-.17.63-.26.95.84.23,1.68.45,2.52.66.08-.32.16-.64.24-.95ZM148.88,63.2c-.84-.21-1.68-.43-2.52-.67-.09.32-.18.64-.27.96.85.23,1.7.46,2.55.67.08-.32.16-.65.24-.97ZM148.55,64.51c-.85-.21-1.71-.44-2.56-.67-.09.32-.18.65-.27.97.86.24,1.72.46,2.58.68.08-.33.16-.65.25-.98ZM147.88,66.15c.24.63.53,1.48.66,1.96-.15.02-.3.05-.46.07-.11-.48-.39-1.34-.61-1.99.14-.01.28-.03.41-.04Z"/>
          <path class="cls-3" d="M152.86,63.9c-.12.52-.29,1.39-.38,2.15-.17,1.57.17,2.69.89,2.83.49.1,1.12-.63,1.57-1.53.1.14.2.28.3.42-.77,1.33-1.43,1.71-1.98,1.6-.8-.16-1.46-1.11-1.23-3.32.07-.72.28-1.79.39-2.27.04-.18.12-.54.11-.71.18.04.37.09.55.13-.06.14-.16.48-.21.69ZM158.62,68.77c-.16.04-.32.07-.49.11.07-1.67-.27-3.34-.87-4.44.15-.03.31-.05.46-.08.59,1.13.97,2.85.9,4.41Z"/>
          <path class="cls-3" d="M164.62,65.24c.95.05,1.96.05,2.85-.04-.01.14-.02.29-.03.43-.93.08-2.03.06-3.01-.01-.3.53-.72,1.08-1.17,1.52.44-.22,1-.32,1.45-.27.61.06,1.07.42,1.11.97.75-.27,1.43-.47,1.98-.68.23-.08.4-.14.61-.23.06.15.12.29.18.44-.2.05-.43.12-.65.2-.59.18-1.34.4-2.14.7-.03.5-.09,1.3-.12,1.74-.16-.01-.32-.03-.48-.04.05-.37.12-1.05.16-1.53-.98.39-1.79.83-1.86,1.49-.08.79.8.97,1.8,1.05.69.06,1.67.07,2.51,0-.01.15-.02.29-.04.44-.77.04-1.76.03-2.53-.03-1.27-.11-2.32-.46-2.21-1.47.11-.96,1.22-1.46,2.34-1.89,0,0,.01,0,.02,0,0-.45-.34-.73-.85-.78-.62-.06-1.22.15-1.72.49-.28.2-.58.48-.92.78-.13-.11-.26-.22-.39-.34,1.45-1.05,2.11-1.97,2.46-2.57-.19-.01-.37-.03-.54-.05-.4-.04-.95-.12-1.44-.21.02-.15.04-.29.05-.44.48.12,1.07.21,1.46.25.21.02.44.05.67.06.19-.38.32-.78.37-1.1.15.03.31.05.46.08-.09.29-.19.64-.39,1.05Z"/>
          <path class="cls-3" d="M175.12,65.37c0,.34-.03.66-.06.96.8,0,1.6-.01,2.41-.03.25,0,.39-.03.51-.04.12.05.24.1.36.15-.02.16-.04.29-.04.41,0,.77-.03,3.36-.44,4.18-.18.34-.43.46-.88.46-.43,0-.97,0-1.48-.03-.02-.16-.04-.31-.06-.47.53.05,1.02.08,1.44.07.25,0,.45-.07.55-.28.4-.75.44-3.13.41-4.05-.94.03-1.88.04-2.81.04-.32,2.63-1.36,3.91-2.87,4.81-.15-.11-.29-.23-.43-.34.25-.11.58-.32.81-.5.97-.73,1.78-1.86,2.05-3.97-.57,0-1.14,0-1.7-.02-.39,0-.67-.01-.96,0,0-.16,0-.32.01-.49.28.03.59.05.94.06.58.01,1.16.02,1.74.02.03-.3.05-.62.05-.96,0-.2,0-.47-.04-.67.18,0,.36,0,.54,0-.02.19-.03.45-.03.66Z"/>
          <path class="cls-3" d="M184.83,64.78c-.07.16-.15.33-.24.5.92-.08,1.83-.18,2.75-.29.22-.03.36-.06.46-.12.14.06.28.12.43.17-.04.1-.09.29-.11.38-.14.89-.53,2.03-1.13,3,.41.22.8.44,1.15.65-.1.14-.2.27-.3.41-.32-.21-.71-.43-1.12-.67-.71.97-1.83,1.93-3.46,2.62-.15-.11-.31-.22-.46-.32,1.52-.53,2.76-1.52,3.51-2.52-.74-.4-1.54-.81-2.23-1.14.09-.11.19-.21.28-.32.7.31,1.48.7,2.21,1.09.58-.91.96-2.01,1.07-2.84-1.1.13-2.19.25-3.29.34-.47.8-1.18,1.73-2.22,2.5-.14-.09-.27-.17-.41-.26,1.49-1.02,2.34-2.48,2.66-3.33.05-.13.14-.39.16-.56.18.04.36.08.54.12-.09.19-.19.44-.25.59Z"/>
          <path class="cls-3" d="M194.78,63.53c.73-.23,1.81-.68,2.19-.94.13.11.26.22.39.32-.12.06-.24.12-.35.18-.42.2-1.16.52-1.83.75.12.61.24,1.21.35,1.82.87-.17,1.73-.35,2.6-.54.2-.04.47-.12.64-.18.04.16.07.31.11.47-.17.02-.44.07-.64.12-.88.19-1.75.37-2.63.54.28,1.72-.19,2.92-1.68,4.05-.17-.08-.34-.15-.51-.23,1.37-.89,1.98-2.01,1.73-3.73-.93.18-1.86.34-2.8.49-.29.05-.58.1-.77.15-.02-.16-.05-.32-.07-.48.17,0,.5-.04.77-.08.94-.15,1.87-.32,2.8-.49-.11-.59-.22-1.18-.33-1.77-.9.28-1.94.48-2.67.61-.06-.14-.12-.27-.18-.41.67-.07,1.99-.35,2.91-.65Z"/>
          <path class="cls-3" d="M202.02,61.95c.05.96.17,2.42.43,3.42.14.56.29.98.51,1.52.05-.48.14-1.18.2-1.6.11.04.21.08.32.12-.06.59-.19,1.55-.16,1.94,0,.13.02.28.05.38.03.08.08.18.1.25-.14.05-.28.1-.41.14-.34-.57-.73-1.46-1.02-2.6-.31-1.22-.38-2.76-.46-3.5-.01-.19-.03-.34-.07-.48.17-.03.35-.06.52-.09-.01.14-.02.33-.01.49ZM205.23,65.77c.11.39.49.78,1.92.35.82-.25,1.51-.54,2.15-.91.05.15.1.3.15.44-.52.29-1.26.61-2.15.88-1.5.45-2.27.18-2.48-.57-.07-.25-.1-.54-.12-.96.14-.03.29-.05.43-.08,0,.34.03.61.09.84ZM207.51,60.6c.05.15.09.29.14.44-.82.37-2.56.91-3.46,1.05-.04-.15-.08-.3-.13-.44.91-.08,2.67-.64,3.45-1.05Z"/>
        </g>
      </g>
      <g>
        <path class="cls-1" d="M8.04,70.74c-2.65-6.96-4.2-15.37-4.2-24.43C3.85,22.35,14.67,2.93,28.03,2.93s24.18,19.42,24.18,43.38c0,8.98-1.52,17.33-4.13,24.25"/>
        <g>
          <path class="cls-2" d="M8.06,49.7l2.81-2.42c.25-.22.63-.19.85.06l10.61,12.31c.22.25.19.63-.06.85l-2.81,2.42c-.25.22-.63.19-.85-.06l-.03-.03c-.34-.4-1-.2-1.05.32-.24,2.14-1.44,3.43-2.22,4.09-4.06,3.5-9.49,2.64-12.83-1.24-3.37-3.91-3.4-9.32.51-12.69.82-.71,2.39-1.85,4.53-1.78.53.02.82-.6.48-.99h0c-.22-.25-.19-.63.06-.85ZM6.33,62.69c1.82,2.11,4.77,2.44,6.9.6s2.24-4.81.43-6.92-4.74-2.41-6.88-.57c-2.14,1.84-2.27,4.78-.45,6.89Z"/>
          <path class="cls-2" d="M33.65,28.4l3.62.7c.33.06.55.39.49.72l-5.31,27.66c-.06.33-.39.55-.72.49l-3.62-.7c-.33-.06-.55-.39-.49-.72h0c.1-.53-.47-.92-.93-.64-1.81,1.12-3.56.98-4.56.79-5.27-1.01-7.96-5.8-7-10.83s5.19-8.45,10.26-7.47c1.06.2,2.92.72,4.19,2.42.32.43,1,.28,1.1-.25l2.24-11.68c.06-.33.39-.55.72-.49ZM20.12,46.83c-.52,2.73,1.05,5.25,3.82,5.78s5.16-1.23,5.69-3.96c.52-2.73-1.05-5.21-3.83-5.74s-5.16,1.19-5.68,3.92Z"/>
          <path class="cls-2" d="M56.05,37.13c.11,2.34-.74,4.91-2.77,6.93-2,2-4.56,2.85-6.9,2.74-2.02-.09-4.39-.91-6.73-3.25-2.34-2.34-3.17-4.71-3.25-6.73-.11-2.34.74-4.9,2.74-6.9,2.02-2.02,4.59-2.88,6.93-2.77,2.02.09,4.39.91,6.73,3.25,2.34,2.34,3.17,4.71,3.25,6.73ZM49.69,40.46c1.94-1.94,2.02-4.99.03-6.99-2-2-5.05-1.91-6.99.03-1.88,1.88-2.02,4.93,0,6.96,2.02,2.02,5.08,1.88,6.96,0Z"/>
        </g>
      </g>
    </g>
  </g>
</svg>