<?xml version="1.0" encoding="UTF-8"?>
<svg id="_レイヤー_2" data-name="レイヤー_2" xmlns="http://www.w3.org/2000/svg" viewBox="0 0 189.65 249.24">
  <defs>
    <style>
      .cls-1 {
        fill: none;
        stroke: #e2d3ca;
        stroke-linecap: round;
        stroke-miterlimit: 10;
        stroke-width: 19.84px;
      }

      .cls-2 {
        fill: #715e54;
      }
    </style>
  </defs>
  <g id="_レイヤー_1-2" data-name="レイヤー_1">
    <g>
      <path class="cls-1" d="M27.21,239.32c-8.96-23.54-14.2-52-14.2-82.65C13.01,75.62,49.64,9.92,94.83,9.92s81.81,65.7,81.81,146.74c0,30.39-5.15,58.62-13.97,82.04"/>
      <g>
        <path class="cls-2" d="M27.27,168.12l9.51-8.2c.85-.74,2.14-.64,2.88.21l35.9,41.66c.74.85.64,2.14-.21,2.88l-9.51,8.2c-.85.74-2.14.64-2.88-.21l-.09-.11c-1.16-1.34-3.37-.67-3.57,1.1-.81,7.23-4.88,11.59-7.51,13.85-13.75,11.85-32.1,8.94-43.42-4.19-11.4-13.23-11.49-31.52,1.74-42.92,2.77-2.39,8.09-6.26,15.33-6.02,1.78.06,2.77-2.02,1.61-3.37h0c-.74-.85-.64-2.14.21-2.88ZM21.4,212.09c6.15,7.13,16.12,8.26,23.36,2.02,7.24-6.24,7.59-16.27,1.45-23.4-6.15-7.13-16.03-8.16-23.27-1.92-7.24,6.24-7.68,16.17-1.54,23.3Z"/>
        <path class="cls-2" d="M113.83,96.08l12.25,2.35c1.13.22,1.87,1.31,1.65,2.44l-17.96,93.59c-.22,1.13-1.31,1.87-2.44,1.65l-12.25-2.35c-1.13-.22-1.87-1.31-1.65-2.44h0c.34-1.78-1.6-3.11-3.14-2.16-6.14,3.8-12.05,3.31-15.44,2.66-17.82-3.42-26.94-19.62-23.67-36.64s17.57-28.58,34.72-25.29c3.58.69,9.87,2.44,14.18,8.2,1.09,1.45,3.38.94,3.72-.84l7.59-39.52c.22-1.13,1.31-1.87,2.44-1.65ZM68.06,158.43c-1.77,9.24,3.54,17.77,12.92,19.57s17.47-4.15,19.24-13.39c1.77-9.25-3.56-17.63-12.94-19.43-9.38-1.8-17.44,4.02-19.22,13.26Z"/>
        <path class="cls-2" d="M189.62,125.6c.39,7.91-2.51,16.59-9.36,23.44-6.75,6.75-15.44,9.65-23.35,9.26-6.85-.29-14.86-3.09-22.77-11-7.91-7.91-10.71-15.92-11-22.77-.38-7.91,2.51-16.59,9.26-23.35,6.85-6.85,15.53-9.74,23.44-9.36,6.85.29,14.86,3.09,22.77,11,7.91,7.91,10.71,15.92,11,22.77ZM168.1,136.89c6.56-6.56,6.85-16.88.1-23.64-6.75-6.75-17.08-6.46-23.64.1-6.37,6.37-6.85,16.69,0,23.54,6.85,6.85,17.17,6.37,23.54,0Z"/>
      </g>
    </g>
  </g>
</svg>