<?xml version="1.0" encoding="UTF-8"?>
<svg id="_レイヤー_2" data-name="レイヤー_2" xmlns="http://www.w3.org/2000/svg" viewBox="0 0 208.22 39.05">
  <defs>
    <style>
      .cls-1 {
        fill: #715e54;
      }
    </style>
  </defs>
  <g id="_レイヤー_1-2" data-name="レイヤー_1">
    <g>
      <path class="cls-1" d="M19,23.89h-10.27c-.21,0-.41.14-.47.34l-1.84,5.45c-.07.2-.26.34-.47.34H.5c-.35,0-.59-.34-.47-.67L10.32.51c.07-.2.26-.33.47-.33h6.34c.21,0,.4.13.47.33l10.21,28.84c.12.33-.13.67-.47.67h-5.69c-.22,0-.41-.14-.48-.35l-1.7-5.43c-.07-.21-.26-.35-.48-.35ZM17.42,18.1l-3.05-9.61c-.15-.46-.8-.47-.95,0l-3.15,9.61c-.11.32.13.66.48.66h6.2c.34,0,.58-.33.48-.65Z"/>
      <path class="cls-1" d="M48.14.72v28.8c0,.28-.22.5-.5.5h-4.61c-.28,0-.5-.22-.5-.5v-1.02c0-.46-.58-.69-.87-.34-.6.71-1.25,1.26-1.94,1.65-1.05.59-2.36.89-3.93.89-2.58,0-4.75-1.04-6.51-3.13-1.76-2.09-2.64-4.76-2.64-8.03,0-3.77.87-6.73,2.6-8.89,1.73-2.16,4.05-3.24,6.95-3.24,1.34,0,2.52.29,3.56.88.62.35,1.18.79,1.66,1.3.32.34.87.14.87-.32V.72c0-.28.22-.5.5-.5h4.85c.28,0,.5.22.5.5ZM32.59,19.13c0,2.04.41,3.67,1.21,4.88.8,1.23,2.01,1.84,3.64,1.84s2.88-.61,3.72-1.82c.85-1.21,1.28-2.79,1.28-4.72,0-2.7-.68-4.63-2.04-5.79-.84-.7-1.81-1.05-2.92-1.05-1.69,0-2.92.64-3.71,1.91s-1.18,2.86-1.18,4.75Z"/>
      <path class="cls-1" d="M69.3,10.75c1.86,2.34,2.79,5.1,2.79,8.28s-.93,6.01-2.79,8.31c-1.86,2.3-4.69,3.45-8.48,3.45s-6.62-1.15-8.48-3.45c-1.86-2.3-2.79-5.07-2.79-8.31s.93-5.95,2.79-8.28c1.86-2.33,4.69-3.5,8.48-3.5s6.62,1.17,8.48,3.5ZM60.8,12.13c-1.69,0-2.99.6-3.9,1.79s-1.37,2.9-1.37,5.11.46,3.92,1.37,5.12,2.21,1.8,3.9,1.8,2.98-.6,3.89-1.8c.9-1.2,1.36-2.91,1.36-5.12s-.45-3.92-1.36-5.11c-.91-1.19-2.2-1.79-3.89-1.79Z"/>
      <path class="cls-1" d="M96.92,30.02h-12.36c-.28,0-.5-.22-.5-.5V.68c0-.28.22-.5.5-.5h12.36c1.85.03,3.39.24,4.62.65,2.09.69,3.79,1.95,5.08,3.79,1.04,1.48,1.75,3.09,2.13,4.82s.57,3.37.57,4.94c0,3.97-.8,7.33-2.39,10.08-2.16,3.71-5.49,5.57-10,5.57ZM101.55,7.79c-.96-1.62-2.85-2.43-5.69-2.43h-5.25c-.28,0-.5.22-.5.5v18.48c0,.28.22.5.5.5h5.25c2.94,0,4.99-1.45,6.15-4.35.63-1.59.95-3.49.95-5.69,0-3.04-.47-5.37-1.42-7Z"/>
      <path class="cls-1" d="M131,23.55c.33,0,.56.31.48.64-.27,1.1-.91,2.22-1.93,3.35-1.89,2.15-4.54,3.22-7.94,3.22-2.81,0-5.28-.9-7.43-2.71-2.15-1.81-3.22-4.75-3.22-8.83,0-3.82.97-6.75,2.91-8.79s4.45-3.06,7.54-3.06c1.83,0,3.49.34,4.96,1.03,1.47.69,2.69,1.77,3.64,3.26.86,1.31,1.42,2.83,1.68,4.56.14.92.2,2.21.19,3.87,0,.27-.23.51-.5.51h-14.07c-.29,0-.53.25-.5.54.17,1.93.85,3.3,2.05,4.12.8.55,1.75.83,2.88.83,1.19,0,2.15-.34,2.89-1.01.35-.31.66-.73.93-1.25.09-.16.25-.27.44-.27h4.99ZM125.34,16.78c.3,0,.54-.26.5-.55-.16-1.26-.61-2.23-1.34-2.92-.83-.79-1.86-1.18-3.09-1.18-1.34,0-2.37.42-3.11,1.26-.63.72-1.06,1.66-1.29,2.81-.06.3.19.59.5.59h7.83Z"/>
      <path class="cls-1" d="M150.15,8.97c1.6,1.03,2.57,2.74,2.91,5.14.04.3-.2.57-.5.57h-4.78c-.25,0-.44-.18-.49-.43-.11-.54-.29-.99-.56-1.34-.63-.78-1.71-1.17-3.24-1.17-1.25,0-2.15.2-2.68.59s-.8.85-.8,1.38c0,.66.28,1.14.85,1.44.57.31,2.57.84,6.01,1.6,2.29.54,4.02,1.36,5.16,2.45,1.13,1.11,1.7,2.49,1.7,4.15,0,2.19-.81,3.97-2.44,5.35-1.63,1.38-4.14,2.08-7.54,2.08s-6.03-.73-7.68-2.2c-1.52-1.35-2.35-3.04-2.47-5.07-.02-.28.22-.52.51-.52h4.9c.25,0,.45.19.49.43.14.8.38,1.39.73,1.76.72.77,2.04,1.15,3.97,1.15,1.13,0,2.03-.17,2.7-.51s1-.84,1-1.52-.27-1.14-.81-1.48c-.54-.34-2.54-.92-6.01-1.74-2.5-.62-4.26-1.4-5.28-2.33-1.03-.92-1.54-2.24-1.54-3.97,0-2.04.8-3.79,2.4-5.25,1.6-1.46,3.85-2.2,6.75-2.2s5,.55,6.74,1.64Z"/>
      <path class="cls-1" d="M171.26,33.89c.62.53,1.67.79,3.14.79,2.08,0,3.47-.7,4.17-2.08.46-.89.69-2.39.69-4.5v-1.42c-.55.95-1.15,1.65-1.78,2.13-1.15.88-2.64,1.32-4.47,1.32-2.83,0-5.1-1-6.79-2.99-1.69-1.99-2.54-4.69-2.54-8.09s.82-6.04,2.45-8.27c1.63-2.23,3.95-3.35,6.94-3.35,1.11,0,2.07.17,2.89.51.97.4,1.81,1.04,2.53,1.9.29.36.87.14.87-.33v-1.06c0-.28.22-.5.5-.5h4.61c.28,0,.5.22.5.5v20.43c0,2.85-.48,4.99-1.44,6.44-1.65,2.48-4.81,3.72-9.47,3.72-2.82,0-5.12-.55-6.9-1.66-1.62-1.01-2.59-2.47-2.89-4.39-.05-.3.2-.57.5-.57h5.33c.22,0,.41.15.48.36.16.49.39.85.69,1.09ZM170.29,22.49c.78,1.86,2.19,2.79,4.21,2.79,1.35,0,2.49-.51,3.42-1.53.93-1.02,1.4-2.64,1.4-4.87,0-2.09-.44-3.69-1.33-4.78-.88-1.09-2.07-1.64-3.55-1.64-2.03,0-3.42.95-4.19,2.85-.41,1.01-.61,2.26-.61,3.75,0,1.28.22,2.42.65,3.42Z"/>
      <path class="cls-1" d="M161.75.5v4.32c0,.28-.22.5-.5.5h-4.85c-.28,0-.5-.22-.5-.5V.5c0-.28.22-.5.5-.5h4.85c.28,0,.5.22.5.5ZM161.75,8.46v21.07c0,.28-.22.5-.5.5h-4.85c-.28,0-.5-.22-.5-.5V8.46c0-.28.22-.5.5-.5h4.85c.28,0,.5.22.5.5Z"/>
      <path class="cls-1" d="M198.6,12.23c-1.96,0-3.3.83-4.03,2.49-.38.88-.57,2-.57,3.36v11.45c0,.28-.22.5-.5.5h-4.75c-.28,0-.5-.22-.5-.5V8.5c0-.28.22-.5.5-.5h4.57c.28,0,.5.22.5.5v1.18c0,.46.59.69.88.33.42-.52.83-.93,1.23-1.23,1.19-.89,2.69-1.34,4.51-1.34,2.28,0,4.15.6,5.6,1.79,1.45,1.19,2.18,3.18,2.18,5.94v14.36c0,.28-.22.5-.5.5h-4.91c-.28,0-.5-.22-.5-.5v-12.92c0-1.16-.16-2.05-.47-2.67-.57-1.13-1.65-1.7-3.24-1.7Z"/>
    </g>
  </g>
</svg>