<?xml version="1.0" encoding="UTF-8"?>
<svg id="_レイヤー_2" data-name="レイヤー_2" xmlns="http://www.w3.org/2000/svg" viewBox="0 0 76 73">
  <defs>
    <style>
      .cls-1 {
        fill: #d2c1ad;
      }
    </style>
  </defs>
  <g id="_メインページ" data-name="メインページ">
    <path class="cls-1" d="M37.46,0c-9.59.02-16.54,3.32-21.25,6.7-4.71,3.38-9.28,8.6-11.27,12.83C2.15,25.5.83,31.43.24,35.4c-1.26,8.53,2.58,20.89,7.4,25.92,6.22,6.5,12.52,8.09,16.78,9.67,4.26,1.58,11.98,2.91,19.6,1.22,9.87-2.19,13.9-5.85,17.83-9.01,3.92-3.15,8.13-7.71,10.05-10.69,1.54-2.38,5.37-11.1,3.68-18.98-1.68-7.88-5.49-14.3-9.64-18.69-4.15-4.39-9.17-6.77-13-9.23C50.19,3.87,44.08-.01,37.46,0Z"/>
  </g>
</svg>