<?xml version="1.0" encoding="UTF-8"?>
<svg id="_レイヤー_2" data-name="レイヤー_2" xmlns="http://www.w3.org/2000/svg" viewBox="0 0 214 47">
  <defs>
    <style>
      .cls-1 {
        fill: #c7b299;
      }

      .cls-2 {
        fill: #e5d5cc;
      }

      .cls-3, .cls-4, .cls-5, .cls-6 {
        fill: none;
        stroke: #c7b299;
        stroke-linecap: round;
        stroke-linejoin: round;
        stroke-width: 2px;
      }

      .cls-7 {
        fill: #fad9ca;
      }

      .cls-8 {
        fill: #f7f3e9;
      }

      .cls-4 {
        stroke-dasharray: 0 5.97;
      }

      .cls-5 {
        stroke-dasharray: 0 5.97;
      }

      .cls-6 {
        stroke-dasharray: 0 5.97;
      }
    </style>
  </defs>
  <g id="_複数ページ" data-name="複数ページ">
    <g>
      <polygon class="cls-1" points="3.06 47 12.25 25.05 3.06 3.09 214 3.09 207.88 25.05 214 47 3.06 47"/>
      <g>
        <polygon class="cls-8" points=".75 43.41 9.73 21.95 .75 .5 210.28 .5 204.29 21.95 210.28 43.41 .75 43.41"/>
        <path class="cls-1" d="M209.62,1l-5.77,20.68-.07.27.07.27,5.77,20.69H1.5l8.61-20.57.16-.39-.16-.39L1.5,1h208.12M210.94,0H0l9.19,21.95L0,43.91h210.94l-6.12-21.95,6.12-21.95h0Z"/>
      </g>
      <g>
        <line class="cls-6" x1="7.39" y1="4.64" x2="7.39" y2="4.64"/>
        <line class="cls-4" x1="13.34" y1="4.64" x2="200.57" y2="4.64"/>
        <line class="cls-3" x1="203.54" y1="4.64" x2="203.54" y2="4.64"/>
      </g>
      <g>
        <line class="cls-3" x1="203.54" y1="39.27" x2="203.54" y2="39.27"/>
        <line class="cls-5" x1="197.6" y1="39.27" x2="10.37" y2="39.27"/>
        <line class="cls-6" x1="7.39" y1="39.27" x2="7.39" y2="39.27"/>
      </g>
      <g>
        <path class="cls-2" d="M142.38,18.38c-6.2-.18-12.32-.32-18.4-.41,1.79.42,3.53.85,5.06,1.13,4.62.9,8.93-.04,13.34-.72Z"/>
        <path class="cls-7" d="M114.91,17.92l-6.09-.03c2.02.18,4.08.25,6.09.03Z"/>
        <path class="cls-2" d="M176.96,20.42c.02.1.29.41.94.96l-1.47-.07c0,1.13.64,2.27,1.73,3.14.51-.19.91-.44,1.38-.71-.28-1.61-1.56-2.73-2.14-3.16-.13-.09-.22-.14-.29-.17.81-.02,1.66-.06,2.67-.07-1.26-.16-2.25-.25-3.27-.34-1.01-.09-1.98-.17-2.93-.24-1.91-.14-3.78-.26-5.63-.37-.65.16-1.28.29-1.9.39,1.4.23,2.86.4,4.37.51-3.46.17-6.92,0-10.08-.51-1.53.26-2.9.29-4.03-.16-.26-.11-.52-.21-.78-.31,1.24,0,2.49.07,3.77.29.34.06.69.12,1.04.18.45-.08.92-.18,1.4-.29l.27.11c1.12.45,2.5.44,4.05.19-.35-.06-.7-.12-1.04-.19-1.28-.23-2.54-.31-3.79-.31l.14.06c-2.21-.11-4.41-.21-6.59-.3-4.26-.17-8.46-.32-12.63-.44-4.41.68-8.72,1.62-13.34.72-1.54-.27-3.27-.71-5.06-1.13-4.84-.08-9.65-.13-14.45-.16-2.02.22-4.07.15-6.09-.03-18.95-.07-38.01.2-57.95.57-1.18.03-7.15.5-8.1,1.15l-1.8.5.05.3.18,1.12-.07.53c-.02.23-.03.47-.04.7-.02.72.09,1.42.33,2.07.67,1.89,2.65,3.3,5.81,3.26,12.6.84,22.83.56,33.14.16,3.77-.5,7.56-.79,11.36-.7-1.92.12-3.84.32-5.75.57,4.66-.18,9.33-.4,14.19-.56l-.44-.03,3.54-.08c1.84-.16,3.78-.17,5.73-.13-.04,0-.09,0-.13,0,.12,0,.25,0,.37,0,1.08.02,2.16.05,3.22.08l4.5.05c.43-.03,3.41-.23,5.82-.15-.08.02-.15.03-.22.04h1.18c.53.05,1.01.11,1.38.2h1.22c5.41.08,10.61.32,15.65.56,2.05-.14,4.13-.23,6.29-.13-.24.02-.47.03-.71.05,1.05.05,2.09.1,3.13.15.04,0,.07,0,.11,0,4.26.6,10.43.3,10.56.46.66,0,1.33-.02,1.99-.04,1.18.01,2.35.02,3.52,0-.07-.09-.11-.19-.11-.31,3.71-.78,7.55-1.27,11.46-1.06,1.06-.17,2.12-.37,3.16-.58,1.86-.37,2.52-1.04,2.82-1.82-.29-.14-.6-.29-.88-.46-.19-.11-.38-.23-.55-.35-1.22-.86-1.87-2.01-1.92-3.13l1.45.05c-.26-.21-.5-.39-.69-.53-.06-.05-.12-.09-.17-.13.04,0,.08,0,.13,0,.34,0,.68-.01,1.02-.02ZM116.77,25.61c-.06-.12-.11-.26-.15-.43.52.16,1.05.27,1.57.36l.71-.04c.24-.07.5-.1.75-.04l-.75.04c-.1.03-.19.06-.29.1-.76.31-1.44.85-1.85.01Z"/>
        <path class="cls-2" d="M171.68,27.64c-2.03.22-4.05.57-6.06,1.01,2.06-.08,4.11-.22,6.13-.4,1.99-.19,4.06-.43,5.74-.72-1.68-.17-3.81-.1-5.81.11Z"/>
      </g>
    </g>
  </g>
</svg>