<?xml version="1.0" encoding="UTF-8"?>
<svg id="_レイヤー_2" data-name="レイヤー_2" xmlns="http://www.w3.org/2000/svg" viewBox="0 0 76.08 72.78">
  <defs>
    <style>
      .cls-1 {
        fill: #e5d5cc;
        opacity: .6;
      }
    </style>
  </defs>
  <g id="worksページ">
    <path class="cls-1" d="M37.5,0c-9.6.02-16.55,3.31-21.27,6.68-4.71,3.37-9.29,8.57-11.28,12.79C2.15,25.42.83,31.34.24,35.3c-1.26,8.5,2.59,20.82,7.41,25.84,6.23,6.48,12.53,8.07,16.79,9.64,4.26,1.57,11.99,2.9,19.63,1.22,9.89-2.18,13.92-5.84,17.85-8.98,3.93-3.14,8.14-7.69,10.06-10.66,1.54-2.38,5.37-11.06,3.69-18.92-1.68-7.86-5.5-14.25-9.65-18.63-4.15-4.38-9.18-6.75-13.02-9.2C50.25,3.85,44.13-.01,37.5,0Z"/>
  </g>
</svg>