<?xml version="1.0" encoding="UTF-8"?>
<svg id="_レイヤー_2" data-name="レイヤー_2" xmlns="http://www.w3.org/2000/svg" viewBox="0 0 140 140">
  <defs>
    <style>
      .cls-1 {
        fill: #f3ecd8;
      }

      .cls-2 {
        fill: none;
        stroke: #705d53;
        stroke-miterlimit: 10;
        stroke-width: 1.75px;
      }

      .cls-3 {
        fill: #705d53;
      }
    </style>
  </defs>
  <g id="aboutページ">
    <g>
      <path class="cls-2" d="M8.27,69.66c0-34.1,27.64-61.75,61.73-61.75s61.73,27.64,61.73,61.75"/>
      <polygon class="cls-2" points="94.96 70.47 80.1 99.02 59.9 99.02 45.04 70.47 70 25.74 94.96 70.47"/>
      <path class="cls-2" d="M51.01,139.53v-11.58c0-28.93,8.08-28.93,8.08-28.93h21.81s8.08,0,8.08,28.93v12.05"/>
      <line class="cls-2" x1="70" y1="25.74" x2="70" y2="62.38"/>
      <path class="cls-2" d="M76.67,69.05c0,3.68-2.99,6.67-6.67,6.67s-6.67-2.99-6.67-6.67,2.99-6.67,6.67-6.67,6.67,2.99,6.67,6.67Z"/>
      <g>
        <rect class="cls-1" x="62.37" y=".88" width="15.26" height="15.27"/>
        <path class="cls-3" d="M76.76,1.75v13.52h-13.51V1.75h13.51M78.51,0h-17.01v17.02h17.01V0h0Z"/>
      </g>
      <g>
        <rect class="cls-1" x=".87" y="62.17" width="15.26" height="15.27"/>
        <path class="cls-3" d="M15.26,63.05v13.52H1.75v-13.52h13.51M17.01,61.3H0v17.02h17.01v-17.02h0Z"/>
      </g>
      <g>
        <rect class="cls-1" x="123.86" y="62.17" width="15.26" height="15.27"/>
        <path class="cls-3" d="M138.25,63.05v13.52h-13.51v-13.52h13.51M140,61.3h-17.01v17.02h17.01v-17.02h0Z"/>
      </g>
      <line class="cls-2" x1="51.82" y1="120.4" x2="88.11" y2="120.4"/>
      <line class="cls-2" x1="51.01" y1="128.98" x2="88.92" y2="128.98"/>
    </g>
  </g>
</svg>