<?xml version="1.0" encoding="UTF-8"?>
<svg id="_レイヤー_2" data-name="レイヤー_2" xmlns="http://www.w3.org/2000/svg" viewBox="0 0 189 121">
  <defs>
    <style>
      .cls-1 {
        fill: #f7f3e9;
      }

      .cls-2 {
        fill: #3c322e;
      }
    </style>
  </defs>
  <g id="aboutページ">
    <g>
      <path class="cls-2" d="M158.84,2c6.41,0,11.62,5.2,11.62,11.58v81.82c0,6.39-5.21,11.58-11.62,11.58H30.16c-6.41,0-11.62-5.2-11.62-11.58V13.58c0-6.39,5.21-11.58,11.62-11.58h128.67M158.84,0H30.16c-7.52,0-13.62,6.08-13.62,13.58v81.82c0,7.5,6.1,13.58,13.62,13.58h128.67c7.52,0,13.62-6.08,13.62-13.58V13.58c0-7.5-6.1-13.58-13.62-13.58h0Z"/>
      <path class="cls-2" d="M161.53,11.22v83.15H27.47V11.22h134.06M163.53,9.22H25.47v87.15h138.06V9.22h0Z"/>
      <g>
        <path class="cls-2" d="M186.76,112.47c-.91,3.74-4.29,6.53-8.32,6.53H10.56c-4.03,0-7.42-2.79-8.32-6.53h184.52M189,110.47H0c0,5.81,4.73,10.53,10.56,10.53h167.88c5.83,0,10.56-4.71,10.56-10.53h0Z"/>
        <g>
          <rect class="cls-1" x="1" y="105.66" width="187" height="4.81"/>
          <path class="cls-2" d="M187,106.66v2.81H2v-2.81h185M189,104.66H0v6.81h189v-6.81h0Z"/>
        </g>
      </g>
      <g>
        <path class="cls-2" d="M49.24,54.66c-.47-.2-.79-.46-.98-.78-.18-.32-.28-.71-.28-1.19,0-.97.42-1.66,1.26-2.07l22.29-10.09c.57-.27,1.04-.34,1.41-.23s.55.4.55.83c0,.94-.44,1.61-1.31,2.02l-20.99,9.49,20.99,9.49c.87.4,1.31,1.04,1.31,1.92,0,.54-.18.86-.55.96-.37.1-.84.05-1.41-.15l-22.29-10.19Z"/>
        <path class="cls-2" d="M85.44,71.17c-.47,1.01-1.05,1.33-1.76.96-.74-.37-.85-1.04-.35-2.02l18.17-35.67c.47-1.04,1.07-1.36,1.81-.96.74.4.84,1.08.3,2.02l-18.17,35.67Z"/>
        <path class="cls-2" d="M117.47,64.85c-.6.24-1.08.28-1.43.15-.35-.14-.53-.42-.53-.86,0-.98.42-1.65,1.26-2.02l20.99-9.49-20.99-9.49c-.84-.34-1.26-.96-1.26-1.87,0-.47.18-.78.53-.93.35-.15.83-.09,1.43.18l22.24,10.09c.87.4,1.31,1.08,1.31,2.02s-.44,1.65-1.31,2.02l-22.24,10.19Z"/>
      </g>
    </g>
  </g>
</svg>