<?xml version="1.0" encoding="UTF-8"?>
<svg id="_レイヤー_2" data-name="レイヤー_2" xmlns="http://www.w3.org/2000/svg" viewBox="0 0 164 105">
  <defs>
    <style>
      .cls-1 {
        fill: #705d53;
      }

      .cls-2 {
        fill: #f7f3e9;
      }
    </style>
  </defs>
  <g id="aboutページ">
    <g>
      <path class="cls-1" d="M137.83,1.74c5.56,0,10.09,4.51,10.09,10.05v71c0,5.54-4.52,10.05-10.09,10.05H26.17c-5.56,0-10.09-4.51-10.09-10.05V11.79c0-5.54,4.52-10.05,10.09-10.05h111.65M137.83,0H26.17c-6.53,0-11.82,5.28-11.82,11.79v71c0,6.51,5.29,11.79,11.82,11.79h111.65c6.53,0,11.82-5.28,11.82-11.79V11.79c0-6.51-5.29-11.79-11.82-11.79h0Z"/>
      <path class="cls-1" d="M140.16,9.74v72.16H23.84V9.74h116.33M141.9,8H22.1v75.63h119.8V8h0Z"/>
      <g>
        <path class="cls-1" d="M162.06,97.6c-.79,3.25-3.72,5.66-7.22,5.66H9.16c-3.5,0-6.44-2.42-7.22-5.66h160.12M164,95.87H0c0,5.04,4.1,9.13,9.16,9.13h145.68c5.06,0,9.16-4.09,9.16-9.13h0Z"/>
        <g>
          <rect class="cls-2" x=".87" y="91.69" width="162.26" height="4.17"/>
          <path class="cls-1" d="M162.26,92.56v2.44H1.74v-2.44h160.53M164,90.82H0v5.91h164v-5.91h0Z"/>
        </g>
      </g>
      <g>
        <path class="cls-1" d="M42.73,47.43c-.41-.17-.69-.4-.85-.68-.16-.28-.24-.62-.24-1.03,0-.85.36-1.44,1.09-1.79l19.34-8.76c.49-.23.9-.3,1.22-.2s.48.34.48.72c0,.82-.38,1.4-1.13,1.75l-18.21,8.23,18.21,8.23c.75.35,1.13.91,1.13,1.66,0,.47-.16.75-.48.83-.32.09-.73.04-1.22-.13l-19.34-8.84Z"/>
        <path class="cls-1" d="M74.14,61.76c-.41.88-.92,1.15-1.52.83-.64-.32-.74-.91-.31-1.75l15.77-30.95c.41-.9.93-1.18,1.57-.83.64.35.73.93.26,1.75l-15.77,30.95Z"/>
        <path class="cls-1" d="M101.93,56.27c-.52.2-.94.25-1.24.13-.31-.12-.46-.36-.46-.74,0-.85.36-1.43,1.09-1.75l18.21-8.23-18.21-8.23c-.73-.29-1.09-.83-1.09-1.62,0-.41.15-.68.46-.81.31-.13.72-.08,1.24.15l19.3,8.76c.75.35,1.13.93,1.13,1.75s-.38,1.43-1.13,1.75l-19.3,8.84Z"/>
      </g>
    </g>
  </g>
</svg>