<?xml version="1.0" encoding="UTF-8"?>
<svg id="_レイヤー_2" data-name="レイヤー_2" xmlns="http://www.w3.org/2000/svg" xmlns:xlink="http://www.w3.org/1999/xlink" viewBox="0 0 350.67 418.03">
  <defs>
    <style>
      .cls-1, .cls-2 {
        fill: none;
      }

      .cls-2 {
        stroke: #c7b299;
        stroke-miterlimit: 10;
        stroke-width: .42px;
      }

      .cls-3 {
        fill: #e5d5cc;
      }

      .cls-4 {
        clip-path: url(#clippath);
      }
    </style>
    <clipPath id="clippath">
      <rect class="cls-1" width="350.67" height="418.03"/>
    </clipPath>
  </defs>
  <g id="_メインページ" data-name="メインページ">
    <g class="cls-4">
      <path class="cls-3" d="M211.26,22.52c-49.27.1-85,17.01-109.2,34.31-24.2,17.3-47.69,44.04-57.91,65.73-14.41,30.56-21.18,60.96-24.2,81.3-6.48,43.67,13.27,106.98,38.03,132.75,31.98,33.3,64.33,41.45,86.23,49.53,21.9,8.07,61.58,14.91,100.76,6.26,50.76-11.2,71.45-29.98,91.62-46.13,20.17-16.14,41.78-39.49,51.66-54.74,7.91-12.21,27.58-56.83,18.93-97.19-8.64-40.36-28.24-73.22-49.56-95.71s-47.14-34.66-66.84-47.28c-14.1-9.03-45.52-28.9-79.52-28.83Z"/>
      <path class="cls-2" d="M213.87,3.55c-54.14.11-93.4,18.69-119.99,37.7-26.59,19.01-52.4,48.39-63.64,72.23C14.41,147.05,6.96,180.46,3.65,202.8c-7.12,47.99,14.58,117.55,41.79,145.88,35.14,36.59,70.69,45.55,94.75,54.42,24.06,8.87,67.67,16.38,110.72,6.88,55.77-12.31,78.52-32.95,100.68-50.68,22.16-17.74,45.91-43.4,56.76-60.15,8.7-13.42,30.3-62.44,20.8-106.79-9.5-44.35-31.03-80.46-54.46-105.17s-51.79-38.08-73.45-51.95c-15.49-9.92-50.02-31.75-87.38-31.68Z"/>
    </g>
  </g>
</svg>