<?xml version="1.0" encoding="UTF-8"?>
<svg id="_レイヤー_2" data-name="レイヤー_2" xmlns="http://www.w3.org/2000/svg" viewBox="0 0 197.48 107.47">
  <defs>
    <style>
      .cls-1 {
        fill: #705d53;
      }
    </style>
  </defs>
  <g id="contactページ">
    <g>
      <path class="cls-1" d="M30.54,26.33c3.91-.07,7.82-.15,11.72-.22,3.6-.07,7.24-.12,10.71-1.21.23-.07.48-.27.52-.52.61-3.63.56-7.33-.24-10.93-.68-3.08-1.79-6.17-5.02-7.27-1.65-.56-3.5-.74-5.23-.74s-3.58.11-5.16.8c-1.45.64-2.55,1.91-3.58,3.07-1.11,1.26-2.15,2.61-2.98,4.08-2.12,3.73-2.17,7.64-1.82,11.81.08.96,1.58.96,1.5,0-.18-2.21-.4-4.49,0-6.69.32-1.79,1.04-3.46,2-5s2.12-2.93,3.37-4.23c1.57-1.63,3.15-2.15,5.4-2.29,2.01-.13,4.18-.01,6.1.65s2.83,2.26,3.41,4.08c1.26,3.95,1.49,8.2.81,12.27l.52-.52c-3.49,1.09-7.14,1.09-10.75,1.16s-7.52.14-11.28.21c-.96.02-.97,1.52,0,1.5h0Z"/>
      <path class="cls-1" d="M37.91,6.55c-.04.23-.07.46-.07.69s.03.44.06.65c.06.39.2.76.37,1.11.08.16.28.3.45.34s.42.03.58-.08c.36-.23.46-.65.27-1.03-.03-.07-.07-.14-.1-.21l.08.18c-.1-.25-.17-.51-.21-.78l.03.2c-.03-.26-.03-.52,0-.78l-.03.2s0-.06.01-.1c.03-.21.03-.39-.08-.58-.09-.16-.27-.3-.45-.34-.19-.04-.41-.03-.58.08-.15.1-.31.26-.34.45h0Z"/>
      <path class="cls-1" d="M38.82,7.42c.15.42.3.83.45,1.25.07.19.17.35.34.45.16.09.4.13.58.08s.36-.17.45-.34.14-.39.08-.58c-.15-.42-.3-.83-.45-1.25-.07-.19-.17-.35-.34-.45-.16-.09-.4-.13-.58-.08s-.36.17-.45.34-.14.39-.08.58h0Z"/>
      <path class="cls-1" d="M40.75,6.94l.26,1.41c.03.18.2.36.34.45.16.09.4.13.58.08s.36-.17.45-.34l.08-.18c.04-.13.04-.27,0-.4l-.26-1.41c-.03-.18-.2-.36-.34-.45-.16-.09-.4-.13-.58-.08s-.36.17-.45.34l-.08.18c-.04.13-.04.27,0,.4h0Z"/>
      <path class="cls-1" d="M43.04,6.95c.09.57.17,1.14.26,1.72.03.17.2.36.34.45.16.09.4.13.58.08s.36-.17.45-.34l.08-.18c.04-.13.04-.27,0-.4-.09-.57-.17-1.14-.26-1.72-.03-.17-.2-.36-.34-.45-.16-.09-.4-.13-.58-.08s-.36.17-.45.34l-.08.18c-.04.13-.04.27,0,.4h0Z"/>
      <path class="cls-1" d="M45.65,7.37v1.24c0,.19.08.39.22.53s.34.23.53.22.4-.07.53-.22.22-.33.22-.53v-1.24c0-.19-.08-.39-.22-.53s-.34-.23-.53-.22-.4.07-.53.22-.22.33-.22.53h0Z"/>
      <path class="cls-1" d="M45.59,6.82c.09.14.17.3.24.45l-.08-.18c.11.26.18.52.22.8l-.03-.2s.01.1.02.15c0,.1.02.2.06.29.03.09.08.17.16.24.13.13.34.23.53.22s.4-.07.53-.22c.13-.14.24-.34.22-.53-.03-.31-.08-.63-.18-.93s-.23-.58-.39-.85c-.1-.16-.26-.29-.45-.34s-.42-.03-.58.08-.3.26-.34.45-.03.41.08.58h0Z"/>
      <path class="cls-1" d="M46.7,7.43c.2.47.41.93.61,1.4.07.16.29.3.45.34.18.05.42.03.58-.08s.3-.26.34-.45l.03-.2c0-.14-.03-.26-.1-.38-.2-.47-.41-.93-.61-1.4-.07-.16-.29-.3-.45-.34-.18-.05-.42-.03-.58.08s-.3.26-.34.45l-.03.2c0,.14.03.26.1.38h0Z"/>
      <path class="cls-1" d="M37.88,6.55c-.19.99-.38,1.97-.57,2.96-.07.38.11.83.52.92.37.08.84-.11.92-.52.19-.99.38-1.97.57-2.96.07-.38-.11-.83-.52-.92-.37-.08-.84.11-.92.52h0Z"/>
      <path class="cls-1" d="M41.31,5.68c-1.6-.67-3.15-.19-4.58.68-1.65,1-3.19,2.25-4.72,3.43-1.41,1.09-2.92,2.16-4.01,3.58s-1.45,3.12-2.57,4.43c-.63.73.43,1.79,1.06,1.06.96-1.12,1.45-2.47,2.16-3.75.78-1.4,2.03-2.38,3.27-3.37,1.39-1.11,2.82-2.18,4.26-3.21,1.15-.82,2.86-2.2,4.36-1.56.88.37,1.64-.92.76-1.3h0Z"/>
      <path class="cls-1" d="M44.25,4.98c-4.04-1.23-8.85.77-12.34,2.77s-6.58,4.9-8.86,8.31c-.54.8.76,1.56,1.3.76,2.08-3.1,4.84-5.71,8.05-7.61,1.58-.94,3.26-1.7,5.01-2.26,2.08-.67,4.3-1.18,6.44-.52.93.28,1.32-1.16.4-1.45h0Z"/>
      <path class="cls-1" d="M42.35,6.09c1.64-.53,3.42-.45,5.12-.45s3.25.05,4.84.38c3.33.7,5.81,2.82,8.25,5.06.71.65,1.77-.41,1.06-1.06-2.62-2.41-5.33-4.7-8.91-5.45-1.72-.36-3.49-.44-5.24-.43s-3.75-.07-5.52.51c-.91.3-.52,1.74.4,1.45h0Z"/>
      <path class="cls-1" d="M43.11,5.23c3.29-.44,6.61-.59,9.93-.55,1.56.02,3.13.05,4.69.17,1.24.1,2.71.31,3.5,1.39.57.77,1.87.02,1.3-.76-1.8-2.45-5.32-2.2-8.04-2.27-3.8-.1-7.61.02-11.38.52-.94.13-.96,1.63,0,1.5h0Z"/>
      <path class="cls-1" d="M40.1,3.08c-7.98,1.79-14.54,8.49-16.11,16.53-.18.94,1.26,1.35,1.45.4,1.48-7.55,7.55-13.79,15.06-15.48.94-.21.54-1.66-.4-1.45h0Z"/>
      <path class="cls-1" d="M41.1,4.26c7.75-.74,17.3-.9,22.53,5.99.58.76,1.88.01,1.3-.76-5.61-7.39-15.42-7.53-23.83-6.73-.95.09-.96,1.59,0,1.5h0Z"/>
      <path class="cls-1" d="M30.07,25.13c-.53,2.6-1.39,5.38-2.91,7.59-.8,1.16-2.59.94-3.84,1.03-1.57.11-3.14.23-4.71.34-1.41.1-2.81.2-4.22.3-.87.07-1.8.08-2.43.78s-.72,1.76-.86,2.63c-.22,1.31-.36,2.63-.4,3.95-.05,1.53-.53,4.65,1.67,4.82,1.36.1,2.85-.18,4.21-.26,1.47-.1,2.94-.19,4.41-.29.59-.04,1.85-.34,2.2.35.2.39,0,1.25-.02,1.66-.07,1.47-.14,2.95-.21,4.42-.15,2.72-.32,5.43-.59,8.14-.61,6.24-1.7,12.44-3.8,18.37-.18.51.28.89.72.95,11.11,1.45,22.3,2.16,33.5,2.09,2.79-.02,5.61,0,8.4-.2,2.49-.18,1.88-2.53,1.77-4.39-.3-5.38-.63-10.77-1.13-16.14-.57-6.07-1.37-12.12-2.6-18.09l-.72.95c1.65-.09,3.29-.17,4.94-.26,1.17-.06,2.94.19,3.98-.4.86-.48,1.01-1.68,1.22-2.56.33-1.39.54-2.81.64-4.23.06-.89.39-2.53-.33-3.23s-2.52-.3-3.44-.28c-3.21.07-6.41.14-9.62.22l.75.75c-.19-3.64-1.1-7.13-2.71-10.39-.43-.87-1.72-.11-1.3.76,1.49,3.02,2.33,6.27,2.5,9.64.02.4.33.76.75.75,2.4-.05,4.81-.11,7.21-.16,1.12-.03,2.24-.05,3.37-.08.14,0,1.34-.16,1.44-.03.09.12-.09,1.39-.1,1.62-.06,1.14-.2,2.28-.42,3.4-.11.56-.19,1.24-.42,1.76-.27.62-.37.69-1.06.85-1.08.24-2.35.12-3.46.18-1.32.07-2.63.14-3.95.21-.51.03-.82.46-.72.95,2.06,10.03,2.88,20.25,3.48,30.46.07,1.12.13,2.25.19,3.37.03.61.19,1.33.11,1.93-.06.45.25.61-.38.96-.27.15-.93.04-1.23.05-2.55.09-5.1.14-7.66.16-5.19.02-10.38-.12-15.55-.43-5.84-.35-11.66-.91-17.46-1.67l.72.95c1.83-5.17,2.9-10.55,3.55-15.99s1.17-10.98,1.15-16.42c0-.72-.09-1.54-.65-2.07-.8-.74-2.11-.42-3.08-.36-1.47.1-2.94.19-4.41.29-.65.04-1.31.08-1.96.13-.41.03-1.94.38-2.25.14s-.16-1.33-.17-1.67c-.02-.71-.01-1.41.02-2.12.07-1.44.11-3.17.61-4.54.45-1.21,2.68-.93,3.79-1.01,1.49-.11,2.98-.22,4.46-.32,1.59-.11,3.2-.16,4.78-.36,1.07-.13,1.86-.53,2.49-1.42,1.64-2.33,2.61-5.33,3.17-8.09.19-.94-1.26-1.35-1.45-.4h0Z"/>
      <path class="cls-1" d="M10.94,39.11c-1.47.07-2.87.45-4.16,1.15l1.1.45c-.24-1.59-.89-3.19-2.68-3.45-1.53-.22-3.09.55-4.05,1.72-1.07,1.3-1.56,3.11-.75,4.67.72,1.38,2.36,2.22,3.88,1.68,1.79-.64,2.83-2.66,3.68-4.22.46-.85-.83-1.61-1.3-.76-.41.76-.85,1.52-1.36,2.23-.37.51-.83,1.06-1.43,1.31-1.33.56-2.49-.88-2.39-2.13.11-1.39,1.29-2.66,2.63-2.97.52-.12,1.11-.11,1.54.24.59.47.67,1.39.78,2.08.08.5.72.65,1.1.45,1.06-.57,2.21-.89,3.41-.94.96-.04.97-1.54,0-1.5h0Z"/>
      <path class="cls-1" d="M29.01,80.5c.34,8.75.28,17.5-.17,26.25-.05.96,1.45.96,1.5,0,.45-8.74.51-17.5.17-26.25-.04-.96-1.54-.97-1.5,0h0Z"/>
      <path class="cls-1" d="M47.91,81.15c1.89,6.84,3.58,13.73,5.07,20.67.2.94,1.65.54,1.45-.4-1.49-6.94-3.18-13.83-5.07-20.67-.26-.93-1.7-.53-1.45.4h0Z"/>
      <path class="cls-1" d="M50.33,68.66c-.19.12-.29.15-.5.14-.13,0-.41-.09-.57-.17-.45-.23-.83-.6-1.1-.99-.62-.91-1.07-2.15-.48-3.12.23-.37.56-.64.96-.73.15-.04.34-.02.49.01.05.01.09.03.14.04-.11-.04,0,0,.02,0,.05.03.11.06.16.09.03.02.06.04.09.06-.04-.04-.05-.04,0,0,.65.53.91,1.48.95,2.31.02.51.02,1.18-.32,1.6.01-.02-.08.08-.07.07-.1.11.03,0-.09.06-.04.02-.1.06-.25.07.13-.02-.03,0-.06-.01-.06,0-.05,0,.02,0-.04,0-.07-.02-.1-.03-.1-.06.08.06-.01-.01-.04-.03-.04-.02.01.01-.06-.06-.07-.07-.02-.02-.52-.81-1.81-.06-1.3.76.45.71,1.33.95,2.11.67.84-.3,1.33-1.1,1.47-1.94.25-1.45,0-3.09-.96-4.26-1.03-1.25-2.82-1.3-3.99-.21-1.37,1.28-1.23,3.29-.4,4.82s2.77,3.17,4.54,2.07c.82-.51.06-1.81-.76-1.3h0Z"/>
      <path class="cls-1" d="M39.52,49.69c-1.49.31-3.25.71-4.68,0-.54-.27-1.02-.65-1.32-1.18-.26-.47-.27-.92-.14-1.34.11-.32.44-.73.76-.95.39-.28.88-.47,1.29-.5.99-.08,1.82.48,2.21,1.42.45,1.09.28,2.36-.45,3.33-.24.32-.05.84.27,1.03.38.23.78.05,1.03-.27,1.83-2.41.73-6.81-2.63-7.01-1.44-.09-3,.74-3.68,2.01-.8,1.5-.19,3.24,1.1,4.25,1.93,1.52,4.41,1.14,6.65.68.4-.08.63-.55.52-.92-.11-.41-.52-.61-.92-.52h0Z"/>
      <path class="cls-1" d="M147.04,36.41c-.15-3.76.17-7.52,1.05-11.18.4-1.67.82-3.46,1.65-4.99s2.22-2.44,3.91-2.88c1.49-.38,3.05-.48,4.58-.54,1.7-.07,3.48-.02,5.07.67,2.96,1.3,4.01,4.59,4.72,7.49.93,3.77,1.92,7.87.42,11.62l.72-.55c-7.73-.55-15.48-.51-23.2.11-.96.08-.96,1.58,0,1.5,7.72-.62,15.48-.66,23.2-.11.35.03.61-.26.72-.55,1.5-3.74.65-7.8-.22-11.59-.72-3.12-1.69-6.59-4.44-8.55-2.96-2.1-7.21-1.75-10.61-1.23-1.59.24-3.18.71-4.45,1.73-1.38,1.11-2.12,2.73-2.66,4.38-1.55,4.7-2.16,9.72-1.96,14.65.04.96,1.54.97,1.5,0h0Z"/>
      <path class="cls-1" d="M155.43,32.17l3.11.1,1.52.05s.3.04.33.01l-.17-.14c-.14-.17-.19-.21-.16-.1.02-.03,0,.08,0,.02,0,.08,0,.18,0,.26,0,.1,0,.07-.03.19-.14.61-.58,1.13-1.23,1.32-.71.22-1.48.05-2.1-.35-.68-.44-1.14-1.19-1.39-1.94-.13-.38-.52-.63-.92-.52-.38.1-.65.54-.52.92.35,1.06.95,2,1.85,2.68s2.16.98,3.3.72,1.99-1.08,2.38-2.13c.18-.5.24-1.09.1-1.61-.21-.8-1-.82-1.68-.84-1.46-.05-2.92-.1-4.39-.15-.97-.03-.96,1.47,0,1.5h0Z"/>
      <path class="cls-1" d="M157.7,24.66l-.8,1.07c-.25.33-.54.66-.76,1.02-.32.54-.16,1.24.42,1.52.42.21.93.26,1.39.32.83.1,1.72-.07,2.32-.69.64-.65.74-1.67.23-2.43-.58-.86-1.59-1.18-2.59-1.13-.39.02-.77.33-.75.75.02.39.33.77.75.75.15,0,.3,0,.44,0,.03,0,.06,0,.08,0,.11,0-.14-.03-.03,0,.08.02.16.03.24.05.06.02.12.04.18.06.1.03-.12-.06-.03-.01.03.02.07.03.1.05.06.03.11.06.17.1.11.07-.03,0-.03-.03,0,.02.07.07.09.09.02.02.05.05.07.07.03.03.05.11.02.02-.04-.09,0,0,.01.03.01.02.03.04.04.06,0,0,.05.09.05.09,0,.01-.05-.16-.02-.04,0,.03.02.06.03.09,0,.03.03.17.01.05-.02-.12,0,.06,0,.1,0,.13,0-.03.01-.05-.01.02-.02.07-.02.09,0,.02-.03.07-.03.09,0-.02.08-.16.02-.05-.02.03-.1.12-.1.16,0-.06.1-.11.03-.05-.02.02-.04.04-.07.07-.02.02-.06.04-.07.06,0-.01.15-.1.04-.03-.05.03-.09.06-.14.09-.03.02-.06.03-.09.04-.08.05.17-.06.02,0-.06.02-.12.04-.18.06-.02,0-.2.05-.1.03s-.03,0-.06,0c-.03,0-.06,0-.09,0-.09,0-.19,0-.28,0-.04,0-.08,0-.13,0-.02,0-.16-.01-.06,0s-.03,0-.06,0c-.03,0-.06-.01-.09-.02-.18-.03-.35-.07-.53-.11-.05-.01-.1-.03-.16-.04-.12-.03.04.02.06.03-.1-.06.04.04.05.05.09.09.13.23.13.34,0,.02-.02.19-.04.18,0,0,.12-.17.13-.19.48-.64.96-1.28,1.44-1.92.11-.15.12-.41.08-.58s-.18-.36-.34-.45c-.39-.21-.77-.07-1.03.27h0Z"/>
      <path class="cls-1" d="M155.74,30.55l-1.4.18c-.1,0-.2.02-.29.06-.09.03-.17.08-.24.16-.13.13-.23.34-.22.53s.07.4.22.53c.14.12.34.24.53.22l1.4-.18c.1,0,.2-.02.29-.06.09-.03.17-.08.24-.16.13-.13.23-.34.22-.53s-.07-.4-.22-.53c-.14-.12-.34-.24-.53-.22h0Z"/>
      <path class="cls-1" d="M168.22,36.58c.14,3.7.27,7.4.41,11.11.01.4.33.75.75.75,3.2-.01,6.39-.2,9.57-.57l-.72-.55c.82,2.38,1.16,4.82,1.01,7.34l.75-.75c-3.34.19-6.69.18-10.03-.02-.37-.02-.79.36-.75.75,1.2,10.61,3.31,21.09,6.33,31.33l.72-.95c-9.6-1.12-19.28-1.45-28.93-.98l.75.75c-.85-8.34-1.42-16.72-1.69-25.1-.02-.53-.46-.8-.95-.72-2.18.34-4.36.73-6.52,1.16l.92.52c-.28-1.4-.5-2.81-.61-4.23-.05-.58-.2-1.31-.1-1.88.13-.7.71-.69,1.35-.86,1.7-.47,4.34-.72,5.31-2.45.43-.76.44-1.65.46-2.49.03-1.37.06-2.74.09-4.11.06-2.74.12-5.47.18-8.21.02-.97-1.48-.97-1.5,0-.06,2.66-.11,5.31-.17,7.97-.03,1.37-.06,2.74-.09,4.11s-.17,2.41-1.68,2.9c-1.13.37-2.3.64-3.45.96-.83.23-1.73.42-1.96,1.37-.25,1.03.02,2.36.13,3.4.13,1.32.34,2.63.6,3.93.08.42.55.6.92.52,2.17-.43,4.34-.82,6.52-1.16l-.95-.72c.27,8.38.84,16.76,1.69,25.1.04.39.31.77.75.75,9.66-.47,19.33-.14,28.93.98.49.06.85-.52.72-.95-2.99-10.11-5.1-20.46-6.28-30.94l-.75.75c3.34.2,6.69.21,10.03.02.42-.02.73-.33.75-.75.15-2.64-.21-5.23-1.07-7.73-.1-.28-.39-.59-.72-.55-3.18.37-6.37.56-9.57.57l.75.75c-.14-3.7-.27-7.4-.41-11.11-.04-.96-1.54-.97-1.5,0h0Z"/>
      <path class="cls-1" d="M155.6,84.19c-.27,1.39.03,2.72.21,4.11.19,1.49.29,3,.3,4.51.03,3.01-.3,6-.97,8.94-.21.94,1.23,1.34,1.45.4.64-2.84,1-5.75,1.02-8.66.01-1.45-.06-2.9-.21-4.35s-.64-3.07-.36-4.54c.18-.94-1.26-1.35-1.45-.4h0Z"/>
      <path class="cls-1" d="M168.19,85.74c.57,2.96,1.15,5.93,1.72,8.89l.85,4.36c.27,1.37.92,3.13.47,4.49-.3.92,1.14,1.31,1.45.4.46-1.39,0-2.86-.27-4.25l-.91-4.71c-.62-3.2-1.24-6.39-1.86-9.59-.18-.95-1.63-.55-1.45.4h0Z"/>
      <path class="cls-1" d="M165.88,18.22c4.11-1.88,11.09-3.85,13.46,1.65.21.49.34,1,.35,1.54,0,.4.05.65-.31.88-.38.25-.55.1-.6-.37-.12-1.35,2.36-2.16,3.41-2.16,1.3,0,2.17,1.05,2.46,2.24.36,1.47-.25,3.04-.83,4.36l.65-.37c-.26-.02-.29-.15-.09-.39.01-.36.22-.51.61-.46.31-.03.62.04.91.12.71.21,1.34.63,1.84,1.16.88.92,1.78,2.65,1.39,3.96-.1.32-.33.89-.76.76-.53-.16-.14-.49.23-.53.72-.09,1.55.67,1.93,1.19.8,1.07.94,2.42.46,3.65l.72-.55c-.77-.07-1.08-1.17-.76-1.78.5-.95,1.96-.65,2.6-.08.72.64.87,1.7.7,2.6-.07.4-.3,1.42-.7,1.6-.32.14-.68-.1-.98-.15-.47-.07-2.02.5-2.07.36-.23-.66,1.45-.91,1.85-.89,1.91.11,2.94,2.2,3.73,3.67.46.85,1.75.09,1.3-.76-1.22-2.27-3.01-4.9-5.97-4.35-1.04.2-2.05.85-2.4,1.9s.38,2.02,1.5,2.02c.82,0,1.37-.51,2.22-.35.6.11,1.02.22,1.58-.15,1.08-.73,1.53-2.41,1.52-3.64-.03-2.47-2.56-4.88-5.06-3.58-2.29,1.19-1.6,4.84.96,5.07.35.03.61-.26.72-.55.9-2.3-.09-5.14-2.29-6.32-.92-.49-2.21-.62-3.08.04-.77.59-.92,1.71-.25,2.44s1.87.85,2.68.35c1.06-.65,1.29-2.03,1.15-3.17-.31-2.54-2.29-5.11-4.92-5.5-1.16-.17-2.63.21-2.96,1.49-.3,1.14.5,2.34,1.7,2.31.24,0,.54-.13.65-.37,1.16-2.64,2.02-6.45-.94-8.31-2.15-1.35-6.68.07-6.94,2.89-.1,1.04.66,2.04,1.66,2.32,1.33.37,2.1-.69,2.25-1.89.37-2.88-1.76-5.47-4.24-6.64-3.85-1.81-8.2-.22-11.79,1.43-.88.4-.12,1.7.76,1.3h0Z"/>
      <path class="cls-1" d="M148.26,19.17c-3.77,1.13-7.74,3.28-10.21,6.42-.95,1.2-1.49,2.99-.18,4.15,1.07.96,2.72.82,3.7-.18.85-.87,1.46-2.85.06-3.51s-2.99.43-3.75,1.57c-.96,1.45-1.17,3.35-.88,5.04.23,1.35.88,3.87,2.67,3.56,1.2-.21,2.14-1.54,1.9-2.73-.29-1.45-2-1.95-3.26-1.51-3.27,1.16-3.2,6.66-.79,8.57,1.18.94,2.99,1.23,4.21.18,1.14-.99.99-2.66-.29-3.45-1.34-.83-2.94-.15-3.75,1.08-.86,1.3-.89,3.05-.21,4.43.52,1.05,2.25,2.75,3.4,1.42,1.08-1.25-.93-3.44-2.19-3.62-1.67-.24-2.45,1.45-2.56,2.84-.16,1.92.3,4.07,1.68,5.47.68.69,1.74-.37,1.06-1.06-.82-.84-1.11-1.93-1.21-3.08-.06-.68-.2-1.81.28-2.38.54-.64,1.07-.02,1.43.47.59.8-.35-.4-.42-.51-.52-.86-.63-2.04-.14-2.94.29-.53.92-1.2,1.6-.96,1.47.51.15,1.41-.43,1.48-1.36.14-2.37-1.21-2.61-2.39-.21-1.02-.06-2.26.45-3.17.23-.41.57-.83,1.04-.97.64-.19,1.6.2,1.08.99-.74,1.13-1.31-1.21-1.42-1.7-.23-1.05-.2-2.18.13-3.21.17-.51,1.46-2.78,2.16-1.94s-2.17,2.46-2.24.39c-.04-1.06,1.27-2.09,1.95-2.72.76-.69,1.56-1.33,2.42-1.9,1.77-1.18,3.69-2.06,5.72-2.67.92-.28.53-1.72-.4-1.45h0Z"/>
      <path class="cls-1" d="M149.75,19.45c.11-1.73.23-3.82,1.66-5.04.73-.62,1.74-.78,2.65-.96,1.04-.2,2.1-.31,3.16-.39.97-.07,1.95-.12,2.93-.16.89-.04,1.88-.11,2.67.38,1.24.78,1.44,2.61,1.58,3.93.1.95,1.6.96,1.5,0-.19-1.78-.5-3.82-2-4.99-.85-.66-1.89-.84-2.95-.85-1.24,0-2.49.09-3.73.19s-2.49.23-3.71.47c-1.14.22-2.28.52-3.16,1.31-1.72,1.54-1.96,3.94-2.1,6.1-.06.96,1.44.96,1.5,0h0Z"/>
      <path class="cls-1" d="M155.01,55.43c-.36-.29-.72-.59-1.02-.94-.12-.13-.2-.25-.32-.46,0-.01-.08-.16-.05-.09s-.03-.08-.03-.09c-.02-.05-.03-.1-.04-.15,0-.04-.03-.17-.02-.07-.01-.11-.01-.22,0-.32,0,.11,0-.05.01-.08.01-.05.03-.1.04-.16,0-.01.06-.17.03-.1s.04-.08.05-.09c.03-.05.05-.09.08-.14.01-.02.1-.15.05-.08.26-.35.6-.51,1-.61.38-.09.74-.06,1.15.07.33.11.68.33.96.61.57.59.76,1.5.49,2.31-.05.14-.14.3-.27.41.03-.03.09-.04-.03.01l-.06.03c.06-.03.05-.03-.03,0,.02,0,.13.01-.07-.01-.07,0-.15-.01-.22-.02-.67-.08-1.33-.16-2-.24-.4-.05-.75.38-.75.75,0,.45.35.7.75.75.72.09,1.45.22,2.18.26s1.36-.38,1.72-1c.65-1.16.51-2.77-.27-3.84s-2.03-1.73-3.33-1.62-2.64.97-2.92,2.36c-.31,1.56.74,2.71,1.86,3.62.31.26.75.31,1.06,0,.26-.26.32-.8,0-1.06h0Z"/>
      <path class="cls-1" d="M164.73,72.92c-.31.08-.67.09-.98,0-.05-.01-.1-.03-.15-.04,0,0-.12-.04-.05-.02.07.03-.07-.04-.09-.04-.04-.02-.08-.04-.12-.07-.03-.02-.2-.14-.1-.06-.08-.07-.15-.14-.22-.22-.01-.01-.1-.13-.05-.06s-.03-.05-.04-.06c-.04-.07-.08-.14-.12-.21-.07-.13-.01-.04,0,0-.01-.04-.03-.09-.04-.13s-.02-.09-.03-.13c-.03-.13,0,.04,0-.06,0-.35.08-.67.23-.95.05-.09.1-.17.15-.25.03-.04.05-.08.08-.12.01-.02.09-.11.02-.02.13-.15.27-.29.41-.42.01-.01.11-.09.02-.02.04-.03.08-.06.12-.09.08-.05.15-.1.23-.14.13-.07.25-.1.38-.1s-.09-.02.02,0-.09-.05.02,0c.04.02.2.13.11.06.07.06.14.13.2.2-.02-.02-.07-.1.01.02.03.05.07.1.1.16.17.29.25.58.26.89,0,.05,0,.1,0,.15,0,.23.02-.06,0,.06-.02.11-.05.21-.08.32,0,.03-.06.13,0,0-.02.05-.05.1-.08.15-.02.04-.04.08-.07.11-.02.02-.11.14-.02.04-.06.07-.12.13-.18.19-.03.03-.07.06-.1.09.11-.09-.01,0-.04.02-.04.02-.28.13-.15.09-.11.04-.21.07-.32.09-.39.07-.64.56-.52.92.13.41.51.6.92.52,1.09-.2,1.94-1.18,2.1-2.26.17-1.15-.32-2.59-1.41-3.14-1.24-.62-2.54.35-3.24,1.33s-.93,2.31-.28,3.35c.74,1.2,2.19,1.61,3.51,1.29.38-.09.65-.54.52-.92s-.51-.62-.92-.52h0Z"/>
      <path class="cls-1" d="M102.83,35.16c-8.11,3.95-12.37,12.5-19.73,17.43-.63.42-.37,1.34.38,1.4,12.92.95,25.87,1.36,38.82,1.22.31,0,.66-.23.72-.55.22-1.06-.08-1.96-.67-2.86-.83-1.25-1.79-2.41-2.69-3.61-1.89-2.51-3.77-5.03-5.66-7.54-2.35-3.11-6.72-8.57-11.22-6.08-.84.47-.09,1.76.76,1.3,2.08-1.15,4.46.47,5.97,1.86s2.76,3.1,4,4.75c1.42,1.89,2.85,3.79,4.27,5.68.69.91,1.37,1.83,2.06,2.74s1.99,2.14,1.74,3.35l.72-.55c-12.95.14-25.9-.27-38.82-1.22l.38,1.4c7.35-4.92,11.66-13.5,19.73-17.43.87-.42.11-1.72-.76-1.3h0Z"/>
      <path class="cls-1" d="M103.6,61.78c.04,3.58-.17,7.16-.67,10.71-.16,1.14-.97,3.2.72,3.46,1.79.28,3.61.43,5.41.64.85.1,1.71.2,2.56.3.7.08,1.51.3,2.2.08,1.43-.46,1.31-2.46,1.4-3.66.14-1.7.17-3.42.1-5.12s-.11-3.53-.53-5.16c-.2-.79-.79-.92-1.52-.97-.96-.06-1.92-.1-2.87-.15-2.11-.11-4.22-.21-6.32-.32-.96-.05-.96,1.45,0,1.5,3.02.15,6.04.31,9.05.46.19,0,.5.18.32-.05-.19-.26-.06.15-.06.2,0,.38.12.8.16,1.17.09.73.16,1.47.21,2.21.1,1.47.12,2.95.07,4.43-.02.65-.06,1.29-.12,1.94-.03.37-.07.74-.11,1.1-.03.24,0,.79-.21.96-.32.25-1.41-.07-1.77-.11-.76-.09-1.52-.18-2.28-.27-1.52-.18-3.04-.36-4.56-.54l-.43-.05-.14-.02c-.29-.11-.36-.08-.21.11l.07.15c.02-.12.04-.24.06-.37.02-.14.05-.28.07-.42.12-.76.23-1.52.32-2.28.42-3.29.6-6.61.57-9.93-.01-.96-1.51-.97-1.5,0h0Z"/>
      <path class="cls-1" d="M103.61,69.45c3.58.16,7.16.31,10.74.47.97.04.96-1.46,0-1.5-3.58-.16-7.16-.31-10.74-.47-.97-.04-.96,1.46,0,1.5h0Z"/>
      <path class="cls-1" d="M109.09,62.2c-.84,4.57,1.26,9.2.09,13.71-.24.93,1.2,1.33,1.45.4,1.19-4.56-.93-9.14-.09-13.71.17-.94-1.27-1.35-1.45-.4h0Z"/>
      <path class="cls-1" d="M81.3,77.09c3.16-.7,6.35-1.21,9.57-1.53l-.75-.75c.82,7.42,1.09,14.89.82,22.36-.04.97,1.47.96,1.5,0,.27-7.46,0-14.93-.82-22.36-.04-.37-.31-.79-.75-.75-3.35.32-6.68.85-9.97,1.58-.94.21-.54,1.66.4,1.45h0Z"/>
      <path class="cls-1" d="M86.44,83.07c.21.04.44.06.65-.02s.38-.17.53-.32c.07-.07.13-.15.18-.24.04-.07.07-.15.1-.22,0-.02.02-.05.02-.07.02-.07.03-.19.03-.22,0-.14-.04-.26-.1-.38-.01-.02-.02-.05-.04-.07-.06-.09-.13-.18-.2-.26s-.17-.14-.25-.21c-.04-.03-.08-.06-.13-.08-.09-.04-.19-.09-.3-.11-.08-.02-.17-.03-.25-.04-.03,0-.05,0-.08,0-.21.01-.42.06-.6.17s-.31.25-.41.43-.17.4-.16.61c0,.1.01.21.05.31.06.18.12.28.25.43l.15.12c.09.05.18.08.28.09.07.02.13.02.2,0,.1,0,.19-.03.28-.09.16-.11.33-.23.46-.38.09-.09.16-.2.24-.3.04-.06.08-.12.12-.18.1-.17.13-.39.08-.58-.02-.1-.07-.18-.13-.26-.05-.08-.12-.15-.21-.19-.17-.09-.38-.14-.58-.08s-.35.17-.45.34c-.04.07-.09.14-.14.2l.12-.15c-.09.12-.2.22-.31.31l.15-.12s-.07.05-.1.07l.91.12s-.01-.02-.02-.03l.12.15s-.03-.04-.04-.06l.08.18s-.02-.05-.02-.08l.03.2s0-.07,0-.11l-.03.2s.02-.08.03-.11l-.08.18s.04-.07.06-.1l-.12.15s.05-.06.09-.09l-.15.12s.06-.04.09-.05l-.18.08s.07-.02.1-.03l-.2.03s.09,0,.13,0l-.2-.03s.1.02.14.04l-.18-.08c.06.02.11.05.15.09l-.15-.12s.09.08.13.13l-.12-.15s.06.08.08.13l-.08-.58s-.01.07-.03.1l.08-.18s-.03.07-.06.1l.12-.15s-.06.07-.1.1l.15-.12s-.07.05-.11.06l.18-.08s-.08.03-.12.03l.2-.03s-.08,0-.11,0l.2.03s-.02,0-.04,0c-.1-.03-.2-.04-.3-.01-.1,0-.19.03-.28.09-.09.05-.16.11-.21.19-.07.07-.11.16-.13.26-.04.19-.03.41.08.58.1.16.26.31.45.34h0Z"/>
      <path class="cls-1" d="M121.54,54.33c.88,15.62.64,31.29-.71,46.88-.08.96,1.42.96,1.5,0,1.35-15.59,1.59-31.25.71-46.88-.05-.96-1.55-.97-1.5,0h0Z"/>
      <path class="cls-1" d="M81.85,52.78c-.64,7.24-1.08,14.49-1.31,21.75s-.64,14.56.19,21.7c.11.95,1.61.96,1.5,0-.83-7.14-.42-14.53-.19-21.7s.67-14.51,1.31-21.75c.08-.96-1.42-.96-1.5,0h0Z"/>
      <path class="cls-1" d="M40.99,14.37c-.62.66-1.1,1.47-1.33,2.35-.12.46-.14.99.14,1.4.34.49.9.62,1.47.56.49-.05.98-.11,1.47-.17.25-.03.51-.04.75-.1.3-.08.56-.29.71-.56.22-.42.17-.92.02-1.35-.07-.21-.15-.42-.22-.63-.09-.24-.17-.5-.31-.71-.29-.44-.74-.74-1.25-.82s-.99-.04-1.49.04c-.17.03-.36.2-.45.34-.09.16-.13.4-.08.58.14.42.51.59.92.52.04,0,.07-.01.11-.02.06,0,.15,0-.05,0,.06,0,.12-.01.18-.02.15-.01.3-.02.44-.01.04,0,.07,0,.11,0,.1,0-.2-.04-.05,0,.05.01.11.02.16.04.03,0,.06.02.1.03.09.02-.17-.09-.05-.02.02.01.05.03.07.04.12.06-.11-.11-.02-.02.02.02.05.05.07.07.07.06-.09-.16-.02-.02.02.04.1.13.1.18l-.04-.08s.02.05.03.07c.02.04.03.08.04.12.03.1.07.19.1.29.06.16.12.32.17.48.02.07.04.13.05.2.02.07-.03.07,0-.08,0,.04,0,.08,0,.12,0,.03-.01.16,0,.02s-.01-.01-.01,0c0-.11.08-.18.19-.25-.11.07.13-.02.04-.01-.07,0-.13.07.03,0-.09.03-.21.02-.31.03-.39.04-.78.09-1.16.13-.17.02-.34.04-.51.06-.02,0-.23-.01-.24,0,.03-.03.17.07.06,0-.14-.08.14.1.01,0,.15.1.08.07.05.03l.07.09c-.03-.05-.03-.05,0,.02.03.13,0,0,0-.03-.04-.11.02.06,0,.07.01-.02.01-.19,0-.22,0,.01-.03.19,0,.07,0-.04.02-.08.03-.13.02-.08.05-.17.07-.25.03-.08.05-.23.11-.29,0,.01-.07.16-.01.04.02-.05.04-.09.07-.14.04-.08.08-.16.12-.23.09-.17.19-.33.31-.48.02-.03.04-.06.06-.08-.13.14-.02.03.01-.01.07-.08.14-.16.21-.23.27-.29.3-.78,0-1.06s-.77-.3-1.06,0h0Z"/>
      <path class="cls-1" d="M39.11,21.05c.98-.01,1.95-.12,2.91-.26.48-.07.95-.14,1.42-.22.11-.02.23-.04.34-.05s.03-.01.02,0h.04c.21,0,.08-.11-.39-.31,0,.08.05.16.06.24-.01-.11,0,.03,0,.04,0,.05,0,.11,0,.16,0,.23-.16.61-.32.83-.2.28-.46.48-.77.66-.35.21-.59.31-1.01.41-.18.04-.3.06-.51.04-.14,0-.23-.04-.37-.12-.03-.02-.06-.04-.09-.06.09.06-.03-.03-.05-.05-.03-.03-.05-.05-.08-.08,0,0-.12-.15-.08-.1.04.06-.03-.05-.03-.05-.03-.05-.06-.11-.09-.16-.02-.03-.03-.07-.05-.1.05.11-.02-.05-.02-.07-.14-.44-.13-.88-.06-1.37.05-.4-.38-.75-.75-.75-.45,0-.7.35-.75.75-.14,1.09.06,2.32.94,3.06.99.85,2.26.65,3.37.15.98-.44,1.83-1.25,2.13-2.31.15-.55.18-1.25-.1-1.77-.38-.72-1.15-.52-1.8-.42-1.29.2-2.57.4-3.89.42-.41,0-.75.34-.75.75s.34.75.75.75h0Z"/>
      <path class="cls-1" d="M48.26,12.84s-.01,0-.02-.01l.15.12s-.07-.07-.11-.11l.12.15s-.06-.09-.08-.14l.08.18c-.02-.06-.04-.12-.05-.18l.03.2c0-.06,0-.11,0-.17l-.03.2c0-.05.02-.1.04-.15l-.08.18s.04-.08.07-.12l-.12.15s.05-.06.09-.08l-.15.12s.07-.05.11-.06l-.18.08s.09-.03.14-.04l-.2.03c.05,0,.11,0,.16,0l-.2-.03c.05,0,.1.02.15.04l-.18-.08s.08.04.12.07l-.15-.12s.06.05.08.08l-.12-.15s.04.06.06.1l-.08-.18s.02.06.03.1l-.03-.2s0,.07,0,.11l.03-.2s-.02.09-.04.13l.08-.18s-.04.09-.07.13l.12-.15s-.06.07-.1.1l.15-.12s-.07.05-.12.07l.18-.08s-.06.02-.1.03l.2-.03s-.07,0-.1,0l.2.03s-.02,0-.03,0c-.1-.03-.2-.04-.3-.01-.1,0-.19.03-.28.09-.09.05-.16.11-.21.19-.07.07-.11.16-.13.26-.04.19-.03.41.08.58.1.16.26.31.45.34.09.02.18.03.27.04s.18-.02.27-.03c.03,0,.05-.01.08-.02.08-.03.17-.06.24-.11.05-.03.09-.07.14-.1.05-.04.09-.07.13-.11.08-.08.15-.18.21-.28s.11-.21.13-.32c.02-.09.03-.18.04-.27s-.02-.2-.03-.28c-.02-.11-.07-.22-.12-.32-.03-.05-.06-.09-.1-.13s-.07-.09-.11-.13c-.16-.15-.36-.27-.58-.32-.09-.02-.18-.03-.27-.04-.03,0-.05,0-.08,0-.09,0-.18.02-.26.03-.03,0-.05,0-.08.02-.05.01-.1.04-.15.06s-.11.04-.16.07c-.07.04-.14.1-.2.15-.02.02-.04.04-.06.06-.07.08-.15.18-.2.28s-.1.21-.12.33c-.02.12-.04.25-.03.38s.02.25.07.37.09.23.16.33c.05.07.11.15.17.22s.14.12.22.17c.09.05.18.08.28.09.1.02.2.02.3-.01.1-.02.18-.07.26-.13.08-.05.15-.12.19-.21.09-.17.14-.38.08-.58l-.08-.18c-.07-.11-.16-.2-.27-.27h0Z"/>
      <path class="cls-1" d="M37.09,14.29c-.1,0-.19,0-.28,0l.2.03c-.09-.01-.17-.03-.25-.07l.18.08c-.06-.03-.12-.06-.17-.1l.15.12s-.08-.07-.11-.1l.12.15s-.06-.09-.08-.13l.08.18s-.03-.1-.04-.15l.03.2c0-.05,0-.1,0-.15l-.03.2s.02-.08.03-.11l-.08.18s.03-.06.05-.09l-.12.15s.04-.05.07-.07l-.15.12s.07-.04.1-.06l-.18.08s.07-.02.11-.03l-.2.03c.06,0,.12,0,.18,0l-.2-.03c.07.01.13.03.19.05l-.18-.08c.06.03.11.06.16.1l-.15-.12c.05.04.1.08.14.13l-.12-.15c.04.05.07.1.1.16l-.08-.18s.03.09.04.14l-.03-.2s0,.08,0,.13l.03-.2s-.02.08-.03.12l.08-.18s-.04.07-.07.11l.12-.15s-.06.06-.09.09l.15-.12s-.09.06-.14.08l.18-.08c-.06.03-.13.04-.2.05l.2-.03c-.07,0-.13,0-.2,0l.2.03c-.09-.01-.18-.04-.26-.07l.18.08c-.13-.05-.25-.12-.36-.2-.15-.11-.4-.12-.58-.08s-.36.18-.45.34c-.09.17-.14.38-.08.58s.18.33.34.45c.09.06.17.11.27.16.14.07.29.14.45.17.28.07.6.08.88-.03.2-.08.35-.16.51-.3.07-.06.12-.14.18-.22.03-.03.05-.07.07-.11.04-.09.09-.18.11-.28s.04-.21.03-.31c0-.22-.06-.38-.15-.58-.06-.12-.15-.24-.24-.34-.03-.03-.06-.06-.09-.09-.08-.06-.16-.13-.25-.18s-.18-.09-.27-.12c-.04-.02-.09-.03-.14-.04-.23-.05-.4-.05-.63,0-.17.03-.32.12-.46.22-.13.1-.24.22-.31.37-.08.19-.14.36-.14.57,0,.1.02.2.03.29,0,.04.02.07.03.11.07.2.16.37.31.52.07.08.16.14.25.2.04.03.08.05.13.07.15.07.29.13.45.15s.33.05.49.04c.2-.01.39-.07.53-.22.13-.13.23-.34.22-.53s-.07-.4-.22-.53-.33-.23-.53-.22h0Z"/>
      <path class="cls-1" d="M38.72,6.36c-.05-.76-.12-1.55.07-2.29.18-.68.61-1.25,1.05-1.79.22-.28.42-.56.78-.63s.79-.05,1.17-.07c.79-.04,1.59-.07,2.38-.07s1.58.03,2.37.11c.41.04.82.11,1.22.19.17.03.34.07.5.11.1.02.2.05.3.08-.17-.3-.24-.35-.21-.14-.05.13.02.38.02.53,0,.21.01.43.02.64,0,.43.01.86.01,1.28,0,.86-.03,1.71-.07,2.57-.05.96,1.45.96,1.5,0,.05-1.07.08-2.14.07-3.21,0-.5-.02-1-.03-1.5-.01-.41,0-.84-.24-1.18s-.66-.45-1.07-.55c-.53-.13-1.07-.21-1.62-.28C46,.04,45.03,0,44.07,0s-1.94.05-2.9.11c-1.04.06-1.72.28-2.39,1.11-.56.69-1.11,1.41-1.38,2.27-.29.92-.24,1.92-.18,2.87s1.57.97,1.5,0h0Z"/>
      <path class="cls-1" d="M40.59,2.14c2.48.05,4.97.09,7.45.14.97.02.96-1.47,0-1.5-2.85-.08-5.71,0-8.55.24-.96.08-.97,1.45,0,1.5,1.66.09,3.32.18,4.98.27l2.49.13c.71.04,1.35.11,1.93-.38l-1.25-.33c.14.75.27,1.51.41,2.26.06.34.12.68.19,1.03.02.11.03.36.08.47.07.15-.09.15.13,0l1.13.65c-.12-1.57-.33-3.13-.61-4.68-.16-.88-1.41-.59-1.47.2-.1,1.31-.11,2.63-.03,3.94h1.5c-.12-1.43-.39-2.84-.83-4.21-.2-.63-1.34-.79-1.45,0-.18,1.34-.24,2.68-.13,4.03.08.96,1.43.97,1.5,0,.09-1.27-.16-2.49-.69-3.65-.28-.62-1.2-.39-1.37.18-.2.67-.29,1.36-.29,2.05,0,.98,1.43.95,1.5,0,.06-.73,0-1.45-.12-2.18s-1.28-.68-1.45,0c-.23.92-.46,1.84-.69,2.76l1.47.2c-.01-1.24-.34-2.44-.98-3.5-.35-.59-1.15-.41-1.37.18-.27.74-.5,1.48-.7,2.24l1.47.2c.02-.52.04-1.04.06-1.56.03-.89-1.2-.96-1.47-.2l-.62,1.72h1.45c-.33-1.11-.78-2.47-1.93-2.99-1.62-.73-2.03,1.44-2.26,2.55l1.47.2c.06-.61.09-1.22.08-1.84,0-.88-1.2-.98-1.47-.2-.22.62-.44,1.24-.65,1.85l1.47.2c.03-.66-.08-1.32-.31-1.94-.28-.72-1.16-.69-1.45,0l-.59,1.41,1.45.4.26-.96c.21-.81-.95-1.34-1.37-.58-.28.51-.51,1.04-.69,1.59l1.47.2c.04-.6.22-1.14.53-1.66.49-.84-.77-1.56-1.3-.76-.73,1.12-1.12,2.4-1.15,3.74,0,.44.49.91.95.72,1.63-.66,3.38-.23,5.07-.16.84.03,1.68-.13,2.45.28.66.35,1.26.8,2.01.91.93.15,1.35-1.18.4-1.45-1.55-.43-3.15-.68-4.75-.74-.79-.03-1.57-.01-2.36.05-.39.03-.79.08-1.18.13-.27.04-.72.19-.97.04l.27,1.03c.06-.13.58-.2.78-.25.44-.12.87-.24,1.31-.35.84-.23,1.68-.45,2.51-.68s.65-1.46-.2-1.47c-1.6-.03-3.19.07-4.78.28l.53,1.28c.57-.55,1.68-.58,2.42-.69,1-.16,2.01-.25,3.03-.29s.96-1.45,0-1.5c-1.77-.09-3.53.08-5.25.47l.73,1.25c1.1-.88,2.5-1.25,3.83-1.61.85-.23.62-1.41-.2-1.47-1.39-.11-2.78-.12-4.18-.02-.95.06-.98,1.49,0,1.5,1.44,0,2.89.02,4.33.03l-.2-1.47c-1.07.27-2.14.44-3.24.48-.96.04-.97,1.52,0,1.5,1.72-.03,3.43-.07,5.15-.1l-.2-1.47c-1.19.18-2.39.28-3.59.3-.96.02-.97,1.5,0,1.5.88,0,1.76,0,2.64,0l-.2-1.47c-1.02.43-2.07.74-3.16.93-.89.16-.58,1.4.2,1.47,1.58.14,3.16.21,4.74.2l-.2-1.47c-.32.06-.62.06-.94.03l.72.55c-.09-.24.46-.83.6-1.04.15-.22.3-.44.46-.65.01-.02.15-.17.14-.19-.4-.03-.51,0-.34.09.03.01.06.04.08.06.16.24.31.39.34.7.03.28-.04.61-.33.68-.22.05-.54-.02-.76-.04-.28-.02-.55-.04-.83-.05-.55-.04-1.11-.07-1.66-.11-1.07-.07-2.15-.14-3.22-.21-.13,0-.66-.12-.73-.05h-.04c.06.19.12.39.19.58,0,0,.26-.12.25-.11.47-.19.99-.3,1.48-.4.47-.09.94-.15,1.42-.18.21-.01.42-.03.63-.01.06,0,.19,0,.24.04-.08-.06-.02-.08-.09-.04-.72.4-1.83.2-2.66.19-.28,0-.55,0-.83,0-.06,0-.17-.02-.22,0-.34.08-.33.85,0,.88.2.01.45-.07.65-.1.3-.04.59-.07.89-.1.6-.05,1.19-.08,1.79-.09.3,0,.6,0,.9,0,.16,0,.65-.06.76.04,0,0,.04.23.05.31,0,.03-.01.18,0,.2.01.08.04.05.07-.09.12-.15.08-.18-.13-.11-.24-.03-.54.05-.78.07-.32.03-.65.06-.97.09-.95.09-.96,1.59,0,1.5.45-.04.91-.08,1.36-.12.43-.04.92-.02,1.31-.19.71-.32.71-1.21.56-1.88-.18-.85-.82-1.23-1.64-1.28-.93-.06-1.87-.04-2.79.03-.43.03-.86.07-1.29.12s-.92.07-1.33.22c-.78.3-.96,1.32-.22,1.79.66.42,1.73.23,2.48.24.84,0,1.82.14,2.6-.26.66-.34,1.13-1.12.92-1.87-.22-.81-1.02-1.07-1.78-1.07-.89,0-1.81.12-2.68.33-.73.17-1.73.36-2.19,1.02s-.13,1.51.65,1.71c.85.21,1.85.15,2.72.21.97.06,1.94.13,2.91.19.84.05,1.93.31,2.73-.03,1.6-.69,1.33-3.06.12-3.96-.35-.26-.78-.42-1.22-.26s-.71.64-.98,1.02c-.51.71-1.38,1.66-1.04,2.6.13.34.37.51.72.55.46.05.89.01,1.34-.08.84-.17.63-1.48-.2-1.47-1.58,0-3.17-.06-4.74-.2l.2,1.47c1.09-.19,2.14-.5,3.16-.93.73-.3.72-1.47-.2-1.47s-1.76,0-2.64,0v1.5c1.34-.03,2.67-.15,3.99-.35.84-.13.63-1.49-.2-1.47-1.72.03-3.43.07-5.15.1v1.5c1.23-.05,2.45-.23,3.64-.54.82-.21.64-1.47-.2-1.47-1.44,0-2.89-.02-4.33-.03v1.5c1.39-.09,2.79-.09,4.18.02l-.2-1.47c-1.61.44-3.18.94-4.5,2-.62.5.06,1.41.73,1.25,1.6-.37,3.22-.5,4.85-.42v-1.5c-1.21.05-2.42.18-3.62.37-1.01.17-2.11.3-2.88,1.05-.42.41-.14,1.37.53,1.28,1.59-.21,3.18-.3,4.78-.28l-.2-1.47c-1.04.28-2.08.56-3.12.84-.76.21-2.01.31-2.38,1.13-.17.38-.11.79.27,1.03.7.43,1.46.2,2.22.1.81-.1,1.63-.14,2.45-.14,1.68.01,3.33.26,4.94.7l.4-1.45c-.77-.12-1.37-.66-2.08-.96-.9-.38-1.83-.24-2.78-.28-1.83-.07-3.71-.5-5.47.22l.95.72c.02-1.08.35-2.08.94-2.98l-1.3-.76c-.44.75-.67,1.55-.73,2.42s1.22.97,1.47.2c.14-.43.32-.83.54-1.23l-1.37-.58-.26.96c-.25.96,1.09,1.26,1.45.4l.59-1.41h-1.45c.19.51.28,1,.26,1.54-.03.89,1.2.96,1.47.2.22-.62.44-1.24.65-1.85l-1.47-.2c0,.62-.02,1.23-.08,1.84-.08.84,1.3,1.02,1.47.2.09-.43.2-.85.32-1.27,0,0,.16-.45.16-.45-.33.05-.39.11-.18.2.05.04.1.08.14.13.49.47.67,1.2.85,1.83.22.74,1.2.68,1.45,0l.62-1.72-1.47-.2c-.02.52-.04,1.04-.06,1.56-.03.85,1.26,1.02,1.47.2.19-.76.43-1.51.7-2.24l-1.37.18c.5.85.76,1.76.77,2.75,0,.83,1.26,1.03,1.47.2.23-.92.46-1.84.69-2.76h-1.45c.1.59.11,1.18.06,1.78h1.5c0-.57.08-1.11.24-1.65l-1.37.18c.41.91.55,1.89.48,2.89h1.5c-.1-1.21-.08-2.43.08-3.63h-1.45c.4,1.24.66,2.51.77,3.81.08.95,1.56.97,1.5,0-.08-1.32-.07-2.63.03-3.94l-1.47.2c.26,1.42.44,2.84.56,4.28.04.5.63,1.02,1.13.65.79-.58.62-1.4.47-2.26-.19-1.06-.38-2.12-.58-3.18-.11-.6-.87-.66-1.25-.33,0,0-.52-.04-.66-.05l-1.14-.06-2.18-.12-4.36-.24v1.5c2.84-.24,5.7-.32,8.55-.24V.78c-2.48-.05-4.97-.09-7.45-.14-.97-.02-.97,1.48,0,1.5h0Z"/>
      <path class="cls-1" d="M50.79,4.99c4.94.36,10.12,2.59,12.72,7,.49.83,1.79.08,1.3-.76-2.88-4.88-8.54-7.34-14.01-7.74-.96-.07-.96,1.43,0,1.5h0Z"/>
      <path class="cls-1" d="M49.3,3.71c3.36-.27,6.85-.77,10.18-.02,2.67.61,6.12,2.29,6.6,5.3.15.95,1.6.55,1.45-.4-.52-3.23-3.97-5.31-6.85-6.14-3.71-1.07-7.61-.55-11.39-.24-.96.08-.96,1.58,0,1.5h0Z"/>
      <path class="cls-1" d="M38.16,2.77c-3.07.35-6.35,1.26-8.88,3.11-1.19.87-2.08,1.95-2.64,3.31-.63,1.53-1.05,3.15-1.54,4.72-.29.92,1.16,1.32,1.45.4.82-2.59,1.29-5.58,3.65-7.25s5.21-2.48,7.97-2.8c.95-.11.96-1.61,0-1.5h0Z"/>
      <path class="cls-1" d="M151.25,15.32c1.74-.86,3.74-.98,5.64-1.16,2.01-.19,4.06-.34,6.07-.06l.2-1.47c-2.28.17-4.56.4-6.84.66-2.11.25-4.42.3-6.42,1.06-.75.29-.7,1.48.2,1.47,2.42-.01,4.84-.02,7.26-.04,1.18,0,2.36,0,3.55-.04,1.01-.03,2.07-.02,3.02-.38.54-.21.82-1.07.18-1.37-1.24-.59-2.76-.51-4.11-.47-1.58.05-3.15.22-4.72.4-.94.1-.99,1.49,0,1.5,1.09,0,2.18.01,3.28.02v-1.5c-2.03.19-4.09.06-6.11.33-1.47.2-3.62.61-3.97,2.34-.14.7.7,1.3,1.25.73.39-.4.81-.69,1.35-.88l-.95-.72c-.07.73-.36,1.37-.84,1.91l1.18.91c.41-.77.83-1.54,1.24-2.32l-1.37-.58c-.2.6-.49,1.11-.92,1.57l1.28.53c-.04-.33-.14-.76.02-1.07.12-.25.47-.46.67-.64.53-.44,1.04-.91,1.59-1.33,1.02-.79,2.68-.65,3.91-.77.74-.07,1.48-.14,2.22-.21.62-.06,1.56-.33,2.12-.03.52.28.99.92,1.35,1.38.47.59.88,1.22,1.29,1.84.44.66,1.3.34,1.4-.38.15-1.15.24-3.02-.75-3.86-.49-.41-1.19-.51-1.79-.63-.72-.14-1.45-.23-2.19-.17s-1.41.24-2.11.38c-.85.17-1.69.21-2.55.2-1.49-.03-3.33-.31-4.64.56-.66.44-.26,1.68.58,1.37,1.46-.54,2.98-.95,4.53-1.15.76-.1,1.52-.15,2.29-.16s1.64-.09,2.33.2l.18-1.37c-3.55.59-7.9,1.09-10.54,3.81-.57.59.2,1.7.91,1.18.88-.65,1.85-1.07,2.95-1.18l-.2-1.47c-1.28.44-2.69.78-3.8,1.57-.66.48-.29,1.6.58,1.37,1.09-.28,2.19-.5,3.31-.65l-.4-1.45c-.75.3-1.52.51-2.33.58l.38,1.4c.41-.18.84-.29,1.29-.33l-.38-1.4c-.73.45-1.5.78-2.33.99l.58,1.37c.57-.32,1.16-.61,1.77-.87l-.91-1.18c-.12.1-.25.15-.41.16l.58,1.37c1.94-1.3,4.17-1.95,6.51-1.9l-.38-1.4c-1.52.76-3.33.49-4.93,1.01-.79.26-.67,1.47.2,1.47,1.29,0,2.57-.07,3.84-.23l-.2-1.47c-.94.37-2.09.28-3.09.33v1.5c1.65-.19,3.31-.38,4.97-.5.78-.06,1.58-.14,2.36-.07.65.06,1.69.24,2.19.71l.33-1.25c-.13.05-.26.1-.39.15l.58.08c-1.54-.78-3.21-.76-4.89-.64l.2,1.47c.85-.19,1.7-.29,2.57-.28.69,0,1.59.32,2.24.03.52-.23.7-.8.43-1.29-.17-.3-.39-.52-.51-.87-.12-.37-.18-.76-.24-1.14l-1.37.58c.39.69.69,1.4.92,2.16.28.92,1.73.53,1.45-.4-.26-.88-.62-1.72-1.07-2.52s-1.49-.21-1.37.58c.14.93.39,1.65.93,2.42l-.08-.58-.02.11.34-.45c-.13.09-.77-.09-.96-.11-.42-.03-.84-.03-1.26-.01-.81.03-1.62.15-2.41.33s-.65,1.53.2,1.47c.9-.06,1.83-.13,2.73,0s1.51.7,2.37.36c.5-.2.78-.83.33-1.25-1.18-1.12-3.17-1.22-4.7-1.13-1.96.11-3.92.33-5.87.56-.93.11-.98,1.55,0,1.5,1.13-.06,2.42.03,3.49-.39.71-.28.71-1.59-.2-1.47-1.28.16-2.56.24-3.84.23l.2,1.47c1.74-.57,3.61-.32,5.29-1.16.69-.35.33-1.38-.38-1.4-2.58-.06-5.12.66-7.27,2.1-.72.48-.26,1.52.58,1.37.43-.08.74-.27,1.07-.54.71-.6-.2-1.48-.91-1.18-.61.26-1.19.55-1.77.87-.75.42-.24,1.58.58,1.37.95-.25,1.85-.63,2.69-1.15.59-.36.4-1.47-.38-1.4-.73.07-1.38.24-2.04.54s-.34,1.46.38,1.4c.95-.08,1.84-.28,2.72-.64s.56-1.58-.4-1.45c-1.12.15-2.22.37-3.31.65l.58,1.37c1.01-.72,2.28-1.02,3.44-1.42.75-.26.69-1.56-.2-1.47-1.36.13-2.61.56-3.71,1.38l.91,1.18c1.18-1.22,2.78-1.83,4.38-2.29,1.8-.52,3.65-.83,5.49-1.13.6-.1.76-1.12.18-1.37-1.53-.65-3.44-.46-5.06-.28-1.8.2-3.55.61-5.25,1.24l.58,1.37c1.01-.67,2.58-.39,3.73-.36,1.25.03,2.43-.11,3.65-.36s2.36-.26,3.61.04c.58.14.71.34.8.9.11.67.08,1.34,0,2.01l1.4-.38c-.87-1.31-1.92-3.2-3.41-3.87-.78-.35-1.69-.15-2.51-.08-.99.09-1.98.19-2.97.28-.86.09-1.75.14-2.6.28s-1.38.54-2,1.06c-.67.56-1.47,1.09-2.04,1.76-.52.62-.55,1.38-.46,2.15.07.59.8,1.06,1.28.53.6-.66,1.02-1.39,1.3-2.24s-.97-1.33-1.37-.58-.83,1.54-1.24,2.32c-.39.72.59,1.57,1.18.91.76-.86,1.17-1.83,1.28-2.97.04-.47-.52-.87-.95-.72-.78.27-1.44.67-2.01,1.26l1.25.73c.26-1.27,2.91-1.32,3.9-1.38,1.58-.1,3.16-.04,4.74-.19.94-.09.98-1.49,0-1.5-1.09,0-2.18-.01-3.28-.02v1.5c1.37-.15,2.75-.31,4.13-.37.69-.03,1.38-.05,2.07-.02.62.02,1.31,0,1.88.26l.18-1.37c-.96.37-2.05.32-3.06.34-1.14.02-2.27.02-3.41.03-2.32.01-4.64.02-6.96.03l.2,1.47c1.97-.75,4.24-.8,6.32-1.04s4.36-.46,6.54-.63c.78-.06,1.09-1.35.2-1.47-2.26-.31-4.5-.19-6.76.04-2.09.21-4.19.38-6.1,1.33-.86.43-.11,1.72.76,1.3h0Z"/>
      <path class="cls-1" d="M164.46,22.09c-.17-.31-.38-.58-.67-.79-.4-.28-.91-.26-1.33-.05-.15.08-.3.2-.42.33-.17.2-.28.4-.38.64-.08.19-.11.38-.12.58s0,.41.07.6c.16.46.48.8.94.96.38.14.86.05,1.18-.18.29-.21.53-.48.69-.81.17-.36.33-.76.34-1.17,0-.31-.12-.63-.34-.85-.18-.17-.41-.29-.64-.36-.43-.13-.9-.13-1.33,0-.38.1-.65.54-.52.92s.52.64.92.52c.08-.02.16-.04.24-.05l-.2.03c.14-.02.28-.02.42,0l-.2-.03c.13.02.26.05.38.1l-.18-.08c.05.02.1.05.15.08l-.15-.12s.07.06.1.1l-.12-.15s.03.05.04.07l-.08-.18s.03.08.03.13l-.03-.2s0,.09,0,.14l.03-.2c-.03.2-.1.39-.17.57l.08-.18c-.07.16-.15.32-.26.46l.12-.15c-.06.08-.13.15-.2.21l.15-.12c-.06.05-.12.08-.19.11l.18-.08c-.05.02-.1.03-.16.04l.2-.03s-.09,0-.14,0l.2.03c-.06,0-.11-.02-.16-.04l.18.08c-.05-.02-.1-.05-.15-.09l.15.12c-.05-.04-.1-.09-.14-.14l.12.15s-.06-.1-.09-.15l.08.18c-.03-.07-.05-.15-.06-.23l.03.2c-.01-.09,0-.18,0-.27l-.03.2c.02-.11.05-.22.09-.33l-.08.18c.04-.09.09-.18.15-.27l-.12.15c.06-.07.12-.13.19-.19l-.15.12s.1-.06.15-.09l-.18.08s.09-.03.14-.04l-.2.03s.09,0,.14,0l-.2-.03s.09.02.13.04l-.18-.08s.09.05.14.08l-.15-.12c.07.06.14.13.19.2l-.12-.15c.07.1.14.21.2.31.19.34.69.48,1.03.27s.47-.66.27-1.03h0Z"/>
      <path class="cls-1" d="M152.56,21.3c-.19.07-.37.16-.51.32s-.24.33-.3.53c-.11.38-.03.76.13,1.11.12.25.3.49.48.7.26.31.65.45,1.05.46.31,0,.63-.04.92-.12.15-.04.31-.09.44-.18.18-.13.31-.28.38-.5.03-.11.04-.22.05-.34.01-.26.03-.53.01-.79-.02-.31-.05-.64-.17-.93-.08-.2-.17-.37-.33-.52s-.35-.25-.56-.29c-.32-.06-.63-.03-.94.05-.54.14-1.06.43-1.37.91-.16.26-.25.6-.22.91.04.4.19.74.44,1.04.18.21.42.39.67.5.14.06.29.13.44.17.33.09.68.04.93-.2.13-.13.22-.3.32-.46.08-.13.16-.26.24-.39.22-.36.36-.8.23-1.22-.08-.27-.24-.5-.48-.64-.35-.2-.79-.12-1.07.16-.16.17-.27.37-.35.59-.06.18-.06.38-.08.58l.03-.2s-.01.07-.03.11l.08-.18s-.02.03-.03.05l.12-.15s-.04.04-.06.06l.15-.12s-.03.02-.05.03l.18-.08s-.03.01-.05.01l.2-.03h-.03c.07,0,.13.02.2.03h-.03c.06.02.12.04.18.07h-.03c-.19-.09-.37-.14-.58-.09-.17.05-.36.18-.45.34-.09.17-.14.38-.08.58.06.17.17.37.34.45.23.1.43.16.68.09.17-.05.34-.15.46-.28.12-.14.22-.3.25-.48.03-.15.03-.3.05-.44l-.03.2c.01-.07.03-.13.05-.2l-.08.18c.03-.06.06-.12.1-.18l-.12.15s.04-.05.07-.07l-.15.12.03-.02-.18.08h.03c-.07,0-.13,0-.2.02h.03c-.07,0-.13-.02-.2-.03h.03c-.06-.02-.12-.04-.18-.07.02,0,.03.02.05.03l-.15-.12s.03.03.04.04l-.12-.15s.03.05.05.08l-.08-.18s.03.08.03.12l-.03-.2c0,.05,0,.11,0,.16l.03-.2c-.01.06-.03.11-.05.17l.08-.18c-.07.16-.16.3-.25.44s-.18.3-.28.44l.12-.15s-.02.03-.04.04l.15-.12h-.02c.06-.01.12-.04.18-.06h-.03c.07,0,.13,0,.2-.01-.02,0-.05,0-.07,0l.2.03c-.1-.02-.2-.06-.3-.1l.18.08c-.13-.06-.25-.12-.36-.21l.15.12c-.08-.06-.15-.14-.22-.22l.12.15c-.05-.07-.1-.15-.13-.23l.08.18c-.03-.08-.06-.17-.07-.26l.03.2c0-.08,0-.15,0-.23l-.03.2c.01-.06.03-.12.05-.18l-.08.18c.03-.07.07-.14.12-.2l-.12.15c.05-.06.11-.11.17-.16l-.15.12c.11-.09.24-.16.37-.21l-.18.08c.18-.07.37-.13.57-.16l-.2.03c.09-.01.19-.02.28,0l-.2-.03s.1.02.14.04l-.18-.08s.07.04.1.06l-.15-.12s.05.04.07.07l-.12-.15s.05.08.07.12l-.08-.18c.06.16.1.32.12.49l-.03-.2c.05.36.04.75,0,1.11l.03-.2s0,.04-.02.06l.08-.18v.03c.02-.05.06-.1.1-.15l-.02.02.15-.12s-.05.03-.08.05l.18-.08c-.17.06-.35.1-.52.13l.2-.03c-.16.02-.32.03-.49.02l.2.03c-.06,0-.11-.02-.17-.04l.18.08s-.08-.04-.12-.07l.15.12c-.06-.05-.12-.11-.17-.18l.12.15c-.13-.17-.25-.34-.33-.53l.08.18c-.03-.08-.05-.16-.07-.24l.03.2s0-.1,0-.14l-.03.2c0-.06.02-.11.04-.17l-.08.18s.04-.08.07-.12l-.12.15s.05-.05.08-.08l-.15.12s.06-.04.09-.06l-.18.08h.03c.19-.08.34-.18.45-.35.09-.16.13-.4.08-.58s-.17-.36-.34-.45-.39-.15-.58-.08h0Z"/>
      <path class="cls-1" d="M153.15,23.12c.97,0,.97-1.5,0-1.5s-.97,1.5,0,1.5h0Z"/>
      <path class="cls-1" d="M163.11,23.43c.97,0,.97-1.5,0-1.5s-.97,1.5,0,1.5h0Z"/>
      <path class="cls-1" d="M163.18,23.82c.97,0,.97-1.5,0-1.5s-.97,1.5,0,1.5h0Z"/>
      <path class="cls-1" d="M163.03,23.51c.97,0,.97-1.5,0-1.5s-.97,1.5,0,1.5h0Z"/>
      <path class="cls-1" d="M163.18,22.81c.97,0,.97-1.5,0-1.5s-.97,1.5,0,1.5h0Z"/>
      <path class="cls-1" d="M163.81,21.17c-.26-.28-.54-.55-.84-.79-.07-.07-.15-.12-.24-.16-.09-.05-.19-.07-.29-.06-.1,0-.2.02-.29.06-.09.03-.17.08-.24.16-.13.14-.23.33-.22.53l.03.2c.04.13.1.24.19.33.3.25.58.51.84.79.07.07.15.12.24.16.09.05.19.07.29.06.1,0,.2-.02.29-.06.09-.03.17-.08.24-.16.13-.14.23-.33.22-.53l-.03-.2c-.04-.13-.1-.24-.19-.33h0Z"/>
      <path class="cls-1" d="M164.02,22.12l.44-.81c.09-.17.13-.38.08-.58-.02-.1-.07-.18-.13-.26-.05-.08-.12-.15-.21-.19-.17-.09-.38-.14-.58-.08-.18.06-.35.17-.45.34l-.44.81c-.09.17-.13.38-.08.58.02.1.07.18.13.26.05.08.12.15.21.19.17.09.38.14.58.08.18-.06.35-.17.45-.34h0Z"/>
      <path class="cls-1" d="M153.41,21.37c-.12-.17-.22-.35-.3-.54l.08.18c-.03-.08-.06-.15-.09-.23-.02-.1-.07-.18-.13-.26-.05-.08-.12-.15-.21-.19-.09-.05-.18-.08-.28-.09-.1-.02-.2-.02-.3.01l-.18.08c-.11.07-.2.16-.27.27-.09.17-.14.39-.08.58s.14.39.24.58c.07.13.14.26.23.38.05.09.11.16.19.21.07.07.16.11.26.13.1.03.2.04.3.01.1,0,.19-.03.28-.09.16-.1.3-.26.34-.45l.03-.2c0-.14-.03-.26-.1-.38h0Z"/>
      <path class="cls-1" d="M154.34,21.98c.07-.24.11-.48.13-.73.02-.19.03-.37.02-.56-.01-.2-.08-.39-.22-.53-.13-.13-.34-.23-.53-.22s-.4.07-.53.22-.23.33-.22.53,0,.41-.02.62l.03-.2c-.02.16-.06.31-.1.46-.05.18-.02.41.08.58.09.16.27.3.45.34.19.04.41.03.58-.08s.29-.26.34-.45h0Z"/>
      <path class="cls-1" d="M36.81,13.55c-.03-.05-.05-.11-.08-.16l.08.18c-.06-.15-.11-.3-.13-.46-.02-.1-.07-.18-.13-.26-.05-.08-.12-.15-.21-.19-.09-.05-.18-.08-.28-.09-.1-.02-.2-.02-.3.01l-.18.08c-.11.07-.2.16-.27.27l-.08.18c-.04.13-.04.27,0,.4.02.11.05.22.08.32.06.16.12.32.2.47.05.09.11.16.19.21.07.07.16.11.26.13.1.03.2.04.3.01.1,0,.19-.03.28-.09l.15-.12c.09-.09.16-.2.19-.33l.03-.2c0-.14-.03-.26-.1-.38h0Z"/>
      <path class="cls-1" d="M37.33,14.25c.03-.05.07-.11.11-.16l-.12.15c.11-.14.23-.26.36-.36l-.15.12s.05-.04.07-.05c.09-.05.16-.11.21-.19.07-.07.11-.16.13-.26.03-.1.04-.2.01-.3,0-.1-.03-.19-.09-.28l-.12-.15c-.09-.09-.2-.16-.33-.19l-.2-.03c-.14,0-.26.03-.38.1-.16.11-.32.23-.45.38-.05.05-.09.1-.13.15-.08.1-.16.2-.23.31-.05.09-.08.18-.09.28-.02.1-.02.2.01.3.02.1.07.18.13.26.05.08.12.15.21.19l.18.08c.13.04.27.04.4,0l.18-.08c.11-.07.2-.16.27-.27h0Z"/>
      <path class="cls-1" d="M48.4,11.94l-.38-.81c-.05-.09-.11-.16-.19-.21-.07-.07-.16-.11-.26-.13-.1-.03-.2-.04-.3-.01-.1,0-.19.03-.28.09-.16.1-.3.26-.34.45l-.03.2c0,.14.03.26.1.38l.38.81c.05.09.11.16.19.21.07.07.16.11.26.13.1.03.2.04.3.01.1,0,.19-.03.28-.09.16-.1.3-.26.34-.45l.03-.2c0-.14-.03-.26-.1-.38h0Z"/>
      <path class="cls-1" d="M48.8,12.64c.1-.23.23-.44.38-.64l-.12.15s.05-.07.08-.1c.07-.07.12-.15.16-.24.05-.09.07-.19.06-.29,0-.1-.02-.2-.06-.29-.03-.09-.08-.17-.16-.24-.14-.13-.33-.23-.53-.22l-.2.03c-.13.04-.24.1-.33.19-.23.27-.43.56-.58.89-.05.09-.08.18-.09.28-.02.1-.02.2.01.3.02.1.07.18.13.26.05.08.12.15.21.19l.18.08c.13.04.27.04.4,0l.18-.08c.11-.07.2-.16.27-.27h0Z"/>
      <path class="cls-1" d="M48.25,13.73c.97,0,.97-1.5,0-1.5s-.97,1.5,0,1.5h0Z"/>
      <path class="cls-1" d="M36.78,15.24c.97,0,.97-1.5,0-1.5s-.97,1.5,0,1.5h0Z"/>
      <path class="cls-1" d="M33.93,43.89c-1.29-.22-1.28-1.71-1.08-2.73.22-1.12.72-1.92,2-1.61,2.14.51,2.72,3.12,1.22,4.62l1.25.73c.35-1.79,2.55-3.92,4.39-2.46.8.64.79,1.7.13,2.44-.74.82-1.9.9-2.92.77-.96-.12-.94,1.38,0,1.5,1.47.19,4.12.69,4.14,2.66,0,.64-.46,1.38-1.16,1.35-.82-.04-1.47-.94-1.93-1.51-.35-.44-1.14-.18-1.25.33-.19.83-.37,1.66-.56,2.49-.11.5-.21,1.42-.71,1.7-.68.37-1.48-.65-1.76-1.16-.36-.64-.51-1.39-.4-2.11.14-.93-1.26-1.36-1.45-.4-.49,2.54-3.88,2.57-4.49.08-.55-2.26,1.07-5.05,3.65-4.56.94.18,1.35-1.27.4-1.45-3.88-.74-6.65,3.4-5.33,6.91.58,1.55,2.11,2.6,3.79,2.5s3.12-1.43,3.44-3.08l-1.45-.4c-.3,2.03.73,4.97,3.12,5.23,2.61.29,2.83-3.64,3.22-5.35l-1.25.33c.8,1,1.84,2.04,3.22,1.95,1.19-.08,2.12-1.09,2.36-2.22.27-1.25-.36-2.49-1.3-3.29-1.21-1.03-2.76-1.29-4.28-1.49v1.5c1.57.2,3.28-.21,4.25-1.54.92-1.25.88-2.95-.23-4.07-2.54-2.57-6.49-.02-7.07,2.97-.14.71.69,1.29,1.25.73,2.55-2.56.96-7.12-2.75-7.25s-4.47,6.74-.86,7.36c.94.16,1.35-1.28.4-1.45h0Z"/>
      <path class="cls-1" d="M47.57,61.92c.28.03.16.07.29-.18.06-.11.09-.24.14-.35.11-.23.24-.45.4-.65.39-.46.88-.58,1.44-.34.46.2,1.11.61,1.34,1.08.26.53-.52.71-.9.82-.93.28-.54,1.67.4,1.45.78-.18,1.57-.32,2.37-.39.3-.02.75-.13,1.04-.04.31.09.33.36.41.68.15.6.19,1.24-.46,1.53-.69.3-1.48.04-2.16-.15-.88-.24-1.22.88-.58,1.37,1.06.8,3.74,1.09,3,3.03-.28.73-1.12,1.13-1.87,1.02-.88-.12-1.48-.88-1.68-1.7-.17-.71-1.28-.72-1.45,0s-.44,1.39-.85,2.01c-.21.31-.44.59-.71.86-.1.1-.38.42-.52.45l.08.07c-.07-.09-.14-.19-.2-.28-.42-.6-.93-1.32-.8-2.09.1-.64.61-1.12,1.22-1.28.68-.18.75-1.31,0-1.45-1.37-.24-3.06-.49-3.9-1.75-.3-.45-.61-1.37-.03-1.73.64-.4,1.95-.09,2.63.05.94.19,1.35-1.25.4-1.45-1.12-.23-2.63-.51-3.7.05-1.01.52-1.3,1.72-1.06,2.77.57,2.41,3.14,3.14,5.25,3.51v-1.45c-1.08.29-1.98,1.14-2.26,2.24-.33,1.34.37,2.57,1.14,3.61.88,1.19,2.01.6,2.87-.29.93-.96,1.57-2.16,1.87-3.45h-1.45c.3,1.26,1.25,2.37,2.53,2.71s2.7-.14,3.48-1.2c.72-.98.78-2.4.11-3.43-.79-1.23-2.28-1.3-3.37-2.13l-.58,1.37c1.11.3,2.34.56,3.41-.04s1.34-1.65,1.15-2.75-.61-2.11-1.85-2.2-2.67.19-3.91.48l.4,1.45c1.1-.33,2.32-1.05,2.05-2.4-.25-1.22-1.74-2.29-2.9-2.54-1.28-.27-2.37.47-2.99,1.55s-.96,2.88.73,3.04c.96.09.95-1.41,0-1.5h0Z"/>
      <path class="cls-1" d="M154.14,50.71c-.13-.29-.41-.87-.28-1.2.15-.39.99-.29,1.32-.25,1.13.13.99,1.23.56,2.01-.47.85.77,1.56,1.3.76.36-.54.86-.97,1.46-1.21.36-.15,1.51-.5,1.78-.09.29.43-.2,1.2-.47,1.49-.41.43-.96.67-1.55.67-.74,0-1.03,1.02-.38,1.4.99.57,1.59,1.72,1.43,2.86-.09.63-.42,1.05-1.02.59-.52-.4-.83-1.11-1.25-1.61-.39-.47-1.08-.15-1.25.33-.26.7-.52,1.4-.78,2.1-.2.55-.37,1.08-.99.64-.47-.33-.95-.88-1.15-1.43-.14-.37-.14-1.04.31-1.22.79-.31.67-1.4-.2-1.47-.79-.07-3.39.15-3.24-1.25s2.27-1.29,3.26-1.24.96-1.45,0-1.5c-1.09-.05-2.26-.08-3.25.47-.81.45-1.47,1.32-1.51,2.27s.59,1.81,1.45,2.24c1.03.52,2.18.41,3.29.5l-.2-1.47c-.94.37-1.52,1.23-1.5,2.25.02,1.15.81,2.22,1.67,2.91s2.04.94,2.84.02c.35-.41.52-.94.7-1.43.25-.67.49-1.33.74-2l-1.25.33c.68.81,1.11,1.8,2.2,2.16s2.09-.28,2.46-1.32c.67-1.88-.32-4.06-2-5.03l-.38,1.4c1.1-.01,2.14-.5,2.83-1.36s1.03-2.08.49-3.06c-.58-1.05-2.04-1-3.05-.73-1.16.3-2.13,1.04-2.79,2.04l1.3.76c.44-.79.69-1.76.42-2.65-.31-1.04-1.24-1.53-2.27-1.62-.94-.08-2.11,0-2.62.94-.48.88-.12,1.93.27,2.77s1.69.12,1.3-.76h0Z"/>
      <path class="cls-1" d="M163.13,69.42c.08-.7-.26-1.3-.56-1.9-.26-.51-.32-1.11.23-1.46.46-.3,1.12-.06,1.37.41.28.53,0,1.1-.42,1.44l1.18.91c.39-.59,1.03-.9,1.7-1.06.43-.1,1.44-.35,1.73.11.26.42-.04,1.02-.4,1.27-.62.45-1.49.45-2.22.45-.88,0-.97,1.19-.2,1.47.66.24,1.36.48,1.9.94.26.22,1.01,1.06.67,1.44-.24.27-1.17.15-1.47.08-.52-.12-.92-.36-1.14-.86-.24-.54-1.03-.44-1.3,0-.34.57-.4,1.2-.43,1.85-.01.29,0,1.16-.45,1.15s-.86-.87-1-1.2c-.19-.42-.42-1.08-.08-1.48.4-.47.16-1.29-.53-1.28-.77.01-1.51-.16-2.18-.54-.53-.3-1.18-.82-1.24-1.48-.06-.74.89-.61,1.33-.43.79.33,1.53.88,2.26,1.32.83.5,1.58-.8.76-1.3-1.06-.63-2.22-1.58-3.49-1.67-1.12-.08-2.22.61-2.34,1.79-.25,2.47,2.88,3.85,4.91,3.81l-.53-1.28c-1.26,1.47-.3,4.19,1.35,5.03.88.45,1.87.12,2.36-.72.24-.41.33-.9.37-1.37s-.02-1,.24-1.44h-1.3c.39.87,1.26,1.4,2.18,1.57s2.2.17,2.87-.58c.75-.84.34-2.17-.27-2.96-.76-.98-1.92-1.43-3.05-1.84l-.2,1.47c1.21,0,2.59-.13,3.48-1.06.71-.74.95-2.01.43-2.91-.64-1.11-2-1.06-3.11-.86-1.18.21-2.25.8-2.91,1.81-.5.76.56,1.41,1.18.91,1.84-1.5.78-4.67-1.67-4.55-1.06.05-1.99.85-2.23,1.89-.13.57-.02,1.13.21,1.66.21.48.56.91.5,1.45-.05.41.38.75.75.75.44,0,.71-.35.75-.75h0Z"/>
      <path class="cls-1" d="M68.56,39.88c2.4.4,4.76,1.02,7.04,1.86l-.33-1.25c-.85.94-1.33,2.29-.86,3.53.41,1.09,1.57,1.87,2.74,1.75,2.76-.28,3.15-4.48,1.11-5.89-1.1-.76-2.71-.68-3.64.32-.66.71.4,1.77,1.06,1.06.5-.54,1.39-.5,1.91,0,.61.61.6,1.67.19,2.39s-1.19.84-1.75.22c-.61-.68-.26-1.72.29-2.32.4-.44.2-1.06-.33-1.25-2.29-.84-4.64-1.47-7.04-1.86-.4-.07-.8.11-.92.52-.1.36.12.86.52.92h0Z"/>
      <path class="cls-1" d="M138.73,56.04c-.93-.21-1.85-.14-2.79-.04-.76.08-1.57.17-2.31-.08s-.99-.83-1.43-1.36c-.49-.59-1.21-.93-1.98-.85-1.66.17-2.61,1.72-2.53,3.29.08,1.47.88,3.28,2.46,3.63,2.12.47,3.22-2.22,3.08-3.91-.08-.96-1.58-.96-1.5,0,.06.77-.1,1.68-.69,2.24-.52.49-1.08,0-1.39-.48-.6-.91-.85-3.04.63-3.28.66-.11.97.6,1.32,1.04.44.56,1.02.94,1.7,1.14,1.67.49,3.37-.29,5.03.09.94.22,1.34-1.23.4-1.45h0Z"/>
      <path class="cls-1" d="M180.48,51.56c1.06-.17,2.13-.34,3.19-.51l-.95-.72c.1,1.36.82,2.59,1.98,3.32,1.08.69,2.84.95,3.69-.24.77-1.08.42-2.98-.26-4.02-.72-1.1-1.92-1.62-3.21-1.39s-2.42,1.18-2.67,2.46c-.08.4.11.81.52.92.37.1.84-.12.92-.52.16-.8.91-1.36,1.69-1.41.39-.03.74.04,1.07.29.42.32.64.83.76,1.33.09.39.23,1.18-.07,1.52-.25.28-.82.16-1.12.06-.97-.33-1.72-1.29-1.79-2.31-.04-.52-.45-.8-.95-.72-1.06.17-2.13.34-3.19.51-.4.06-.62.56-.52.92.12.43.52.59.92.52h0Z"/>
    </g>
  </g>
</svg>