<?xml version="1.0" encoding="UTF-8"?>
<svg id="_レイヤー_2" data-name="レイヤー_2" xmlns="http://www.w3.org/2000/svg" viewBox="0 0 152.26 180.6">
  <defs>
    <style>
      .cls-1 {
        fill: #c7b299;
      }
    </style>
  </defs>
  <g id="_メインページ" data-name="メインページ">
    <g>
      <path class="cls-1" d="M7.2,3.75C9.9-.78,15.94-.55,19.82,1.03c1.58.65,5.28,2.16,6.57,5.92,1.02,2.99,0,5.8-1.33,9.41-1.77,4.81-4.32,7.32-4.88,7.86-2.3,2.19-4.39,4.18-7.4,3.55-2.64-.56-5.17-2.96-6.36-5.91-.3-.74-.79-2.19-.63-7.14.2-6.03.29-9.05,1.43-10.95Z"/>
      <path class="cls-1" d="M19.64,70.66c-.35,5.88-5.32,9.43-9.08,10.38-1.54.39-5.13,1.29-7.69-1.4-2.03-2.13-2.34-5.39-2.72-9.55-.52-5.56.53-9.47.77-10.33.97-3.47,1.86-6.61,4.54-7.9,2.35-1.12,5.37-.47,7.52,1.52.54.5,1.52,1.54,3.39,6.23,2.28,5.72,3.42,8.58,3.27,11.04Z"/>
      <path class="cls-1" d="M51.13,61.14c-3.64-4.44-3.44-11.89-2.16-16.32.52-1.81,1.75-6.03,4.78-6.73,2.41-.55,4.67,1.41,7.57,3.92,3.87,3.35,5.88,7.12,6.31,7.96,1.76,3.39,3.36,6.46,2.84,10.04-.46,3.14-2.4,5.7-4.77,6.48-.6.19-1.77.45-5.75-.94-4.86-1.7-7.28-2.55-8.81-4.41Z"/>
      <path class="cls-1" d="M23.59,102.85c2.7-4.53,8.74-4.3,12.61-2.72,1.58.65,5.28,2.16,6.57,5.92,1.02,2.99,0,5.8-1.33,9.41-1.77,4.81-4.32,7.32-4.88,7.86-2.3,2.19-4.39,4.18-7.4,3.55-2.64-.56-5.17-2.96-6.36-5.91-.3-.74-.79-2.19-.63-7.15.2-6.03.29-9.05,1.43-10.95Z"/>
      <path class="cls-1" d="M36.02,169.76c-.35,5.88-5.32,9.43-9.08,10.38-1.54.39-5.13,1.29-7.69-1.4-2.03-2.13-2.34-5.39-2.72-9.55-.52-5.56.53-9.47.77-10.33.97-3.47,1.86-6.61,4.54-7.9,2.35-1.12,5.37-.47,7.52,1.52.54.5,1.52,1.54,3.39,6.23,2.28,5.72,3.42,8.58,3.27,11.04Z"/>
      <path class="cls-1" d="M67.51,160.24c-3.64-4.44-3.44-11.89-2.16-16.32.52-1.81,1.75-6.03,4.78-6.73,2.41-.55,4.67,1.41,7.57,3.92,3.87,3.35,5.88,7.12,6.31,7.96,1.76,3.39,3.36,6.46,2.84,10.04-.46,3.14-2.4,5.7-4.77,6.48-.6.19-1.77.45-5.75-.94-4.86-1.7-7.28-2.55-8.81-4.41Z"/>
      <path class="cls-1" d="M90.77,130.33c-4.55-2.65-6.6-9.99-6.79-14.89-.08-2-.26-6.68,2.22-8.76,1.96-1.65,4.56-.78,7.87.33,4.42,1.48,7.33,4.23,7.97,4.84,2.57,2.49,4.9,4.74,5.51,8.47.54,3.27-.42,6.66-2.29,8.51-.47.47-1.43,1.25-5.37,1.73-4.81.59-7.21.88-9.12-.23Z"/>
      <path class="cls-1" d="M138.66,106.15c4.74-.38,9.36,5.15,11.5,9.58.87,1.81,2.9,6.03,1.75,9.5-.92,2.75-3.36,3.56-6.49,4.6-4.17,1.38-7.63.65-8.39.48-3.08-.7-5.87-1.34-7.87-4.42-1.75-2.7-2.35-6.43-1.59-9.31.19-.73.65-2.05,3.64-4.96,3.64-3.54,5.47-5.31,7.46-5.47Z"/>
      <path class="cls-1" d="M119.57,69.33c-2.14,5.01-8.06,5.79-12,4.85-1.61-.39-5.38-1.29-7.04-4.86-1.32-2.84-.62-5.85.28-9.7,1.2-5.14,3.42-8.09,3.91-8.73,2.01-2.59,3.83-4.95,6.83-4.81,2.63.12,5.36,2.12,6.84,4.89.37.7,1.01,2.08,1.38,7.09.46,6.11.69,9.17-.21,11.27Z"/>
    </g>
  </g>
</svg>