<?xml version="1.0" encoding="UTF-8"?>
<svg id="_レイヤー_2" data-name="レイヤー_2" xmlns="http://www.w3.org/2000/svg" viewBox="0 0 390.23 346">
  <defs>
    <style>
      .cls-1 {
        fill: none;
        stroke: #c7b299;
        stroke-miterlimit: 10;
        stroke-width: 6px;
      }
    </style>
  </defs>
  <g id="_メインページ" data-name="メインページ">
    <g>
      <path class="cls-1" d="M213.55,299.57s118.64-77.67,130.61-168.92c.18-1.41.32-2.76.47-4.14.14-.9.3-1.78.42-2.69.63-4.8.9-9.57.89-14.28-.11-41.76-24.68-79.17-61.62-96.44-9.73-4.55-20.31-7.72-31.54-9.18s-22.27-1.13-32.85.77c-25.18,4.51-47.69,17.93-63.66,37.24-22.73-10.84-48.91-13.51-73.73-6.92-10.39,2.76-20.53,7.13-30.07,13.21-9.54,6.08-17.78,13.43-24.67,21.67C1.68,101.16-4.7,145.44,12.93,183.31c1.99,4.28,4.26,8.48,6.87,12.56.49.77,1.02,1.5,1.52,2.26.73,1.18,1.42,2.35,2.18,3.55,49.58,77.59,190.05,97.9,190.05,97.9"/>
      <path class="cls-1" d="M3,334.02c86.15,32.72,210.54-34.45,210.54-34.45"/>
      <path class="cls-1" d="M213.55,299.57s102.16,15.2,175.45-17.88"/>
    </g>
  </g>
</svg>