<?xml version="1.0" encoding="UTF-8"?>
<svg xmlns="http://www.w3.org/2000/svg" xmlns:xlink="http://www.w3.org/1999/xlink" version="1.1" viewBox="0 0 987.7 804">
  <defs>
    <style>
      .cls-1, .cls-2 {
        fill: none;
      }

      .cls-3 {
        fill: #e5d5cc;
      }

      .cls-2 {
        stroke: #c7b299;
        stroke-miterlimit: 10;
        stroke-width: 2px;
      }

      .cls-4 {
        clip-path: url(#clippath);
      }
    </style>
    <clipPath id="clippath">
      <rect class="cls-1" width="987" height="804"/>
    </clipPath>
  </defs>
  <!-- Generator: Adobe Illustrator 28.7.1, SVG Export Plug-In . SVG Version: 1.2.0 Build 142)  -->
  <g>
    <g id="_レイヤー_2">
      <g id="_メインページ">
        <g class="cls-4">
          <g>
            <path class="cls-3" d="M619.8-231c-129.4.3-223.2,44.7-286.8,90.1S207.7-25.2,180.9,31.8c-37.8,80.3-55.6,160.1-63.6,213.5-17,114.7,34.9,281,99.9,348.7,84,87.5,169,108.9,226.5,130.1,57.5,21.2,161.7,39.1,264.7,16.4,133.3-29.4,187.7-78.8,240.7-121.2,53-42.4,109.7-103.7,135.7-143.8,20.8-32.1,72.4-149.3,49.7-255.3-22.7-106-74.2-192.3-130.2-251.4s-123.8-91-175.6-124.2c-37-23.7-119.6-75.9-208.9-75.7h0Z"/>
            <path class="cls-2" d="M626.7-280.8c-142.1.3-245.2,49.1-315,99C241.8-131.8,174-54.7,144.5,7.9c-41.6,88.2-61.1,175.9-69.8,234.6-18.7,126,38.3,308.7,109.7,383.1,92.3,96.1,185.6,119.6,248.8,142.9s177.7,43,290.7,18.1c146.4-32.3,206.2-86.5,264.3-133.1,58.2-46.6,120.5-114,149-158,22.8-35.2,79.6-164,54.6-280.5S1110.5,3.8,1049-61.1c-61.5-64.9-136-100-192.8-136.4-40.7-26.1-131.3-83.4-229.4-83.2Z"/>
          </g>
        </g>
      </g>
    </g>
  </g>
</svg>