<?xml version="1.0" encoding="UTF-8"?>
<svg id="_レイヤー_2" data-name="レイヤー_2" xmlns="http://www.w3.org/2000/svg" xmlns:xlink="http://www.w3.org/1999/xlink" viewBox="0 0 1199.13 1085.76">
  <defs>
    <style>
      .cls-1, .cls-2 {
        fill: none;
      }

      .cls-3 {
        fill: #e5d5cc;
      }

      .cls-2 {
        stroke: #c7b299;
        stroke-miterlimit: 10;
        stroke-width: 2px;
      }

      .cls-4 {
        clip-path: url(#clippath);
      }
    </style>
    <clipPath id="clippath">
      <rect class="cls-1" y="281.76" width="987" height="804"/>
    </clipPath>
  </defs>
  <g id="_メインページ" data-name="メインページ">
    <g class="cls-4">
      <path class="cls-3" d="M619.8,50.8c-129.4.26-223.24,44.67-286.81,90.1-63.57,45.43-125.25,115.66-152.11,172.64-37.84,80.26-55.64,160.12-63.57,213.52-17.03,114.71,34.86,280.97,99.89,348.68,84,87.45,168.96,108.88,226.48,130.08,57.51,21.2,161.74,39.15,264.66,16.43,133.31-29.42,187.68-78.75,240.65-121.15,52.97-42.4,109.73-103.73,135.68-143.77,20.78-32.07,72.43-149.26,49.73-255.26-22.7-106-74.16-192.32-130.16-251.38-56-59.06-123.8-91.03-175.57-124.18-37.04-23.71-119.57-75.9-208.86-75.72Z"/>
      <path class="cls-2" d="M626.67,1c-142.14.29-245.22,49.09-315.04,99-69.83,49.92-137.58,127.09-167.08,189.69-41.56,88.19-61.12,175.93-69.83,234.61-18.7,126.04,38.29,308.73,109.73,383.12,92.27,96.09,185.6,119.63,248.77,142.93,63.17,23.3,177.66,43.02,290.71,18.06,146.43-32.33,206.15-86.52,264.34-133.11,58.19-46.59,120.53-113.98,149.04-157.97,22.83-35.23,79.56-164,54.62-280.47-24.94-116.47-81.46-211.32-142.97-276.21-61.51-64.89-135.99-100.02-192.85-136.44C815.41,58.14,724.76.8,626.67,1Z"/>
    </g>
  </g>
</svg>