<?xml version="1.0" encoding="UTF-8"?>
<svg id="_レイヤー_2" data-name="レイヤー_2" xmlns="http://www.w3.org/2000/svg" viewBox="0 0 1366 210">
  <defs>
    <style>
      .cls-1 {
        fill: #f3ecd8;
      }

      .cls-2 {
        fill: #e5d5cc;
      }
    </style>
  </defs>
  <g id="aboutページ">
    <path class="cls-1" d="M0,.25c102.13,58.79,248.78,102.37,530.09,121.92,151.08,10.5,317.98,6.91,468.77,17.6,173.38,12.29,243.21,41.8,367.15,70.23,0-72.49-.1-133.09-.1-209.75-510.59,0-876.21-.56-1365.9,0Z"/>
    <path class="cls-2" d="M0,210c187.06-7.24,262.03-92.06,442.66-116.2,58.54-7.82,119.92-9.65,179.09-16.31,46.91-5.28,92.21-13.57,139.5-18.03,55.66-5.25,112.86-5.07,169.6-5.62,81.46-.79,163.66-3.17,241.95-13.87C1251.09,29.26,1315.57,30.32,1366,0,902.05,0,469.89,0,.05,0c0,78.06-.05,135.6-.05,210Z"/>
  </g>
</svg>